/* XPM */
static char *animation25[] = {
/* columns rows colors chars-per-pixel */
"64 53 132 2 ",
"   c #150C02",
".  c #1A0E02",
"X  c #1D1204",
"o  c #231505",
"O  c #281706",
"+  c #261807",
"@  c #291906",
"#  c #241609",
"$  c #261909",
"%  c #2B1D0C",
"&  c #321D07",
"*  c #311E0A",
"=  c #2D1E10",
"-  c #2E210D",
";  c #33230D",
":  c #39260D",
">  c #37280F",
",  c #3B290E",
"<  c #342512",
"1  c #392712",
"2  c #372813",
"3  c #3C2A14",
"4  c #31271A",
"5  c #362A1A",
"6  c #3D2D19",
"7  c #3F3019",
"8  c #412E14",
"9  c #412E1A",
"0  c #453216",
"q  c #4A3415",
"w  c #4E3917",
"e  c #45331B",
"r  c #49361C",
"t  c #4D391D",
"y  c #513B16",
"u  c #593F17",
"i  c #533D1D",
"p  c #593F1B",
"a  c #463420",
"s  c #493720",
"d  c #473822",
"f  c #4D3B21",
"g  c #493E2A",
"h  c #513E21",
"j  c #423E31",
"k  c #55401E",
"l  c #5B441D",
"z  c #5F481F",
"x  c #61471D",
"c  c #63491E",
"v  c #49402A",
"b  c #554223",
"n  c #5B4523",
"m  c #5E4923",
"M  c #564528",
"N  c #594628",
"B  c #5C492B",
"V  c #524D3D",
"C  c #5A513F",
"Z  c #614722",
"A  c #634B24",
"S  c #694D25",
"D  c #644D2A",
"F  c #694E2A",
"G  c #6C5125",
"H  c #66502C",
"J  c #6C532A",
"K  c #735226",
"L  c #73552C",
"P  c #79572C",
"I  c #74592D",
"U  c #7C5A2D",
"Y  c #664F30",
"T  c #625135",
"R  c #6D5431",
"E  c #735631",
"W  c #795733",
"Q  c #765A31",
"!  c #7B5C33",
"~  c #715739",
"^  c #775A3B",
"/  c #7C5D38",
"(  c #5A5644",
")  c #5D594A",
"_  c #655640",
"`  c #695F4A",
"'  c #796143",
"]  c #646151",
"[  c #815D2E",
"{  c #825E33",
"}  c #825F38",
"|  c #846135",
" . c #8A6335",
".. c #84623A",
"X. c #8B653A",
"o. c #8D683B",
"O. c #90653B",
"+. c #936A3C",
"@. c #9A6D3D",
"#. c #9E703E",
"$. c #806241",
"%. c #8A6741",
"&. c #876946",
"*. c #8D6941",
"=. c #956D42",
"-. c #996E40",
";. c #9C7142",
":. c #9C754B",
">. c #987450",
",. c #9C7A54",
"<. c #9C7D5C",
"1. c #A47545",
"2. c #A77845",
"3. c #AB7947",
"4. c #A27548",
"5. c #A5794A",
"6. c #AB7B4B",
"7. c #B37E4B",
"8. c #A07A53",
"9. c #AB7F53",
"0. c #B3804E",
"q. c #AA8053",
"w. c #B38252",
"e. c #BA8451",
"r. c #BF8956",
"t. c #B3865B",
"y. c #B88658",
"u. c #B5895F",
"i. c #BC8B5E",
"p. c #CC915E",
"a. c #C49263",
"s. c None",
/* pixels */
"B b H H B s.s.s.s.s.s.s.s.s.s.s.s.s.s.s.s.s.s.s.s.s.s.s.s.s.s.s.s.s.s.s.s.s.s.s.s.s.s.s.s.s.s.s.s.s.s.s.s.s.s.s.s.s.s.B Y F b M ",
"B b D I I ! / / ^ s.s.s.s.s.s.s.s.s.s.s.s.s.s.s.s.s.s.s.s.s.s.s.s.s.s.s.s.s.s.s.s.s.s.s.s.s.s.s.s.s.s.s.s.s.s.~ ^ / ! U I J M M ",
"B k D I | J J U | O.=.*.&.' s.s.s.s.s.s.s.s.s.s.s.s.s.s.s.s.s.s.s.s.s.s.s.s.s.s.s.s.s.s.s.s.s.s.s.s.s.$.o.O.+.{ U E J { I J b M ",
"M t c I | | I I I I !  .@.;.:.:.8.s.s.s.s.s.s.s.s.s.s.s.s.s.s.s.s.s.s.s.s.s.s.s.s.s.s.s.s.s.s.,.:.:.1.@.O.{ U W Q Q Q X.I J t b ",
"b q A J { { U I {  .X..... .O.@.;.6.9.9.t.>.s.s.s.s.s.s.s.s.s.s.s.s.s.s.s.s.s.s.s.s.s.8.9.6.6.5.-.+.} .. . .{ } P I U  .K J t b ",
"M k G K { U U G N A J !  .+.@.#.;.-.-.-.6.7.w.y.u.<.s.s.s.s.s.s.s.s.s.s.s.s.s.t.t.w.w.7.2.@.-.=.;.;.@.O.} K S B m U U  .K I f n ",
"N w S I U U [ I D D D D D S J { X.-.1.5.2.6.2.2.e.a.s.s.s.s.s.s.s.s.s.s.s.s.9.a.7.1.2.3.5.2.;.+.| I F S D D B D G | U [ K L i n ",
"N k S K { U [ I D F L U I Q W J J R L !  .#.3.0.6.a.s.s.s.s.s.s.s.s.s.s.s.s.5.p.5.7.1.+.} L E R R R W Q U W J F G U U | K L f b ",
"b k G I U U [ I D F J I I U ! U ! ../ Q Q / Q ;.2.i.s.s.s.s.s.s.s.s.s.s.s.s.5.e.5...Q W W W ..} ! U | I I I H D J ! U [ I K k l ",
"M k c G U P [ I D F H L I U ! Q / ../ | ..o./ o.1.y.s.s.s.s.s.s.s.s.s.s.s.s.4.7.;./ ....} } ....! ! U I I I D H K ! I [ K G k b ",
"M r A G U U U G D Z D I L U Q Q ! | / ! / X.! o.@.w.s.s.s.s.s.s.s.s.s.s.s.s.4.6.=.! ..../ ! { | Q Q I I K J m D G ! I { G G e b ",
"M t c G U U U L n D H L L I Q I ! ! / / / | I X.+.9.s.s.s.s.s.s.s.s.s.s.s.s.-.2.+.Q ..! ! ! ! ! Q Q Q J J G D B A U I U G S k v ",
"M k z G U U P J Z Z D J G I I I I ! Q Q W { I ..+.5.s.s.s.s.s.s.s.s.s.s.s.s.=.;.o.E ! / ! Q ! ! I Q L J G H D A G U K [ G S k v ",
"N k m G [ K P G D B A H J J I I Q ! Q I Q ! I .. .4.s.s.s.s.s.s.s.s.s.s.s.s.*.@...I ! ! I I Q Q L I I J G D m m S U K | G G k k ",
"v k m S P K P J B B Z D G H L J J Q I L Q ! L ! ..:.s.s.s.s.s.s.s.s.s.s.s.s.X.+...J Q Q I I Q E J I J H D A m B A I G U G A e b ",
"k k z c P K K H n m B A D S L H H L L L I Q H U { =.s.s.s.s.s.s.s.s.s.s.s.s...O...J I Q L J I J H I J A D z B m A I G U c m k k ",
"m w z m I G K K n N B B A A H S J J J J I L H Q { =.s.s.s.s.s.s.s.s.s.s.s.s. . ./ H L I J J L J G G H m Z B n n A I G U S A w n ",
"k k l c I G G G D D D D D G S F S J J J J I D J ! *.s.s.s.s.s.s.s.s.s.s.s.s.}  .Q D J J H J J J H G G G F D D D D J D U c A t k ",
"N 0 l c I G m J J L L J I I I P U Q Q Q Q Q R E Q &.s.s.s.s.s.s.s.s.s.s.s.s.W } Q R Q I U Q W ! I I L I L F L K J G A U c A w k ",
"N k l z K | ! ! ! { ! { | ! ! { { | { ..| | | | I X.s.s.s.s.s.s.s.s.s.s.s.s.W W Q / | | | } { { | / ! ! { W { [ ! ! U U A n t b ",
"N q k m A A K K K [ [ [  .{ O.+.O.@.+.+.#.@.@.;.| ..s.s.s.s.s.s.s.s.s.s.s.s.W { =.@.@.#.+.@.@.+.o.+. . .[ [ [ K K K S A l n e k ",
"b 0 i n G n h i h h p b n x Z Z Z S S K L K I U [ ! s.s.s.s.s.s.s.s.s.s.s.s.J { U I P K K S S Z m c m l b l h h h h p H B l 0 b ",
"N 0 p l K S n n S Z S F S S K F J J K I L L I K S ^ s.s.s.s.s.s.s.s.s.s.s.s.F I D L I L L L L F J G D G S S Z S Z n c K z l q b ",
"N q p l S Z m w 9 9 r w q q q i i i h b b Z h F D Q s.s.s.s.s.s.s.s.s.s.s.s.F L F Z n b b h p i t t q w w r e 9 e n z J z z 0 k ",
"M 7 k l c c Z h r s d r t f h h s h h h h N f Z Z E s.s.s.s.s.s.s.s.s.s.s.s.J F D i h h h h h f h h f t t s s s t m x S x l 0 t ",
"M 7 k l A x A i f h f s h h p h n b n p i l h n Z R s.s.s.s.s.s.s.s.s.s.s.s.D F Z i b b h b l b n p h h t s f h h m l S l l 7 i ",
"l , w k D x m k t f f t h f h p b l b b h h h N n R s.s.s.s.s.s.s.s.s.s.s.s.D D n h h h h b l b b h h h f s h s t B l J p p , k ",
"b , w k S l l b t s s r i t t h h h b h h h h b n R s.s.s.s.s.s.s.s.s.s.s.s.D D b f b h h b h h p h t t f r s s f n l S y k 3 i ",
"b 7 t y c c l h s s s e t t t h f h h i t h f b f ` j s.s.s.s.s.s.s.s.s.s.s._ T h f h s h h h t i i r s t s s s t b l K y i 6 i ",
"z , i y A z b i e e e s s s s h f f h f t h s h d V ] s.s.s.s.s.s.s.s.s.s.) ) v h f f i s h h h h f t s s e e e t l l c p i 3 i ",
"b > w k c x k t s e s t f r r f t s f f d f a h d ( V s.s.s.s.s.s.s.s.s.s.s.( g h a s s s h s s f t t t r e a a t p l c i i , i ",
"b > r t z l l t e s e e t r s t h r r f t f e d e 4 s.s.s.s.s.s.s.s.s.s.s.s.4 5 h e s s t s t s f s r r r e e e w b k c i i , r ",
"i ; r t l x h t 9 a e e r e r t t t s s s r e f d M s.s.s.s.s.s.s.s.s.s.s.s.f h f e r d r d t d t r r r q 9 e s e h p A y t : r ",
"b ; r t h p i t 9 e 6 7 r r r s f d r r r a 9 r t f s.s.s.s.s.s.s.s.s.s.s.s.r t d 7 a e r r r d t r r r e 9 9 9 q h i A w t ; r ",
"v ; q w x p h t 9 9 8 e e r r r r s t t t f t t e d s.s.s.s.s.s.s.s.s.s.s.s.e r r r i t t t r t r r r r e 9 9 9 r h p A w w ; t ",
"b , r w m p t r 9 a e t t t t h h h b k i l n m t t s.s.s.s.s.s.s.s.s.s.s.s.e r b n l l k i f f b f t t t r e 9 e h w Z t t > i ",
"b > 0 t b i t r s t w t p i b l n Z D A c x l l i a s.s.s.s.s.s.s.s.s.s.s.s.e r b l l x c A Z m b N k p i t i e r t w m w t > t ",
"h , 0 r p u e h h N Z Z c x c l l i t q 0 0 0 8 2 a s.s.s.s.s.s.s.s.s.s.s.s.6 9 2 8 0 0 q q y l l z c c x Z Z h b r w z e r > k ",
"k ; 0 r i x p i i p y q 0 3 8 6 8 e 0 e 0 0 e e 6 7 s.s.s.s.s.s.s.s.s.s.s.s.2 6 9 e e 0 9 r e e 7 7 , 0 0 q y u t l z l q r ; t ",
"f - 0 r 8 8 1 1 1 1 3 8 e 0 e e 0 8 , ; ; % % < < 7 s.s.s.s.s.s.s.s.s.s.s.s.2 6 2 - % % * , 3 8 0 0 0 e 0 6 1 3 ; > , 7 q 0 - r ",
"b $ 3 0 w 0 6 6 0 6 6 3 > ; - ; % - ; ; < < - < 2 5 s.s.s.s.s.s.s.s.s.s.s.s.2 2 5 % ; < < - - % - - - ; 1 3 9 9 e 6 8 r 8 r @ r ",
"f - 7 0 w e 6 ; + # o @ % - < 2 2 2 < 6 2 < - < < 6 s.s.s.s.s.s.s.s.s.s.s.s.5 2 < % ; < 6 2 5 2 > < ; - % O o # @ 1 0 t r 8 % e ",
"f + 3 0 w 0 8 < # - - - < 6 > ; 2 2 < < 2 < - - = 5 s.s.s.s.s.s.s.s.s.s.s.s.< < - + - < < < 2 2 < ; 1 3 ; % % # - 8 6 y 0 0 @ e ",
"b + 3 0 q 8 8 1 - % % % ; 1 ; - < 1 ; < < - + $ % 2 s.s.s.s.s.s.s.s.s.s.s.s.4 = - X - - < < < < ; - < 1 - * % = ; 0 8 q 8 0 O r ",
"i O : : 8 8 1 1 = = = = - < ; - < < - - - - X % $ 4 s.s.s.s.s.s.s.s.s.s.s.s.= % - X $ 4 - - < < - - ; ; = % = = ; 3 8 0 : 8 o 0 ",
"t O : , 8 8 8 2 = % % % ; ; - % - ; - - - - X $ % - s.s.s.s.s.s.s.s.s.s.s.s.% % - X X = - % < ; - - - ; = % % % ; 8 , q : : O e ",
"d $ : , 8 9 6 2 = % = % - < % % - - - $ % = X $ $ % s.s.s.s.s.s.s.s.s.s.s.s.# # $ X # = $ % = - % % - > = % = = < 3 3 q : 1 o q ",
"f @ * * 8 8 2 < % % = % % ; % % % % $ # # $ . X # # s.s.s.s.s.s.s.s.s.s.s.s.o o #   X $ + $ $ % % % - - # % % % ; 3 1 8 : ; O 0 ",
"d + ; ; , 8 : < # # % % % = % # % % O o o X   X X $ s.s.s.s.s.s.s.s.s.s.s.s.X X X   . o o o @ @ % $ % % # % # # % 1 , 8 * 1 o 9 ",
"d + * : 8 1 < = # # # O o % % # o O o o o . . . X X s.s.s.s.s.s.s.s.s.s.s.s.. o .   . . o o @ O # $ % $ O # # # % 2 * 8 : : o 9 ",
"d o * * , : ; @ # # o o o % # # o o o X X o o o   X s.s.s.s.s.s.s.s.s.s.s.s.  . . o X o X o O o O o % # o O X o o < * 8 & ; o 0 ",
"t o % * , ; ; % X X . o X O # # o O o o o O O O o   s.s.s.s.s.s.s.s.s.s.s.s.  . o O @ o o o @ o o O $ X o X . o o ; % 8 * ; X e ",
"d X = ; : ; ; % X . . . o O & O @ @ * ; O O o .   s.s.s.s.s.s.s.s.s.s.s.s.s.s.s.. . X O & ; @ O @ % % o X . . X o ; @ 1 & * . e "
};
