/* XPM */
static char *animation37[] = {
/* columns rows colors chars-per-pixel */
"64 53 105 2 ",
"   c #170E04",
".  c #1B0F02",
"X  c #1D1104",
"o  c #231505",
"O  c #261906",
"+  c #291A07",
"@  c #241708",
"#  c #26190A",
"$  c #2B1D0B",
"%  c #311F0B",
"&  c #2A1E10",
"*  c #2F200D",
"=  c #33230D",
"-  c #39260F",
";  c #3B2A0F",
":  c #2F2313",
">  c #342511",
",  c #382610",
"<  c #372812",
"1  c #3D2B14",
"2  c #372B18",
"3  c #3A2D1A",
"4  c #343125",
"5  c #393022",
"6  c #3E3B2C",
"7  c #412E14",
"8  c #412F18",
"9  c #443116",
"0  c #4A3616",
"q  c #4E3816",
"w  c #45321A",
"e  c #49361B",
"r  c #4D391C",
"t  c #503817",
"y  c #533D1D",
"u  c #473621",
"i  c #4A3720",
"p  c #453A24",
"a  c #4D3A21",
"s  c #513E21",
"d  c #423F32",
"f  c #56401E",
"g  c #5B441E",
"h  c #60481F",
"j  c #554122",
"k  c #5B4522",
"l  c #5E4924",
"z  c #554329",
"x  c #5A462B",
"c  c #53482F",
"v  c #5E4A28",
"b  c #4D4635",
"n  c #4D4B3C",
"m  c #5B4D34",
"M  c #524D3B",
"N  c #624721",
"B  c #644B24",
"V  c #694E25",
"C  c #644D2A",
"Z  c #694F29",
"A  c #6D5126",
"S  c #66512D",
"D  c #6D532A",
"F  c #745426",
"G  c #72552B",
"H  c #7B572C",
"J  c #75582E",
"K  c #7B5A2D",
"L  c #674F30",
"P  c #645332",
"I  c #6C5333",
"U  c #6F5934",
"Y  c #735633",
"T  c #765932",
"R  c #7B5C33",
"E  c #73593A",
"W  c #7B5C3A",
"Q  c #7E6035",
"!  c #7D603A",
"~  c #825D2E",
"^  c #805E32",
"/  c #815F39",
"(  c #866133",
")  c #8A6436",
"_  c #83623B",
"`  c #8C6539",
"'  c #8D6839",
"]  c #906738",
"[  c #92693C",
"{  c #816442",
"}  c #886743",
"|  c #8B6941",
" . c #846A4B",
".. c #916E44",
"X. c #9B7143",
"o. c #94724B",
"O. c #99734A",
"+. c #9C7952",
"@. c #A27545",
"#. c #AA7847",
"$. c #A57A4D",
"%. c #A97E4F",
"&. c #B27F4C",
"*. c #B18151",
"=. c None",
/* pixels */
"I P p =.=.=.=.=.=.=.=.=.=.=.=.=.=.=.=.=.=.=.=.=.=.=.=.=.=.=.=.=.=.=.=.=.=.=.=.=.=.=.=.=.=.=.=.=.=.=.=.=.=.=.=.=.=.=.=.=.=.=.a v ",
"A D S m =.=.=.=.=.=.=.=.=.=.=.=.=.=.=.=.=.=.=.=.=.=.=.=.=.=.=.=.=.=.=.=.=.=.=.=.=.=.=.=.=.=.=.=.=.=.=.=.=.=.=.=.=.=.=.=.L S j v ",
"D D B R E =.=.=.=.=.=.=.=.=.=.=.=.=.=.=.=.=.=.=.=.=.=.=.=.=.=.=.=.=.=.=.=.=.=.=.=.=.=.=.=.=.=.=.=.=.=.=.=.=.=.=.=.=.=.E R D j l ",
"A B V J K _ =.=.=.=.=.=.=.=.=.=.=.=.=.=.=.=.=.=.=.=.=.=.=.=.=.=.=.=.=.=.=.=.=.=.=.=.=.=.=.=.=.=.=.=.=.=.=.=.=.=.=.=._ R J G a l ",
"A B B ~ K ~ ..=.=.=.=.=.=.=.=.=.=.=.=.=.=.=.=.=.=.=.=.=.=.=.=.=.=.=.=.=.=.=.=.=.=.=.=.=.=.=.=.=.=.=.=.=.=.=.=.=.=.| ) K K G j v ",
"D B V K K ( ' X. .=.=.=.=.=.=.=.=.=.=.=.=.=.=.=.=.=.=.=.=.=.=.=.=.=.=.=.=.=.=.=.=.=.=.=.=.=.=.=.=.=.=.=.=.=.=.=.O.[ ( K K G j l ",
"D V V Q V A ' [ $.o.=.=.=.=.=.=.=.=.=.=.=.=.=.=.=.=.=.=.=.=.=.=.=.=.=.=.=.=.=.=.=.=.=.=.=.=.=.=.=.=.=.=.=.=.=.%.X.[ K V J D f l ",
"D A B K G B A ' @.$.+.=.=.=.=.=.=.=.=.=.=.=.=.=.=.=.=.=.=.=.=.=.=.=.=.=.=.=.=.=.=.=.=.=.=.=.=.=.=.=.=.=.=.{ *.@.X.K S D K D f l ",
"G V B ~ G G Y G ) #.%.=.=.=.=.=.=.=.=.=.=.=.=.=.=.=.=.=.=.=.=.=.=.=.=.=.=.=.=.=.=.=.=.=.=.=.=.=.=.=.=.=.=.} &.X.K G J D K D j l ",
"D B V K G Z H R R ( $.=.=.=.=.=.=.=.=.=.=.=.=.=.=.=.=.=.=.=.=.=.=.=.=.=.=.=.=.=.=.=.=.=.=.=.=.=.=.=.=.=.=./ @.R Q Q G D K G r l ",
"G B N K F V H R _ _ ..=.=.=.=.=.=.=.=.=.=.=.=.=.=.=.=.=.=.=.=.=.=.=.=.=.=.=.=.=.=.=.=.=.=.=.=.=.=.=.=.=.=./ | / R J D A K D r l ",
"J B h K A B J R R _ ..=.=.=.=.=.=.=.=.=.=.=.=.=.=.=.=.=.=.=.=.=.=.=.=.=.=.=.=.=.=.=.=.=.=.=.=.=.=.=.=.=.=.W ' / Q J G B J D e v ",
"D B N K A B J T / R | =.=.=.=.=.=.=.=.=.=.=.=.=.=.=.=.=.=.=.=.=.=.=.=.=.=.=.=.=.=.=.=.=.=.=.=.=.=.=.=.=.=.E ` R T J D B J D r l ",
"D Z B K A B D J R R _ =.=.=.=.=.=.=.=.=.=.=.=.=.=.=.=.=.=.=.=.=.=.=.=.=.=.=.=.=.=.=.=.=.=.=.=.=.=.=.=.=.=.Y _ R T J D B F A e l ",
"D B N J A B D J T T _ =.=.=.=.=.=.=.=.=.=.=.=.=.=.=.=.=.=.=.=.=.=.=.=.=.=.=.=.=.=.=.=.=.=.=.=.=.=.=.=.=.=.Y Q J J G B A G D r N ",
"G B h F V N C G T J ! =.=.=.=.=.=.=.=.=.=.=.=.=.=.=.=.=.=.=.=.=.=.=.=.=.=.=.=.=.=.=.=.=.=.=.=.=.=.=.=.=.=.U Q J U D B B F B r B ",
"G N g J B v B D J D E =.=.=.=.=.=.=.=.=.=.=.=.=.=.=.=.=.=.=.=.=.=.=.=.=.=.=.=.=.=.=.=.=.=.=.=.=.=.=.=.=.=.L R J D Z v B F V r B ",
"H B g F B B B A D D ! =.=.=.=.=.=.=.=.=.=.=.=.=.=.=.=.=.=.=.=.=.=.=.=.=.=.=.=.=.=.=.=.=.=.=.=.=.=.=.=.=.=.S J D D B v B A B f A ",
"J h g A D D G G J D Y =.=.=.=.=.=.=.=.=.=.=.=.=.=.=.=.=.=.=.=.=.=.=.=.=.=.=.=.=.=.=.=.=.=.=.=.=.=.=.=.=.=.L Y G J G D G D B 0 B ",
"J B g G J J K R R Q E =.=.=.=.=.=.=.=.=.=.=.=.=.=.=.=.=.=.=.=.=.=.=.=.=.=.=.=.=.=.=.=.=.=.=.=.=.=.=.=.=.=.L R ^ R T J J J B 0 V ",
"G l f V K ( ` [ [ ] W =.=.=.=.=.=.=.=.=.=.=.=.=.=.=.=.=.=.=.=.=.=.=.=.=.=.=.=.=.=.=.=.=.=.=.=.=.=.=.=.=.=.C ] [ ' ' ) ~ F k r B ",
"G B y k y g N F ~ / ^ =.=.=.=.=.=.=.=.=.=.=.=.=.=.=.=.=.=.=.=.=.=.=.=.=.=.=.=.=.=.=.=.=.=.=.=.=.=.=.=.=.=.C / ^ G A g f g k r B ",
"G N f V B N V Z Z D S =.=.=.=.=.=.=.=.=.=.=.=.=.=.=.=.=.=.=.=.=.=.=.=.=.=.=.=.=.=.=.=.=.=.=.=.=.=.=.=.=.=.x D Z D V B B B g 0 A ",
"G B y V t e t y k B S =.=.=.=.=.=.=.=.=.=.=.=.=.=.=.=.=.=.=.=.=.=.=.=.=.=.=.=.=.=.=.=.=.=.=.=.=.=.=.=.=.=.x Z N j r r q g k r B ",
"G l y B y r a s a s B =.=.=.=.=.=.=.=.=.=.=.=.=.=.=.=.=.=.=.=.=.=.=.=.=.=.=.=.=.=.=.=.=.=.=.=.=.=.=.=.=.=.x j a a a e e N k w B ",
"J k t B j r y j x s x =.=.=.=.=.=.=.=.=.=.=.=.=.=.=.=.=.=.=.=.=.=.=.=.=.=.=.=.=.=.=.=.=.=.=.=.=.=.=.=.=.=.s j x k j y s k k 9 S ",
"J l t h y s a s j s z =.=.=.=.=.=.=.=.=.=.=.=.=.=.=.=.=.=.=.=.=.=.=.=.=.=.=.=.=.=.=.=.=.=.=.=.=.=.=.=.=.=.a z s j s a r g f 9 A ",
"J g t h s r a y j s x =.=.=.=.=.=.=.=.=.=.=.=.=.=.=.=.=.=.=.=.=.=.=.=.=.=.=.=.=.=.=.=.=.=.=.=.=.=.=.=.=.=.z j s y s e a l f 9 V ",
"F g 0 g f e r a s a m d 4 =.=.=.=.=.=.=.=.=.=.=.=.=.=.=.=.=.=.=.=.=.=.=.=.=.=.=.=.=.=.=.=.=.=.=.=.=.=.=.6 M z a a a r r g y 9 B ",
"D g f g f e a r a a c n n =.=.=.=.=.=.=.=.=.=.=.=.=.=.=.=.=.=.=.=.=.=.=.=.=.=.=.=.=.=.=.=.=.=.=.=.=.=.=.M b a a a a e 0 g g 0 B ",
"D g 0 g r e e a a a p =.=.=.=.=.=.=.=.=.=.=.=.=.=.=.=.=.=.=.=.=.=.=.=.=.=.=.=.=.=.=.=.=.=.=.=.=.=.=.=.=.=.5 p i r r e 0 g f 9 B ",
"F g w g r w e p a i u =.=.=.=.=.=.=.=.=.=.=.=.=.=.=.=.=.=.=.=.=.=.=.=.=.=.=.=.=.=.=.=.=.=.=.=.=.=.=.=.=.=.3 i u a r e w f f 9 B ",
"F f 0 j r 8 e i u e p =.=.=.=.=.=.=.=.=.=.=.=.=.=.=.=.=.=.=.=.=.=.=.=.=.=.=.=.=.=.=.=.=.=.=.=.=.=.=.=.=.=.3 i u a e w w f y 1 B ",
"A f 9 g w 8 u i i r a =.=.=.=.=.=.=.=.=.=.=.=.=.=.=.=.=.=.=.=.=.=.=.=.=.=.=.=.=.=.=.=.=.=.=.=.=.=.=.=.=.=.2 a e e e w 9 y r 1 l ",
"A f 9 g w 8 e a a k a =.=.=.=.=.=.=.=.=.=.=.=.=.=.=.=.=.=.=.=.=.=.=.=.=.=.=.=.=.=.=.=.=.=.=.=.=.=.=.=.=.=.3 j j a a w 9 j 0 1 B ",
"A g 9 s r t y s N g r =.=.=.=.=.=.=.=.=.=.=.=.=.=.=.=.=.=.=.=.=.=.=.=.=.=.=.=.=.=.=.=.=.=.=.=.=.=.=.=.=.=.< y N k j e w r r w B ",
"A k 1 f 0 y h N y w 3 =.=.=.=.=.=.=.=.=.=.=.=.=.=.=.=.=.=.=.=.=.=.=.=.=.=.=.=.=.=.=.=.=.=.=.=.=.=.=.=.=.=.: 8 9 g h f r r r w v ",
"V g 1 g g g q 7 w w 3 =.=.=.=.=.=.=.=.=.=.=.=.=.=.=.=.=.=.=.=.=.=.=.=.=.=.=.=.=.=.=.=.=.=.=.=.=.=.=.=.=.=.: 3 w 7 0 y g g 0 3 l ",
"A f 3 f 9 ; 1 9 , $ , =.=.=.=.=.=.=.=.=.=.=.=.=.=.=.=.=.=.=.=.=.=.=.=.=.=.=.=.=.=.=.=.=.=.=.=.=.=.=.=.=.=.: > & ; 9 1 7 0 w 9 l ",
"A f 1 1 2 9 < * : > < =.=.=.=.=.=.=.=.=.=.=.=.=.=.=.=.=.=.=.=.=.=.=.=.=.=.=.=.=.=.=.=.=.=.=.=.=.=.=.=.=.=.: < > * = 7 8 1 9 1 l ",
"D j < w ; + * , < > : =.=.=.=.=.=.=.=.=.=.=.=.=.=.=.=.=.=.=.=.=.=.=.=.=.=.=.=.=.=.=.=.=.=.=.=.=.=.=.=.=.=.& : , < = O = 8 3 1 N ",
"D f 1 q * $ < = > : $ =.=.=.=.=.=.=.=.=.=.=.=.=.=.=.=.=.=.=.=.=.=.=.=.=.=.=.=.=.=.=.=.=.=.=.=.=.=.=.=.=.=.$ * > , < * O 7 9 2 k ",
"D f < 9 , $ > = > $ $ =.=.=.=.=.=.=.=.=.=.=.=.=.=.=.=.=.=.=.=.=.=.=.=.=.=.=.=.=.=.=.=.=.=.=.=.=.=.=.=.=.=.# $ * = = * = 7 7 , l ",
"B f = 9 , $ > * : $ # =.=.=.=.=.=.=.=.=.=.=.=.=.=.=.=.=.=.=.=.=.=.=.=.=.=.=.=.=.=.=.=.=.=.=.=.=.=.=.=.=.=.# # $ * = * * 7 1 , l ",
"V t = 7 , $ : $ $ $ o =.=.=.=.=.=.=.=.=.=.=.=.=.=.=.=.=.=.=.=.=.=.=.=.=.=.=.=.=.=.=.=.=.=.=.=.=.=.=.=.=.=.o o $ = $ $ % 1 - = N ",
"Z e = 7 > $ > $ $ o X =.=.=.=.=.=.=.=.=.=.=.=.=.=.=.=.=.=.=.=.=.=.=.=.=.=.=.=.=.=.=.=.=.=.=.=.=.=.=.=.=.=.X X # $ : $ $ 1 , = l ",
"V t % 7 > $ $ $ o X X =.=.=.=.=.=.=.=.=.=.=.=.=.=.=.=.=.=.=.=.=.=.=.=.=.=.=.=.=.=.=.=.=.=.=.=.=.=.=.=.=.=.X . o # $ $ $ 1 , = N ",
"Z y % 1 % @ $ @ o X X =.=.=.=.=.=.=.=.=.=.=.=.=.=.=.=.=.=.=.=.=.=.=.=.=.=.=.=.=.=.=.=.=.=.=.=.=.=.=.=.=.=.  . X o $ # $ 1 = = N ",
"B r % 1 % o + + o o o =.=.=.=.=.=.=.=.=.=.=.=.=.=.=.=.=.=.=.=.=.=.=.=.=.=.=.=.=.=.=.=.=.=.=.=.=.=.=.=.=.=.X o o o o o O , = = N ",
"V r % - + o @ o O O o =.=.=.=.=.=.=.=.=.=.=.=.=.=.=.=.=.=.=.=.=.=.=.=.=.=.=.=.=.=.=.=.=.=.=.=.=.=.=.=.=.=.=.o # @ o o o = = = k ",
"N r $ - O . o $ % o =.=.=.=.=.=.=.=.=.=.=.=.=.=.=.=.=.=.=.=.=.=.=.=.=.=.=.=.=.=.=.=.=.=.=.=.=.=.=.=.=.=.=.=.=.$ $ o X o = % , k ",
"B e $ = O . $ % O =.=.=.=.=.=.=.=.=.=.=.=.=.=.=.=.=.=.=.=.=.=.=.=.=.=.=.=.=.=.=.=.=.=.=.=.=.=.=.=.=.=.=.=.=.=.X $ $ o X % = = f ",
"N r % % O O % $ =.=.=.=.=.=.=.=.=.=.=.=.=.=.=.=.=.=.=.=.=.=.=.=.=.=.=.=.=.=.=.=.=.=.=.=.=.=.=.=.=.=.=.=.=.=.=.=.o * O o % % = g "
};
