/* XPM */
static char *animation31[] = {
/* columns rows colors chars-per-pixel */
"64 53 113 2 ",
"   c #160D02",
".  c #190F01",
"X  c #1D1103",
"o  c #191009",
"O  c #221505",
"+  c #271805",
"@  c #291A07",
"#  c #251709",
"$  c #261809",
"%  c #2B1C0B",
"&  c #311F0C",
"*  c #271E12",
"=  c #281F12",
"-  c #2E200D",
";  c #32220D",
":  c #39250E",
">  c #3C280E",
",  c #2C2214",
"<  c #352612",
"1  c #3A2711",
"2  c #362914",
"3  c #3C2A13",
"4  c #342A1B",
"5  c #3D2E19",
"6  c #3E301B",
"7  c #332E21",
"8  c #3C3320",
"9  c #36372B",
"0  c #3E3B2E",
"q  c #422E14",
"w  c #412F19",
"e  c #453216",
"r  c #4A3616",
"t  c #4F3916",
"y  c #45331A",
"u  c #49361D",
"i  c #4D391D",
"p  c #523D1C",
"a  c #453620",
"s  c #493720",
"d  c #4D3B21",
"f  c #4C3F28",
"g  c #523E21",
"h  c #56401D",
"j  c #5B431D",
"k  c #60461E",
"l  c #62481E",
"z  c #554121",
"x  c #5C4522",
"c  c #5E4923",
"v  c #54452C",
"b  c #5B462B",
"n  c #5E4A2A",
"m  c #4C4A3B",
"M  c #5C4A30",
"N  c #554F3B",
"B  c #54503F",
"V  c #5C523E",
"C  c #604721",
"Z  c #634B24",
"A  c #694E26",
"S  c #644D29",
"D  c #694F29",
"F  c #6C5227",
"G  c #66502B",
"H  c #6C532A",
"J  c #735427",
"K  c #72552B",
"L  c #79572B",
"P  c #75592E",
"I  c #7B5A2D",
"U  c #614D32",
"Y  c #645131",
"T  c #6A5333",
"R  c #705632",
"E  c #765931",
"W  c #7B5B32",
"Q  c #755B3C",
"!  c #7A5D3A",
"~  c #7E613C",
"^  c #7E6141",
"/  c #835D2E",
"(  c #815E32",
")  c #815F38",
"_  c #846035",
"`  c #896235",
"'  c #84633A",
"]  c #8C6639",
"[  c #8E6A3D",
"{  c #936A3C",
"}  c #986D3E",
"|  c #856642",
" . c #896741",
".. c #856847",
"X. c #8D6942",
"o. c #8C6C4B",
"O. c #946D41",
"+. c #996E40",
"@. c #936F48",
"#. c #8F704E",
"$. c #9C7244",
"%. c #93734F",
"&. c #99734B",
"*. c #957551",
"=. c #9F7950",
"-. c #A27545",
";. c #A3794C",
":. c #AC7C4B",
">. c #A97F54",
",. c #B1804F",
"<. c #AC8259",
"1. c #B48453",
"2. c None",
/* pixels */
"T Y v 2.2.2.2.2.2.2.2.2.2.2.2.2.2.2.2.2.2.2.2.2.2.2.2.2.2.2.2.2.2.2.2.2.2.2.2.2.2.2.2.2.2.2.2.2.2.2.2.2.2.2.2.2.2.2.2.2.2.v f n ",
"J G n H T 2.2.2.2.2.2.2.2.2.2.2.2.2.2.2.2.2.2.2.2.2.2.2.2.2.2.2.2.2.2.2.2.2.2.2.2.2.2.2.2.2.2.2.2.2.2.2.2.2.2.2.2.2.2.2.T F z C ",
"F F Z L E ! Q 2.2.2.2.2.2.2.2.2.2.2.2.2.2.2.2.2.2.2.2.2.2.2.2.2.2.2.2.2.2.2.2.2.2.2.2.2.2.2.2.2.2.2.2.2.2.2.2.2.2.2.! E E H z c ",
"F G c I P J `  .2.2.2.2.2.2.2.2.2.2.2.2.2.2.2.2.2.2.2.2.2.2.2.2.2.2.2.2.2.2.2.2.2.2.2.2.2.2.2.2.2.2.2.2.2.2.2.2.^ ] I K ( F a c ",
"H Z j ( ( I I _ O.%.2.2.2.2.2.2.2.2.2.2.2.2.2.2.2.2.2.2.2.2.2.2.2.2.2.2.2.2.2.2.2.2.2.2.2.2.2.2.2.2.2.2.2.2.| &.[ I W I _ A i c ",
"F A j I ( J W ` ` +.>.o.2.2.2.2.2.2.2.2.2.2.2.2.2.2.2.2.2.2.2.2.2.2.2.2.2.2.2.2.2.2.2.2.2.2.2.2.2.2.2.2.2.;.$.] _ _ P I ( F z n ",
"H G l I I F j P ] +.+.-.>.*.2.2.2.2.2.2.2.2.2.2.2.2.2.2.2.2.2.2.2.2.2.2.2.2.2.2.2.2.2.2.2.2.2.2.2.2.2.=.:.$.} +.I F Z I W H i c ",
"K F l I / P G G D W +.-.-.:.<.2.2.2.2.2.2.2.2.2.2.2.2.2.2.2.2.2.2.2.2.2.2.2.2.2.2.2.2.2.2.2.2.2.2.*.1.:.$.-.] H G G J W ( F z c ",
"F F l I I K G E E R R ( -.:.1.@.2.2.2.2.2.2.2.2.2.2.2.2.2.2.2.2.2.2.2.2.2.2.2.2.2.2.2.2.2.2.2.2.2.;.:.:.{ I H E ~ G H I W H h j ",
"H F l L I K G K L W W W W { >...2.2.2.2.2.2.2.2.2.2.2.2.2.2.2.2.2.2.2.2.2.2.2.2.2.2.2.2.2.2.2.2.2.&.;.( E ! W I P G H I I H z c ",
"K S j P I L A F E W ( ) ' ) ;...2.2.2.2.2.2.2.2.2.2.2.2.2.2.2.2.2.2.2.2.2.2.2.2.2.2.2.2.2.2.2.2.2.@.{ ' ' ( W W H S F I I S 6 c ",
"K Z j L I F Z H E E W W ) ) $.| 2.2.2.2.2.2.2.2.2.2.2.2.2.2.2.2.2.2.2.2.2.2.2.2.2.2.2.2.2.2.2.2.2.X.{ ) ( ( W R P S Z P P c z n ",
"F A j J L F Z G R E W W ( ( +.| 2.2.2.2.2.2.2.2.2.2.2.2.2.2.2.2.2.2.2.2.2.2.2.2.2.2.2.2.2.2.2.2.2. .` W W W E R H S Z J P A u j ",
"K S j P I F c G H E E E W W @.Q 2.2.2.2.2.2.2.2.2.2.2.2.2.2.2.2.2.2.2.2.2.2.2.2.2.2.2.2.2.2.2.2.2. .' W W E E P G c F I L A y x ",
"F S j P J K c G F R E E E L { Q 2.2.2.2.2.2.2.2.2.2.2.2.2.2.2.2.2.2.2.2.2.2.2.2.2.2.2.2.2.2.2.2.2.| ( E P E K K G S F J P c u c ",
"K l j J J F c c G K K E E E ' ^ 2.2.2.2.2.2.2.2.2.2.2.2.2.2.2.2.2.2.2.2.2.2.2.2.2.2.2.2.2.2.2.2.2.) ( P P R K G S c Z J J c h Z ",
"P l j F J J j Z Z D D K K K ' Q 2.2.2.2.2.2.2.2.2.2.2.2.2.2.2.2.2.2.2.2.2.2.2.2.2.2.2.2.2.2.2.2.2.W E K K R D D S x C J K C i A ",
"P Z j F F l c c Z A F H H H ~ Y 2.2.2.2.2.2.2.2.2.2.2.2.2.2.2.2.2.2.2.2.2.2.2.2.2.2.2.2.2.2.2.2.2.! P H D D D A S n A F J k t G ",
"P Z j F F F H H R K K H H G ~ T 2.2.2.2.2.2.2.2.2.2.2.2.2.2.2.2.2.2.2.2.2.2.2.2.2.2.2.2.2.2.2.2.2.E K H K K K K H F H A F c r Z ",
"J l h F I E E W W E ( ( _ W E T 2.2.2.2.2.2.2.2.2.2.2.2.2.2.2.2.2.2.2.2.2.2.2.2.2.2.2.2.2.2.2.2.2.R P ~ W ( W W E I E W K x t Z ",
"P c p l F I / ` ) } { O.} } ) U 2.2.2.2.2.2.2.2.2.2.2.2.2.2.2.2.2.2.2.2.2.2.2.2.2.2.2.2.2.2.2.2.2.H ` { { { { ] ` _ I L Z x t Z ",
"K Z t Z x p g x C A J L / / ( b 2.2.2.2.2.2.2.2.2.2.2.2.2.2.2.2.2.2.2.2.2.2.2.2.2.2.2.2.2.2.2.2.2.T ` / I L A Z x h g h Z h y A ",
"K Z p A Z C Z Z A D D D D H R U 2.2.2.2.2.2.2.2.2.2.2.2.2.2.2.2.2.2.2.2.2.2.2.2.2.2.2.2.2.2.2.2.2.H G F D H D D A A Z c F h u Z ",
"J Z t Z Z t r i p p p C C Z D M 2.2.2.2.2.2.2.2.2.2.2.2.2.2.2.2.2.2.2.2.2.2.2.2.2.2.2.2.2.2.2.2.2.S F l C p p t t u r j A h y A ",
"H c p l C p s s s f d d g g D v 2.2.2.2.2.2.2.2.2.2.2.2.2.2.2.2.2.2.2.2.2.2.2.2.2.2.2.2.2.2.2.2.2.n x g g i g s a s i C Z j r Z ",
"P c t l k x g d g z x j g g S v 2.2.2.2.2.2.2.2.2.2.2.2.2.2.2.2.2.2.2.2.2.2.2.2.2.2.2.2.2.2.2.2.2.x x p p x x p i f g j l h e S ",
"P j r j C h i d f g z z g g b v 2.2.2.2.2.2.2.2.2.2.2.2.2.2.2.2.2.2.2.2.2.2.2.2.2.2.2.2.2.2.2.2.2.b x p g g g g d s p x C p e A ",
"L c r j C g u s s p g g g d S v 2.2.2.2.2.2.2.2.2.2.2.2.2.2.2.2.2.2.2.2.2.2.2.2.2.2.2.2.2.2.2.2.2.n x g g g g d s i g x l p y Z ",
"K x r j j h s s i i i g g i M m 9 2.2.2.2.2.2.2.2.2.2.2.2.2.2.2.2.2.2.2.2.2.2.2.2.2.2.2.2.2.2.2.0 V d p g p s s a a i j Z p e A ",
"H j r j j z y a d s g g d d v B m 2.2.2.2.2.2.2.2.2.2.2.2.2.2.2.2.2.2.2.2.2.2.2.2.2.2.2.2.2.2.2.m B d d g d g s s u t j l t e Z ",
"F x e j j t y a s s s s d i a 7 2.2.2.2.2.2.2.2.2.2.2.2.2.2.2.2.2.2.2.2.2.2.2.2.2.2.2.2.2.2.2.2.2.8 y s d u i s i y i h l i q C ",
"K j e j j h y y i s g i i s a 4 2.2.2.2.2.2.2.2.2.2.2.2.2.2.2.2.2.2.2.2.2.2.2.2.2.2.2.2.2.2.2.2.2.6 i s s i s s s y t j j t 3 C ",
"F j w j p i y y a i i u i y f 8 2.2.2.2.2.2.2.2.2.2.2.2.2.2.2.2.2.2.2.2.2.2.2.2.2.2.2.2.2.2.2.2.2.d a a s i u u y y u p j u 1 c ",
"F p w p k u w w a a u i i u u 4 2.2.2.2.2.2.2.2.2.2.2.2.2.2.2.2.2.2.2.2.2.2.2.2.2.2.2.2.2.2.2.2.2.y u u u u u a w w y p j t 1 c ",
"J h w j p i w e u s i h z h i 5 2.2.2.2.2.2.2.2.2.2.2.2.2.2.2.2.2.2.2.2.2.2.2.2.2.2.2.2.2.2.2.2.2.y z h h d s i y w y p j y 1 c ",
"F h y p p r y p p g x C Z j i 4 2.2.2.2.2.2.2.2.2.2.2.2.2.2.2.2.2.2.2.2.2.2.2.2.2.2.2.2.2.2.2.2.2.y h k C x z p p u y p x t 5 Z ",
"F j e h t i i g x C C p e y 3 , 2.2.2.2.2.2.2.2.2.2.2.2.2.2.2.2.2.2.2.2.2.2.2.2.2.2.2.2.2.2.2.2.2.3 q e t j k C x p i t h u 6 c ",
"F j 5 t p j k j t r e y y e 3 , 2.2.2.2.2.2.2.2.2.2.2.2.2.2.2.2.2.2.2.2.2.2.2.2.2.2.2.2.2.2.2.2.2.3 q q w q q r j j j p h y 5 x ",
"F x 5 t p e 3 1 5 y q > % - < , 2.2.2.2.2.2.2.2.2.2.2.2.2.2.2.2.2.2.2.2.2.2.2.2.2.2.2.2.2.2.2.2.2.2 < % ; q w y 3 1 q t t r 5 c ",
"F h 2 r 3 3 e y 1 - % - 2 , < , 2.2.2.2.2.2.2.2.2.2.2.2.2.2.2.2.2.2.2.2.2.2.2.2.2.2.2.2.2.2.2.2.2.4 < < < & & : q e 5 < y y 3 c ",
"F z < e e 2 - - % , 1 3 2 - , , 2.2.2.2.2.2.2.2.2.2.2.2.2.2.2.2.2.2.2.2.2.2.2.2.2.2.2.2.2.2.2.2.2.< - ; 2 1 < = $ % : y y 3 1 x ",
"G z > r e ; X - 2 < < < < - - , 2.2.2.2.2.2.2.2.2.2.2.2.2.2.2.2.2.2.2.2.2.2.2.2.2.2.2.2.2.2.2.2.2., % ; 2 1 < 1 , @ @ q t q 3 x ",
"F h < r e < - - < < ; ; ; - - 2.2.2.2.2.2.2.2.2.2.2.2.2.2.2.2.2.2.2.2.2.2.2.2.2.2.2.2.2.2.2.2.2.2.% $ % < & & 2 ; % ; q r 5 2 b ",
"S t < q q : - % < ; ; ; - + $ 2.2.2.2.2.2.2.2.2.2.2.2.2.2.2.2.2.2.2.2.2.2.2.2.2.2.2.2.2.2.2.2.2.2.$ # % % < & ; - % ; 5 w 1 < x ",
"A t & q q > % % , & % - % # $ 2.2.2.2.2.2.2.2.2.2.2.2.2.2.2.2.2.2.2.2.2.2.2.2.2.2.2.2.2.2.2.2.2.2.$ O $ % & % ; = % & q q : ; j ",
"A t & q q ; % % ; % % % % X O o 2.2.2.2.2.2.2.2.2.2.2.2.2.2.2.2.2.2.2.2.2.2.2.2.2.2.2.2.2.2.2.2.2.O o # @ % = & % % ; 5 q : ; k ",
"A i & 3 3 < % % % % % @ O . X 2.2.2.2.2.2.2.2.2.2.2.2.2.2.2.2.2.2.2.2.2.2.2.2.2.2.2.2.2.2.2.2.2.2.o X X O @ % % % % - 3 q ; ; j ",
"A i % > 3 < $ $ % @ + # X   . 2.2.2.2.2.2.2.2.2.2.2.2.2.2.2.2.2.2.2.2.2.2.2.2.2.2.2.2.2.2.2.2.2.2.    X O # @ = $ # % > > ; : C ",
"A i % 1 > & # # $ $ + O . O X 2.2.2.2.2.2.2.2.2.2.2.2.2.2.2.2.2.2.2.2.2.2.2.2.2.2.2.2.2.2.2.2.2.2.  O X O O # # # # @ > 3 & & x ",
"Z t % : : & O # # $ O + + + X 2.2.2.2.2.2.2.2.2.2.2.2.2.2.2.2.2.2.2.2.2.2.2.2.2.2.2.2.2.2.2.2.2.2.  O + + + + # # # + ; > & ; x ",
"Z u % : : @ X X # $ % & @ . 2.2.2.2.2.2.2.2.2.2.2.2.2.2.2.2.2.2.2.2.2.2.2.2.2.2.2.2.2.2.2.2.2.2.2.2.2.O % @ @ O . . # - < & ; x ",
"Z t + : & @ X X # & & % X 2.2.2.2.2.2.2.2.2.2.2.2.2.2.2.2.2.2.2.2.2.2.2.2.2.2.2.2.2.2.2.2.2.2.2.2.2.2.2.O % & @ O . O & : & ; j ",
"C i @ & & @ O @ % ; % 2.2.2.2.2.2.2.2.2.2.2.2.2.2.2.2.2.2.2.2.2.2.2.2.2.2.2.2.2.2.2.2.2.2.2.2.2.2.2.2.2.2.O - ; % O O & & & & j "
};
