/* XPM */
static char *animation7[] = {
/* columns rows colors chars-per-pixel */
"64 53 146 2 ",
"   c #0F0A02",
".  c #150D02",
"X  c #190E02",
"o  c #1D1203",
"O  c #1E1409",
"+  c #231505",
"@  c #261906",
"#  c #291A07",
"$  c #241609",
"%  c #281709",
"&  c #261909",
"*  c #2B1C0C",
"=  c #311E0C",
"-  c #2C1D10",
";  c #2F210D",
":  c #32230D",
">  c #39250D",
",  c #37280F",
"<  c #3C280E",
"1  c #2D2112",
"2  c #342512",
"3  c #382713",
"4  c #372814",
"5  c #3B2A14",
"6  c #332719",
"7  c #362919",
"8  c #3D2D19",
"9  c #3F301B",
"0  c #382E20",
"q  c #3E3426",
"w  c #402B0F",
"e  c #422E14",
"r  c #412E1A",
"t  c #443116",
"y  c #4B3517",
"u  c #4F3816",
"i  c #45331B",
"p  c #49361C",
"a  c #47391F",
"s  c #4C391D",
"d  c #543B16",
"f  c #583D16",
"g  c #533D1D",
"h  c #583F1D",
"j  c #463521",
"k  c #4A3721",
"l  c #453923",
"z  c #4D3B21",
"x  c #4A3D28",
"c  c #513E21",
"v  c #443D30",
"b  c #56411E",
"n  c #5B441E",
"m  c #61461D",
"M  c #63491F",
"N  c #684C1F",
"B  c #4F4027",
"V  c #554123",
"C  c #5B4523",
"Z  c #5E4825",
"A  c #574428",
"S  c #5B4628",
"D  c #5E4A29",
"F  c #4D4536",
"G  c #504837",
"H  c #5E4D31",
"J  c #614621",
"K  c #644B24",
"L  c #694D24",
"P  c #644C29",
"I  c #694F2A",
"U  c #6C5126",
"Y  c #66502A",
"T  c #6C522A",
"R  c #735326",
"E  c #7B5527",
"W  c #755927",
"Q  c #73552C",
"!  c #7A562B",
"~  c #75592D",
"^  c #7B5A2D",
"/  c #6A5131",
"(  c #725631",
")  c #765931",
"_  c #7C5C33",
"`  c #7C5E39",
"'  c #7E6036",
"]  c #7B623B",
"[  c #555141",
"{  c #5C5342",
"}  c #5F5A48",
"|  c #665D4B",
" . c #6F6C5A",
".. c #756B57",
"X. c #716F5D",
"o. c #76705D",
"O. c #7E7562",
"+. c #825C2D",
"@. c #825E33",
"#. c #815F38",
"$. c #846134",
"%. c #8A6335",
"&. c #84623A",
"*. c #8B653A",
"=. c #8F693D",
"-. c #916635",
";. c #92663A",
":. c #946B3C",
">. c #9B6E3E",
",. c #896741",
"<. c #8E6943",
"1. c #8A6D4D",
"2. c #946D41",
"3. c #9B6E41",
"4. c #906D48",
"5. c #8F704E",
"6. c #977143",
"7. c #9D7243",
"8. c #93714E",
"9. c #9D744A",
"0. c #8C6F50",
"q. c #937350",
"w. c #9A7752",
"e. c #A27444",
"r. c #A97746",
"t. c #A67847",
"y. c #A17749",
"u. c #A37A4D",
"i. c #AC7B4A",
"p. c #B37E4D",
"a. c #A47C52",
"s. c #B7814E",
"d. c #B9824F",
"f. c #AC8156",
"g. c #B58453",
"h. c #BA8553",
"j. c #BF8856",
"k. c #C28954",
"l. c #C48C59",
"z. c #C98E5A",
"x. c #CB915E",
"c. c #CC9461",
"v. c #D49762",
"b. c #D39967",
"n. c #D89A65",
"m. c None",
/* pixels */
"l Z ~ ^ ^ $.*.#.;.3.e.9.9.u.a.u.a.a.g.f.f.w.4.w.q.0.1.0.1.m.m.m.m.m.m.m.1.1.1.8.w.q.q.a.f.g.p.a.a.a.u.9.t.e.3.2.#.#.#.@.^ ! I z ",
"s K Q ^ ~ U T Q ! ^ @.@.#.-.>.3.3.e.t.i.i.p.p.k.h.h.h.k.x.x.c.a.4.b.c.c.l.h.k.d.h.h.p.i.p.r.e.7.3.3.;.%.@.+.+.! ( ! I Q @.! T c ",
"i K Q +.%.~ ' ' #.#.#.#.*.%.*.:.2.2.2.2.:.6.>.3.e.y.7.7.e.d.n.a.4.n.l.e.t.7.e.7.7.3.2.2.2.2.2.2.2.=.*.*.#.-.@.` #.@.! @.%.Q I z ",
"8 Z Q ^ %.^ U U Q ! +.@.@.%.;.:.>.3.7.r.r.t.r.p.p.h.g.h.u.t.v.a.<.b.g.y.h.h.h.p.p.i.t.r.r.e.>.>.;.;.%.%.@.@.^ ( T U ^ @.@.Q U l ",
"8 Z T ^ %.^ ^ Z A S Z D P P P P I / T ( Q Q _ _ #.#.$.7.f.7.x.9.,.c.i.t.i.%.%.#.` _ Q ( Q / T I P P P K S S A S A W ^ $.@.Q I s ",
"9 P W ^ $.W ' T / Y T ) ( ^ _ @.Q ` _ ] ` ( ` ` ` &.( *.t.7.l.9.#.z.i.6.7./ &.` ` ` ) ) #.` ` _ _ #._ _ ) ( Y / T ^ ^ ^ +.E T s ",
"i K W W $.E +.T P Y T ) ! ! +.@.Q #.@.&.#.` &.*.=.<.( *.7.>.k.7.#.z.t.:.7.Q *.=.&.&.@.#.&.#.@.~ _ @.^ Q ^ Q I P Y ^ @.+._ W Q s ",
"9 K W W +.^ +.T Y / T ( ( ) ! _ _ _ #.#.#._ @.#.&.*.( $.7.:.k.6.#.l.e.=.2.I &.*.#.` ` #.&.@.@.( ) _ ~ Q ~ Q I Y T ~ ^ +.+.W U s ",
"9 K W W +.^ @.U Y D Y ~ ~ ~ ~ _ ) ) ' $.' _ ` ` #.&.~ _ >.-.d.4.` h.7.*.=.I #.$.` _ _ _ $.@._ ) _ ~ ~ ~ Q T P Y Y ~ +.^ +.R U B ",
"t K R W ^ ~ _ L K D K Q T ~ ~ _ Q ~ ' ^ ` _ _ ` _ ' T _ >.%.p.<.` p.>.*.*.Q #._ ` ` _ ` _ ^ _ Q ) ~ ~ ~ Q I K K U ~ +.W ^ R U a ",
"8 n R R +.~ ^ K Z D P T U Q Q _ Q ~ ' ) ) ) ) _ ` _ Q _ :.$.i.,.) s.>.*.&.U _ _ ` ) _ ^ _ _ ~ ~ ) ~ Q T U Y P D Z W W ^ ^ U L a ",
"9 Z U R +.W _ K D P P Y T Q Q Q ~ ~ ~ ~ ~ ~ ~ _ _ ` T ~ =.^ t.,./ f.$.$.&.L ` _ _ ) ~ ~ ) ) ~ Q ) ~ T T U P Z K Z W ^ W W U L B ",
"l C U W ^ W ^ K Z K K Y U U T ~ ~ ~ ~ ) ' ~ Q ) _ _ I Q *.^ t.&.( u.%.$.' K _ _ ) ~ ( ) ~ ) T ~ ~ T W P U Y Z Z K W ^ E +.U K B ",
"i C U W E R ~ P D Z Z K Y K T Q T U ~ ~ ~ T / ) ~ _ Y Q *.^ e.` / e.$.$.$.K ~ _ ) Q T ~ ~ ~ T T ) T U P P Z Z Z Z W E R +.W K a ",
"9 n U R ^ U W Z D S S Z K K U T T Y T T T T Q Q ) ) P T &.! e.` / e.#._ ` Z ~ ~ Q / T ~ T ~ U Y W Y K K P C D D C W W R ^ L P B ",
"9 n L U ^ U ^ K A C D P K K I U U U T T W T Y / Q / D T ` Q 3.` I e._ ^ ) A T / Q Y T W T T Y L T U K K K A C A C W U W ~ M K y ",
"t n N N ^ L W Z S D P D K K L T I L U Y T T U T Q Q D Y _ ~ 3.) P 3._ ( ( C / Q Q Y U Q U T I I U U P P P P Z S D U U R ! K m s ",
"9 n N U W N T Y T I U T Q ( ~ Q ) _ ^ _ ^ ' _ _ ` ` ) T ` Q :.( P >._ ( ) ( #.@.) _ _ _ _ ` ( ! ( ~ ~ T I I I T U Q U T ~ N J y ",
"9 n n U ^ K T T Q Q Q Q Q ^ ( ~ _ _ +.$._ @.$.$.@.$.@.%.) T -.( S ;.Q Q &.&.@.@.&.$.$.+.+.$.! _ ) ~ ~ _ Q Q ! Q T T K Q W m J p ",
"9 b n U $.$.$.$.$.$.*.%.;.:.*.;.3.:.>.7.e.6.6.7.e.3.>.e.9.~ %./ C *._ :.r.>.>.>.7.6.6.>.7.>.2.3.:.%.=.=.-.;.#.@.&.$.$.$.R Z C p ",
"4 b C n n C M J J K L L L L L R E Q ! ! E E +.+.+.+.+.+.+.@.@./ A %._ +.+.+.+.+.+.+.^ E +.! R ! ~ U L L N L K K N J m n K J C t ",
"4 g C L U b c C C c c Z J J K K P J P I K K P I P L L P J I @./ A &.Q J I I I I P P K L P K J K K K C C Z C c C C c c J U n V t ",
"4 b m N R m n J J J K L J L L I L I I U Q U U Q Q Q ^ ! Q L _ / A $.Q L ~ E ~ ~ T ~ T Q Q L T P Y K L L L K J J J C K N R n C t ",
", b n K U n b r r i y r y t e i i i p u s s k z z z s C I J _ / A _ U K I s z z z z s y s y i i i t t i r y r r 8 g C N U n V t ",
"2 b b n U n n s p k z z p z s c c c g c C c c c A V z V I Z ~ P V _ K K P p V A A c c C g g g V c c s s p z p k p C m L K n n e ",
"; b n n K n K g z z z p g c g h J C C h n n h h V C s C P V Q P V ) K Z Z s C V c c C n n b C C h c c g p z z c s b m m N n b 8 ",
"; u b n L b K s p z z p g g g g h V C g b C c c V V s b P V Q D V ) D C S k c c c c c C h V b h c c g c k k z k k C C m L g g 5 ",
"; u b M L b C s p z s p z c k g V c g g h V c c z A s b Z C T D V T Z C Z k A c c c C h h g h c c s z c s p k p k C n m L d g 5 ",
"; s d n U b n z k j k p s s z s h s c s h V g z z A a b Z g ] H V ] P c C p V z z s c J z c g c g s s s p p k k s g n m N u c 8 ",
": u d n N b b s i k p p z k k p c s g s c h c k z B z g S t ..| G O.x c V i V z z c c c s s s c k s s k j p j i p b n m N d h 5 ",
"; y b n N b b p i k i i p z p k z z s z z c z k z z l s C l  .} [ X.l z c j z z z k c c c z s c s p k k i j p i i g n m M g s 3 ",
"; t s n N d n y k i k i p p j p z c z s s c s k z z p s D i X.{ F O.l V V j z x k p z c p p c k p p s s p i p p p V n m m g s , ",
"@ y u b K d c p p i i i y p p k s z z p z z z p z z t s C 7 q q 0 q 6 b B 9 l z k z z s p z z s p p p y y p r k r c b n n g s : ",
"@ y s b K f c i r p i i i p p j s s a s p k k k l l 9 p V t 6 7 6 6 8 B b 4 p l l p z p s s s p p j s y r r j i r h h n n g p : ",
"; t s b J d h t r r i 8 p p p p i s s s p p k j j j t i c p C z l C V s z 8 j j j j s s k s s y a i l i r r r r r g d n n u u : ",
"; t y g K y c i r r 8 8 i p j p p p p p p p p j j j 9 i g i V a q c y p s 8 j j i p a a p p p p i p p p r r r r r h g b n s p , ",
"; t b b J p s r r p y p s s s s z z z s s b z g g b h i s i V q 8 B s t s s V b g s g s s z c s z a s s y p i i i y s b n p s , ",
"; < a y J t p p k k s s g d g c s b b b b b b b V b n b y t s 9 7 s i y b n b b g b b V g g h h B V u g g s s p p s i b n s p , ",
"; 9 t b K g c c c C J J J J J K K Y K K U N L L L K U N L s z 9 7 a p K N L K K L N L L K L K K K K m Z J J C C C c b n b y t : ",
"o 5 y 9 u f f u f f f f d d d d g y g d y y y p t y t t t i k 8 7 s p t t t t y p y u y d g s d g d d d d f f f u u d d i y t ; ",
"o , p t 8 2 2 4 3 3 8 5 e 8 8 r t 8 9 t 8 t 8 9 9 t a t 5 4 i 7 7 p 8 2 t i i t 9 9 i 9 t e 8 8 8 8 5 e 8 8 2 3 3 2 2 3 y i r * ",
"@ < i t u t 8 t r r r i t i e i t t t y t y e 9 t 9 t t t 4 j 8 6 i 5 5 i t t t t t t t t t i i t i i t t r r r r r r y y r t * ",
"o , t t y r 2 * % # # * * * # * * * * * * ; * * ; O ; ; 8 2 t 7 1 i 8 3 5 & & & ; & ; ; * * * * * # % * * # @ * * : r y y y t @ ",
"X , t u u e t * @ $ # # : : 2 2 2 2 2 5 4 4 2 2 2 2 ; ; 5 2 i 7 6 i 5 , 4 ; 2 2 6 2 2 : 5 4 > 2 2 2 2 = * # * # @ 5 e t y e e + ",
". > w w y e e : ; - 2 : , 5 4 4 , 3 3 5 4 2 5 7 2 2 ; ; 3 : 8 6 6 8 5 2 2 # 2 6 4 4 4 4 5 5 > 2 2 5 5 2 : : * * : w w y y 5 e + ",
". > < < t 5 8 2 ; ; * * : 3 3 2 ; , 3 4 2 , 3 3 2 6 @ ; 3 = 8 6 1 8 2 2 , @ 2 2 8 4 2 , 4 4 , = : 4 3 , * * * ; * > 5 e w < > + ",
"X = > < t 5 5 = * - * * ; , 2 : ; : 4 , : : 3 2 2 ; + @ 2 * 8 6 1 8 2 * ; + * 2 2 4 , ; , : : : ; 2 : 2 - - * - : 5 < t e > > + ",
"X = < e t 3 r ; - - - * * : : : ; : : , : ; 2 6 ; * + * 2 @ 8 1 1 5 * * : o * * ; 2 ; ; 2 2 , * ; 2 : ; * - - * * 8 3 e e > > + ",
"X : : > t < 8 : * - * * - 2 = = * 1 : 2 2 * 2 * * * o $ ; @ 4 - * 4 - & = X % - ; ; * ; : : 1 * ; ; 4 ; % - - * * 5 3 w e = 3 + ",
". * : > e 2 3 = * * - - * 2 : * - * ; : ; * * * 2 * X $ : + 2 1 & 2 * * ; X - * = * - * : 2 * - ; ; , * - - - % * 5 > w < > : o ",
"X = > > e = 3 % + % * & * * * - * - * * * * $ * - % X + ; + 1 $ O 1 @ @ * X $ - - * $ * * * * & - ; ; @ % * @ $ % 2 2 < w = : + ",
". * = = e = 2 @ $ + % @ @ * * - @ * * # * @ @ % & % X o * O ; - $ ; $ $ % . + # * @ $ # # * * # & * ; @ @ @ $ $ $ * 2 > < = : + ",
". @ = : 5 = > + + O $ $ % - - % @ * # # + $ @ @ $ $ . X * O @ O O & $ O @   o + @ + + + # # % @ * - & $ + @ $ + + = = > < = = X "
};
