/* XPM */
static char *animation32[] = {
/* columns rows colors chars-per-pixel */
"64 53 120 2 ",
"   c #150D01",
".  c #1A0E01",
"X  c #1D1203",
"o  c #1F150B",
"O  c #231505",
"+  c #261806",
"@  c #291906",
"#  c #241608",
"$  c #26190A",
"%  c #2B1C0B",
"&  c #301F0C",
"*  c #2A1E11",
"=  c #2E200D",
"-  c #33230D",
";  c #38260E",
":  c #3F290F",
">  c #2C2213",
",  c #352511",
"<  c #392711",
"1  c #362814",
"2  c #3C2A13",
"3  c #352A19",
"4  c #3B2D1A",
"5  c #3D301D",
"6  c #363024",
"7  c #3D3321",
"8  c #3E3B2E",
"9  c #432C0F",
"0  c #412E15",
"q  c #412E19",
"w  c #443116",
"e  c #4A3516",
"r  c #4E3817",
"t  c #45331B",
"y  c #49361C",
"u  c #4C391D",
"i  c #513B17",
"p  c #523D1D",
"a  c #463621",
"s  c #483720",
"d  c #4D3A21",
"f  c #513E21",
"g  c #56411E",
"h  c #5B441D",
"j  c #60461F",
"k  c #63491F",
"l  c #4E4128",
"z  c #554121",
"x  c #5C4522",
"c  c #5E4924",
"v  c #53442C",
"b  c #5D4A2C",
"n  c #464133",
"m  c #4F4D3F",
"M  c #574930",
"N  c #5C4A31",
"B  c #544D39",
"V  c #5C513C",
"C  c #614722",
"Z  c #634B24",
"A  c #694E26",
"S  c #644D29",
"D  c #684F2A",
"F  c #675027",
"G  c #6C5226",
"H  c #66502C",
"J  c #6C532A",
"K  c #735327",
"L  c #73552B",
"P  c #78572A",
"I  c #74582E",
"U  c #7B5A2D",
"Y  c #614E33",
"T  c #665130",
"R  c #6C5434",
"E  c #695439",
"W  c #725631",
"Q  c #765A31",
"!  c #7C5B33",
"~  c #765D3B",
"^  c #795D3B",
"/  c #7E6035",
"(  c #565241",
")  c #5A5644",
"_  c #7E6242",
"`  c #825C2E",
"'  c #815E33",
"]  c #846135",
"[  c #8A6334",
"{  c #83623A",
"}  c #8C6539",
"|  c #8E683C",
" . c #90673A",
".. c #936A3C",
"X. c #986E3F",
"o. c #9D713F",
"O. c #836442",
"+. c #896741",
"@. c #876847",
"#. c #8F6A42",
"$. c #8E6E4B",
"%. c #936D41",
"&. c #996E40",
"*. c #9C7244",
"=. c #95724C",
"-. c #9B744B",
";. c #9F784F",
":. c #987754",
">. c #9D7850",
",. c #A27544",
"<. c #A47748",
"1. c #A3784B",
"2. c #AC7C4B",
"3. c #B07E4E",
"4. c #A67E53",
"5. c #B0804E",
"6. c #AF8253",
"7. c #B48251",
"8. c #B2885F",
"9. c None",
/* pixels */
"R H l 9.9.9.9.9.9.9.9.9.9.9.9.9.9.9.9.9.9.9.9.9.9.9.9.9.9.9.9.9.9.9.9.9.9.9.9.9.9.9.9.9.9.9.9.9.9.9.9.9.9.9.9.9.9.9.9.9.9.v d c ",
"J J Z R Y 9.9.9.9.9.9.9.9.9.9.9.9.9.9.9.9.9.9.9.9.9.9.9.9.9.9.9.9.9.9.9.9.9.9.9.9.9.9.9.9.9.9.9.9.9.9.9.9.9.9.9.9.9.9.9.R F z c ",
"J F Z P ! ~ E 9.9.9.9.9.9.9.9.9.9.9.9.9.9.9.9.9.9.9.9.9.9.9.9.9.9.9.9.9.9.9.9.9.9.9.9.9.9.9.9.9.9.9.9.9.9.9.9.9.9.9.^ ! P G l c ",
"J F k ! I P ] +.9.9.9.9.9.9.9.9.9.9.9.9.9.9.9.9.9.9.9.9.9.9.9.9.9.9.9.9.9.9.9.9.9.9.9.9.9.9.9.9.9.9.9.9.9.9.9.9.O.| ! K ] F z c ",
"J Z h ` ] U P [ *.=.9.9.9.9.9.9.9.9.9.9.9.9.9.9.9.9.9.9.9.9.9.9.9.9.9.9.9.9.9.9.9.9.9.9.9.9.9.9.9.9.9.9.9.9.$.-.| / U U ` F u Z ",
"G A k U U L ] ] [ &.1.$.9.9.9.9.9.9.9.9.9.9.9.9.9.9.9.9.9.9.9.9.9.9.9.9.9.9.9.9.9.9.9.9.9.9.9.9.9.9.9.9.9.1.*.} ] ] L U ] F z c ",
"G A Z U U J c I | %.X.<.4.:.9.9.9.9.9.9.9.9.9.9.9.9.9.9.9.9.9.9.9.9.9.9.9.9.9.9.9.9.9.9.9.9.9.9.9.9.9.6.2.*.X...] F F U ` J z c ",
"L F k U ` Q F H D ! X.,.,.5.8.9.9.9.9.9.9.9.9.9.9.9.9.9.9.9.9.9.9.9.9.9.9.9.9.9.9.9.9.9.9.9.9.9.9.>.6.2.<.*.[ L H H J U U F z c ",
"J F k U ! L F Q Q W L ' ,.2.3.$.9.9.9.9.9.9.9.9.9.9.9.9.9.9.9.9.9.9.9.9.9.9.9.9.9.9.9.9.9.9.9.9.9.1.2.3.%.U J Q Q H G U / J u c ",
"J F Z P U I F W U ! ! ^ U ..3.@.9.9.9.9.9.9.9.9.9.9.9.9.9.9.9.9.9.9.9.9.9.9.9.9.9.9.9.9.9.9.9.9.9.;.<.' W ' ! U Q F J U U J z h ",
"L A k P U P D J Q U ' ' O.[ 1.O.9.9.9.9.9.9.9.9.9.9.9.9.9.9.9.9.9.9.9.9.9.9.9.9.9.9.9.9.9.9.9.9.9.=.#.' ' ' ! ! W S F P U F y x ",
"J Z h P P J Z J Q Q ! ^ ' ' *.O.9.9.9.9.9.9.9.9.9.9.9.9.9.9.9.9.9.9.9.9.9.9.9.9.9.9.9.9.9.9.9.9.9.#.| ' O.' ! Q W F F P U F y x ",
"J F Z P U G Z F I Q ! ! ^ ' &.^ 9.9.9.9.9.9.9.9.9.9.9.9.9.9.9.9.9.9.9.9.9.9.9.9.9.9.9.9.9.9.9.9.9.+.} ! ! ! Q W J F Z P P F y x ",
"J F h L P F Z F W I Q Q ! ! $.^ 9.9.9.9.9.9.9.9.9.9.9.9.9.9.9.9.9.9.9.9.9.9.9.9.9.9.9.9.9.9.9.9.9.{ ' ! ! ! Q L J Z F L P F t c ",
"G Z h P L G c F F W Q Q Q U ..~ 9.9.9.9.9.9.9.9.9.9.9.9.9.9.9.9.9.9.9.9.9.9.9.9.9.9.9.9.9.9.9.9.9.{ ' ! I Q I W H b F L P Z y c ",
"P Z h G P F c F F J L W Q U { ~ 9.9.9.9.9.9.9.9.9.9.9.9.9.9.9.9.9.9.9.9.9.9.9.9.9.9.9.9.9.9.9.9.9.^ ! I I I J J F c Z P P c u Z ",
"L Z h G K A x Z D D J L I J ] R 9.9.9.9.9.9.9.9.9.9.9.9.9.9.9.9.9.9.9.9.9.9.9.9.9.9.9.9.9.9.9.9.9.! U W L J J F D c c L P C u A ",
"P Z h G K Z c c S D J J J J ] E 9.9.9.9.9.9.9.9.9.9.9.9.9.9.9.9.9.9.9.9.9.9.9.9.9.9.9.9.9.9.9.9.9.^ L J J D D D Z b Z G L j e F ",
"L Z g G A J L J W J D K I J / E 9.9.9.9.9.9.9.9.9.9.9.9.9.9.9.9.9.9.9.9.9.9.9.9.9.9.9.9.9.9.9.9.9.Q J J L L D L J J J A K Z e F ",
"L Z g G ! I ! Q U ^ ' ' / ! ^ E 9.9.9.9.9.9.9.9.9.9.9.9.9.9.9.9.9.9.9.9.9.9.9.9.9.9.9.9.9.9.9.9.9.Q U / ' ' ! U ! Q ! U P x e Z ",
"I Z p C K P ` [  . .#.......' Y 9.9.9.9.9.9.9.9.9.9.9.9.9.9.9.9.9.9.9.9.9.9.9.9.9.9.9.9.9.9.9.9.9.R }  ..... . .} [ ` L Z z u A ",
"I Z u A h p f x C A K ` ` [ ' Y 9.9.9.9.9.9.9.9.9.9.9.9.9.9.9.9.9.9.9.9.9.9.9.9.9.9.9.9.9.9.9.9.9.W [ [ ` L A A h h p p Z z e A ",
"L C p k Z C A A D D T K K K W N 9.9.9.9.9.9.9.9.9.9.9.9.9.9.9.9.9.9.9.9.9.9.9.9.9.9.9.9.9.9.9.9.9.H J G A L D D A Z Z Z G z t Z ",
"J Z p k Z u e y i p f f C A D M 9.9.9.9.9.9.9.9.9.9.9.9.9.9.9.9.9.9.9.9.9.9.9.9.9.9.9.9.9.9.9.9.9.H F Z j z p r r y e h A h t D ",
"L c p k Z p y s s f f d z f D v 9.9.9.9.9.9.9.9.9.9.9.9.9.9.9.9.9.9.9.9.9.9.9.9.9.9.9.9.9.9.9.9.9.b c f f d d f u y u k k h w Z ",
"L c e k k p f d f z x z z z S v 9.9.9.9.9.9.9.9.9.9.9.9.9.9.9.9.9.9.9.9.9.9.9.9.9.9.9.9.9.9.9.9.9.b z f p x h p f d f h Z h t F ",
"P x e h C p u d f f z z f f b v 9.9.9.9.9.9.9.9.9.9.9.9.9.9.9.9.9.9.9.9.9.9.9.9.9.9.9.9.9.9.9.9.9.x h f f f f f d d d x Z u t Z ",
"L x e k C f y s u f f f f p b M 9.9.9.9.9.9.9.9.9.9.9.9.9.9.9.9.9.9.9.9.9.9.9.9.9.9.9.9.9.9.9.9.9.b h f f f f d d y d h k u t S ",
"L h e h c p s s d p f f p d N B 8 9.9.9.9.9.9.9.9.9.9.9.9.9.9.9.9.9.9.9.9.9.9.9.9.9.9.9.9.9.9.9.n V f d p p d d s a u h k i t D ",
"G x e h h u t a s d d f d u v ) B 9.9.9.9.9.9.9.9.9.9.9.9.9.9.9.9.9.9.9.9.9.9.9.9.9.9.9.9.9.9.9.( B d u d f d d u t u h k i e Z ",
"J h t h h p e y s u d d s d a 6 9.9.9.9.9.9.9.9.9.9.9.9.9.9.9.9.9.9.9.9.9.9.9.9.9.9.9.9.9.9.9.9.9.7 y s d u s u y t e h k p 0 Z ",
"K h t h h p t t s s u s s y a 3 9.9.9.9.9.9.9.9.9.9.9.9.9.9.9.9.9.9.9.9.9.9.9.9.9.9.9.9.9.9.9.9.9.5 y y s s d s s t e h h u 2 C ",
"K h e p f r t t y a u y a y d 5 9.9.9.9.9.9.9.9.9.9.9.9.9.9.9.9.9.9.9.9.9.9.9.9.9.9.9.9.9.9.9.9.9.a y t y s u y a t e f j u 2 x ",
"G p 0 h p y q q a y y u u u y 4 9.9.9.9.9.9.9.9.9.9.9.9.9.9.9.9.9.9.9.9.9.9.9.9.9.9.9.9.9.9.9.9.9.t u u y y s y a 4 q p h y 2 c ",
"G g 0 p h r q t u d u g g x u 4 9.9.9.9.9.9.9.9.9.9.9.9.9.9.9.9.9.9.9.9.9.9.9.9.9.9.9.9.9.9.9.9.9.t z h p p d y q q q p h e 4 Z ",
"G h t p f y u r u z x Z h h u 3 9.9.9.9.9.9.9.9.9.9.9.9.9.9.9.9.9.9.9.9.9.9.9.9.9.9.9.9.9.9.9.9.9.w g h C c z p p u t p g e 0 c ",
"G h t g u y i x c Z h i t t 4 > 9.9.9.9.9.9.9.9.9.9.9.9.9.9.9.9.9.9.9.9.9.9.9.9.9.9.9.9.9.9.9.9.9.2 w w e h k Z c f i e g t w c ",
"F h 2 u h h j p r w w e w 5 2 > 9.9.9.9.9.9.9.9.9.9.9.9.9.9.9.9.9.9.9.9.9.9.9.9.9.9.9.9.9.9.9.9.9.3 4 0 w 0 0 e i h h h h t t x ",
"J g 2 g i 0 2 2 t w 4 ; @ = 3 > 9.9.9.9.9.9.9.9.9.9.9.9.9.9.9.9.9.9.9.9.9.9.9.9.9.9.9.9.9.9.9.9.9.1 - % = 2 w t q < 0 r i t 4 c ",
"G g : w , 2 0 0 1 = = - , = 1 > 9.9.9.9.9.9.9.9.9.9.9.9.9.9.9.9.9.9.9.9.9.9.9.9.9.9.9.9.9.9.9.9.9.1 - , - % % - 0 q 4 < w w 2 c ",
"G g ; e w ; = + = > 2 2 , = > > 9.9.9.9.9.9.9.9.9.9.9.9.9.9.9.9.9.9.9.9.9.9.9.9.9.9.9.9.9.9.9.9.9., = - 1 < , , % % - 0 e q < x ",
"F z 1 e t = + % 1 1 1 - - = > * 9.9.9.9.9.9.9.9.9.9.9.9.9.9.9.9.9.9.9.9.9.9.9.9.9.9.9.9.9.9.9.9.9.= % = , , , < , @ @ 2 y 0 < x ",
"J g ; w 0 2 % = 1 - - - = @ = > 9.9.9.9.9.9.9.9.9.9.9.9.9.9.9.9.9.9.9.9.9.9.9.9.9.9.9.9.9.9.9.9.9.* % $ , & & 1 = % - q e 2 < c ",
"F u ; w 0 , % % = - - = = + % o 9.9.9.9.9.9.9.9.9.9.9.9.9.9.9.9.9.9.9.9.9.9.9.9.9.9.9.9.9.9.9.9.9.% # $ % , & = % % , 2 0 2 , c ",
"A i & 9 0 , $ % , = = % % o $ # 9.9.9.9.9.9.9.9.9.9.9.9.9.9.9.9.9.9.9.9.9.9.9.9.9.9.9.9.9.9.9.9.9.$ X % % & % , % % = 0 9 ; & C ",
"A y & 2 0 , % * , % % % # X # 9.9.9.9.9.9.9.9.9.9.9.9.9.9.9.9.9.9.9.9.9.9.9.9.9.9.9.9.9.9.9.9.9.9.O X X @ @ % = * % = 2 0 ; - h ",
"A u & 9 0 , % % % % @ O X . X 9.9.9.9.9.9.9.9.9.9.9.9.9.9.9.9.9.9.9.9.9.9.9.9.9.9.9.9.9.9.9.9.9.9.o X X X @ % % % % % 2 0 ; - C ",
"A u & ; < , $ $ % % @ O X . X 9.9.9.9.9.9.9.9.9.9.9.9.9.9.9.9.9.9.9.9.9.9.9.9.9.9.9.9.9.9.9.9.9.9..     O # % * $ $ % ; 9 - - x ",
"D i & < < & # @ $ $ # O O O O 9.9.9.9.9.9.9.9.9.9.9.9.9.9.9.9.9.9.9.9.9.9.9.9.9.9.9.9.9.9.9.9.9.9.  X O O O O % # # @ 2 2 - - x ",
"A y % ; ; % O # $ # # # @ O . 9.9.9.9.9.9.9.9.9.9.9.9.9.9.9.9.9.9.9.9.9.9.9.9.9.9.9.9.9.9.9.9.9.9.  O @ @ O O # # O O - ; & - x ",
"Z r % ; & @ X X # @ @ & + . 9.9.9.9.9.9.9.9.9.9.9.9.9.9.9.9.9.9.9.9.9.9.9.9.9.9.9.9.9.9.9.9.9.9.9.9.9.O & @ @ + X . O - ; & - h ",
"Z y % & & @ . X $ & - @ X 9.9.9.9.9.9.9.9.9.9.9.9.9.9.9.9.9.9.9.9.9.9.9.9.9.9.9.9.9.9.9.9.9.9.9.9.9.9.9.O & % % O . X & ; & - h ",
"C r % & & @ O % % - @ 9.9.9.9.9.9.9.9.9.9.9.9.9.9.9.9.9.9.9.9.9.9.9.9.9.9.9.9.9.9.9.9.9.9.9.9.9.9.9.9.9.9.O % & @ # O % - & & h "
};
