/* XPM */
static char *animation29[] = {
/* columns rows colors chars-per-pixel */
"64 53 126 2 ",
"   c #150C02",
".  c #190E02",
"X  c #1D1103",
"o  c #1F1409",
"O  c #241504",
"+  c #281703",
"@  c #261806",
"#  c #2A1A07",
"$  c #251708",
"%  c #281708",
"&  c #26190A",
"*  c #2B1D0C",
"=  c #311F0D",
"-  c #2B1C10",
";  c #301F11",
":  c #2E210D",
">  c #33230D",
",  c #38250D",
"<  c #3B290E",
"1  c #2F2211",
"2  c #342511",
"3  c #392712",
"4  c #362813",
"5  c #3C2B13",
"6  c #37291A",
"7  c #3C2C1A",
"8  c #3F3014",
"9  c #3E301B",
"0  c #412E13",
"q  c #412E19",
"w  c #443115",
"e  c #493515",
"r  c #4C3816",
"t  c #45331B",
"y  c #49361C",
"u  c #4D391D",
"i  c #523B16",
"p  c #523D1C",
"a  c #583F19",
"s  c #463521",
"d  c #493721",
"f  c #463924",
"g  c #4C3A21",
"h  c #40392B",
"j  c #523E21",
"k  c #56411E",
"l  c #5B441D",
"z  c #5F481F",
"x  c #60471D",
"c  c #634A1E",
"v  c #684B1E",
"b  c #554122",
"n  c #5B4522",
"m  c #5E4924",
"M  c #55462C",
"N  c #5D4A29",
"B  c #434034",
"V  c #494232",
"C  c #5B4B31",
"Z  c #584E3A",
"A  c #614722",
"S  c #634B24",
"D  c #694E25",
"F  c #654E2A",
"G  c #694F29",
"H  c #704F25",
"J  c #6B5126",
"K  c #67502C",
"L  c #6C532A",
"P  c #715425",
"I  c #73552B",
"U  c #79562B",
"Y  c #74592E",
"T  c #7B5A2D",
"R  c #624E31",
"E  c #655033",
"W  c #6C5433",
"Q  c #675539",
"!  c #695638",
"~  c #745630",
"^  c #765931",
"/  c #7B5C33",
"(  c #745B3A",
")  c #7D5E3B",
"_  c #555141",
"`  c #585242",
"'  c #635640",
"]  c #825D2E",
"[  c #815E34",
"{  c #895F31",
"}  c #805F3A",
"|  c #846134",
" . c #8A6335",
".. c #836139",
"X. c #8A653A",
"o. c #8D683B",
"O. c #906538",
"+. c #936A3C",
"@. c #996E3F",
"#. c #99703F",
"$. c #826441",
"%. c #856847",
"&. c #8B6A43",
"*. c #8F6D48",
"=. c #936D42",
"-. c #9A6F41",
";. c #9C7141",
":. c #94724A",
">. c #9A754A",
",. c #967852",
"<. c #9C7953",
"1. c #9D7E5A",
"2. c #A37645",
"3. c #A97847",
"4. c #A57748",
"5. c #A77949",
"6. c #AC7C4B",
"7. c #B27F4E",
"8. c #A37C53",
"9. c #AD7F52",
"0. c #AE8053",
"q. c #B38253",
"w. c #B98452",
"e. c #B3865B",
"r. c #BE8D5E",
"t. c None",
/* pixels */
"L N b M t.t.t.t.t.t.t.t.t.t.t.t.t.t.t.t.t.t.t.t.t.t.t.t.t.t.t.t.t.t.t.t.t.t.t.t.t.t.t.t.t.t.t.t.t.t.t.t.t.t.t.t.t.t.t.t.t.M b N ",
"L N N Y W Q t.t.t.t.t.t.t.t.t.t.t.t.t.t.t.t.t.t.t.t.t.t.t.t.t.t.t.t.t.t.t.t.t.t.t.t.t.t.t.t.t.t.t.t.t.t.t.t.t.t.t.t.Q ~ ~ K b n ",
"J z m Y T / ....t.t.t.t.t.t.t.t.t.t.t.t.t.t.t.t.t.t.t.t.t.t.t.t.t.t.t.t.t.t.t.t.t.t.t.t.t.t.t.t.t.t.t.t.t.t.t.t...} / U T K b b ",
"J l z Y | L I ] +.*.%.t.t.t.t.t.t.t.t.t.t.t.t.t.t.t.t.t.t.t.t.t.t.t.t.t.t.t.t.t.t.t.t.t.t.t.t.t.t.t.t.t.t.t.&.+. .Y L / T K f n ",
"J k z P  .T / / T | +.>.,.t.t.t.t.t.t.t.t.t.t.t.t.t.t.t.t.t.t.t.t.t.t.t.t.t.t.t.t.t.t.t.t.t.t.t.t.t.t.:.>.;.X./ T / T ] T L y N ",
"K b c Y | T J U  .X.X.o.#.5.8.1.t.t.t.t.t.t.t.t.t.t.t.t.t.t.t.t.t.t.t.t.t.t.t.t.t.t.t.t.t.t.t.t.t.8.5.2.O.X.X.X.| J Y  .T J u n ",
"J l m P ] T Y m N I { +.#.#.;.7.q.<.t.t.t.t.t.t.t.t.t.t.t.t.t.t.t.t.t.t.t.t.t.t.t.t.t.t.t.t.8.9.q.2.-.-.#.O./ F m K T ] U L u N ",
"J n m Y ] T Y K E K G P | +.2.2.3.6.r.1.t.t.t.t.t.t.t.t.t.t.t.t.t.t.t.t.t.t.t.t.t.t.t.t.t.e.w.3.4.2.;.X.U F F W K K ] ] T J u z ",
"K n m P ] T L F L ^ / T Y Y Y o.3.9.7.8.t.t.t.t.t.t.t.t.t.t.t.t.t.t.t.t.t.t.t.t.t.t.t.t.t.e.7.6.;./ Y ~ I / ^ Y K J T ] T J k k ",
"J n c P T T I K L Y Y / / ..) ^ ^ +.7.<.t.t.t.t.t.t.t.t.t.t.t.t.t.t.t.t.t.t.t.t.t.t.t.t.t.9.2.{ / / ) ) / / Y W K J T T P P b l ",
"L k z P T T I D K ^ ^ / / ..) ..X.X.3.>.t.t.t.t.t.t.t.t.t.t.t.t.t.t.t.t.t.t.t.t.t.t.t.t.t.6.-.} X.) | / T ^ ^ K F J T T Y K 9 n ",
"L b z J ] T J m F L Y Y T / / | } [ 2.:.t.t.t.t.t.t.t.t.t.t.t.t.t.t.t.t.t.t.t.t.t.t.t.t.t.3.+.} ../ / / ^ Y Y L m F Y T P F y n ",
"K n m P T U J S K L Y ^ Y / / / ) [ -.*.t.t.t.t.t.t.t.t.t.t.t.t.t.t.t.t.t.t.t.t.t.t.t.t.t.2.X.^ ) / / / Y Y L K S S T T P J u k ",
"L n z J T U J N N K L Y Y T / / / / @.&.t.t.t.t.t.t.t.t.t.t.t.t.t.t.t.t.t.t.t.t.t.t.t.t.t.-.X.^ / ^ / Y Y Y L K S D P T P D u b ",
"L l l J U I J m S K G L I ^ ~ ^ / ^ +.%.t.t.t.t.t.t.t.t.t.t.t.t.t.t.t.t.t.t.t.t.t.t.t.t.t.+.[ ^ ^ Y ^ Y Y L G G N F I P P N u n ",
"L k l D U P J m m N D I L Y ~ ~ ^ Y X.$.t.t.t.t.t.t.t.t.t.t.t.t.t.t.t.t.t.t.t.t.t.t.t.t.t.&./ ~ ^ Y Y L I L S m N m P T P m r m ",
"I l l D U P J l N A F L G I Y Y W I  .) t.t.t.t.t.t.t.t.t.t.t.t.t.t.t.t.t.t.t.t.t.t.t.t.t.X./ W Y L Y J G D F N n m P U J S r A ",
"P k l c I J F m N F S G D J L L L L  .( t.t.t.t.t.t.t.t.t.t.t.t.t.t.t.t.t.t.t.t.t.t.t.t.t.../ G W L L J S G S F N F J I D x u A ",
"P k k c I G L I H L ~ U I I L I Y K ) ( t.t.t.t.t.t.t.t.t.t.t.t.t.t.t.t.t.t.t.t.t.t.t.t.t.| U G Y Y Y Y H U ~ L L L G P J n r m ",
"Y k k z / T Y Y / ^ ^ ^ T ] | / ) / T ( t.t.t.t.t.t.t.t.t.t.t.t.t.t.t.t.t.t.t.t.t.t.t.t.t./ ^ / ) / / T / / / ^ / ~ T T D n r A ",
"I p p n D P U T { { o.+.O.@.+.@.+.o. .! t.t.t.t.t.t.t.t.t.t.t.t.t.t.t.t.t.t.t.t.t.t.t.t.t./ X.+.+.+.+.o.+.X.X.{ ] T U D A b t A ",
"I p p n S k b p j A A S D H U [ { {  .E t.t.t.t.t.t.t.t.t.t.t.t.t.t.t.t.t.t.t.t.t.t.t.t.t.^ { [ ] T U J D c A a p b p l D b e S ",
"L p p x J A A S S D G G G L G G L J L E t.t.t.t.t.t.t.t.t.t.t.t.t.t.t.t.t.t.t.t.t.t.t.t.t.~ G L J L L J G D G D S S n G v k w S ",
"I u p c J n u t r u u u a a n n A G I E t.t.t.t.t.t.t.t.t.t.t.t.t.t.t.t.t.t.t.t.t.t.t.t.t.I G F m n b k i r u u y r l D c l w m ",
"L u u z D l p d d d d g j u g j b b L C t.t.t.t.t.t.t.t.t.t.t.t.t.t.t.t.t.t.t.t.t.t.t.t.t.F A j j j g j j g g d s y n v c l 0 m ",
"I r r l D x p j g g j b l n n b b b F C t.t.t.t.t.t.t.t.t.t.t.t.t.t.t.t.t.t.t.t.t.t.t.t.t.F n b b b b x a j g d g j l c c k 5 m ",
"P r r l S l j g d g j k a b j j g b D N t.t.t.t.t.t.t.t.t.t.t.t.t.t.t.t.t.t.t.t.t.t.t.t.t.F n j j b a j j j g g g p n c l p 5 A ",
"J r e i D l j d d y g j p p n j b g F C t.t.t.t.t.t.t.t.t.t.t.t.t.t.t.t.t.t.t.t.t.t.t.t.t.R b j M b j p p g g t d u b S x p 5 A ",
"L r r p c l j t d y g u p g j p g g C _ B t.t.t.t.t.t.t.t.t.t.t.t.t.t.t.t.t.t.t.t.t.t.t.V ' b g d k p u u g d s s u l c l p 0 n ",
"L r e k v l g t s d g g u p g g g g M ` _ t.t.t.t.t.t.t.t.t.t.t.t.t.t.t.t.t.t.t.t.t.t.t._ Z j y d g j g g g g d y y k x l i 0 n ",
"L w w k c l u s s d d y u u g g g g g h t.t.t.t.t.t.t.t.t.t.t.t.t.t.t.t.t.t.t.t.t.t.t.t.t.h d y g g u u u y d s y y a x l u < l ",
"L w w k c k u r t t y y u g d d f d f 6 t.t.t.t.t.t.t.t.t.t.t.t.t.t.t.t.t.t.t.t.t.t.t.t.t.7 f t d d y u y d y t t y k x l p < l ",
"J < 0 p A a u t t t f y u g y d s y p f t.t.t.t.t.t.t.t.t.t.t.t.t.t.t.t.t.t.t.t.t.t.t.t.t.g d s s s y u r t d q d t p x a u , l ",
"J 7 0 p n p y q 7 t y y r y y d s y y f t.t.t.t.t.t.t.t.t.t.t.t.t.t.t.t.t.t.t.t.t.t.t.t.t.d y y s y y r t y t q q q p l p u , k ",
"J 8 0 u l a u q 7 s d y g u p p b b u 9 t.t.t.t.t.t.t.t.t.t.t.t.t.t.t.t.t.t.t.t.t.t.t.t.t.t g b k p g u y d t q q w p l k t , k ",
"J w 0 p n r t q y u p j k b n c x m b 9 t.t.t.t.t.t.t.t.t.t.t.t.t.t.t.t.t.t.t.t.t.t.t.t.t.y l m m m n b j j p u u w u b p r 3 n ",
"G w w r l r d u j j n S v c l u r 7 7 7 t.t.t.t.t.t.t.t.t.t.t.t.t.t.t.t.t.t.t.t.t.t.t.t.t.7 5 7 r a l c c c l j g y y p i r < b ",
"F w 8 r n a j S x x a e w w w t t t 7 6 t.t.t.t.t.t.t.t.t.t.t.t.t.t.t.t.t.t.t.t.t.t.t.t.t.7 w t t t w 0 e r l l A n p l u t 5 n ",
"K 8 8 r p i e 0 5 5 0 q w w 5 2 * 2 5 5 t.t.t.t.t.t.t.t.t.t.t.t.t.t.t.t.t.t.t.t.t.t.t.t.t.7 4 * * 3 8 w e 8 7 5 0 e r l u w 2 l ",
"F 5 4 r 0 3 3 q q e 0 , > : : 2 1 > 4 4 t.t.t.t.t.t.t.t.t.t.t.t.t.t.t.t.t.t.t.t.t.t.t.t.t.4 4 : 2 : : : > < w t q 5 4 5 r w : b ",
"F 8 4 w r 7 5 , * * * : > 3 4 4 2 : 2 1 t.t.t.t.t.t.t.t.t.t.t.t.t.t.t.t.t.t.t.t.t.t.t.t.t.4 2 : 4 5 4 4 1 * * * > 3 5 t t q = l ",
"F < < e r 9 : O & : < 4 3 3 2 4 : * : 1 t.t.t.t.t.t.t.t.t.t.t.t.t.t.t.t.t.t.t.t.t.t.t.t.t.1 * * 2 4 4 4 4 5 > * @ @ 4 e r q = j ",
"F < 2 e e 0 , * - 2 4 > > 3 > 2 : & : : t.t.t.t.t.t.t.t.t.t.t.t.t.t.t.t.t.t.t.t.t.t.t.t.t.: & $ : 2 2 2 > 4 2 : * > 0 e e 0 # p ",
"G > 2 0 e 5 4 * * - 2 : : 2 : : & & & : t.t.t.t.t.t.t.t.t.t.t.t.t.t.t.t.t.t.t.t.t.t.t.t.t.* & $ : : > > : > 2 * * > 5 e 0 0 # b ",
"D , > < 0 < 4 * - - 2 : * 2 - * : o & & t.t.t.t.t.t.t.t.t.t.t.t.t.t.t.t.t.t.t.t.t.t.t.t.t.& $ o : : : : : > 1 - * 1 5 0 0 , + k ",
"S , = < 0 0 2 * - - 2 * * * * * & X & o t.t.t.t.t.t.t.t.t.t.t.t.t.t.t.t.t.t.t.t.t.t.t.t.t.& O O & & * : * 2 - - - > < 0 0 = @ a ",
"S , = , q 5 2 * - - > * * * & @ o . O X t.t.t.t.t.t.t.t.t.t.t.t.t.t.t.t.t.t.t.t.t.t.t.t.t.o o . O @ @ * * - - - * : 3 0 5 2 & l ",
"S , = = 0 3 2 % * * * * * & @ X     X o t.t.t.t.t.t.t.t.t.t.t.t.t.t.t.t.t.t.t.t.t.t.t.t.t.o .   . O + & & - * & & * , 0 , , & p ",
"S , * , 0 , = $ $ % * & + O O O O . .   t.t.t.t.t.t.t.t.t.t.t.t.t.t.t.t.t.t.t.t.t.t.t.t.t.  X . X X O O @ * & $ $ & , 5 , , O p ",
"S 4 & > 0 > # O $ $ @ @ O + O O @ @ O   t.t.t.t.t.t.t.t.t.t.t.t.t.t.t.t.t.t.t.t.t.t.t.t.t.  @ + O O O O @ & $ O O $ > , , = & p ",
"A , * > < > @ X X X O @ + + # # & X . t.t.t.t.t.t.t.t.t.t.t.t.t.t.t.t.t.t.t.t.t.t.t.t.t.t.t.. @ # # + O + @ O X o O > , , > * a ",
"A , + = < : @ X . O & * # = = + . t.t.t.t.t.t.t.t.t.t.t.t.t.t.t.t.t.t.t.t.t.t.t.t.t.t.t.t.t.t.t.X # > # # @ O X . X : > > * O p ",
"A 2 & * , : + X @ @ * , > * O t.t.t.t.t.t.t.t.t.t.t.t.t.t.t.t.t.t.t.t.t.t.t.t.t.t.t.t.t.t.t.t.t.t.. + > > * * + . O # > = = O p "
};
