/* XPM */
static char *animation11[] = {
/* columns rows colors chars-per-pixel */
"64 53 139 2 ",
"   c #140D02",
".  c #190E02",
"X  c #1D1203",
"o  c #231505",
"O  c #261906",
"+  c #281A07",
"@  c #241609",
"#  c #26190A",
"$  c #2B1C0C",
"%  c #301E0C",
"&  c #2C1D10",
"*  c #2E210D",
"=  c #32230E",
"-  c #39260D",
";  c #37290E",
":  c #3D290F",
">  c #2D2111",
",  c #342512",
"<  c #382611",
"1  c #362814",
"2  c #3B2A14",
"3  c #342618",
"4  c #352919",
"5  c #3D2D19",
"6  c #3F3117",
"7  c #3E301C",
"8  c #3B3224",
"9  c #422E14",
"0  c #422F1A",
"q  c #443115",
"w  c #4B3616",
"e  c #4E3916",
"r  c #45331B",
"t  c #49361C",
"y  c #4C391D",
"u  c #533B16",
"i  c #583D15",
"p  c #533D1D",
"a  c #583F1A",
"s  c #453522",
"d  c #493721",
"f  c #453823",
"g  c #4D3B21",
"h  c #443D2F",
"j  c #4B3D28",
"k  c #513E21",
"l  c #56411E",
"z  c #5B441E",
"x  c #61461D",
"c  c #654A1F",
"v  c #554123",
"b  c #5B4523",
"n  c #5E4825",
"m  c #544328",
"M  c #5A4528",
"N  c #5E4929",
"B  c #4F4637",
"V  c #5F4D30",
"C  c #534A39",
"Z  c #614621",
"A  c #644B24",
"S  c #6A4D24",
"D  c #644C29",
"F  c #694F29",
"G  c #6C5125",
"H  c #66502B",
"J  c #6C532B",
"K  c #735326",
"L  c #73552C",
"P  c #7A562B",
"I  c #74582D",
"U  c #7B5A2D",
"Y  c #684F31",
"T  c #6D5231",
"R  c #735631",
"E  c #765A31",
"W  c #7C5C33",
"Q  c #7D5E39",
"!  c #7F6036",
"~  c #7C623C",
"^  c #555141",
"/  c #5D5442",
"(  c #5F5948",
")  c #685F4C",
"_  c #746B57",
"`  c #706D5B",
"'  c #76705D",
"]  c #7E7561",
"[  c #825C2D",
"{  c #825E33",
"}  c #815F38",
"|  c #846134",
" . c #8A6336",
".. c #85623A",
"X. c #8B653A",
"o. c #8F683C",
"O. c #906737",
"+. c #926639",
"@. c #946A3D",
"#. c #9B6D3E",
"$. c #8B6742",
"%. c #8E6943",
"&. c #8B6E4E",
"*. c #946D41",
"=. c #9B6E41",
"-. c #926E49",
";. c #9D7243",
":. c #94714D",
">. c #9C744B",
",. c #8B6E50",
"<. c #8C7050",
"1. c #937350",
"2. c #9B7853",
"3. c #A27445",
"4. c #A87646",
"5. c #AA7846",
"6. c #A0764A",
"7. c #A47A4C",
"8. c #AC7B4A",
"9. c #B27E4C",
"0. c #A57C52",
"q. c #A87F54",
"w. c #B7804E",
"e. c #B8824F",
"r. c #AD8256",
"t. c #AD8358",
"y. c #B48352",
"u. c #BA8452",
"i. c #BF8855",
"p. c #C28954",
"a. c #C48C59",
"s. c #C98F5B",
"d. c #CB915E",
"f. c #CC9361",
"g. c #D59763",
"h. c #D59965",
"j. c #D89A65",
"k. c #D09968",
"l. c None",
/* pixels */
"d N I I U |  . .+.=.=.6.>.7.0.0.0.q.r.r.t.>.:.2.:.&.&.,.l.l.l.l.l.l.l.l.<.&.&.:.2.1.1.q.y.t.q.q.7.0.7.6.4.>.=.=.}  .} { [ R D k ",
"g A L U I G J L L P { {  .+.@.#.;.=.4.8.9.8.w.p.u.u.y.i.d.d.k.q.-.k.f.d.a.y.u.u.p.u.9.8.9.5.3.;.;.#.+. .{ { { L L L F P { K F M ",
"r A K [ O.I W ! Q { | | X.X.o.@.*.*.*.*.#.#.@.=.;.>.3.;.>.e.h.r.%.j.a.>.3.;.3.3.;.*.*.*.*.@.=.*.%.%. . . .X.| { } W R {  .P S k ",
"5 n I U | I I J L P { { {  .+.@.=.=.;.4.4.7.5.9.w.u.u.u.8.3.g.7.$.h.y.3.u.u.u.y.9.8.5.4.4.;.=.#.#.+.+.{ { P W L F K P { [ L H d ",
"4 A K U | U U N M M n N D D D D F H R R L R W W { } | ;.r.#.d.2...d.8.3.8. .| { W W R R L L J H D D D D N N M M b I U [ | K J t ",
"6 A K U [ U ! G H H J E R W W W R Q W Q Q R W Q Q ..R X.6.#.s.;...s.r.=.>.L ..Q Q Q E E Q Q Q E P { W R E L Y H H U ! [ [ K J g ",
"r A I I | U | J H H J W R R [ [ E Q { ..Q W ....X.o.E ..;.#.p.:...s.4.@.>.R o.X.....Q } X.{ { E W { P I U L D H G E U [ [ K K y ",
"6 H J U [ U U G H H J I R P P W R W { ..} W { { ..$.R ..;.@.p.;.Q a.3.o.*.F X...} Q W W ..} { E W W L L L L H Y H U [ U | L G g ",
"6 A I U [ U U J H H F L I L U W E E ! ! ! U Q Q Q | J ! #.O.e.-.Q u.3.o.o.F } } } Q W Q | Q U E E ! U I I J N G H I U U [ K G l ",
"r c G K U I W G N N F J J L I W R E U ! W W W W Q Q I ! @. .w.%.Q 9.=. .o.F } W Q W W W W W E L I I I J L G N N c I U U [ K H v ",
"6 n K K [ I U S N D D J J J L E I I E E W E E W W W J E *. .8...R 8.+.X...J W W W E E W E W I I E I I G G H H n A K U U U G A l ",
"6 n J K [ K U A N N D H J J L E I I U E E L E E W Q I I o.U 7.$.R y. . .| F Q W W E I I L W I J E I J J G H V n A I I I U G N f ",
"f n G I [ K P A n D A H G J J I L I E E E E L E W W H I X.U 3...T 7.X.! ! A W W W R E E E E I I E J J J G H n n c K U U U G c v ",
"7 n G I P K I A N N n n H A J L J J I I L L J E L E J L X.U 3.Q J 6.| | ! A L E E J J I I I J J I H G H A N n N A I K K U K n v ",
"6 z G G U G I n n N n n F A J J J G J I L J J E L E D J ..U =.Q Y 3.{ U ! n R E L J J I L J G A J H A H A n n N n I I K U c n v ",
"6 z G G U G U N M M n n A A F G A G G J J J H J I T N H } L =.E Y ;.{ W E n J J R H J J J J J F J G A A N n m n n K G K I c n f ",
"6 z A G U c K H N N N D A F S G F F J G J J H J L J N H W L #.Q D #.W R R v R L J J H L G S D S J G G n D D M N D S G K P A x y ",
"6 z c G I A J G H J J F J L R L L W U W U ! W W Q Q W J ~ L @.E D #.W L E R Q { W W Q W W { W R I I I J G T F J J J G G I c x y ",
"6 l n K U n J J K R L K R I P E W U | { U | | | ..{  .{ E G +.R N +.L L ..| { { | ! | U [ { { W E I U U K G P P J J A L U x Z t ",
"6 l b c |  .| ..{ X.X. .o.+.o.+.;.@.#.;.;.#.#.;.;.#.#.3.;.I  .T M o.W @.5.#.#.#.;.#.=.;.;.#.+.=.@.X.o.X.+.+.} } | | | | K b b t ",
"2 p b b z z Z Z Z Z S S S F G K P G P P P P U [ [ [ P [ { W { Y M X.{ { [ [ [ [ [ U U P [ P K P I G S c G S S Z Z A Z x A b v r ",
"2 p z S G v k b M k M M M Z Z A D D Z D A F F S F S J S Z F | T M { L b A J F D H A F S D Z Z Z D A n b b b k k M v k A G b l r ",
"1 l x S G x b Z Z z Z S S S S S S F S K K K K J L L P P L F Q D M | K D U L L L J J J K K S F S G A c S S S Z Z b b n c K z z t ",
"1 y z A G x l 0 0 r t q t 9 0 r r r t y y y g g j g y z J Z W Y v W S S J y y v g v t t y t t t r r q r q t 0 0 5 p x c G z l r ",
"1 l z z S z z y t t g t y g y k k k p p v v k k m v y v F b E D k W D A D d v v m k k v k p k v k k y g t g t t y l b c c x l q ",
"* y z x S l A p g j g d p k k a Z M b l b x a a M M k l D v L D k W A b n t v M k a b n v z l M a k k p t g g k y z x c S z l 5 ",
"= w l x F l n p t g g t k p p k a v b a v v k k m v p k A b T N k I A b b t v m k k v a a v l a k k p p t g g d t b A Z S a u 2 ",
"= e l z S a b g d y g t y y g p v p k p a v k p k v y a n b J N j L n b n t m k g k M Z a k a k k p g k t t g t g v l x S p p 2 ",
"= e e z G l z y d t s t t t y y p p k y a k k g j m y l n y ~ N v ) N v b t v k g p k k y k p p p g t y t t s s y l z Z Z e k 2 ",
"* e l z c l z t r t t t d g y d g g p g k a p y g k g p n r _ ) V ] j a v t m g k y k p y k y k g t d g t d t r t l v x c i a 2 ",
"* w l z c l l t s t r t t g t d k k y k g k g g g g d y b f ` ( ^ ` f k v r g g g d k k g g k k g t y g r r t t t k a x Z u p < ",
"* w y l c l z e t s t r t y d t t g t t g k t d g g t d n r ` / C ' f k m r y j d d k g y t y y t t t t r r s t s a a x A p p ; ",
"+ w y l A i a t 0 t r r t t t d t g v t t k g d j g 6 r b 4 8 8 8 h 1 l v 6 f f d d g d t g y y t t y y t r 0 t r p l z x y y ; ",
"+ q y a Z p k r s s r r w t s d t y y y t g d s d f r t m r 4 3 3 3 4 v v 1 f f f t g t t g y t d f r w 0 0 s r 0 a p x z u y = ",
"+ q e p x u k r 0 0 r 5 t t t r t t g t d d d t f s 6 t v t n j s n l y k 5 s f f t t t y y y t r r t r 0 0 0 0 0 p a z z y w = ",
"* q t a A y a r 0 0 5 6 t t t s t t t t t t t f s s 7 r l r a f 7 v t y y 5 s f f t t y t t t f f t t t 0 0 0 0 0 k y l z y y ; ",
"* q e l Z w d 0 0 t t t t t p g g g g g y l y y p v l r y w g s 4 p t w t y v a p y p y y y k g g l y y e t t 0 r y y l z y y = ",
"* 6 t e Z w t t s y y y p u p k v l l l v l l a l l z l y q y 7 4 y r t a b v p l l l v p a v k g v e l p w p t t t q l z y y = ",
"o 6 t e Z k k k M k Z Z M Z Z D A c H A G S c A A c c G F y d 0 5 g e Z G c A Z A c S S S S A A A A x x x Z b v M a p z l t r = ",
"X 6 e r e i i e i i i i i i e i l e l e w e w w y q w q 9 t d 5 4 t e q q q q t y w e w e p u u y u e l i i i i e e u u w r w + ",
"X : r w 2 , 3 < < < 2 2 5 2 2 0 6 2 6 6 5 r 9 r 6 q t 6 2 1 t 5 4 t 5 < 6 r r r 6 5 r q q 9 5 9 0 2 2 9 2 2 < 2 < , , : t q 0 + ",
"X 6 w q y 6 5 5 r 0 r r q t q r r r w q q q 9 5 6 6 6 w r 1 r 4 3 0 5 2 w q q q 6 0 r q q q t 0 r 0 t q t r 0 0 0 0 0 w w 0 0 % ",
"X ; w w y 0 < + + + + $ + + + + # $ $ $ $ $ $ + # * # ; 2 < 0 4 3 0 2 < 1 + # $ # # $ $ $ $ + $ + $ $ $ # O # + # = 0 w u w 9 + ",
"X ; r q w 9 q $ @ # # + = < , 1 = < ; 1 1 < 1 1 1 1 * * 5 = r 3 > r 2 < 1 * 1 > 1 < 1 ; 1 < - , , < , % $ O # + O 2 9 q w 0 9 o ",
". - 9 : w 2 9 = $ > = = = 4 1 < < < ; 5 2 2 2 3 , , # * 2 , 6 4 3 5 < 1 < + , , 1 4 1 1 2 2 < 1 = 2 2 1 = = % % $ 9 9 q q 9 9 o ",
". % : : q 2 9 , , $ $ + = 2 1 = $ = 2 2 = = 1 2 < , # * < $ 5 3 3 5 1 , < + = 1 1 2 , ; 1 < < * = 1 2 = $ $ & & = : : q 9 - - o ",
". % 2 : q 2 2 , & & $ $ = < < = $ = < = , * 1 1 3 * # + 3 + 5 3 > 4 , $ * X * , , 1 1 * = < < = * ; 1 * & & & & $ 2 : 9 9 - - o ",
". % - : t 2 5 % & & & $ $ = , , * ; , ; = * = , * $ o + , $ 4 > > 2 * $ , X $ $ * 1 * * < = = * * 1 = * $ & & $ * 2 : 9 9 - - o ",
". = = - 9 : 2 , $ $ & # $ , , % & * = = , $ % > $ & o # * @ 1 > # < $ # % X $ & > % $ % , % % $ > = 1 * $ & & $ % < < 9 9 % - o ",
"  % - = 0 < 2 % $ & & $ $ , , $ & $ = = * $ $ $ > $ . @ , @ < & # , $ $ 3 . # $ = $ & & = , % & $ * = $ & $ & @ $ < = 9 : - < . ",
". % - % 9 % < $ @ # # # @ % $ $ $ $ * + $ $ $ $ & # . o $ @ > & # > + + #   # $ $ $ # $ + & $ $ $ * = $ # # # # # , < - 9 % = o ",
"  % % - 9 % < @ @ # # # # $ $ & # $ * $ + # # # $ @ . X + @ $ # X * @ @ #   # + + @ # + + $ $ + $ * $ # # # @ # @ % , - 9 % = X ",
"  @ % = : % = O o X @ @ @ # & & + # # + o @ @ # o o   . # o # @ @ & X # o   X o + @ o @ + + O O # $ & @ o @ X @ o % = % - % % . "
};
