/* XPM */
static char *animation34[] = {
/* columns rows colors chars-per-pixel */
"64 53 111 2 ",
"   c #160D02",
".  c #190F02",
"X  c #1C1103",
"o  c #231505",
"O  c #261907",
"+  c #281907",
"@  c #241708",
"#  c #261909",
"$  c #2B1C0B",
"%  c #301E0C",
"&  c #2E200D",
"*  c #33220E",
"=  c #38260E",
"-  c #3D2A0F",
";  c #2D2210",
":  c #2E2719",
">  c #342512",
",  c #392610",
"<  c #352814",
"1  c #3C2A13",
"2  c #362B1A",
"3  c #3B2F1C",
"4  c #3E301C",
"5  c #3C372A",
"6  c #412E15",
"7  c #412E18",
"8  c #453216",
"9  c #4B3616",
"0  c #4E3916",
"q  c #45331A",
"w  c #49361C",
"e  c #47381F",
"r  c #4D391C",
"t  c #533D1C",
"y  c #473620",
"u  c #493720",
"i  c #463A27",
"p  c #4D3B21",
"a  c #463C28",
"s  c #4C3E29",
"d  c #513E21",
"f  c #56411E",
"g  c #5B441D",
"h  c #5E481D",
"j  c #60471E",
"k  c #60481E",
"l  c #554121",
"z  c #5B4522",
"x  c #5E4924",
"c  c #54442C",
"v  c #5D4A2A",
"b  c #4C4939",
"n  c #5A4730",
"m  c #534832",
"M  c #5B4A33",
"N  c #604622",
"B  c #634B24",
"V  c #694E25",
"C  c #654E29",
"Z  c #6A4F28",
"A  c #6C5126",
"S  c #665029",
"D  c #6C522A",
"F  c #705326",
"G  c #72552B",
"H  c #78572A",
"J  c #75582E",
"K  c #7B5A2D",
"L  c #624F33",
"P  c #665234",
"I  c #6E5330",
"U  c #6B5538",
"Y  c #735732",
"T  c #755931",
"R  c #7C5C33",
"E  c #73593B",
"W  c #785C3B",
"Q  c #7E623E",
"!  c #7A5F41",
"~  c #7E6141",
"^  c #815D2F",
"/  c #815E32",
"(  c #815E38",
")  c #856236",
"_  c #8A6335",
"`  c #83623A",
"'  c #8B6639",
"]  c #8D683A",
"[  c #906739",
"{  c #926A3C",
"}  c #9A6F3F",
"|  c #826543",
" . c #8B6942",
".. c #8B6A48",
"X. c #946E42",
"o. c #996F40",
"O. c #916F49",
"+. c #977146",
"@. c #9E7343",
"#. c #957148",
"$. c #9B7248",
"%. c #967855",
"&. c #A27545",
"*. c #AB7946",
"=. c #A1794E",
"-. c #AA7B4C",
";. c #B07E4C",
":. c #A67D51",
">. c #AD7E50",
",. c #A68056",
"<. c None",
/* pixels */
"I P l <.<.<.<.<.<.<.<.<.<.<.<.<.<.<.<.<.<.<.<.<.<.<.<.<.<.<.<.<.<.<.<.<.<.<.<.<.<.<.<.<.<.<.<.<.<.<.<.<.<.<.<.<.<.<.<.<.<.s a x ",
"D D v P <.<.<.<.<.<.<.<.<.<.<.<.<.<.<.<.<.<.<.<.<.<.<.<.<.<.<.<.<.<.<.<.<.<.<.<.<.<.<.<.<.<.<.<.<.<.<.<.<.<.<.<.<.<.<.<.C L l N ",
"D A B R Q <.<.<.<.<.<.<.<.<.<.<.<.<.<.<.<.<.<.<.<.<.<.<.<.<.<.<.<.<.<.<.<.<.<.<.<.<.<.<.<.<.<.<.<.<.<.<.<.<.<.<.<.<.<.E T D l x ",
"D S B R G ' Q <.<.<.<.<.<.<.<.<.<.<.<.<.<.<.<.<.<.<.<.<.<.<.<.<.<.<.<.<.<.<.<.<.<.<.<.<.<.<.<.<.<.<.<.<.<.<.<.<.<.<.] Y J D l x ",
"A B h ) K K ] O.<.<.<.<.<.<.<.<.<.<.<.<.<.<.<.<.<.<.<.<.<.<.<.<.<.<.<.<.<.<.<.<.<.<.<.<.<.<.<.<.<.<.<.<.<.<.<.<.Q #.K J ) D r B ",
"A B V / H R ) { =.<.<.<.<.<.<.<.<.<.<.<.<.<.<.<.<.<.<.<.<.<.<.<.<.<.<.<.<.<.<.<.<.<.<.<.<.<.<.<.<.<.<.<.<.<.<.#.+.) ) H K G l v ",
"G B B K G B R { +.=.%.<.<.<.<.<.<.<.<.<.<.<.<.<.<.<.<.<.<.<.<.<.<.<.<.<.<.<.<.<.<.<.<.<.<.<.<.<.<.<.<.<.<.<.:.&.{ ] A S ^ D f x ",
"G V V K K S S K } @.-.,.<.<.<.<.<.<.<.<.<.<.<.<.<.<.<.<.<.<.<.<.<.<.<.<.<.<.<.<.<.<.<.<.<.<.<.<.<.<.<.<...>.&.&.) S S G ^ D f v ",
"D A V K J V J J H [ *.>.~ <.<.<.<.<.<.<.<.<.<.<.<.<.<.<.<.<.<.<.<.<.<.<.<.<.<.<.<.<.<.<.<.<.<.<.<.<.<.<.$.;.&.R G T D G K G f z ",
"D A k ^ H D J R R T ' -.! <.<.<.<.<.<.<.<.<.<.<.<.<.<.<.<.<.<.<.<.<.<.<.<.<.<.<.<.<.<.<.<.<.<.<.<.<.<.<.+.@.R T Q K D G K F l h ",
"G V B J J S G T ( ( ` $.W <.<.<.<.<.<.<.<.<.<.<.<.<.<.<.<.<.<.<.<.<.<.<.<.<.<.<.<.<.<.<.<.<.<.<.<.<.<.<. .] ` ( K J S A K A e x ",
"G B k H G B D Y R ( ` X.E <.<.<.<.<.<.<.<.<.<.<.<.<.<.<.<.<.<.<.<.<.<.<.<.<.<.<.<.<.<.<.<.<.<.<.<.<.<.<. .] ( R K J S A K A 4 x ",
"D B B H G B D J T W R X.E <.<.<.<.<.<.<.<.<.<.<.<.<.<.<.<.<.<.<.<.<.<.<.<.<.<.<.<.<.<.<.<.<.<.<.<.<.<.<.] ) R R J G B A H A e x ",
"G S h K G B A G J T R ] U <.<.<.<.<.<.<.<.<.<.<.<.<.<.<.<.<.<.<.<.<.<.<.<.<.<.<.<.<.<.<.<.<.<.<.<.<.<.<.` ^ R Y J A B V H A q x ",
"D x x H F B S D Y T Y ' P <.<.<.<.<.<.<.<.<.<.<.<.<.<.<.<.<.<.<.<.<.<.<.<.<.<.<.<.<.<.<.<.<.<.<.<.<.<.<.R Q T T J S B A H A w B ",
"G B h H A x B D J T Y ` P <.<.<.<.<.<.<.<.<.<.<.<.<.<.<.<.<.<.<.<.<.<.<.<.<.<.<.<.<.<.<.<.<.<.<.<.<.<.<.Q K J J D S x S H B r B ",
"H B h F A x x S D I Y Q M <.<.<.<.<.<.<.<.<.<.<.<.<.<.<.<.<.<.<.<.<.<.<.<.<.<.<.<.<.<.<.<.<.<.<.<.<.<.<.R H Y Y Z B z V F B r D ",
"H B g G A x B S Z D D R n <.<.<.<.<.<.<.<.<.<.<.<.<.<.<.<.<.<.<.<.<.<.<.<.<.<.<.<.<.<.<.<.<.<.<.<.<.<.<.T G Z Z Z B x V F B r B ",
"G k h F A G D G G G D T n <.<.<.<.<.<.<.<.<.<.<.<.<.<.<.<.<.<.<.<.<.<.<.<.<.<.<.<.<.<.<.<.<.<.<.<.<.<.<.Y D Z G I G D F V B 0 B ",
"G B f H J J J J R ( R / m <.<.<.<.<.<.<.<.<.<.<.<.<.<.<.<.<.<.<.<.<.<.<.<.<.<.<.<.<.<.<.<.<.<.<.<.<.<.<.I R ( / R Y J Y J B r A ",
"J B t V K / _ [ { { { ( c <.<.<.<.<.<.<.<.<.<.<.<.<.<.<.<.<.<.<.<.<.<.<.<.<.<.<.<.<.<.<.<.<.<.<.<.<.<.<.I ' { { [ ' _ J F g r B ",
"H B f B f f j V G R / ( c <.<.<.<.<.<.<.<.<.<.<.<.<.<.<.<.<.<.<.<.<.<.<.<.<.<.<.<.<.<.<.<.<.<.<.<.<.<.<.F _ / K A B f f z z w V ",
"G x t V N N V Z Z Z Z D s <.<.<.<.<.<.<.<.<.<.<.<.<.<.<.<.<.<.<.<.<.<.<.<.<.<.<.<.<.<.<.<.<.<.<.<.<.<.<.C Z Z Z D B B B V z 9 Z ",
"G N t V t w 0 0 d z B D s <.<.<.<.<.<.<.<.<.<.<.<.<.<.<.<.<.<.<.<.<.<.<.<.<.<.<.<.<.<.<.<.<.<.<.<.<.<.<.B Z v d t r 0 0 k z w B ",
"G x t B N w w p d d d C i <.<.<.<.<.<.<.<.<.<.<.<.<.<.<.<.<.<.<.<.<.<.<.<.<.<.<.<.<.<.<.<.<.<.<.<.<.<.<.N z d p p r w t B f 8 S ",
"J z 0 B t d p d z d d v s <.<.<.<.<.<.<.<.<.<.<.<.<.<.<.<.<.<.<.<.<.<.<.<.<.<.<.<.<.<.<.<.<.<.<.<.<.<.<.z d d z l p p t B f 8 S ",
"J g 0 B z r r d d d d N s <.<.<.<.<.<.<.<.<.<.<.<.<.<.<.<.<.<.<.<.<.<.<.<.<.<.<.<.<.<.<.<.<.<.<.<.<.<.<.c d d d l p r t k f 8 A ",
"G g 0 x d w r p d d d v s <.<.<.<.<.<.<.<.<.<.<.<.<.<.<.<.<.<.<.<.<.<.<.<.<.<.<.<.<.<.<.<.<.<.<.<.<.<.<.v d d d p r r d k t q B ",
"G f 0 x f w u r t d r n b 5 <.<.<.<.<.<.<.<.<.<.<.<.<.<.<.<.<.<.<.<.<.<.<.<.<.<.<.<.<.<.<.<.<.<.<.<.<.i M d d p p u q t k t q B ",
"G g 0 k t 9 w p p p d c b b <.<.<.<.<.<.<.<.<.<.<.<.<.<.<.<.<.<.<.<.<.<.<.<.<.<.<.<.<.<.<.<.<.<.<.<.<.b m u u d r w w t j t 9 B ",
"G f 9 g t 9 w u p p u u : <.<.<.<.<.<.<.<.<.<.<.<.<.<.<.<.<.<.<.<.<.<.<.<.<.<.<.<.<.<.<.<.<.<.<.<.<.<.<.3 r u u r w 9 9 g t 8 B ",
"A f 9 g t 9 q u p u u u 2 <.<.<.<.<.<.<.<.<.<.<.<.<.<.<.<.<.<.<.<.<.<.<.<.<.<.<.<.<.<.<.<.<.<.<.<.<.<.<.3 r u p u w 8 0 j t 6 B ",
"F f 9 g t q q u e u w e 4 <.<.<.<.<.<.<.<.<.<.<.<.<.<.<.<.<.<.<.<.<.<.<.<.<.<.<.<.<.<.<.<.<.<.<.<.<.<.<.w w y u u w 7 r g 0 1 N ",
"A t 8 g r 7 q q w w p e 3 <.<.<.<.<.<.<.<.<.<.<.<.<.<.<.<.<.<.<.<.<.<.<.<.<.<.<.<.<.<.<.<.<.<.<.<.<.<.<.q r y w y q 3 9 g 9 8 N ",
"A f 8 f r 7 q u p p z f 2 <.<.<.<.<.<.<.<.<.<.<.<.<.<.<.<.<.<.<.<.<.<.<.<.<.<.<.<.<.<.<.<.<.<.<.<.<.<.<.9 l t d p r 3 w f r 3 N ",
"D g 8 l 9 w t t z B h r < <.<.<.<.<.<.<.<.<.<.<.<.<.<.<.<.<.<.<.<.<.<.<.<.<.<.<.<.<.<.<.<.<.<.<.<.<.<.<.8 t N N l r 9 9 t r 8 B ",
"D x 8 f w t l k z r q 1 <.<.<.<.<.<.<.<.<.<.<.<.<.<.<.<.<.<.<.<.<.<.<.<.<.<.<.<.<.<.<.<.<.<.<.<.<.<.<.<.2 6 w t N j t 9 t w 8 x ",
"A f 1 f g g t 9 8 q q 1 <.<.<.<.<.<.<.<.<.<.<.<.<.<.<.<.<.<.<.<.<.<.<.<.<.<.<.<.<.<.<.<.<.<.<.<.<.<.<.<.< 6 7 7 6 0 j g f 9 8 x ",
"A l 1 f 8 1 1 q 8 > & < <.<.<.<.<.<.<.<.<.<.<.<.<.<.<.<.<.<.<.<.<.<.<.<.<.<.<.<.<.<.<.<.<.<.<.<.<.<.<.<.< ; $ 1 9 6 1 6 0 q 3 N ",
"A f 1 4 1 q 1 * & ; < < <.<.<.<.<.<.<.<.<.<.<.<.<.<.<.<.<.<.<.<.<.<.<.<.<.<.<.<.<.<.<.<.<.<.<.<.<.<.<.<.> > < ; & , 7 1 1 7 1 B ",
"D l , w 1 & + > < 1 > & <.<.<.<.<.<.<.<.<.<.<.<.<.<.<.<.<.<.<.<.<.<.<.<.<.<.<.<.<.<.<.<.<.<.<.<.<.<.<.<.; % < < > $ + = q 6 1 N ",
"D l - w , O & > = > ; & <.<.<.<.<.<.<.<.<.<.<.<.<.<.<.<.<.<.<.<.<.<.<.<.<.<.<.<.<.<.<.<.<.<.<.<.<.<.<.<.; $ > < > > + $ 8 7 1 z ",
"A t , 8 1 $ & > * > $ $ <.<.<.<.<.<.<.<.<.<.<.<.<.<.<.<.<.<.<.<.<.<.<.<.<.<.<.<.<.<.<.<.<.<.<.<.<.<.<.<.$ $ % > > * $ * q 1 > x ",
"S t = 8 1 $ & * ; > $ # <.<.<.<.<.<.<.<.<.<.<.<.<.<.<.<.<.<.<.<.<.<.<.<.<.<.<.<.<.<.<.<.<.<.<.<.<.<.<.<.@ @ $ ; & & $ > 6 1 < x ",
"Z 0 % 6 , $ $ > ; $ $ @ <.<.<.<.<.<.<.<.<.<.<.<.<.<.<.<.<.<.<.<.<.<.<.<.<.<.<.<.<.<.<.<.<.<.<.<.<.<.<.<.@ @ $ ; $ > $ * 6 = * j ",
"Z 0 * 6 1 $ $ ; $ $ @ X <.<.<.<.<.<.<.<.<.<.<.<.<.<.<.<.<.<.<.<.<.<.<.<.<.<.<.<.<.<.<.<.<.<.<.<.<.<.<.<.X X @ $ $ $ $ * 6 = = z ",
"V t % 6 < $ $ $ $ o X X <.<.<.<.<.<.<.<.<.<.<.<.<.<.<.<.<.<.<.<.<.<.<.<.<.<.<.<.<.<.<.<.<.<.<.<.<.<.<.<.. . o $ $ $ $ % 6 * = z ",
"Z r % 6 , # # $ # o X X <.<.<.<.<.<.<.<.<.<.<.<.<.<.<.<.<.<.<.<.<.<.<.<.<.<.<.<.<.<.<.<.<.<.<.<.<.<.<.<.. . . o # $ @ % - * = N ",
"V r % 6 % + + # o o o o <.<.<.<.<.<.<.<.<.<.<.<.<.<.<.<.<.<.<.<.<.<.<.<.<.<.<.<.<.<.<.<.<.<.<.<.<.<.<.<.. o o o # $ o $ - = * z ",
"V r $ , % o o + o + + @ <.<.<.<.<.<.<.<.<.<.<.<.<.<.<.<.<.<.<.<.<.<.<.<.<.<.<.<.<.<.<.<.<.<.<.<.<.<.<.<.<.o o o o o X + = % * z ",
"B r $ , % X X $ + % X <.<.<.<.<.<.<.<.<.<.<.<.<.<.<.<.<.<.<.<.<.<.<.<.<.<.<.<.<.<.<.<.<.<.<.<.<.<.<.<.<.<.  O $ $ o . O = % , z ",
"N r + = + X o % * @ <.<.<.<.<.<.<.<.<.<.<.<.<.<.<.<.<.<.<.<.<.<.<.<.<.<.<.<.<.<.<.<.<.<.<.<.<.<.<.<.<.<.<.<.X $ $ O X o * % * g ",
"V r + % + + + % $ <.<.<.<.<.<.<.<.<.<.<.<.<.<.<.<.<.<.<.<.<.<.<.<.<.<.<.<.<.<.<.<.<.<.<.<.<.<.<.<.<.<.<.<.<.<.o % % O o % % * g "
};
