/* XPM */
static char *animation33[] = {
/* columns rows colors chars-per-pixel */
"64 53 101 2 ",
"   c #1A0F02",
".  c #1D1103",
"X  c #231505",
"o  c #251806",
"O  c #291907",
"+  c #241708",
"@  c #271909",
"#  c #2B1D0B",
"$  c #301F0C",
"%  c #2E200D",
"&  c #32220D",
"*  c #38250E",
"=  c #2F2110",
"-  c #342511",
";  c #392711",
":  c #372814",
">  c #3C2A13",
",  c #3E2E19",
"<  c #3C3729",
"1  c #412E14",
"2  c #422F18",
"3  c #453216",
"4  c #4A3516",
"5  c #4C3816",
"6  c #45331B",
"7  c #49361C",
"8  c #4D391C",
"9  c #533D1C",
"0  c #403320",
"q  c #493720",
"w  c #463A24",
"e  c #4D3A21",
"r  c #4B3D28",
"t  c #513E21",
"y  c #56411E",
"u  c #5B431D",
"i  c #61471D",
"p  c #62491F",
"a  c #544122",
"s  c #5C4522",
"d  c #5E4924",
"f  c #53452B",
"g  c #59472D",
"h  c #5E4A29",
"j  c #474535",
"k  c #4D4736",
"l  c #4D4B3B",
"z  c #544A33",
"x  c #5A4F38",
"c  c #624721",
"v  c #634B24",
"b  c #694E26",
"n  c #654E2A",
"m  c #694F28",
"M  c #675026",
"N  c #6C5226",
"B  c #66502B",
"V  c #6C532A",
"C  c #715427",
"Z  c #72552B",
"A  c #79562A",
"S  c #75582D",
"D  c #7B5A2D",
"F  c #624E32",
"G  c #665031",
"H  c #695433",
"J  c #6C5438",
"K  c #755730",
"L  c #755931",
"P  c #7B5C33",
"I  c #70583A",
"U  c #7B5D39",
"Y  c #7E6037",
"T  c #7E603B",
"R  c #815D2E",
"E  c #815E33",
"W  c #815F38",
"Q  c #846136",
"!  c #8A6335",
"~  c #83623A",
"^  c #8C663A",
"/  c #8E693E",
"(  c #90663A",
")  c #926A3C",
"_  c #986D3F",
"`  c #8C6B44",
"'  c #8D6D4A",
"]  c #946E42",
"[  c #8E714F",
"{  c #9B7143",
"}  c #96744F",
"|  c #9C754A",
" . c #A47545",
".. c #A87643",
"X. c #A4794C",
"o. c #AB7C4C",
"O. c #B07E4A",
"+. c #A47E56",
"@. c #AB7E51",
"#. c #B08252",
"$. c None",
/* pixels */
"V G r $.$.$.$.$.$.$.$.$.$.$.$.$.$.$.$.$.$.$.$.$.$.$.$.$.$.$.$.$.$.$.$.$.$.$.$.$.$.$.$.$.$.$.$.$.$.$.$.$.$.$.$.$.$.$.$.$.$.r e h ",
"Z V v H $.$.$.$.$.$.$.$.$.$.$.$.$.$.$.$.$.$.$.$.$.$.$.$.$.$.$.$.$.$.$.$.$.$.$.$.$.$.$.$.$.$.$.$.$.$.$.$.$.$.$.$.$.$.$.$.G n f d ",
"V N v D P I $.$.$.$.$.$.$.$.$.$.$.$.$.$.$.$.$.$.$.$.$.$.$.$.$.$.$.$.$.$.$.$.$.$.$.$.$.$.$.$.$.$.$.$.$.$.$.$.$.$.$.$.$.U D V a d ",
"N M v P Z E ` $.$.$.$.$.$.$.$.$.$.$.$.$.$.$.$.$.$.$.$.$.$.$.$.$.$.$.$.$.$.$.$.$.$.$.$.$.$.$.$.$.$.$.$.$.$.$.$.$.$.T ^ Z D M a d ",
"V v p R D D E ] ' $.$.$.$.$.$.$.$.$.$.$.$.$.$.$.$.$.$.$.$.$.$.$.$.$.$.$.$.$.$.$.$.$.$.$.$.$.$.$.$.$.$.$.$.$.$.$.` ^ S L Y V a d ",
"V v v D D D ! ! { | $.$.$.$.$.$.$.$.$.$.$.$.$.$.$.$.$.$.$.$.$.$.$.$.$.$.$.$.$.$.$.$.$.$.$.$.$.$.$.$.$.$.$.$.' | / Q Y A R N a d ",
"V M p D D d C ^ ] { @.[ $.$.$.$.$.$.$.$.$.$.$.$.$.$.$.$.$.$.$.$.$.$.$.$.$.$.$.$.$.$.$.$.$.$.$.$.$.$.$.$.$.@.X._ ) Y v V D V a d ",
"C N b D D V B N Q {  .o.+.$.$.$.$.$.$.$.$.$.$.$.$.$.$.$.$.$.$.$.$.$.$.$.$.$.$.$.$.$.$.$.$.$.$.$.$.$.$.} #... .) S M M D R M a d ",
"N N v D D V Z L Z P ] o.#.$.$.$.$.$.$.$.$.$.$.$.$.$.$.$.$.$.$.$.$.$.$.$.$.$.$.$.$.$.$.$.$.$.$.$.$.$.$.@.O...! C L S V A D V y d ",
"V N v A D V V S P P L ^ o.$.$.$.$.$.$.$.$.$.$.$.$.$.$.$.$.$.$.$.$.$.$.$.$.$.$.$.$.$.$.$.$.$.$.$.$.$.$.@. .P L P Y Z M A D V a u ",
"C b p A S v B L P W Q Q | J $.$.$.$.$.$.$.$.$.$.$.$.$.$.$.$.$.$.$.$.$.$.$.$.$.$.$.$.$.$.$.$.$.$.$.$.$.| ( ~ W U L H M C D V 6 d ",
"Z v s D A v V L L U U Q { I $.$.$.$.$.$.$.$.$.$.$.$.$.$.$.$.$.$.$.$.$.$.$.$.$.$.$.$.$.$.$.$.$.$.$.$.$.| ^ W W P S V M C D M 7 d ",
"V n c A A p v Z S P U P ] $.$.$.$.$.$.$.$.$.$.$.$.$.$.$.$.$.$.$.$.$.$.$.$.$.$.$.$.$.$.$.$.$.$.$.$.$.$.] Q U E L S V v C A N 7 d ",
"Z m u A A v B V L L P P / $.$.$.$.$.$.$.$.$.$.$.$.$.$.$.$.$.$.$.$.$.$.$.$.$.$.$.$.$.$.$.$.$.$.$.$.$.$.] Q P P S Z V v C D N 6 s ",
"C v d C C v v V Z L L L ^ G $.$.$.$.$.$.$.$.$.$.$.$.$.$.$.$.$.$.$.$.$.$.$.$.$.$.$.$.$.$.$.$.$.$.$.$.$.` P L L L V M c N A v 7 d ",
"C M u C C h h V V L L L ~ F $.$.$.$.$.$.$.$.$.$.$.$.$.$.$.$.$.$.$.$.$.$.$.$.$.$.$.$.$.$.$.$.$.$.$.$.$.` P L L V V B h N A v 5 v ",
"S c u C C d d M V V L V T g $.$.$.$.$.$.$.$.$.$.$.$.$.$.$.$.$.$.$.$.$.$.$.$.$.$.$.$.$.$.$.$.$.$.$.$.$.~ K S Z V V n s N C v 5 V ",
"A v u N N v d d n V V V Y $.$.$.$.$.$.$.$.$.$.$.$.$.$.$.$.$.$.$.$.$.$.$.$.$.$.$.$.$.$.$.$.$.$.$.$.$.$.U S V m m n h h b Z c 8 M ",
"Z v u N N V V Z Z V V Z L $.$.$.$.$.$.$.$.$.$.$.$.$.$.$.$.$.$.$.$.$.$.$.$.$.$.$.$.$.$.$.$.$.$.$.$.$.$.U C m Z C V V V b C c 5 v ",
"Z v y C S S L L A P W E U $.$.$.$.$.$.$.$.$.$.$.$.$.$.$.$.$.$.$.$.$.$.$.$.$.$.$.$.$.$.$.$.$.$.$.$.$.$.L P U E U P S D S D d 5 v ",
"Z d 9 b A D ! ^ ( ) ) ) ~ t $.$.$.$.$.$.$.$.$.$.$.$.$.$.$.$.$.$.$.$.$.$.$.$.$.$.$.$.$.$.$.$.$.$.$.$.$.K ^ ) ] ( / ! E A b s 7 v ",
"A v 9 v y y u p b Z R E Q $.$.$.$.$.$.$.$.$.$.$.$.$.$.$.$.$.$.$.$.$.$.$.$.$.$.$.$.$.$.$.$.$.$.$.$.$.$.K ! R A C v u y 9 c s 5 v ",
"C v 9 p c v v b m m V V H $.$.$.$.$.$.$.$.$.$.$.$.$.$.$.$.$.$.$.$.$.$.$.$.$.$.$.$.$.$.$.$.$.$.$.$.$.$.V Z m m m b b c h v s 7 v ",
"V v 9 v s 4 5 8 9 s s v V $.$.$.$.$.$.$.$.$.$.$.$.$.$.$.$.$.$.$.$.$.$.$.$.$.$.$.$.$.$.$.$.$.$.$.$.$.$.G b c c 9 9 5 5 9 b s 5 M ",
"Z d y i u 8 7 q e e e a n $.$.$.$.$.$.$.$.$.$.$.$.$.$.$.$.$.$.$.$.$.$.$.$.$.$.$.$.$.$.$.$.$.$.$.$.$.$.n u t e e 7 7 7 9 v u 3 v ",
"Z d 5 p s t e t a d d a h $.$.$.$.$.$.$.$.$.$.$.$.$.$.$.$.$.$.$.$.$.$.$.$.$.$.$.$.$.$.$.$.$.$.$.$.$.$.v s a s s t e e s v u 3 M ",
"C d 5 u s 8 e e t a t t h $.$.$.$.$.$.$.$.$.$.$.$.$.$.$.$.$.$.$.$.$.$.$.$.$.$.$.$.$.$.$.$.$.$.$.$.$.$.h a t a a t e 8 u p 9 3 M ",
"Z u 5 p s 8 7 q e t t t h $.$.$.$.$.$.$.$.$.$.$.$.$.$.$.$.$.$.$.$.$.$.$.$.$.$.$.$.$.$.$.$.$.$.$.$.$.$.n t 9 t t e e 7 y p 9 6 M ",
"Z u 8 u u 8 q q e t t q g k < $.$.$.$.$.$.$.$.$.$.$.$.$.$.$.$.$.$.$.$.$.$.$.$.$.$.$.$.$.$.$.$.$.$.$.< x a e t e q q 7 9 c 9 6 v ",
"Z u 5 u u 8 6 q e e t q f l l $.$.$.$.$.$.$.$.$.$.$.$.$.$.$.$.$.$.$.$.$.$.$.$.$.$.$.$.$.$.$.$.$.$.$.j z e e e 9 q 7 7 9 p 9 3 v ",
"V y 5 u y 7 7 q e e e q q $.$.$.$.$.$.$.$.$.$.$.$.$.$.$.$.$.$.$.$.$.$.$.$.$.$.$.$.$.$.$.$.$.$.$.$.$.$.0 q q q q 7 7 7 9 i 9 3 p ",
"N u 6 u y 5 3 7 e e w q q $.$.$.$.$.$.$.$.$.$.$.$.$.$.$.$.$.$.$.$.$.$.$.$.$.$.$.$.$.$.$.$.$.$.$.$.$.$.q q q q q 7 7 3 9 i 5 3 v ",
"C 9 6 i t 7 2 7 q q q 6 a $.$.$.$.$.$.$.$.$.$.$.$.$.$.$.$.$.$.$.$.$.$.$.$.$.$.$.$.$.$.$.$.$.$.$.$.$.$.e 7 7 q q 7 6 2 9 y 9 ; c ",
"C 9 3 9 9 6 2 7 7 7 w 8 7 $.$.$.$.$.$.$.$.$.$.$.$.$.$.$.$.$.$.$.$.$.$.$.$.$.$.$.$.$.$.$.$.$.$.$.$.$.$.7 8 7 7 q q 6 2 9 u 4 > d ",
"C 9 3 9 9 2 2 7 e e y s a $.$.$.$.$.$.$.$.$.$.$.$.$.$.$.$.$.$.$.$.$.$.$.$.$.$.$.$.$.$.$.$.$.$.$.$.$.$.7 u y t e q 2 2 4 u 5 , c ",
"C 9 6 9 7 4 5 9 a d v u 8 $.$.$.$.$.$.$.$.$.$.$.$.$.$.$.$.$.$.$.$.$.$.$.$.$.$.$.$.$.$.$.$.$.$.$.$.$.$.6 y u c s e 9 7 7 y 5 , v ",
"Z y 3 9 7 8 t i c y 5 3 , $.$.$.$.$.$.$.$.$.$.$.$.$.$.$.$.$.$.$.$.$.$.$.$.$.$.$.$.$.$.$.$.$.$.$.$.$.$., 2 7 9 u c s 9 4 a 7 , h ",
"b u 3 a u i u 5 3 3 7 , , $.$.$.$.$.$.$.$.$.$.$.$.$.$.$.$.$.$.$.$.$.$.$.$.$.$.$.$.$.$.$.$.$.$.$.$.$.$.: > 2 2 , 3 9 i y u 7 6 s ",
"N a , 5 5 ; ; , 6 > % O : $.$.$.$.$.$.$.$.$.$.$.$.$.$.$.$.$.$.$.$.$.$.$.$.$.$.$.$.$.$.$.$.$.$.$.$.$.$.: & # * 3 2 > > 4 9 3 , u ",
"V 9 > 3 ; 2 3 - % % - & - $.$.$.$.$.$.$.$.$.$.$.$.$.$.$.$.$.$.$.$.$.$.$.$.$.$.$.$.$.$.$.$.$.$.$.$.$.$.: - - = % * 2 2 > > 6 ; c ",
"V 9 * 5 2 & # # - - : - - $.$.$.$.$.$.$.$.$.$.$.$.$.$.$.$.$.$.$.$.$.$.$.$.$.$.$.$.$.$.$.$.$.$.$.$.$.$.- & - : : % o % ; 7 1 ; s ",
"V 9 > 7 ; o # : * - - % % $.$.$.$.$.$.$.$.$.$.$.$.$.$.$.$.$.$.$.$.$.$.$.$.$.$.$.$.$.$.$.$.$.$.$.$.$.$.= # - - - : % o & 3 3 > s ",
"m 9 : 3 , & # & - - - # % $.$.$.$.$.$.$.$.$.$.$.$.$.$.$.$.$.$.$.$.$.$.$.$.$.$.$.$.$.$.$.$.$.$.$.$.$.$.= # # - $ - % % ; 4 1 : s ",
"m 9 * 1 ; = # & % - % # @ $.$.$.$.$.$.$.$.$.$.$.$.$.$.$.$.$.$.$.$.$.$.$.$.$.$.$.$.$.$.$.$.$.$.$.$.$.$.# o # = = & % % * 1 ; : h ",
"b 9 $ 1 , & # - # = # o o $.$.$.$.$.$.$.$.$.$.$.$.$.$.$.$.$.$.$.$.$.$.$.$.$.$.$.$.$.$.$.$.$.$.$.$.$.$.@ + @ # # & # # * 1 * * s ",
"b 4 & 1 ; & # = # # # X X $.$.$.$.$.$.$.$.$.$.$.$.$.$.$.$.$.$.$.$.$.$.$.$.$.$.$.$.$.$.$.$.$.$.$.$.$.$.+ + + # # = # # : 1 * & i ",
"v 9 $ 1 > # @ # # # o   . $.$.$.$.$.$.$.$.$.$.$.$.$.$.$.$.$.$.$.$.$.$.$.$.$.$.$.$.$.$.$.$.$.$.$.$.$.$..   . @ # # # # * 1 * * u ",
"b 5 $ ; ; # @ @ # o X     $.$.$.$.$.$.$.$.$.$.$.$.$.$.$.$.$.$.$.$.$.$.$.$.$.$.$.$.$.$.$.$.$.$.$.$.$.$.      + @ # @ @ & > & * s ",
"v 8 & ; * O o @ @ X X X X $.$.$.$.$.$.$.$.$.$.$.$.$.$.$.$.$.$.$.$.$.$.$.$.$.$.$.$.$.$.$.$.$.$.$.$.$.$.  X X X X @ + X & > * $ i ",
"b 8 # * $ o X X @ X o O   $.$.$.$.$.$.$.$.$.$.$.$.$.$.$.$.$.$.$.$.$.$.$.$.$.$.$.$.$.$.$.$.$.$.$.$.$.$.$.X O X X + X X # * $ & s ",
"c 8 $ & $ X . X @ # $   $.$.$.$.$.$.$.$.$.$.$.$.$.$.$.$.$.$.$.$.$.$.$.$.$.$.$.$.$.$.$.$.$.$.$.$.$.$.$.$.$.o # # o   . # - & * u ",
"c 7 # * O . . @ $ $ o $.$.$.$.$.$.$.$.$.$.$.$.$.$.$.$.$.$.$.$.$.$.$.$.$.$.$.$.$.$.$.$.$.$.$.$.$.$.$.$.$.$.$.# # # X   O & # * u ",
"b 8 # $ O X O $ $ o $.$.$.$.$.$.$.$.$.$.$.$.$.$.$.$.$.$.$.$.$.$.$.$.$.$.$.$.$.$.$.$.$.$.$.$.$.$.$.$.$.$.$.$.$.# & O X X & $ & u "
};
