/* XPM */
static char *animation23[] = {
/* columns rows colors chars-per-pixel */
"64 53 135 2 ",
"   c #160D02",
".  c #1A0F01",
"X  c #1D1203",
"o  c #231504",
"O  c #281704",
"+  c #261806",
"@  c #291A06",
"#  c #231609",
"$  c #26190A",
"%  c #2C1D0C",
"&  c #311E0A",
"*  c #2C1F10",
"=  c #2E200D",
"-  c #33230D",
";  c #39250D",
":  c #37280E",
">  c #3B290F",
",  c #2E2111",
"<  c #2E261C",
"1  c #352512",
"2  c #392711",
"3  c #362815",
"4  c #3B2A13",
"5  c #32271B",
"6  c #362918",
"7  c #3D2D19",
"8  c #3E301C",
"9  c #422E14",
"0  c #412F19",
"q  c #443116",
"w  c #4A3415",
"e  c #4E3917",
"r  c #45331B",
"t  c #49361C",
"y  c #4D391D",
"u  c #543C15",
"i  c #583E16",
"p  c #523D1C",
"a  c #5A3F1B",
"s  c #453521",
"d  c #493620",
"f  c #463820",
"g  c #4D3B22",
"h  c #4C3E29",
"j  c #513E21",
"k  c #55401E",
"l  c #5B431D",
"z  c #61461D",
"x  c #62481E",
"c  c #544123",
"v  c #5B4522",
"b  c #5E4825",
"n  c #544429",
"m  c #5E4728",
"M  c #5D4929",
"N  c #524835",
"B  c #5F4D31",
"V  c #5D523F",
"C  c #634722",
"Z  c #644A24",
"A  c #6A4E24",
"S  c #634729",
"D  c #644D29",
"F  c #694F2A",
"G  c #665026",
"H  c #6C5126",
"J  c #67502D",
"K  c #6C532A",
"L  c #725326",
"P  c #785427",
"I  c #765827",
"U  c #73552B",
"Y  c #79572B",
"T  c #74592D",
"R  c #7B5A2D",
"E  c #675031",
"W  c #6D5432",
"Q  c #735631",
"!  c #765A31",
"~  c #7B5C33",
"^  c #7D5E3A",
"/  c #7F6034",
"(  c #585747",
")  c #5D5848",
"_  c #605946",
"`  c #615D4C",
"'  c #695E49",
"]  c #7D5F40",
"[  c #7E6243",
"{  c #75654B",
"}  c #815D2E",
"|  c #825E33",
" . c #815F3A",
".. c #846135",
"X. c #8B6436",
"o. c #84623B",
"O. c #8C663A",
"+. c #8E693C",
"@. c #906736",
"#. c #90673A",
"$. c #936A3C",
"%. c #9A6D3D",
"&. c #99703F",
"*. c #836340",
"=. c #856847",
"-. c #8A6A47",
";. c #8D6E4A",
":. c #956E41",
">. c #986F42",
",. c #906F49",
"<. c #967043",
"1. c #9D7242",
"2. c #95724B",
"3. c #9E774D",
"4. c #967452",
"5. c #9B7953",
"6. c #9C7A58",
"7. c #A27544",
"8. c #A97745",
"9. c #A97846",
"0. c #A47749",
"q. c #A77B4E",
"w. c #AC7B4A",
"e. c #B07E4D",
"r. c #A47C53",
"t. c #B3804F",
"y. c #AB835A",
"u. c #B38455",
"i. c #BA8553",
"p. c #BF8956",
"a. c #B0855B",
"s. c #C48C5A",
"d. c #C79261",
"f. c #CB9461",
"g. c None",
/* pixels */
"n c J K W B g.g.g.g.g.g.g.g.g.g.g.g.g.g.g.g.g.g.g.g.g.g.g.g.g.g.g.g.g.g.g.g.g.g.g.g.g.g.g.g.g.g.g.g.g.g.g.g.g.g.g.g.M E W W c n ",
"n n J T Y R | ^  .] [ g.g.g.g.g.g.g.g.g.g.g.g.g.g.g.g.g.g.g.g.g.g.g.g.g.g.g.g.g.g.g.g.g.g.g.g.g.g.g.g.g.g.[ *. . . .~ R R K n n ",
"n p G I ..U J U Y | #.%.:.2.2.=.g.g.g.g.g.g.g.g.g.g.g.g.g.g.g.g.g.g.g.g.g.g.g.g.g.g.g.g.g.g.g.g.[ ;.2.<.$.$.X.~ U J K X.R K c n ",
"n y G U ....R / ^ Q ~ ~ ..X.<.1.0.q.r.5.6.g.g.g.g.g.g.g.g.g.g.g.g.g.g.g.g.g.g.g.g.g.g.g.6.r.q.0.7.1.#.O.| R ! ! ^ ~ R X.U U g c ",
"h w H L } ..R K U ~ X.X.+.#.$.#.$.:.>.7.w.i.i.u.y.6.g.g.g.g.g.g.g.g.g.g.g.g.4.r.e.a.p.e.8.1.:.:.+.+.$.+.O.X.| Q K I R X.P K j h ",
"n y H I } R R K m b b J U R X.$.>.7.0.7.1.7.7.8.w.s.d.y.g.g.g.g.g.g.g.g.*.d.s.i.8.8.0.>.7.7.7.7.%.O.| U F S m m J R R X.I P k n ",
"n p L L } R } R J D J W K F F F W Q | O.%.7.e.e.w.7.s.y.g.g.g.g.g.g.g.g.o.f.7.w.e.e.w.1.$.| ~ Q F F F J K F E F T ..Y ..I U p c ",
"n y A L } } } / D J J ! R Y | ~ ~ ! ~ Q U ! | | 7.8.i.y.g.g.g.g.g.g.g.g. .s.8.w.#.| R Q W ~ ! ~ ~ ~ ~ R ~ U D D K R R | L U p n ",
"k k H L } R } T D J J T T T R R ~ ^ o.^ | o.o. ...7.e.r.g.g.g.g.g.g.g.g.~ s.>.:.!  .o. .~ o.o.| R ~ T T U K D D T } R } I T p c ",
"c k H H R R } T A J D U I T T ~ ! / o./ !  .O.o.| <.w.q.g.g.g.g.g.g.g.g.~ i.%.:.! O.O.| ^ o.| ! ! R T T ! J D D K ..I R L U k h ",
"f r A H R R R L D b D L U U T ~ Q ~ / / ^ |  . .~ :.8.3.g.g.g.g.g.g.g.g.Q i.#.O.U ..^ ~ ~ / / ! ! R T T U F D S H R I ..H K y g ",
"n t A H } I R U v S D J K U T ! ! ! ! / ~ ~ | ! ! +.7.2.g.g.g.g.g.g.g.g.Q e.#.O.U ^ ^ ~ ~ ~ ~ R T ! T K K Z m b G R I ..H H g n ",
"c c M G R I R U Z b Z J K K T U T R / T T ~ ^ ! ! +.1.;.g.g.g.g.g.g.g.g.W w.X.O.U ~ / U ! ! ! U ! T K L J Z Z b H R I ..L H c g ",
"c t G G R P Y U M Z M D H K U T W R ! T U T ~ ~ Q O.$.;.g.g.g.g.g.g.g.g.W 7.|  .U ! ! ! U ! ! T W T L G J Z M D G R L } H H h c ",
"c y b G Y P U K b M M Z J G K U K K ! ! U T ~ T W o.+.-.g.g.g.g.g.g.g.g.~ 1.|  .F ~ ! T U ! U K T K G G D b b M Z R H } H J y n ",
"c e Z x U I I K M M M Z Z Z K K J K U U K U ! K K / X.o.g.g.g.g.g.g.g.g.S :.~ ~ F Q Q K W U W H K K G G Z v M M G T H } x Z p p ",
"c w G Z I L H I m n M b Z Z A J A K K K K K T K D ^ X.*.g.g.g.g.g.g.g.g.S :.~ Q M T K K K U K A G G G Z D m n M Z T H R A A u j ",
"k e l x T H G G D D D J A J H J K G H K K K T J D ~ | o.g.g.g.g.g.g.g.g.S $.Q Q M T K G U K J J K K G G Z Z D G G K Z ~ x A p j ",
"c r l x U L Z L A P U P U T ! R R ^ R ~ / / / / Q Q | [ g.g.g.g.g.g.g.g.S #.Y Q T / ~ ~ R R } R Q T T R L U U K K G C R x Z y h ",
"c r v b I ..~ ~ | | ..| ....~ ....| ........o./ o.! ~ ^ g.g.g.g.g.g.g.g.U  .L  .o./ X.........| ..~ ....^ | | | / ~ / R C S y j ",
"g r v v C C A L L U Y } } | X.#.X.X.%.%.$.%.&.%.%.>.| Q g.g.g.g.g.g.g.g.b | | 7.%.%.&.%.%.%.#.X.$.X.| } } } P P P A Z Z l v e c ",
"c q k l A C j j c j j j v l l S C C C Z Z H A L H U ~ Q g.g.g.g.g.g.g.g.m | Y U K H A A A C S C Z v v l k a j j c j p K C v r h ",
"h q k z H A C j S Z Z F A A A F J H U U P U U Y Q J T W g.g.g.g.g.g.g.g.v ~ S U T T U L P U F K J J G A A Z C S v v Z I x l r g ",
"h q a z A Z C p 0 0 t w e w w y y p p p j j v v Z K K W g.g.g.g.g.g.g.g.c R Z F v v c c p a y y y w w y y w w 0 w v l T l l r g ",
"g q k l A x l c t d y g t g y j j p g p j j j c j B F F g.g.g.g.g.g.g.g.S U Z D d j n j j j p j j j t g t d d d j b l L l l w g ",
"g 4 k l A x Z v y g c t p p j a v v k M v j v j j D D E g.g.g.g.g.g.g.g.j U v v j v j k l v l v v a j p d g g g c C l H l l r t ",
"c > k k A l b c t g d t g p p j k c k c c j h j p n Z J g.g.g.g.g.g.g.g.j U v v j j j j k p k k p j j j d d d y y b k K l k 7 y ",
"y > k e A z l c t d d t y g t j k k j v c j j j y M D D g.g.g.g.g.g.g.g.j U j j g j g j v j j p p g g y y d d d c v l H u k 7 t ",
"y 4 c e Z C v k d d d t t y t p y y g p c y g g y c B ' g.g.g.g.g.g.g.g.N { p j g g g p j p p p p y y y r d d d j l l I u p q s ",
"c > k e Z l c p t t t r t g g g c g g j j p j g g c f ) ( g.g.g.g.g.g.g.` N g j d j g p j g d g g g g d r t t r y k l x u k q t ",
"t : y p x x l j t r s t t d t t g y d g y y g d t n h ) g.g.g.g.g.g.g.g._ _ t j t d d y j d t g g t t s s s t t y v u G i k 4 r ",
"f : y k x l i p s r r r w d d d g g d y g t d d r c < < g.g.g.g.g.g.g.g.5 5 0 j r d d d g y g g t t t y w s r r y k l x p p > r ",
"t - y y l l p j r s s r w t s s t y t t g s d s r g t 8 g.g.g.g.g.g.g.g.7 s d g 8 d t d d t g y t d t e t 0 s r d j i Z u g 4 7 ",
"8 - y t l k p y 0 0 r 0 t t d t t y g t t t s s 8 g k f g.g.g.g.g.g.g.g.r j t d 8 r f t t t y t t t t t 0 0 r 0 y j p C y u 4 7 ",
"f - e e l l p y 0 0 0 7 r s t r t t t t t t f g f t e f g.g.g.g.g.g.g.g.7 j w f t h t r t t t t t t t t 0 0 0 7 w j p A e y : q ",
"y : e y l v p t r 0 0 t y t y g g c g j p p k l c t r t g.g.g.g.g.g.g.g.7 t r j k k k i c g g g g g f t s 0 r 0 t p e C e y 4 r ",
"y - t t l a y y s d y e p u g c c c v b z z C C Z b y q g.g.g.g.g.g.g.g.6 t p Z Z l C x C l k c c c k y p e p t t t w G e y > t ",
"c - w r k p r g j j j v z x x Z Z Z x l l p y w w 7 w 8 g.g.g.g.g.g.g.g.g.r 9 9 q r k k l z A Z Z Z x l v l p p g e y l r t 3 t ",
"c = w w p z z a a a a a u e w q q q q 7 0 9 r t t 8 7 4 g.g.g.g.g.g.g.g.< q 6 r t r q q 7 9 0 0 q w w u u a l l k l x l r e : 8 ",
"8 = 7 k w 9 4 2 2 9 2 9 7 7 q r q r w q 9 7 4 1 2 7 7 3 g.g.g.g.g.g.g.g., 9 ; 7 - 2 4 9 9 w w 0 r q 7 7 7 > > 2 4 > 4 r e w - 8 ",
"8 = > w w 7 6 7 r 0 0 q 9 9 4 : : = $ = - % = = = 3 3 3 g.g.g.g.g.g.g.g.* 7 3 1 $ = $ = @ % & : : > 4 4 0 0 0 0 8 7 4 e q t % 7 ",
"8 = 8 q k w 8 : - & $ + @ $ % , = 1 3 3 2 6 6 1 = 1 4 6 g.g.g.g.g.g.g.g.* 6 1 1 = 6 2 2 3 1 1 - = = $ % @ @ @ & - 4 q p q r = 7 ",
"8 o > w w w q : O $ @ $ - 6 2 2 4 7 2 1 6 6 1 = % 1 3 1 g.g.g.g.g.g.g.g.* 3 = 1 = - 2 2 1 3 2 2 2 3 2 1 & $ $ # = q 7 e w r $ 4 ",
"8 = q q w q q 4 - * * & - 4 2 = = 1 7 - : 2 1 % $ , , 1 g.g.g.g.g.g.g.g.$ 3 % % X = 3 3 1 3 2 1 = 2 4 ; - & & % 1 q > u q w $ 6 ",
"r + 4 ; 9 9 4 4 & * * % % 1 3 & = : 1 - - : = $ $ = = * g.g.g.g.g.g.g.g.$ 1 $ = + = = 3 = - 1 - = : 3 = % % & & - 9 4 w : 9 @ 6 ",
"8 + ; ; 9 9 4 4 * * * % = - 1 - = - 1 - = = % $ o * % , g.g.g.g.g.g.g.g.g., $ % X = = = % : 1 1 = - : = % * * * 1 4 9 w ; : O 7 ",
"r o : ; q 9 4 7 * & * $ % 1 - % % = 1 % % % , # X % % $ g.g.g.g.g.g.g.g.g.% $ $ . = = % % 1 1 % % = : = * * * % 1 7 2 w ; 2 + 7 ",
"8 o ; ; 9 4 4 4 % % * * % - - * $ = & * @ % $ #   % % $ g.g.g.g.g.g.g.g.g.$ $ #   $ % + $ % % % % = = = % * % % : > ; r ; ; + 3 ",
"s o : - > 9 ; 3 $ $ % $ $ & * % $ % % @ + + O o   # # X g.g.g.g.g.g.g.g.g.# X X . O o o @ O & $ $ % - $ $ % $ $ 1 4 ; 9 & ; O 3 ",
"8 X & - 9 2 - - $ $ # @ $ % * $ @ @ @ O + o .     X X # g.g.g.g.g.g.g.g.g.# X X   . . O o @ $ @ $ % % $ $ # # # % 2 ; 9 ; ; o 3 ",
"7 X - & > ; : % # # o # # $ * # o O o o o o . . . X X X g.g.g.g.g.g.g.g.g.X . .   . . o o O o O + $ % + # # o o @ 1 - 9 & & o 3 ",
"8 o & & 4 : - & X o . O o o % # o o o o X o O o o X     g.g.g.g.g.g.g.g.g.. . o o O . o O o o + + $ # o o o X X O 1 % 9 & 1 X 1 ",
"8 X * & ; - % & X X . X X o O O o O o o O O @ $ $ + X   g.g.g.g.g.g.g.g.g.  o + O O o O O O O + # @ o X o   . o @ ; @ 2 & 1 . 6 "
};
