/* XPM */
static char *animation19[] = {
/* columns rows colors chars-per-pixel */
"64 53 145 2 ",
"   c #0E0902",
".  c #150D02",
"X  c #1A0F02",
"o  c #1D1203",
"O  c #1D130B",
"+  c #231505",
"@  c #261806",
"#  c #291A06",
"$  c #241609",
"%  c #26190A",
"&  c #2B1C0C",
"*  c #311D07",
"=  c #311F0A",
"-  c #2E1E10",
";  c #2E210D",
":  c #33230E",
">  c #3A260E",
",  c #3C2A0F",
"<  c #2D2213",
"1  c #342511",
"2  c #392611",
"3  c #362914",
"4  c #3B2A14",
"5  c #312719",
"6  c #352A19",
"7  c #3C2D1A",
"8  c #3E321D",
"9  c #412E14",
"0  c #412F19",
"q  c #453216",
"w  c #4A3415",
"e  c #4F3916",
"r  c #45331B",
"t  c #49361C",
"y  c #4D391D",
"u  c #533B16",
"i  c #523D1D",
"p  c #5B3F1A",
"a  c #443521",
"s  c #4A3721",
"d  c #463A23",
"f  c #4E3B21",
"g  c #463D2C",
"h  c #483E2A",
"j  c #523E21",
"k  c #584117",
"l  c #56411E",
"z  c #5B431D",
"x  c #61471D",
"c  c #64491E",
"v  c #4A402B",
"b  c #554122",
"n  c #5B4523",
"m  c #5E4925",
"M  c #544329",
"N  c #5B462A",
"B  c #5E4A2A",
"V  c #594A37",
"C  c #534C3B",
"Z  c #624622",
"A  c #644B24",
"S  c #6A4E24",
"D  c #644D29",
"F  c #6A4F29",
"G  c #655025",
"H  c #6C5125",
"J  c #67512C",
"K  c #6D532A",
"L  c #735426",
"P  c #795527",
"I  c #73552C",
"U  c #79562B",
"Y  c #74592D",
"T  c #7B5A2D",
"R  c #634E31",
"E  c #6A5232",
"W  c #665038",
"Q  c #6D5539",
"!  c #6B583B",
"~  c #735731",
"^  c #765932",
"/  c #7C5C33",
"(  c #765B3A",
")  c #7D5E3B",
"_  c #7D613E",
"`  c #625D4D",
"'  c #766547",
"]  c #7B6143",
"[  c #676352",
"{  c #6E6856",
"}  c #6F6C5A",
"|  c #825E2E",
" . c #825E33",
".. c #895F31",
"X. c #825F39",
"o. c #82602F",
"O. c #846134",
"+. c #8A6335",
"@. c #856339",
"#. c #8B653A",
"$. c #8E683B",
"%. c #936635",
"&. c #956837",
"*. c #90663A",
"=. c #936A3C",
"-. c #9A6D3C",
";. c #9B703F",
":. c #A1703D",
">. c #846645",
",. c #8D6A44",
"<. c #806B4E",
"1. c #8D6D4A",
"2. c #936C41",
"3. c #9B6F41",
"4. c #977143",
"5. c #9D7244",
"6. c #94724D",
"7. c #9E7648",
"8. c #947452",
"9. c #9C7753",
"0. c #9D7954",
"q. c #A37545",
"w. c #A97745",
"e. c #A57847",
"r. c #AA7847",
"t. c #A47748",
"y. c #A5784A",
"u. c #AC7B4B",
"i. c #B27E4D",
"p. c #AC7E51",
"a. c #B6804F",
"s. c #B9824F",
"d. c #AA8056",
"f. c #AD8359",
"g. c #B58251",
"h. c #BA8554",
"j. c #B78659",
"k. c #B7885B",
"l. c #BA895C",
"z. c #BC8D61",
"x. c #C18956",
"c. c #C38E5D",
"v. c #CD935F",
"b. c #D29966",
"n. c None",
/* pixels */
"8 b K ^ ( ( _ ( Q R n.n.n.n.n.n.n.n.n.n.n.n.n.n.n.n.n.n.n.n.n.n.n.n.n.n.n.n.n.n.n.n.n.n.n.n.n.n.n.n.n.n.n.n.n.Q Q ) ( ( U ~ m a ",
"8 n K I T I / | ..*.2.2.2.,.1.1.>.n.n.n.n.n.n.n.n.n.n.n.n.n.n.n.n.n.n.n.n.n.n.n.n.n.n.n.n.n.n.' 1.1.1.2.2.*.*.@. ./ U U ^ I D d ",
"8 b K P +.Y K I E I U  .+.*.3.5.t.t.i.p.p.j.d.y.8.] n.n.n.n.n.n.n.n.n.n.n.n.n.6.9.p.d.p.y.i.u.y.q.4.*.#.X./ I I E E K #.^ I m r ",
"5 y K Y +.o./ T ..X.#.X.#.#.#.#.*.#.2.3.7.q.u.g.i.i.j.z.l.z.n.n.n.n.f.l.j.j.g.g.s.i.q.q.3.-.*.$.#.#.#.#.#.#... .X.T T #.U I n 6 ",
"5 y K L +.T T G m J K Y  .O.#.-.3.w.q.q.t.q.q.q.t.t.5.y.x.b.6.n.n.n.c.v.u.q.q.q.t.7.5.t.q.q.q.q.-.=.O.O.^ L H D m Y T +.U L N 7 ",
"6 l L L +.T o.Y B B B J D A A F E ~ T X.@.=.3.q.i.g.h.y.u.b.6.n.n.n.c.c.q.h.g.i.r.5.=.*.X. .I I F F D J D D N B H o.T o.P L D 8 ",
"8 l I L o.T o.Y J J J ^ ^ ^ / / ^ U ^ ( ^ I ~ ~ ( ^ *.r.w.v.,.n.n.n.h.h.q.y./ / ~ ~ I E ^ ^ ( U ~ / / ^ / K J F K o.T +.P L A 8 ",
"6 l H Y O.T o.Y F F K Y P I T  .^ / / #.X./ @.@.#.X.O.t.e.c.,.n.n.n.g.g.-.4.^ #.@.@.X. .#.X. .^ / / Y P Y J F F K O.Y +.P L m 8 ",
"6 l L L o.T O.Y D J J K Y Y Y / Y Y _ O._ T X.@.#._ _ 5.q.x.,.n.n.n.d.a.=.2.Y #.#.X./ / @.X./ ^ _ Y Y Y I F D F K / L o.L Y m r ",
"6 l L H o.Y T P D D A K K Y T T _ Y T O._ / X.X.@.^ T 4.-.h.>.n.n.n.u.u.*.=.I #.) ) / ) O. ./ Y Y P Y Y I D D D K o.Y +.L P m 8 ",
"6 y H H | L T I m Z D J I K Y ^ Y Y / / / / / / / ^ ^ =.&.a.>.n.n.n.r.w.%.@.F X./ / / / X.T ^ ^ T Y Y K I F Z N G T Y o.L L n 8 ",
"5 l H H o.L T H m m D F K K I ^ Y Y T / T / ^ X./ ^ Y =.%.u.] n.n.n.7.q.@.#.I / X./ ^ ( / ^ Y I ^ Y K K J D m m H T L o.H H n 8 ",
"8 b G H o.L T Y m A D D H K I Y ^ Y ^ ^ Y ^ Y T / ^ K $.+.r._ n.n.n.7.2.O.@.L / ^ / Y ^ Y _ Y Y ^ Y K H G D m m H T L o.L H z d ",
"6 f H H o.L U H m m m A K G K K Y K Y ^ ^ I Y _ / ^ K #.| y.( n.n.n.7.=. .O.K ^ / Y I ^ Y Y I I Y K G J G A D m G U H o.L K n 8 ",
"6 y G H T L T K m B m m F A J I Y J K Y I K E Y ^ K K @.| q.( n.n.n.2.*.T _ S ^ Y ^ K I Y Y J J Y J D F m m m N G T H | H G n 8 ",
"3 i G c o.H L K n N N N F A H J J F K I I K K ~ ~ K J @.| 5.Q n.n.n.,.%./ / A I Y K K I K K H J K G A D m N N n J P H T H G z 8 ",
"6 k S c T H L H N N m m A A F F F A H K K K J K I D D / T 5.Q n.n.n.=.+.Y ^ B K Y K J K K F S F H H D A Z N N n A P c  .S S l 7 ",
"6 e c c T H K J F F J F F K L F I K Y K K Y K Y I E B ( T -.E n.n.n.$.+.^ E D ~ I K K Y K I I E K K K S F F F K J I c T S c k 7 ",
"3 y z G T S A K L L I K I ^ U I ^ /  .O.T O.O._ X.@.^ ^ U 2.R n.n.n.@.O.I / / @._ _ O.X./ O. .U ^ I ^ I I I I L K G x | S A l 7 ",
"6 y m z U O. .O.X. .@...@.+.#.@.$.@.+.*.$.#.%.$.@.#.2.#.I $.D n.n.n.X.X.U *.&.@.%.+.+.$.#.$.@.$.#.@.#.#.X...X. ._ O.O./ c Z j 8 ",
"< t n z x x S S S S P U U U T  ... ...%.%.+.&.-.-.%.-.3. .O.N n.n.n.( | =.:.&.&.-.&.%.+.%....... .T U U P P P S S S Z c Z m i 7 ",
"< w l A K n j j b j j b z l n Z Z n m Z A A Z S A F S A I +.V n.n.n.(  .F S S S D A A S Z Z n Z m m n n n j j j b j l K A l y 3 ",
"1 t z x L Z n j Z A Z S S S S J F K F P I L L I Y / T J H X.N n.n.n.U Y A I ^ Y Y I H L L P K J F S S S S A Z Z Z n m L c z i 3 ",
"; t z z L x Z i 0 0 r t t w q r r s t i i j j j j i m H S / B n.n.n.I I S J j b b b f i i w t t r r r w 0 t r 0 r n z I c z l 3 ",
"< q z k H z m l t s t f t y y i j j y i i j f M b j j J A T M n.n.n.I K A Z s b b h j j j y i j j j s t t f t s y m z H z z i 1 ",
"< 7 z z H z A l y f b y y i l i n m n p m n b l b j j A m Y N n.n.n.K K m m f n b b b m z l n n l j j i y s j s y A z H x z y 1 ",
"; , k k K z m b s t s s y b f b j l b i z b j j j f j A m Y M n.n.n.K J n n s b b f b l l l n j j f j j s s s s j m k K z p t : ",
"; 4 l l H z n b t t f t y f t y b i b i l M f f M j i m z I M n.n.n.F A l n s M b y b b i l i i j y s y y s t s f m i H p i t ; ",
"& 7 y e H z n l t s t r t s y t i j i f l b i f f f y m b ' V n.n.n.' ! i n t j j f i n y i i i y y y y t t a t t n k H i i y 1 ",
"; , l k H z b l t t t t t f s s f f y f j i f f f f s b t [ ` n.n.C ` v i b t f s j j i s j y j f t t s t t t t y n k H p i t = ",
"% 4 l e G k z y t t a r t y s s f f y f i f f s f s y n a { [ n.n.` } v y b t s s s y j y i y f t t s y r r t r y n u H k k t & ",
"; , y l c k l i t r r t t t t t t i i t t j s s d a t n 7 C g n.n.n.C a y b r s s s f f t s j y s t y t t r r t t l u S i i q ; ",
"+ , y e A k i i r r r r r w a t t y b t t f f s d r q b 7 5 5 n.n.n.< 5 y b 8 t s s f s t f f y t t t t t 0 s r t n u S e y w # ",
"O 4 y y c i j y 0 r r 0 r t t a t y y y t t t s d 8 r b y b a n.n.n.j b t l 8 a a d t t t y y t t t t t 0 0 a 0 r i e S y i q % ",
"+ , y e A i i y r 0 0 0 r t t s r t t t s t a a a 8 q b t b t n.n.n.f i w y 7 a a r t r t y t t t t t r 0 0 0 0 r i i A l w 8 ; ",
"; 4 y w S u i y 0 0 0 0 r y s s t d s s y y y f b b t y t y 7 n.n.n.d y w t y b b y y t s s t t t t t r 0 0 0 7 t j w A w l , ; ",
"O , t t A i y t a y t e i u e j b l l l l l l l l n n y r y 7 n.n.n.t t r n n l l l l l b y b y v l y l e y w t q b t m e r 8 ; ",
"; 3 l w Z w r y s s j j i i j Z N m m m G c c S m x c c i t 6 n.n.n.t y z c c x x A S S S A A m m l l z i i j t y t q G w l 4 ; ",
"o 3 r q z x j p x x Z c x x x z z z k k y e w t q r 7 , 0 y 6 n.n.n.r w 4 4 0 q q r w w e k p k l z c c c c x x b z z c w t 8 ; ",
"o ; t w q w w 9 9 9 9 9 9 4 4 7 7 7 , 8 q q 8 r r t t q 4 r 5 n.n.n.7 7 > t t t t 0 r r q q 4 0 , 4 4 , 9 , 9 9 , q q , l t , o ",
"o ; t q t 3 4 3 7 4 0 q q t r w w q q q , q 4 > : : 3 , 4 r 1 n.n.n.7 q > 7 : : > : 4 , 9 q q r w w r r 0 0 7 7 8 3 4 q r r > + ",
"o ; q q y w 0 4 4 1 > > 1 ; ; & ; ; # ; ; ; & ; ; ; : 4 3 r 1 n.n.n.4 7 > 3 & ; ; ; ; ; & & & ; & & : : > 2 2 2 4 7 q y 0 r , + ",
"X # q t u q 0 ; + + + + & ; ; 1 1 > 1 4 3 3 3 3 1 ; ; 3 4 8 < n.n.n.4 4 : 3 & 1 3 3 3 3 4 1 1 1 : ; : & + + $ + # 7 q e w r > X ",
". ; q , e 9 0 4 # ; & ; ; 4 3 3 : 3 4 3 1 3 4 3 1 ; ; 3 : 7 < n.n.n.4 4 : 3 # : : 4 4 3 4 4 3 > > 7 4 : & * = & > q 4 u 9 w : X ",
". # 9 > w 9 9 > - - & & & 1 4 3 ; ; 2 1 1 1 3 5 < ; # : ; 7 < n.n.n.3 5 & : + < 1 6 3 : 3 > : ; ; 3 3 ; & & - & : 9 9 w > 9 = X ",
". @ 4 > 9 9 4 2 - - - & ; : 1 1 ; 1 1 1 > 1 3 : ; % # : & 3 < n.n.n.1 1 & : + & ; 1 1 : : 3 : ; : 1 1 : & & & - 1 4 > w > 9 = X ",
". # > > w 0 4 4 - & - & & : 1 1 ; ; : 1 1 & : ; & $ % ; & 1 & n.n.n.< 1 % & + & ; ; ; ; > 1 ; ; ; : : ; & - & & 1 7 9 w , 4 = X ",
". # > : w 2 7 4 & - & & & 1 1 : & & 1 ; 1 & ; ; & O + : % : % n.n.n.& ; % & o % ; ; ; ; : : ; ; ; 1 : ; - - - & : 9 2 r > > = X ",
". @ 2 = 9 > 2 2 # & - & & - - - & & & & - & & & & O X & $ & O n.n.n.& # $ $ X & - # # * & & & & ; ; ; & & & & & - 9 > q * 2 = . ",
". + > : 9 > 4 1 & % % - $ - - & & & & # # # + & $ X X & $ # O n.n.n.$ $ $ $ . + # # + & # & - & & ; ; & & & $ $ - 2 > 9 = > & . ",
". + : * 9 > 1 = $ $ + % $ & - & # # # # + + + + + . X $ o $ O n.n.n.+ + o o . o o $ + + # & # # & - % % $ + $ + & 2 = 0 * > & X ",
". + = * 0 = 1 & + $ o $ $ $ - & $ + # # + + + o X . . o o $ X n.n.n.+ $ X o . X X o + + # + # + % & $ + $ + + + $ 2 & 0 = : # . ",
"  X 1 & 4 * : = + $ X + o + & $ @ @ + + + o + o o X X X X + . n.n.n.o o X X X X X o o + + + + + % % $ + $ X + + @ > # 4 = - # . "
};
