/* XPM */
static char *animation16[] = {
/* columns rows colors chars-per-pixel */
"64 53 143 2 ",
"   c #0F0902",
".  c #150C01",
"X  c #1A0F02",
"o  c #1E1204",
"O  c #231505",
"+  c #251806",
"@  c #291A06",
"#  c #251609",
"$  c #261909",
"%  c #2B1C0C",
"&  c #321F0B",
"*  c #2B1E10",
"=  c #2E210D",
"-  c #32230E",
";  c #39250D",
":  c #3C290F",
">  c #2D2212",
",  c #2F271D",
"<  c #342512",
"1  c #382612",
"2  c #362814",
"3  c #3B2A14",
"4  c #342A1A",
"5  c #3C2E19",
"6  c #3D311C",
"7  c #412E15",
"8  c #412E1A",
"9  c #453216",
"0  c #4A3415",
"q  c #4D3816",
"w  c #45331B",
"e  c #49361C",
"r  c #44381F",
"t  c #4D391D",
"y  c #543D16",
"u  c #533D1D",
"i  c #593F18",
"p  c #463521",
"a  c #493720",
"s  c #463923",
"d  c #4D3B21",
"f  c #443D2C",
"g  c #483D29",
"h  c #513E21",
"j  c #56401E",
"k  c #5B431E",
"l  c #61451D",
"z  c #64491E",
"x  c #684C1E",
"c  c #4D4024",
"v  c #4A412D",
"b  c #554123",
"n  c #5B4523",
"m  c #5E4826",
"M  c #544229",
"N  c #5E4928",
"B  c #524D3B",
"V  c #614722",
"C  c #644B24",
"Z  c #6A4E24",
"A  c #644D2A",
"S  c #694F29",
"D  c #714F26",
"F  c #6C5126",
"G  c #66502B",
"H  c #6C532B",
"J  c #725326",
"K  c #715827",
"L  c #73552B",
"P  c #7A572C",
"I  c #74592D",
"U  c #7B5A2D",
"Y  c #6D5533",
"T  c #6F5639",
"R  c #745731",
"E  c #785731",
"W  c #755931",
"Q  c #7B5C33",
"!  c #745B3B",
"~  c #7B5E3B",
"^  c #7E6037",
"/  c #7E613C",
"(  c #5D5340",
")  c #655E4A",
"_  c #715E40",
"`  c #6B634F",
"'  c #766241",
"]  c #7D6040",
"[  c #7D6748",
"{  c #6B6655",
"}  c #736C5B",
"|  c #767462",
" . c #787361",
".. c #835D2E",
"X. c #825E32",
"o. c #885F32",
"O. c #815E38",
"+. c #83602F",
"@. c #846134",
"#. c #8B6435",
"$. c #84623B",
"%. c #8B653A",
"&. c #8D693B",
"*. c #926534",
"=. c #916739",
"-. c #946A3C",
";. c #9A6D3E",
":. c #846541",
">. c #866846",
",. c #8C6A45",
"<. c #956E42",
"1. c #9A6E41",
"2. c #957043",
"3. c #9C7243",
"4. c #9E7549",
"5. c #A37444",
"6. c #A87745",
"7. c #AA7846",
"8. c #A1774B",
"9. c #A3794A",
"0. c #AB7B4B",
"q. c #B27D4B",
"w. c #A37C53",
"e. c #AA7E52",
"r. c #A77F59",
"t. c #B3804E",
"y. c #AE8054",
"u. c #AB855D",
"i. c #B58252",
"p. c #BB8552",
"a. c #BB8957",
"s. c #B58559",
"d. c #BD8959",
"f. c #BA8C61",
"g. c #C38D5B",
"h. c #C7915F",
"j. c #CC905C",
"k. c #C08E60",
"l. c #C79362",
"z. c #CB9462",
"x. c #D09765",
"c. c #D49965",
"v. c None",
/* pixels */
"r n H I E $.$.:.$.<.>._ ~ ! v.v.v.v.v.v.v.v.v.v.v.v.v.v.v.v.v.v.v.v.v.v.v.v.v.v.v.v.v.v.v.v.v.v.v.v.! T ~ :.,.:.O.:.$.Q E I C d ",
"6 m H U ..S R U E o.=.-.1.3.9.9.8.w.e.e.w.w.r.s.v.v.v.v.v.v.v.v.v.v.v.v.v.v.v.v.u.w.w.w.w.e.0.8.8.9.4.1.;.=.o.o.P E D I U I G c ",
"6 n L U %.L R R E R E Q Q X.#.%.-.-.1.5.6.7.q.p.i.a.i.d.z.l.f.v.v.u.d.l.g.i.d.i.g.q.7.6.6.5.-.-.-.#.X.Q E Q E E E R R %.+.L A r ",
"4 b J P #.U U U X.X.#.#.-.-.1.1.1.5.3.1.2.3.1.3.5.5.5.8.0.h.x.,.v.s.c.q.9.5.5.5.8.1.1.4.3.;.5.1.<.1.-.-.-.#.o.O.E P U #.U L A 6 ",
"2 b F L #.U U m M m m G D S P P o.#.%.;.;.5.6.0.q.p.i.a.3.p.z.>.v.s.j.5.i.t.p.i.q.8.5.3.1.-.#.#.X.P J H S A N M n K U #.U J S 9 ",
"5 k P K +.P @.I G A G Y Y Y R S A Y H Y L S I R Q X.#.0.5.t.h.:.v.y.h.;.i.-.o.X.E E L S H H H G S H Y G Y A A A H +.P +.P J S r ",
"6 k K K #.P +.K A G H I E P X.X.E X.X.%.O.~ O.$.O.$.R 2.3.t.g./ v.0.g.-.9.P ~ $.O.O.X.O.:.X.$.Q X.X.E I U J S G H +.P +.U J C e ",
"6 k H P +.P +.L A G G I I L P X.E E X.O.O.X.O.$.%.:.R <.-.0.a.$.v.9.p.%.8.E O.&.%.O.~ O.O.O.Q W Q Q I I I H S G F ^ P ..U L C r ",
"5 k K J +.P @.H G G A K L I E E W Q ^ @.@.Q Q O.$.&.H &.-.7.s./ v.8.i.*.4.H O.%.O.X.Q ~ $.@.Q W Q W I L I G G G F Q U +.K P C r ",
"6 k K J @.J @.K A A A L L I I E W L Q ^ Q Q Q / / ^ H &.%.3.t./ v.8.q.#.<.H E O.~ ~ Q Q X.U U W W I I K P A V A F U U U K J C r ",
"2 j F F @.K U F V N A H H L I E I I U Q Q Q Q Q Q ^ H %.%.;.0.! v.2.0.#.<.H W Q ^ Q Q Q Q Q I I ^ K L H H F A N C U K +.J J C w ",
"6 b F F +.J U F V N A G L H L I W I I W U I E W Q Q H #.#.-.0.W v.<.5.X.<.S Q Q Q I W E I Q L Y W L K F G A V V C U K +.J F N s ",
"6 b F K +.D U F m m V G H F K L I L W W W W I W W Q G / @.#.0.! v.<.3.U &.S E Q W I I W W ^ K I W L H H G C V N x K J U P F C s ",
"6 j F F +.D P F m A m A G G H H I H L W W L L W Q W G ^ @.%.4.T v.,.1.U %.S W E W W H W I L H L L H G G A V A N F U J ..K J n s ",
"5 j G x U F P F m m m m G A G H I C H K I H H W I W A ^ Q #.<.Y v.$.1.U $.C H W W H H W I L A H H G C G m m m m C K J U J G m r ",
"2 j G x ..F K G n n m m A V F F G F H H I H H H L L N W E #.<.Y v.%.-.L $.N Y L I H L H H H F G H F m x m N n m C K F P F G n 9 ",
"2 j C C ^ x K G m m m V A C Z Z S A F F H H G H I H N W W U <.A v.$.-.F ^ n Y H I G H H H Z S S F F N G A N N N V K x U J Z k w ",
"2 j x C U x J G H G G G H J L L L L E K I I I I W W G Y I @.<.A v.@.=.L Q N W E I Y I P L I L L H K H F S S S S A L C L F z k w ",
"2 c k x Q z C H H L L J L E E I R Q ..X.U @.@.@.$.$.@.@.H U -.N v.$.#.G ~ Q %.o.$.^ @.Q ..X...E I I I I D L R L H G l U F V k w ",
"5 j k x U @.@.@.$.%.%.&.%.&.%.%.<.=.%.-.-.-.-.-.-.-.-.;.$.U %.N v.Q @.I 3.;.=.-.;.-.-.-.-.-.%.-.&.%.&.&.#.%.#.o.$.X.@.@.Z m h w ",
"2 t n n k k C C Z Z D D D D P E o.P P ....+.o.*.=.*.*.-.=.Q @.M v.W X.%.;.*.*.*.*.+.....o...P X.U P J J D D D Z Z C l k l k b 5 ",
"< t n V K j h h b h h n n n V V V n A A C C V C C A S C C U $.M v.E X.C C C Z A A A C C V m n V m m n n m h h h h h h F C n j 5 ",
"< r n z J V V n V V V S Z Z Z Z S S Z J L J L L L U U U C L ~ M v.R Q C E U U L L L L J J D F A S S Z Z Z V l V V n n J x k j 5 ",
"< q k k J l n e 8 8 e 8 0 e 8 w w e e e u u d h h h t S C J E M v.H U l J u h h h h t u e e e e e 7 w e e e w 8 w b k F x k j 5 ",
"> q k k F k k h e d t d e t u u h b u t b u d M M b t V C G E M v.L R n S e b M M h h b u u b b h h e d e e d a e n k Z l l j 3 ",
"> r k k Z k C u d d d t t h h u n n n k n k j b b n d m n A E h v.G J n S d b b b b n n n k k n u h h u d d d d d V k C l k t 2 ",
"= 7 j k H i V h e d d a u h h u u j k u k n h h c b d m k C T d v.H L k C d h b h h h k i b k u h u u d p d d e t n k Z z j t < ",
"= 9 j j J k n h a e d e e d a h b j j d n b h d h b e n n A H d v.A S h V t h h h h b k t u u b h d h d e e a e d m j Z k j t < ",
"@ 0 u y F j n t a a p e e t e e u t u d u b u a d M t b u A [ v.v.' / t V r h d d t h n d u u h e t t e e p p a t j k Z k u t < ",
"= 0 j j F j k u e e e p p d d a d d u t d j h d d d t b h g } v.v.{ B 0 m t d h d d h h d t u d t t d d w e e w e k j Z l y u - ",
"$ r j j x y k e w e e e e d e e d h t d t h t a d d e b d v | B v.| B w n e d d d d h h h e h d a t d e w p e w t j y C k i t - ",
"o 6 j q x i k u e p w w e e e e t d t t t h d a g d w h b g ` f v.` B e M w d d a e d h e e h d e e e e e w w e e n y x j u t - ",
"# 7 d u Z u k t e w 8 0 e e e a e d d r e d d p d t 6 j d , , v.v., > r b 5 r d a a d d e d d e p e e e e 8 e e e h u Z y u e & ",
"# 7 t q V u h t 8 e w w e e e e e t t t t e d p s r 6 j d d d 4 v.s d r b 6 p a e p d e t t t t e e e e 8 w p 8 0 h q Z u q e % ",
"O 7 q u Z q h e 8 8 8 8 8 e a a e t t e e e e e p p 5 t t u b 5 v.d k 0 h 5 w p r e t e e t e e e r e e 8 8 8 8 w u u V u q e = ",
"+ 8 t q Z q i e 8 8 8 8 e e e a e p e e e e e d p d r e e t d v.v.d d 0 h w a a e t r e e e e p r e e 0 8 8 8 8 e u 0 V y t e = ",
"$ 9 e q C 0 d w 8 e e e u q d h d b h t b u u j u n j t 0 r t , v.t t 9 t i n u j i u b d u h d d d q u e q e w w d e z u e e = ",
"$ 5 t 0 V 9 e e d d t t u y u h M b j n z k k n n V G C b e t 4 v.r t t C Z n n n k k m n n b n n j u u u t u e d e 0 k u e 0 - ",
"+ : e 0 V l i h V V C V z z z z C x Z z z z l k j j j y t t a v.v.e t t y y i u n k l l l x z z V z z z V l V l M u j C t e 9 $ ",
"o - e r e q 0 0 0 q 0 0 0 9 7 9 9 3 9 9 3 9 3 5 5 6 9 3 < 8 e v.v.6 e - 5 5 w w 9 3 8 3 8 8 7 8 w 9 9 9 0 0 0 0 9 0 q e 0 e 9 $ ",
"o - w 9 w - < 3 3 3 8 3 8 9 8 w e w e e 0 0 e e 6 9 r r 3 9 w v.v.5 w 1 e 0 9 0 w w e 0 q e 8 e w 8 8 8 5 7 3 3 3 2 < 8 0 w 7 O ",
"O < 9 9 t w 8 5 7 w 8 7 7 3 3 < ; < < - - - - @ = = @ : < 3 8 v.v.5 w - 3 = $ % = $ - = - < 1 ; ; ; 7 5 7 8 8 8 w 8 7 e 9 w 7 + ",
"X - 9 0 q 8 8 % + + O O + @ % % = = = = > < - < < < = < ; 5 6 v.v.2 w - 3 = > > < < < = = % @ = % % @ @ O O @ # + 3 3 q 0 0 3 O ",
". - 0 5 u 7 9 < @ % % % - 2 3 2 < 3 ; 5 3 2 2 2 < < = 2 < 3 5 v.v.2 5 - 5 % - < < 5 2 2 3 3 3 < 2 < 2 < & % % @ = 9 8 q 9 9 3 X ",
"X & 7 : 0 7 7 1 & * % & - < 3 < - - ; < 2 < 3 2 < > $ < - 2 5 v.v.2 8 = 3 $ = < 2 3 < < 3 < - - < 2 3 - % & * % & 7 7 0 7 7 ; X ",
". @ : ; 0 1 3 1 * - % % = - 3 < = - < 3 < < 2 2 < = + - % < 2 v.v.2 2 @ < O @ < < 2 < - < ; - = - < < = % % % & < 3 1 0 ; ; - o ",
". @ 1 : 0 1 3 < * * * % = = < < % - - - - < < - = % O - % - 2 v.v.< 2 @ < O $ % = < < = ; < - = - < < = % * * % & 3 3 0 7 ; - O ",
"X & ; ; e 1 8 < * * % % % < - - @ = - - < % % = * % o % % * < v.v.> < # < O # % = > = = < - - = = - < = * * * % - 5 1 9 : ; ; X ",
". + ; & 9 ; 7 < % & * % % * 1 * * * < - = % % & - % X * % % > v.v.% * O - X # % - & % * - & % * = = < % % % * % * 3 ; 7 ; & - X ",
". @ ; ; 9 ; 1 & # % % % % % - & # * % % % % % % * # X O $ $ % v.v.% % O %   # % % @ # * % % * % % = = % % % % # * 3 ; 7 ; - & X ",
". @ & & 7 & 3 * # # # @ # % * * % * % @ @ % O @ $ # . # # $ * v.v.$ % O % X o @ % # # @ @ % % # % = % $ % # # # % < & 7 ; & - o ",
". @ - & 7 & 1 @ O # # # # # * % @ % @ @ O O O O # o . o o # # v.v.o % X # . o O O O O O @ % # @ * * $ + # # # O O < & 3 ; & & X ",
"  O - & 3 @ < @ o O O # O # * # O O O @ @ O O o X X . o o o # v.v.O $ X O . . X X O o O + @ @ O $ * # O # O X O O - % ; ; & % . "
};
