/* XPM */
static char *animation35[] = {
/* columns rows colors chars-per-pixel */
"64 53 109 2 ",
"   c #150D02",
".  c #1A0F01",
"X  c #1D1103",
"o  c #231505",
"O  c #271906",
"+  c #291907",
"@  c #231609",
"#  c #261909",
"$  c #2B1D0B",
"%  c #311F0B",
"&  c #2C1F10",
"*  c #2E210D",
"=  c #33230E",
"-  c #38260E",
";  c #2D2211",
":  c #342612",
">  c #392711",
",  c #372813",
"<  c #3C2A13",
"1  c #332B1B",
"2  c #3D2E1A",
"3  c #3F301B",
"4  c #3F3420",
"5  c #3D392C",
"6  c #412E14",
"7  c #422F18",
"8  c #443116",
"9  c #4B3616",
"0  c #4D3816",
"q  c #45331A",
"w  c #49361C",
"e  c #4D391C",
"r  c #523A17",
"t  c #533D1C",
"y  c #463720",
"u  c #493720",
"i  c #463B27",
"p  c #4D3B21",
"a  c #523E21",
"s  c #403D31",
"d  c #56411E",
"f  c #5B431E",
"g  c #60471E",
"h  c #60481F",
"j  c #544122",
"k  c #5B4522",
"l  c #5E4924",
"z  c #54432A",
"x  c #5A452A",
"c  c #5E4A2B",
"v  c #4C4A3B",
"b  c #514935",
"n  c #554C38",
"m  c #59503A",
"M  c #614722",
"N  c #644B24",
"B  c #694E25",
"V  c #634C2B",
"C  c #694F29",
"Z  c #675027",
"A  c #6C5127",
"S  c #67512D",
"D  c #6D532A",
"F  c #725327",
"G  c #72552B",
"H  c #79572A",
"J  c #75592E",
"K  c #7C5B2D",
"L  c #654E31",
"P  c #6A4F32",
"I  c #645132",
"U  c #6D5533",
"Y  c #705735",
"T  c #765931",
"R  c #7C5C33",
"E  c #725739",
"W  c #755A39",
"Q  c #795F3D",
"!  c #765F40",
"~  c #7E6340",
"^  c #805C2E",
"/  c #825E33",
"(  c #815F38",
")  c #856135",
"_  c #8A6335",
"`  c #85633A",
"'  c #8A653A",
"]  c #8F693B",
"[  c #906739",
"{  c #936B3D",
"}  c #826642",
"|  c #8B6A46",
" . c #8A6C49",
".. c #946E42",
"X. c #996F42",
"o. c #9C7143",
"O. c #91704B",
"+. c #98744D",
"@. c #967551",
"#. c #A17545",
"$. c #A97847",
"%. c #A1774C",
"&. c #A67848",
"*. c #AC7C4C",
"=. c #A47B51",
"-. c #B2804E",
";. c #AC8052",
":. c #B08254",
">. c None",
/* pixels */
"U S i >.>.>.>.>.>.>.>.>.>.>.>.>.>.>.>.>.>.>.>.>.>.>.>.>.>.>.>.>.>.>.>.>.>.>.>.>.>.>.>.>.>.>.>.>.>.>.>.>.>.>.>.>.>.>.>.>.>.>.j c ",
"D D V I >.>.>.>.>.>.>.>.>.>.>.>.>.>.>.>.>.>.>.>.>.>.>.>.>.>.>.>.>.>.>.>.>.>.>.>.>.>.>.>.>.>.>.>.>.>.>.>.>.>.>.>.>.>.>.>.I S j l ",
"D A N J W >.>.>.>.>.>.>.>.>.>.>.>.>.>.>.>.>.>.>.>.>.>.>.>.>.>.>.>.>.>.>.>.>.>.>.>.>.>.>.>.>.>.>.>.>.>.>.>.>.>.>.>.>.>.W R D j l ",
"D N Z R G ` ~ >.>.>.>.>.>.>.>.>.>.>.>.>.>.>.>.>.>.>.>.>.>.>.>.>.>.>.>.>.>.>.>.>.>.>.>.>.>.>.>.>.>.>.>.>.>.>.>.>.>.>.` R J S j l ",
"A N h ) K K {  .>.>.>.>.>.>.>.>.>.>.>.>.>.>.>.>.>.>.>.>.>.>.>.>.>.>.>.>.>.>.>.>.>.>.>.>.>.>.>.>.>.>.>.>.>.>.>.>.>...) J R G j l ",
"F N N ^ H ^ _ { +.>.>.>.>.>.>.>.>.>.>.>.>.>.>.>.>.>.>.>.>.>.>.>.>.>.>.>.>.>.>.>.>.>.>.>.>.>.>.>.>.>.>.>.>.>.>. .+.) ) H K H j l ",
"D N h ^ D N ) { o.*.>.>.>.>.>.>.>.>.>.>.>.>.>.>.>.>.>.>.>.>.>.>.>.>.>.>.>.>.>.>.>.>.>.>.>.>.>.>.>.>.>.>.>.>.%.#.{ ] D Z K D j l ",
"G A A ^ J Z Z R o.#.;.@.>.>.>.>.>.>.>.>.>.>.>.>.>.>.>.>.>.>.>.>.>.>.>.>.>.>.>.>.>.>.>.>.>.>.>.>.>.>.>.>.>.:.$.#.] D Z G K A j l ",
"G Z Z ^ G D T G T o.*.=.>.>.>.>.>.>.>.>.>.>.>.>.>.>.>.>.>.>.>.>.>.>.>.>.>.>.>.>.>.>.>.>.>.>.>.>.>.>.>.>.Q *.$.( G J G A K G d f ",
"D Z N K H D J R R T { +.>.>.>.>.>.>.>.>.>.>.>.>.>.>.>.>.>.>.>.>.>.>.>.>.>.>.>.>.>.>.>.>.>.>.>.>.>.>.>.>.E *.( R ) J A G K G j l ",
"F N h K G Z T T ( ` ` O.>.>.>.>.>.>.>.>.>.>.>.>.>.>.>.>.>.>.>.>.>.>.>.>.>.>.>.>.>.>.>.>.>.>.>.>.>.>.>.>.E X.R ( R T D D J Z w f ",
"G N h J G N D R R ` ` | >.>.>.>.>.>.>.>.>.>.>.>.>.>.>.>.>.>.>.>.>.>.>.>.>.>.>.>.>.>.>.>.>.>.>.>.>.>.>.>.P X.( ( R G Z Z K Z j l ",
"D D M K G N D T R R / | >.>.>.>.>.>.>.>.>.>.>.>.>.>.>.>.>.>.>.>.>.>.>.>.>.>.>.>.>.>.>.>.>.>.>.>.>.>.>.>.I { / R T G Z A K A w f ",
"D N f K D N D G T R / } >.>.>.>.>.>.>.>.>.>.>.>.>.>.>.>.>.>.>.>.>.>.>.>.>.>.>.>.>.>.>.>.>.>.>.>.>.>.>.>.L ' T R T G N N H A w l ",
"D Z l J D N C G T T R ~ >.>.>.>.>.>.>.>.>.>.>.>.>.>.>.>.>.>.>.>.>.>.>.>.>.>.>.>.>.>.>.>.>.>.>.>.>.>.>.>.S ` T T J D N A H Z 9 l ",
"G h f H A l V D G T R Q >.>.>.>.>.>.>.>.>.>.>.>.>.>.>.>.>.>.>.>.>.>.>.>.>.>.>.>.>.>.>.>.>.>.>.>.>.>.>.>.V ~ G J G S l Z F Z 0 Z ",
"G N f F A l Z Z D G T W >.>.>.>.>.>.>.>.>.>.>.>.>.>.>.>.>.>.>.>.>.>.>.>.>.>.>.>.>.>.>.>.>.>.>.>.>.>.>.>.L W G C G V l N F N w Z ",
"H N f G Z l N Z S G G W >.>.>.>.>.>.>.>.>.>.>.>.>.>.>.>.>.>.>.>.>.>.>.>.>.>.>.>.>.>.>.>.>.>.>.>.>.>.>.>.V R P G C V l B F B e Z ",
"H l f A D G D G G U D U >.>.>.>.>.>.>.>.>.>.>.>.>.>.>.>.>.>.>.>.>.>.>.>.>.>.>.>.>.>.>.>.>.>.>.>.>.>.>.>.a W G C F D D D C B e N ",
"F N f J G J T T R ) R U >.>.>.>.>.>.>.>.>.>.>.>.>.>.>.>.>.>.>.>.>.>.>.>.>.>.>.>.>.>.>.>.>.>.>.>.>.>.>.>.V R R / R R J J H N e N ",
"J l t B J ) _ [ { { ] E >.>.>.>.>.>.>.>.>.>.>.>.>.>.>.>.>.>.>.>.>.>.>.>.>.>.>.>.>.>.>.>.>.>.>.>.>.>.>.>.c ` { { [ ' _ ^ F k w B ",
"J N t N f d g B F K _ T >.>.>.>.>.>.>.>.>.>.>.>.>.>.>.>.>.>.>.>.>.>.>.>.>.>.>.>.>.>.>.>.>.>.>.>.>.>.>.>.x _ / K D M f d k l q B ",
"F M t N M B B C C D D V >.>.>.>.>.>.>.>.>.>.>.>.>.>.>.>.>.>.>.>.>.>.>.>.>.>.>.>.>.>.>.>.>.>.>.>.>.>.>.>.x F C C D N N M N l w N ",
"D N r B r w 0 0 k x N L >.>.>.>.>.>.>.>.>.>.>.>.>.>.>.>.>.>.>.>.>.>.>.>.>.>.>.>.>.>.>.>.>.>.>.>.>.>.>.>.c C M k t e 0 r h k w N ",
"G l t N t w u p a p j x >.>.>.>.>.>.>.>.>.>.>.>.>.>.>.>.>.>.>.>.>.>.>.>.>.>.>.>.>.>.>.>.>.>.>.>.>.>.>.>.z V a p a w w e N f 9 N ",
"G l 0 N k p p a k j x x >.>.>.>.>.>.>.>.>.>.>.>.>.>.>.>.>.>.>.>.>.>.>.>.>.>.>.>.>.>.>.>.>.>.>.>.>.>.>.>.a x a k j a p t M f q Z ",
"H l 0 M k e e a j j j z >.>.>.>.>.>.>.>.>.>.>.>.>.>.>.>.>.>.>.>.>.>.>.>.>.>.>.>.>.>.>.>.>.>.>.>.>.>.>.>.z j a a a p e a h d 8 Z ",
"G f 0 h a w e e a a j z >.>.>.>.>.>.>.>.>.>.>.>.>.>.>.>.>.>.>.>.>.>.>.>.>.>.>.>.>.>.>.>.>.>.>.>.>.>.>.>.z x p a a p w t g d q V ",
"G f 0 N d w u p p a p m 5 s >.>.>.>.>.>.>.>.>.>.>.>.>.>.>.>.>.>.>.>.>.>.>.>.>.>.>.>.>.>.>.>.>.>.>.>.>.5 n z e a p e w e g t 9 N ",
"D f 0 f t w u u p p u b v v >.>.>.>.>.>.>.>.>.>.>.>.>.>.>.>.>.>.>.>.>.>.>.>.>.>.>.>.>.>.>.>.>.>.>.>.>.v v z e p p u w e f t w N ",
"F f 9 f t q w u p u p 4 >.>.>.>.>.>.>.>.>.>.>.>.>.>.>.>.>.>.>.>.>.>.>.>.>.>.>.>.>.>.>.>.>.>.>.>.>.>.>.>.1 y u p e w w 0 f t 8 N ",
"D f 9 f 0 w w w p p u y >.>.>.>.>.>.>.>.>.>.>.>.>.>.>.>.>.>.>.>.>.>.>.>.>.>.>.>.>.>.>.>.>.>.>.>.>.>.>.>.2 u u u u w q 0 f r 6 N ",
"A d q f t q q w y y w y >.>.>.>.>.>.>.>.>.>.>.>.>.>.>.>.>.>.>.>.>.>.>.>.>.>.>.>.>.>.>.>.>.>.>.>.>.>.>.>.q e y w u w q w f e < M ",
"F t 8 f w 7 7 w w q j 3 >.>.>.>.>.>.>.>.>.>.>.>.>.>.>.>.>.>.>.>.>.>.>.>.>.>.>.>.>.>.>.>.>.>.>.>.>.>.>.>.2 w u w w q 7 w t r 2 N ",
"D d 8 f e 7 w u j j k q >.>.>.>.>.>.>.>.>.>.>.>.>.>.>.>.>.>.>.>.>.>.>.>.>.>.>.>.>.>.>.>.>.>.>.>.>.>.>.>.2 j t a p w 7 q d 0 2 l ",
"D f 8 t e w t t k l f q >.>.>.>.>.>.>.>.>.>.>.>.>.>.>.>.>.>.>.>.>.>.>.>.>.>.>.>.>.>.>.>.>.>.>.>.>.>.>.>.2 t g M j t e q d e 8 N ",
"A f 8 e w t f h f w 8 , >.>.>.>.>.>.>.>.>.>.>.>.>.>.>.>.>.>.>.>.>.>.>.>.>.>.>.>.>.>.>.>.>.>.>.>.>.>.>.>.: 2 7 r h M t 9 0 0 8 c ",
"A f 2 f f f r 7 8 3 3 , >.>.>.>.>.>.>.>.>.>.>.>.>.>.>.>.>.>.>.>.>.>.>.>.>.>.>.>.>.>.>.>.>.>.>.>.>.>.>.>.: 7 7 7 8 9 f f f w 8 l ",
"A j 8 0 9 < 2 9 < * * : >.>.>.>.>.>.>.>.>.>.>.>.>.>.>.>.>.>.>.>.>.>.>.>.>.>.>.>.>.>.>.>.>.>.>.>.>.>.>.>.: : & : 8 2 < 6 9 9 2 l ",
"A d < 8 , 8 < * * : : : >.>.>.>.>.>.>.>.>.>.>.>.>.>.>.>.>.>.>.>.>.>.>.>.>.>.>.>.>.>.>.>.>.>.>.>.>.>.>.>.; : : : * - 7 2 < 8 < M ",
"D d < 9 < $ O : , , : * >.>.>.>.>.>.>.>.>.>.>.>.>.>.>.>.>.>.>.>.>.>.>.>.>.>.>.>.>.>.>.>.>.>.>.>.>.>.>.>.; * : , - $ O = 9 2 < k ",
"D d < q = O = : , : * * >.>.>.>.>.>.>.>.>.>.>.>.>.>.>.>.>.>.>.>.>.>.>.>.>.>.>.>.>.>.>.>.>.>.>.>.>.>.>.>.& $ : , : : O $ 8 8 < k ",
"A d < 9 < $ $ : : = $ $ >.>.>.>.>.>.>.>.>.>.>.>.>.>.>.>.>.>.>.>.>.>.>.>.>.>.>.>.>.>.>.>.>.>.>.>.>.>.>.>.$ $ $ = = = * = 8 7 , l ",
"Z 0 - 8 > $ * = ; * @ @ >.>.>.>.>.>.>.>.>.>.>.>.>.>.>.>.>.>.>.>.>.>.>.>.>.>.>.>.>.>.>.>.>.>.>.>.>.>.>.>.@ @ $ : = * $ = 6 < : l ",
"C 0 % 6 > $ & = * $ # @ >.>.>.>.>.>.>.>.>.>.>.>.>.>.>.>.>.>.>.>.>.>.>.>.>.>.>.>.>.>.>.>.>.>.>.>.>.>.>.>.@ o # $ $ * $ = 6 - - f ",
"C 0 - 6 > $ & & $ # o X >.>.>.>.>.>.>.>.>.>.>.>.>.>.>.>.>.>.>.>.>.>.>.>.>.>.>.>.>.>.>.>.>.>.>.>.>.>.>.>.>.X @ $ $ $ $ % < - - h ",
"C r % 6 > $ $ $ $ o . X >.>.>.>.>.>.>.>.>.>.>.>.>.>.>.>.>.>.>.>.>.>.>.>.>.>.>.>.>.>.>.>.>.>.>.>.>.>.>.>.>.. X O $ $ $ = 6 - - f ",
"C r % < : # @ # O o X   >.>.>.>.>.>.>.>.>.>.>.>.>.>.>.>.>.>.>.>.>.>.>.>.>.>.>.>.>.>.>.>.>.>.>.>.>.>.>.>.>.X X o # $ O $ < = - M ",
"C e % < % o + + o o o X >.>.>.>.>.>.>.>.>.>.>.>.>.>.>.>.>.>.>.>.>.>.>.>.>.>.>.>.>.>.>.>.>.>.>.>.>.>.>.>.  o o o o $ o $ < % - M ",
"B e $ < $ o o @ o o + X >.>.>.>.>.>.>.>.>.>.>.>.>.>.>.>.>.>.>.>.>.>.>.>.>.>.>.>.>.>.>.>.>.>.>.>.>.>.>.>.>.X @ o o o o o - % = k ",
"N e $ - $ X X # $ $ . >.>.>.>.>.>.>.>.>.>.>.>.>.>.>.>.>.>.>.>.>.>.>.>.>.>.>.>.>.>.>.>.>.>.>.>.>.>.>.>.>.>.>.o * $ o . o - % = k ",
"M e $ % $ . + % % o >.>.>.>.>.>.>.>.>.>.>.>.>.>.>.>.>.>.>.>.>.>.>.>.>.>.>.>.>.>.>.>.>.>.>.>.>.>.>.>.>.>.>.>.>.$ = + . o = % = f ",
"B r + % + + $ % $ >.>.>.>.>.>.>.>.>.>.>.>.>.>.>.>.>.>.>.>.>.>.>.>.>.>.>.>.>.>.>.>.>.>.>.>.>.>.>.>.>.>.>.>.>.>.>.$ % o o % % = f "
};
