/* XPM */
static char *animation27[] = {
/* columns rows colors chars-per-pixel */
"64 53 136 2 ",
"   c #140C01",
".  c #1A0F01",
"X  c #1D1203",
"o  c #231504",
"O  c #291705",
"+  c #261806",
"@  c #291906",
"#  c #241609",
"$  c #261909",
"%  c #2C1D0C",
"&  c #321E0A",
"*  c #291F11",
"=  c #2E200C",
"-  c #33230D",
";  c #39270E",
":  c #3A290E",
">  c #2E2112",
",  c #342512",
"<  c #382711",
"1  c #372914",
"2  c #3C2A13",
"3  c #302619",
"4  c #372919",
"5  c #3D2D19",
"6  c #422E13",
"7  c #412F1A",
"8  c #443216",
"9  c #4A3415",
"0  c #4C3816",
"q  c #45331B",
"w  c #49361C",
"e  c #4D391D",
"r  c #533B17",
"t  c #523D1D",
"y  c #583F19",
"u  c #463520",
"i  c #493721",
"p  c #4D3B21",
"a  c #443E2E",
"s  c #523E21",
"d  c #56411E",
"f  c #5B441D",
"g  c #5F481F",
"h  c #61471E",
"j  c #644A1E",
"k  c #4F4123",
"l  c #554122",
"z  c #5B4522",
"x  c #574827",
"c  c #5E4925",
"v  c #55452C",
"b  c #5C4729",
"n  c #5E492A",
"m  c #484233",
"M  c #504631",
"N  c #5E4B31",
"B  c #514938",
"V  c #56513E",
"C  c #5F5138",
"Z  c #634621",
"A  c #644B24",
"S  c #694E25",
"D  c #644D29",
"F  c #6A4F28",
"G  c #704F25",
"H  c #665027",
"J  c #6C5125",
"K  c #67502B",
"L  c #6C522B",
"P  c #735426",
"I  c #785426",
"U  c #73552C",
"Y  c #7A562B",
"T  c #74592E",
"R  c #7B5A2D",
"E  c #654D30",
"W  c #655231",
"Q  c #6B5334",
"!  c #6F5738",
"~  c #6F583A",
"^  c #725631",
"/  c #755931",
"(  c #7C5C33",
")  c #715739",
"_  c #7D5E3A",
"`  c #7F6034",
"'  c #7E603A",
"]  c #585747",
"[  c #5B5849",
"{  c #645A44",
"}  c #815D2E",
"|  c #825E33",
" . c #885F32",
".. c #865F39",
"X. c #846135",
"o. c #8A6335",
"O. c #84623A",
"+. c #8B663A",
"@. c #8E683A",
"#. c #906637",
"$. c #916739",
"%. c #936B3C",
"&. c #996D3D",
"*. c #99703F",
"=. c #806342",
"-. c #8B6641",
";. c #876946",
":. c #8B6A43",
">. c #926C43",
",. c #9B6E40",
"<. c #906F4D",
"1. c #8D704C",
"2. c #9D7243",
"3. c #93724E",
"4. c #9F764C",
"5. c #977752",
"6. c #997752",
"7. c #A37544",
"8. c #A67947",
"9. c #A1774A",
"0. c #A47A4C",
"q. c #AB7B4A",
"w. c #B07D4B",
"e. c #A97E52",
"r. c #A17D58",
"t. c #B1804E",
"y. c #AE8156",
"u. c #AE875F",
"i. c #B38252",
"p. c #BB8653",
"a. c #BC8957",
"s. c #B08358",
"d. c #B3885E",
"f. c #B98B5E",
"g. c #C7905E",
"h. c None",
/* pixels */
"W x x n h.h.h.h.h.h.h.h.h.h.h.h.h.h.h.h.h.h.h.h.h.h.h.h.h.h.h.h.h.h.h.h.h.h.h.h.h.h.h.h.h.h.h.h.h.h.h.h.h.h.h.h.h.h.h.h.b D k b ",
"L x A U / / ~ h.h.h.h.h.h.h.h.h.h.h.h.h.h.h.h.h.h.h.h.h.h.h.h.h.h.h.h.h.h.h.h.h.h.h.h.h.h.h.h.h.h.h.h.h.h.h.h.h.h.Q ) / U H k n ",
"L d A U R T R X.+.=.h.h.h.h.h.h.h.h.h.h.h.h.h.h.h.h.h.h.h.h.h.h.h.h.h.h.h.h.h.h.h.h.h.h.h.h.h.h.h.h.h.h.h.h._ +...( U R R J k b ",
"K k c T o./ U L ( o.>.<.1.h.h.h.h.h.h.h.h.h.h.h.h.h.h.h.h.h.h.h.h.h.h.h.h.h.h.h.h.h.h.h.h.h.h.h.h.h.h.;.>.>.$.} / Q U o.R H e l ",
"K e c P X.R R X.| ( _ o.*.4.0.5.h.h.h.h.h.h.h.h.h.h.h.h.h.h.h.h.h.h.h.h.h.h.h.h.h.h.h.h.h.h.h.h.3.6.9.2.$.X.| _ ` R R  .U L w l ",
"H d H P X.R U c P | +.%.%.$.&.8.q.e.r.h.h.h.h.h.h.h.h.h.h.h.h.h.h.h.h.h.h.h.h.h.h.h.h.h.h.6.y.e.8.2.%.$.%.#.../ H J R  .I U e n ",
"K d A P  .} } K b b F ^  .&.2.7.2.7.t.t.f.u.h.h.h.h.h.h.h.h.h.h.h.h.h.h.h.h.h.h.h.h.h.d.i.w.8.,.2.7.,.#.( F D b n ( R  .U P e z ",
"K d j P R R R U F Q ^ L F U / o.2.8.q.q.q.g.3.h.h.h.h.h.h.h.h.h.h.h.h.h.h.h.h.h.h.h.s.p.q.q.q.7.%.| U F F ^ ^ L H R R X.T J e b ",
"K d A P } R | H D L T ( ` / / / Q / @.7.q.a.3.h.h.h.h.h.h.h.h.h.h.h.h.h.h.h.h.h.h.h.y.w.q.&.X.U / / R ( R / ^ K K R R } T U 0 z ",
"H d A P } R R H W L T U R R ` +..._ ` ( 2.p.3.h.h.h.h.h.h.h.h.h.h.h.h.h.h.h.h.h.h.h.e.q.O.( X._ O.O./ R R / L E H T R X.P J e z ",
"K t g J R T R F D D ^ / R ( ( O.( _ +.| >.t.;.h.h.h.h.h.h.h.h.h.h.h.h.h.h.h.h.h.h.h.9.7...X.o._ ` _ / ` T U L D H P R R P H w z ",
"K e g P R I R A A D L U T T T | ( _ O.( %.q.;.h.h.h.h.h.h.h.h.h.h.h.h.h.h.h.h.h.h.h.4.2.( _ | _ _ ( / / U U J D c L T R J H w x ",
"K l c J R I I A c n K U T / T _ ( ( ' / +.7.-.h.h.h.h.h.h.h.h.h.h.h.h.h.h.h.h.h.h.h.2.&./ / | ( ( / T R U L K n Z T T } P H p l ",
"K l g J } P Y A c H L J U U U R / / ( / o.7.=.h.h.h.h.h.h.h.h.h.h.h.h.h.h.h.h.h.h.h.:.$./ ( / / T R U T L L K c Z P P R P A e d ",
"H d g J R P T A n c D H P T U / / / / T X.%.=.h.h.h.h.h.h.h.h.h.h.h.h.h.h.h.h.h.h.h.:.+./ / / / ` T U T J K H c c U P Y J D e l ",
"H e g j Y P U c c n D K L L L / / U / L ` @.{ h.h.h.h.h.h.h.h.h.h.h.h.h.h.h.h.h.h.h.+.O.U T / U L L L U A D n n c J P R J A 0 z ",
"L d f j R J U A v b A D F F F L L U ^ L / @.~ h.h.h.h.h.h.h.h.h.h.h.h.h.h.h.h.h.h.h.O.| L U U Q L L J L A D D s b P P R S Z w z ",
"J d f j U F L A D D D A S F F F Q L ^ L T @.~ h.h.h.h.h.h.h.h.h.h.h.h.h.h.h.h.h.h.h._ | F L L L W L H J A A D D D F S U S h 0 Z ",
"H 0 g j Y A H L U F J U U P / / / U U H U O.^ h.h.h.h.h.h.h.h.h.h.h.h.h.h.h.h.h.h.h._ / D / Q U T T T P U U F U L L A Y j c e g ",
"J k d c R | / ( ( / ( ( T ( | | _ | X.` / ` ! h.h.h.h.h.h.h.h.h.h.h.h.h.h.h.h.h.h.h.( / ( X...| ` ` ` ( ( ( ( ( ( / / | A z e d ",
"L 0 d z j S P Y }  . .o.o.$.$.,.,.&.&.&.%.| W h.h.h.h.h.h.h.h.h.h.h.h.h.h.h.h.h.h.h.^ X.&.%.&.,.%.@.%.#.@. . .} I U G A Z d 9 z ",
"L 0 e f H d s y l s l z Z S A G G U Y | X.X.E h.h.h.h.h.h.h.h.h.h.h.h.h.h.h.h.h.h.h.^  . .} I P J J A A h f l t l l t F c d 8 z ",
"K e t g P A z A Z A F S S J F G Q J L U F / D h.h.h.h.h.h.h.h.h.h.h.h.h.h.h.h.h.h.h.Q J F U Q F L L J H F F F Z D z f P j z q z ",
"H 0 r h S h l q q w e 0 e r t s z b z Z S / N h.h.h.h.h.h.h.h.h.h.h.h.h.h.h.h.h.h.h.W G S z b z d d e 0 9 e 9 w q t h H j l 8 f ",
"K 0 d f S h f w u p u p t s s s p p l s A J b h.h.h.h.h.h.h.h.h.h.h.h.h.h.h.h.h.h.h.D A s p s s s s t s e i i u u l h S h f q d ",
"K 8 0 f j h Z t p p e s t d f l z l l l Z H n h.h.h.h.h.h.h.h.h.h.h.h.h.h.h.h.h.h.h.F D l l s l s f z s t e p p s d f S f d 2 l ",
"J 6 0 d S f z e p i i s s s l d l s s s z F v h.h.h.h.h.h.h.h.h.h.h.h.h.h.h.h.h.h.h.D z s s s l s d s t s p p p p l f F y t 2 f ",
"H 6 0 d S f z p w i e e t t t s l k l e l H N h.h.h.h.h.h.h.h.h.h.h.h.h.h.h.h.h.h.h.W A s p p v s t y p p i u i w s f S y t 6 l ",
"H 8 e e A g d e u i w i i t t p l p p e l C B h.h.h.h.h.h.h.h.h.h.h.h.h.h.h.h.h.h.a { l s p p s s p t e i w u u e t f S t s 5 l ",
"H 6 0 r j f d w q i w i i p p p p p p i d m [ [ h.h.h.h.h.h.h.h.h.h.h.h.h.h.h.h.h.[ V p e i i p s s s e p i u w w d d A y t 6 z ",
"H : 0 d j f d w i i w w e e e e p i p u s a m h.h.h.h.h.h.h.h.h.h.h.h.h.h.h.h.h.h.h.a i q i i p i p e w i w q u w s y A y s ; y ",
"H : w t j f d w q q w w w e e i p i i q p 5 3 h.h.h.h.h.h.h.h.h.h.h.h.h.h.h.h.h.h.h.3 q q i i p w p e u w w w q q t y Z t t ; t ",
"A : 7 t Z y s q q q q w w w e e e u u 8 p l u h.h.h.h.h.h.h.h.h.h.h.h.h.h.h.h.h.h.h.p e q q u i e k w w w w 7 u q s t Z t e - t ",
"A : 8 t z y s q 5 q 5 w w w e i u u u w u p 5 h.h.h.h.h.h.h.h.h.h.h.h.h.h.h.h.h.h.h.w e q u w w w w q w i q 7 7 7 e t z t e - t ",
"K : 8 0 f r y 7 5 7 w w w w e i p d d l e e 5 h.h.h.h.h.h.h.h.h.h.h.h.h.h.h.h.h.h.h.q w e d e e w e e w w q 7 7 7 t t Z 0 e - d ",
"H : 8 e f t e 7 7 w e e t p d d l z f A c e 5 h.h.h.h.h.h.h.h.h.h.h.h.h.h.h.h.h.h.h.q d Z g f z l d k k e e w w 7 w 0 Z r 0 - d ",
"H 2 8 0 f e w e e p t d z A A A Z f d 0 6 8 1 h.h.h.h.h.h.h.h.h.h.h.h.h.h.h.h.h.h.h.q 8 8 9 y f c A j g f t t e w e 9 f e w ; d ",
"c 2 8 0 f r e s Z Z j h y r 9 9 8 5 8 w 7 6 4 h.h.h.h.h.h.h.h.h.h.h.h.h.h.h.h.h.h.h.5 1 q q 8 q 5 0 0 d f f j z l d e g 0 w ; k ",
"H : 2 0 r f r 9 9 6 6 5 7 6 7 q 8 5 1 - 2 5 3 h.h.h.h.h.h.h.h.h.h.h.h.h.h.h.h.h.h.h.1 2 ; - 1 7 8 8 8 8 2 2 8 8 9 r d d 0 8 - d ",
"H - 2 w 8 ; < < 5 5 q 8 6 2 < - = = = = < 5 , h.h.h.h.h.h.h.h.h.h.h.h.h.h.h.h.h.h.h.1 2 = % = = = ; : 2 8 w 8 5 1 < ; 5 0 8 = 0 ",
"c , : 8 e q 5 5 7 - & % % % , , , 1 1 = , 1 > h.h.h.h.h.h.h.h.h.h.h.h.h.h.h.h.h.h.h.4 < = - 1 1 1 - - = % & & < 7 5 7 9 8 7 @ t ",
"c - : 8 0 8 1 O # $ $ , 4 < < 1 1 1 , = = = > h.h.h.h.h.h.h.h.h.h.h.h.h.h.h.h.h.h.h., - @ > 1 4 1 2 - 1 4 % $ # + - 7 0 w 8 % t ",
"c = 1 0 9 6 q % % % & < < - - < , 1 = @ = > > h.h.h.h.h.h.h.h.h.h.h.h.h.h.h.h.h.h.h., % $ % , , , < % - 2 , * % % : 8 0 8 q O e ",
"c = 1 2 9 6 2 - % % % , < % - - = > = $ = = > h.h.h.h.h.h.h.h.h.h.h.h.h.h.h.h.h.h.h.% % o $ = = = , % - , & % % % : 6 9 6 8 + e ",
"j = - : 6 6 : - > % % > , & & - * & * # $ = * h.h.h.h.h.h.h.h.h.h.h.h.h.h.h.h.h.h.h.$ % X $ % * , - = = , % % % % < 6 9 ; 2 + e ",
"Z @ & : 6 6 2 % % % % > & % > - > % * X X % # h.h.h.h.h.h.h.h.h.h.h.h.h.h.h.h.h.h.h.$ $ X $ % * = = = = - % * % * < : 6 : ; + 0 ",
"c = & : 6 6 2 * * * % > > % % % @ $ * . # # X h.h.h.h.h.h.h.h.h.h.h.h.h.h.h.h.h.h.h.o # X X % $ @ > % = , % * % % < : 9 : - + e ",
"c = & & 6 < 5 % $ % $ % % % % @ $ o X   X # X h.h.h.h.h.h.h.h.h.h.h.h.h.h.h.h.h.h.h.X o . X X $ $ @ $ @ % % % $ $ 2 : 6 - ; + 0 ",
"c % = - 6 ; - % $ $ $ $ * O O O o o . . . X X h.h.h.h.h.h.h.h.h.h.h.h.h.h.h.h.h.h.h.X . . . o o @ @ @ @ % # # # $ 3 ; 6 & ; o w ",
"c % % - 6 - ; o # o o # % O + O o o o X o . h.h.h.h.h.h.h.h.h.h.h.h.h.h.h.h.h.h.h.h.  X X o . o o o + $ % o # # # & - 6 & ; o w ",
"z = % & : - - o o o o o O O o O + o O O o . h.h.h.h.h.h.h.h.h.h.h.h.h.h.h.h.h.h.h.h.  . o O O + + o o @ + o o X o @ - 6 & & o e ",
"z % O & : @ - o . . . o O O O % - @ + X . h.h.h.h.h.h.h.h.h.h.h.h.h.h.h.h.h.h.h.h.h.h.h.. X O % = + @ @ o X X X X % @ : - & o e ",
"z = # - - = - o X X + @ @ % - - % o h.h.h.h.h.h.h.h.h.h.h.h.h.h.h.h.h.h.h.h.h.h.h.h.h.h.h.h.. + = = & @ @ O o X o @ % < & & X e "
};
