/* XPM */
static char *animation20[] = {
/* columns rows colors chars-per-pixel */
"64 53 153 2 ",
"   c #0E0903",
".  c #140C01",
"X  c #190E02",
"o  c #1D1103",
"O  c #1F1508",
"+  c #231504",
"@  c #261906",
"#  c #291A06",
"$  c #241609",
"%  c #261A0A",
"&  c #2B1C0C",
"*  c #301E07",
"=  c #311E0A",
"-  c #2C1E10",
";  c #2E200D",
":  c #32230E",
">  c #39250D",
",  c #3B290F",
"<  c #2E2211",
"1  c #2D2318",
"2  c #342512",
"3  c #392612",
"4  c #362914",
"5  c #3B2A14",
"6  c #332718",
"7  c #352A1A",
"8  c #3D2D19",
"9  c #3F3217",
"0  c #3D311D",
"q  c #3E3421",
"w  c #402D0F",
"e  c #412D13",
"r  c #412F19",
"t  c #453216",
"y  c #4A3516",
"u  c #4E3A17",
"i  c #45331B",
"p  c #49361C",
"a  c #4D3A1D",
"s  c #543C17",
"d  c #523D1D",
"f  c #5A3F19",
"g  c #453521",
"h  c #493720",
"j  c #463B23",
"k  c #4D3B21",
"l  c #473E2A",
"z  c #523E21",
"x  c #56401E",
"c  c #5B431D",
"v  c #61471E",
"b  c #644A1E",
"n  c #684C1F",
"m  c #48402E",
"M  c #554122",
"N  c #5B4523",
"B  c #5D4826",
"V  c #5B4728",
"C  c #5E4A29",
"Z  c #4D4636",
"A  c #4F4838",
"S  c #534A36",
"D  c #544D3A",
"F  c #614723",
"G  c #634B24",
"H  c #6A4E24",
"J  c #644D29",
"K  c #6A4F29",
"L  c #714F27",
"P  c #665026",
"I  c #6D5125",
"U  c #66512B",
"Y  c #6C522A",
"T  c #725426",
"R  c #7B5527",
"E  c #73552C",
"W  c #795629",
"Q  c #74592D",
"!  c #7B5A2D",
"~  c #624D32",
"^  c #665036",
"/  c #6C5431",
"(  c #735631",
")  c #765931",
"_  c #7C5C33",
"`  c #765B3A",
"'  c #795D3C",
"]  c #7F6036",
"[  c #7F6038",
"{  c #555143",
"}  c #695940",
"|  c #635E4E",
" . c #786547",
".. c #7C6A4F",
"X. c #6F6C5B",
"o. c #74705E",
"O. c #815E2F",
"+. c #825E33",
"@. c #895F30",
"#. c #815F38",
"$. c #82612F",
"%. c #846134",
"&. c #8B6335",
"*. c #85623A",
"=. c #8B653A",
"-. c #8D683D",
";. c #916535",
":. c #956837",
">. c #90673A",
",. c #946A3C",
"<. c #9A6C3C",
"1. c #98703F",
"2. c #866640",
"3. c #8E6B44",
"4. c #866A4B",
"5. c #8C6F4F",
"6. c #936C42",
"7. c #9A6E41",
"8. c #966F49",
"9. c #8E724C",
"0. c #967046",
"q. c #9D7243",
"w. c #93734D",
"e. c #9D764B",
"r. c #957351",
"t. c #9A7652",
"y. c #9A7958",
"u. c #A37545",
"i. c #A87543",
"p. c #AC7847",
"a. c #A1774A",
"s. c #A5794C",
"d. c #AC7C4B",
"f. c #B27E4D",
"g. c #AB7F52",
"h. c #B07F50",
"j. c #B4804E",
"k. c #AC8155",
"l. c #AA825B",
"z. c #B58252",
"x. c #BB8553",
"c. c #B68559",
"v. c #B4895F",
"b. c #BA8A5E",
"n. c #BD8F63",
"m. c #C28C59",
"M. c #C6905E",
"N. c #CC915D",
"B. c #C08E61",
"V. c #C49062",
"C. c #CE9663",
"Z. c #D59863",
"A. c None",
/* pixels */
"0 M Y ) ( ` ' ^ ~ A.A.A.A.A.A.A.A.A.A.A.A.A.A.A.A.A.A.A.A.A.A.A.A.A.A.A.A.A.A.A.A.A.A.A.A.A.A.A.A.A.A.A.A.A.A.^ ^  .' ) ) ( C g ",
"0 M Y Q ! Q _ +.@.>.6.6.6.3.w.9.A.A.A.A.A.A.A.A.A.A.A.A.A.A.A.A.A.A.A.A.A.A.A.A.A.A.A.A.A.A.A.A.A.r.3.3.6.6.-.@.+.O.) ! ) L J j ",
"8 M I W &.Q Y Y ( E ! +.=.,.q.a.s.s.g.s.l.t.r.5.A.A.A.A.A.A.A.A.A.A.A.A.A.A.A.A.A.r.r.g.g.h.d.s.a.a.<.-.@.+.! Q L / K &.! E B q ",
"6 d I Q &.+.! +.#.#.#.=.&.*.&.=.@.6.7.q.i.p.z.x.z.z.c.B.n.y.A.A.A.A.4.l.n.c.d.x.x.x.d.u.u.<.,.>.=.=.%.*.*.@.+.#.#._ ! =.E E V 8 ",
"6 a T T &.! ! J F K E ) @.@.,.7.q.u.u.a.a.u.7.a.u.u.p.h.N.B.A.A.A.A.a.Z.x.s.u.i.u.a.7.u.u.a.u.u.<.<.&.&._ W L G B Q ! ;.R L B 8 ",
"7 M E T %.! $.Q C C V J J J J K E ) +.@.>.7.u.f.z.x.z.a.x.B.A.A.A.A.t.C.q.z.z.z.h.u.q.7.>.@.! ( Y J J J J V C J Y $.W &.W E C 0 ",
"7 x Y T %.! $.Q K ^ Y ) ) ( ! _ E ) ( ) E / ( ) +.#.u.u.j.b.A.A.A.A.0.M.<.f.=.+.) ( ( K ( ( ) ) ) ! ) E Q Y K ^ Y %.! %.W E B i ",
"7 x T E $.! $.Q J J K E Q E O.#.) _ #.*.#.#.*.#.2.) =.7.f.x.A.A.A.A.6.m.1.e.Q *.2.*.#.#.#.#.%.) +._ ! E Q Y J J Y $.W %.T E B q ",
"7 x T I $.R $.Q U Y P E E E Q ] Q ) ] *.] _ #.&.-._ =.1.p.z.A.A.A.A.7.x.>.0.Q =.&.*.+._ *._ _ ) ] ) E E ( K Y J T %.! $.T Q N 0 ",
"7 x T I +.Q O.Q G J J Y Q Q Q ! ] ) ] %.] _ #.#.*.) ] ,.p.k.A.A.A.A.6.x.:.6.E *.*.' _ _ %.%._ ) ) Q Q E Q J J G I ] Q $.T T N i ",
"6 a I I $.E ! E B B J I E E Q ) E ) ] _ _ _ ' #.' Q O.>.u.s.A.A.A.A.3.z.=.6./ #._ ' _ _ _ _ ) / ) Q E Y Y J B N P ! T %.I T N 9 ",
"7 x I n $.W ! T F C J U Y Y Q ) ) E ! ! _ _ ) +._ Q %.>.<.a.A.A.A.A.-.s.@.6.L _ _ _ _ ) ] ) E Q ) ! E Y K J J B I ! T $.T Y M 0 ",
"0 M P I $.T ! Y G B J P I Y E E ) Q ) ) ! ) ) _ _ ) ! &.:.a.A.A.A.A.2.a.+.&.Y ) _ ) Q Q ) ) ) Q ) Q Y T J J G B I ! T $.T I V q ",
"7 k J I $.T W E B J N J Y P Y E ( Y Q ) ) Q Q ) _ / ) +.=.e.A.A.A.A.2.q.! *.Y ) _ ) Q ) ) ) Q E E Y P U J F G B I W H O.T I N q ",
"8 a P I ! T ! Y B C B N H J Y Y Q K Q Q Q E / ) ( Y ) %.=.0.A.A.A.A.*.7.! %.J ) ) ) Y Q Q Q Y Y Q U P P G V B B P Q H O.I K M 0 ",
"4 u P b ! T T Y V V B B J J U Y Y J K Y Q K Y ) ) P E _ &.6.A.A.A.A._ 6.! *.J Y ) Q Y Y Y E I P Y P J P B V B N P Q I ! H P c 9 ",
"4 u H G ! I T I B V V C J G K K K J Y Y Y Y Y Q ( C Y ) %.6.A.A.A.A._ ,.E ' B / ) Y Y Y E K K K I H J G F C V V J Q n ! H H x 9 ",
"7 u c H ! P Y I J K P P H K Y L E Y Y Y Q Y Y Q ( J Y ) O.3.A.A.A.A.) >.W ) C ( Q Y Y Q Y ( K L Y Y I U K K K K J Y G ! H b d 9 ",
"7 a c b ! H G Y E E E K Q ) ) ) ) _ %.%.! %.] ] *.' ) ) ! -.A.A.A.A.) =.Y ) ) *.] ] %._ +.%.+.! ) Q ! Q ( E E L T H G +.H F x 8 ",
"7 a c b R %.+.] +.%.&.*.+.&.@.*.>.%.&.&.=.=.=.-.&.-.>._ ! *.A.A.A.A.) +.E 6.=.&.*.=.=.=.=.=.#.=.*.%.=.*.@.#.#.+.%._ %.! b F z 0 ",
"2 i c N G F H H H L R R R R O.+.&.@.@.;.;.:.:.1.<.:.u.<.O.[ A.A.A.A.( +.&.i.<.:.<.<.:.=.;.@.@.@.@._ W R R ! W L H J b H F F d 8 ",
"< i N N I N z z M M z N N F z F C V F F H G G H H H H H ! ] A.A.A.A./ +.H H H H J G F H F F F C B B N c N z z z M M x Y G M u 4 ",
"< i c b T b F c F F F H H H L K K Y Y E E E T E Q ) Q H E _ A.A.A.A.K _ H Q ) ) E E E T W E L K K K H H H F F F N N B T b c a 7 ",
"< p c c T v F a r r p t p p r y p p p s d a z z M M G H Y ( A.A.A.A.K ) F E M M M M a d d p p p p r y p i i y r i N c T b c x 4 ",
"< 9 c c H b b c p g k p p k a z z z d k z d z M M k V J J E A.A.A.A.J Q N J k z z z l z z d d z z k k k p k h p d N c T c b u 2 ",
"; 9 c c H c N M k k k a a d z d N c N c N c d M M z x F J / A.A.A.A.J E c F k N V z z F N c N B z d z a h k k k x G c I c c a < ",
"; , x x T c N M h k k k k d d z M x x d c M z z M k M N J Y A.A.A.A.J Y d B h z z z z z d z F d d z z d p k k p a J x I c d i 2 ",
"; , x x T c N M h p p k a a h a M d M d M M k z M k x N G Y A.A.A.A.N K c B k M z z z N d d d d z p k a p p h h z N x I c s a < ",
"% 9 u u I c N d h g h p p k k p d a z a M M k k k k x M J ..A.A.A.A.}  .d N p z k k z z a d a z a a p a p h h h z c c I s d y 2 ",
"; , x x I c c d p p h h p k p h k k a k z x k k k k k M 0 X.{ A.A.A.| S p M h z k k z z k k k z k a k h i p i i a N d T f s p ; ",
"@ 5 x u H c c d i h h r p k p h k k k k a z h k k h k M l o.{ A.A.A.X.D p V i k k h a z k k k k p a a p i p i p u M s n x d t ; ",
"@ 5 x a b c c u i i p i p p p h a d k p a z h h l i p M 7 A A.A.A.A.Z m i M 8 h h h k a p k d a h h p p i g i p p N c n d d t ; ",
"O 3 a u F f z d g i i i p p i p p k k p p k h h k 0 p M 7 1 A.A.A.A.1 6 i M 9 i k g a k p k k p p g a i i r h i h z d H u a i # ",
"O 3 a a F d d k r i i r p p h g p p x p h k h g g 0 a a d M A.A.A.A.g M a M 0 g g g p p p a p p p p i a r r i r a z s G u s t % ",
"@ > u u b x d a r 8 r e r p h p i p p p p p p g j 0 i a s k A.A.A.A.i x a a 8 g 0 i p i p p p p i p i i e r r r y z s G u d r @ ",
"@ 4 a u b d z p r r r r p p h k k g k h a d a z x z a i p k A.A.A.A.i k t p a M M x a a j p k k a a i a r r r r p z p F u u t % ",
"% , p p F u p h p p p u d d u z a M x u x x x c x N N a p p A.A.A.A.9 a i c B c x x x x M u x d M x s d s p a i p k u b u a t ; ",
"; < x t F s p p k k z z d f z F B G G P H n n b N b b c a i A.A.A.A.5 a x c b c b F H H H H G G B M c x d d z a k p t P y p 9 < ",
"@ < y t f F v z v F v b v c c c x x x u y t t t i t 8 3 t i A.A.A.A.8 t 2 8 t t t i t y y d s d x c c b v v v v M c c c y y 8 @ ",
"O ; y y y t e w w w , e 5 e 5 r 9 8 9 t i i i p i p p 5 8 r A.A.A.A.8 t 3 i p p i i i i t t r 8 9 2 5 , e , e w e t t t i a 5 O ",
"o ; i t a 5 8 4 8 r e i i t t t t t t t , , : : ; ; 2 5 8 8 A.A.A.A.4 i : r : ; : : 3 e 5 t t t t t t t r e r r 5 5 5 p r y 3 + ",
"o ; t t y i i 3 3 2 2 > : = & & & & # & ; ; : : ; ; 2 5 5 8 A.A.A.A.6 8 : 8 ; ; ; & ; ; & & # ; # & = : = 2 2 3 5 8 r u t i > + ",
". ; t t u t r : $ + + @ & < 2 2 : 3 3 8 8 4 4 4 2 ; ; 2 8 8 A.A.A.A.6 8 : 2 % 2 2 8 3 2 2 4 2 2 2 2 2 & # + $ o # r r u t p > X ",
". @ t 9 u r t 3 & = & = : 3 4 4 > 2 5 4 3 5 4 4 < ; : : , 4 A.A.A.A.2 5 : 2 % ; 2 3 8 2 8 3 5 2 : 8 7 3 = = = & 2 t w u e p = X ",
"X # e > t e e 3 = - - & ; 2 4 3 ; : 2 3 2 2 4 4 2 @ & ; 2 4 A.A.A.A.1 4 & : $ ; 2 2 2 : 4 3 2 & : 4 7 : & & - = : e 5 y , e = X ",
"X + 5 > t w e 3 - - & - ; ; 3 2 ; ; 2 3 2 : 3 < & $ & & = 5 A.A.A.A.& 2 % : $ & ; : : : > 2 2 ; ; 2 > ; & - - - 3 5 , y > 5 = X ",
". @ , > r e 5 5 - - - - & : 2 ; & ; : 2 2 = & < % O % - - < A.A.A.A.& 2 $ : o % ; ; ; & > : : ; ; 2 : ; - - - & 2 5 5 y 5 3 = X ",
". @ > > t 5 5 4 & - - % & ; 3 : & & : 2 & & & ; & O $ & # & A.A.A.A.% ; $ & X % ; ; ; < < : ; ; ; ; 2 & % - < & : 9 > p > > = X ",
". $ : * e 5 5 3 # % & & & - 2 & - % & & & # & & $ o O $ $ & A.A.A.A.$ & $ $ X $ = # # & & = & & & ; : & & & - & 2 3 > r * 3 = . ",
". + > : 5 > , 2 % % & % $ - = - # # - & & # $ # $ o + $ + + A.A.A.A.$ $ $ # . + $ # + * $ & & # & ; & % & $ $ $ - 3 > e = , # . ",
". + > * e > 4 = $ $ $ $ $ $ - - # # & # + + + o + . o $ + + A.A.A.A.+ $ X $ . X + + + + # & $ # % & & $ $ @ $ $ & 3 = e = > & X ",
". + > & 5 > 2 = $ $ + $ $ $ - $ + # # # + + + + X . X o + @ A.A.A.A.o + X o . X X o + + # + # + % % $ $ @ + + X $ 3 = e = = & . ",
"  X - = , * : = + + X + + + & # @ + + + + X + + o o X X o o A.A.A.A.X o . X o + + o o o # + + # # % $ + $ X + + $ > # w = 2 $   "
};
