/* XPM */
static char *animation18[] = {
/* columns rows colors chars-per-pixel */
"64 53 145 2 ",
"   c #0F0902",
".  c #150D01",
"X  c #190F02",
"o  c #1D1103",
"O  c #1E1109",
"+  c #231505",
"@  c #261806",
"#  c #2A1A06",
"$  c #251609",
"%  c #26190A",
"&  c #2B1D0C",
"*  c #311E0A",
"=  c #2C1E10",
"-  c #2E210D",
";  c #32230D",
":  c #39260E",
">  c #37280D",
",  c #3C2A0F",
"<  c #2E2313",
"1  c #2D2419",
"2  c #342511",
"3  c #392611",
"4  c #362915",
"5  c #3B2A14",
"6  c #352918",
"7  c #3B2D19",
"8  c #3F3017",
"9  c #3E311B",
"0  c #3E3320",
"q  c #412E14",
"w  c #412E1A",
"e  c #443116",
"r  c #493415",
"t  c #4B3917",
"y  c #45331B",
"u  c #49361C",
"i  c #4C391D",
"p  c #543B16",
"a  c #523D1C",
"s  c #453521",
"d  c #493721",
"f  c #453A23",
"g  c #4D3B21",
"h  c #513E21",
"j  c #584016",
"k  c #56411E",
"l  c #5B431D",
"z  c #62461D",
"x  c #644A1E",
"c  c #554123",
"v  c #5B4523",
"b  c #5E4926",
"n  c #534328",
"m  c #5C4729",
"M  c #5E492A",
"N  c #504837",
"B  c #534A38",
"V  c #614723",
"C  c #644B24",
"Z  c #6A4E25",
"A  c #634C2A",
"S  c #684E29",
"D  c #665026",
"F  c #6C5125",
"G  c #66512D",
"H  c #6D532A",
"J  c #725326",
"K  c #785527",
"L  c #73552C",
"P  c #795729",
"I  c #74592D",
"U  c #7B5A2D",
"Y  c #644D31",
"T  c #694D32",
"R  c #6D5332",
"E  c #6B543A",
"W  c #66583F",
"Q  c #735731",
"!  c #785632",
"~  c #755931",
"^  c #7B5B33",
"/  c #725538",
"(  c #755938",
")  c #7A5D3B",
"_  c #7F6037",
"`  c #7D603B",
"'  c #565445",
"]  c #5A5241",
"[  c #635D4C",
"{  c #7B6044",
"}  c #7E6C4C",
"|  c #666252",
" . c #6A6756",
".. c #6D6856",
"X. c #825E2E",
"o. c #815E32",
"O. c #885E34",
"+. c #815F39",
"@. c #83602F",
"#. c #846134",
"$. c #8B6435",
"%. c #84633A",
"&. c #8C663A",
"*. c #8E693B",
"=. c #936635",
"-. c #966837",
";. c #916639",
":. c #926A3C",
">. c #9A6D3C",
",. c #866743",
"<. c #8B6A45",
"1. c #836A4A",
"2. c #8B6B4A",
"3. c #936D42",
"4. c #9B6E40",
"5. c #9C7242",
"6. c #96724A",
"7. c #9C754B",
"8. c #927351",
"9. c #9A7751",
"0. c #9B7853",
"q. c #A27444",
"w. c #A87746",
"e. c #A47748",
"r. c #A57949",
"t. c #AB7B4B",
"y. c #B27E4D",
"u. c #A17A52",
"i. c #AB7E50",
"p. c #B4804E",
"a. c #AC8156",
"s. c #B38252",
"d. c #BA8553",
"f. c #B28559",
"g. c #B5885B",
"h. c #BC8B5C",
"j. c #B98D60",
"k. c #C08956",
"l. c #C38C5A",
"z. c #C88F5C",
"x. c #C6905F",
"c. c #C59161",
"v. c #CD9562",
"b. c #D49863",
"n. c None",
/* pixels */
"y c L I ^ ` ` ) ( E E n.n.n.n.n.n.n.n.n.n.n.n.n.n.n.n.n.n.n.n.n.n.n.n.n.n.n.n.n.n.n.n.n.n.n.n.n.n.n.n.n.n.n.T / ) ) +.( ^ L m f ",
"0 v H I U H ~ o.o.&.:.3.3.7.7.6.,.0.1.n.n.n.n.n.n.n.n.n.n.n.n.n.n.n.n.n.n.n.n.n.n.n.n.n.n.n.0.2.2.7.7.3.>.3.:.O.o.^ L P P K M f ",
"9 c J I *.L R H L Q I U o.$.:.>.5.q.t.i.i.t.f.h.a.0.8.{ n.n.n.n.n.n.n.n.{ <.9.u.g.g.i.i.y.t.r.q.5.>.$.#.U U L Q Q R H &.U L M y ",
"6 k J K $.@.U _ o.O.&.&.*.*.*.:.3.*.:.>.>.5.q.t.t.y.s.k.x.c.8.n.n.n.j.c.z.d.y.y.t.w.5.>.>.:.:.:.*.*.:.&.&.=.+.%.^ ^ U $.U I v 7 ",
"6 k L J $.U U D v A S L ! o.$.;.>.4.q.q.t.t.e.t.t.t.e.5.p.b.u.n.n.T v.l.5.5.t.t.t.r.t.r.w.q.q.4.:.&.o.^ L Z A V b I I $.P L v 7 ",
"7 k J J $.U @.I A M M G A A A S A R Q ! U +.&.>.q.t.p.s.q.v.0.n.n.T c.s.t.d.y.q.4.:.#.o.^ Q L G S A A A T A M A H #.K $.J P C 9 ",
"9 k H L @.U @.I A G H I ! U o.o.U ! ^ ) ~ R ( ! ! / #.t.>.z.7.n.n.A h.t.e.4.I ^ ( ( Q / ^ ! ! ~ ^ o.! I ^ H G S H @.P $.J P C 9 ",
"9 k H J @.U U I S G G L I L ^ ^ ^ ) o.%.+.o.%.%.&.%.^ 7.>.x.3.n.n.A d.t.5.*.! *.&.%.^ ^ ,.O.o.I ^ ^ P I I G S A H @.P #.I L C 0 ",
"8 k J J @.P #.L S G A I I I ~ ^ ~ _ _ %._ ^ o.%.%._ I 7.-.h.6.n.n.A d.q.4.%.! *.%.+.^ ) %.+.o.^ _ U I I ~ D G A H _ U @.J I x 9 ",
"9 k J F @.J @.J S A A H L L I ~ ~ I U #._ ^ %.^ %._ I 6.-.d.<.n.n.Y y.q.>.+.I %.) o.^ ^ o.X.^ I I I I J L A C A F _ P U J L b 9 ",
"6 k F F #.L U H b V A H H L L ~ ~ I I _ ^ ^ ^ +.^ ^ L :.*.p.,.n.n.m t.4.&.o.Q o.) ^ ^ ^ ^ ^ I ~ _ L I H H A C b x _ J $.F J b 8 ",
"6 k F F @.J U L b b A A H H I I I I I ^ ^ ~ ~ ^ ^ ~ L :.$.t.%.n.n.m q.>.;.o.L ) ^ ~ ^ ^ ~ ^ L I I L H J G A M C D U J @.F H n 9 ",
"9 c D D @.J P H C b C G H H L I I I ~ ^ ~ I I ^ ^ ^ D *.@.t.` n.n.n.e.&.$.~ L ! ^ ~ I I ^ ^ ~ I ~ I D H D b A M F U J @.J F b y ",
"9 c D D @.J P H b A b C D D F L I L H ~ I ~ L ^ ^ ~ G *.U e.` n.n.n.q.$.#.U H ^ ^ I I I I I H L I D D D D b b b F P F @.K F v f ",
"6 k D F U F I F b M M v S C G L H G H ~ L H H ~ ~ H D %.U 5.( n.n.n 4.O.#.I S ~ ~ ~ G I I L Z H H H D D b v b b x I F U H D v 9 ",
"9 j D x @.H J H v m v m C S Z D H S H H L H G I ~ G D %.U 5.( n.n.h 6.+.^ L A L H H H H H L Z G H F b D M v v l D I F _ F D k 8 ",
"4 k D D U x J F v M b C C C Z S S Z H H H H D H H R m ^ L >.( n.n.h :.o.^ H M R L D G H H S Z S H D D D V V m v Z I Z @.Z x l e ",
"< j l x U D L F G S G G S S S L H L I H L L H I ~ H b _ I :.( n.n.n.:.o.U G A Q I L I L L L L L H H H H S S G G D L x U Z x k 8 ",
"6 t l x U D b H Z K K F P ~ ! I ! ^ o.#.X.o.%._ %.%.^ ^ L *.R n.n.n.$.U ! ^ +.O.#._ #.o.^ X.^ ^ I ~ I I H J L L H S l ^ Z C c 8 ",
"9 j v b P @.@.#.+.+.&.&.$.*.&.#.;.$.$.*.:.*.*.:.*.&.:.:.J $.R n.n.n.%.I #.:.;.&.:.*.*.*.:.;.O.;.&.%.*.$.&.+.O.O.%.#.#.^ C b h 8 ",
"6 t v l x l C Z Z Z J K K P P X.X.X.X.$.$.$.=.=.=.-.-.5.o.+.Y n.n.n.+.U >.>.=.-.=.$.$.=.=.O.X.X.o.U U P J F J Z Z S z z z l i 7 ",
"< t l b L c h c v h h h v v v V V v A V C C V V S Z Z A J #.Y n.n.n.^ ^ Z C Z Z C V V C V V V V v b v v V h h h c h c H C b t 7 ",
"< t l x J C b l V V V Z Z Z Z H S H H L L P L L L I U L Z o.Y n.n.n.^ L Z I ^ I L L L P L H F G S Z Z D Z C V V b v C J x b a 6 ",
"< u l l J l V i w w u w r u w r u u r i i i h h c g l L C U A n.n.n.U D Z V a h h h i i a r u u u w e r w u r w y l l H x l k 4 ",
"< y l l F l C k u f g i u a u h h a a h c h g c c c g H b U A n.n.n.L A S v i c n h h c h a a h h a h u u g i u i b l J l z a 2 ",
"< 8 l l F l C k i g g d a a a h v v V a l b a v c n h A v I M n.n.n.Q C C a g v n h v v a l l b h h a a d g g g a C l Z l l i 2 ",
"& e j j F j b c d i g i d h h h h k v a l c h h g n i A v H M n.n.n.H C b c g n h h h v l c l a h h h g u g d d i C k F l a r < ",
"% 8 k j H l v c u d i d u a d h c a h h h v g h n h i V l H m n.n.n.H C l k i n h h c V h a h h h i g g u g u u h v a H l a i ; ",
"& e i p F l c c d s d s u i u u a g g i k v g g g n u v k } W n.n.n.} M l h g h g g h h i a a h i i g u u d s d i v j J p a a 2 ",
"& e k k F l v k d u u u d g g d g h a g g a a g g g u v e ' | n.n.' | f k i g h g g h h g h i h g i g d y u u y i v l Z l p u & ",
"% , k t Z j l g y d u y u g d u i g i i g g g g g g d m y [ ..n.n.|  .f c d y g g d g h g i g g u u i i r s u y u l p F l a u & ",
"@ 8 k i x l j i y y s y u u u u u h g i d c d d g f y v 9 B N n.n.n.] 9 c i s g d d h g u i h g u u u u y y s y u l p Z a h e ; ",
"@ 5 u p Z p h a y y y y r u y d u i a u u h d d g y 8 n 8 1 1 n.n.n.1 4 c t 8 g f i g d i g g i y y i r u y y s d h a Z p i e # ",
"+ 5 a i Z a a i w y y w y u i d s i i u u u d d s s e c i v g n.n.n.c i i i 9 s f y i y u i i u s i i y w y y w i h p Z i a e % ",
"o , i t V a a i w w w w y y i y u i a i u d u s f s 8 k y k d n.n.n.h i i y 7 s s u i r u i r u y u y y w w w w r h p V t t e & ",
"# 5 a t C p h u w w w y y u u d u d u i d u g a g g y i r a s n.n.n.d i r u h h i d i i f i d d f i i y w w w w u a u Z k i e - ",
"- 5 i t C i i u s u a i a a i h g h c t a l a a k l k k e i 9 n.n.n.i e i l v k l a k k a a h a n i p a a t i r y i r C t i e - ",
"- 4 i e z r u u u d g a a a p v b b C C C Z x C C C D C h g 9 n.n.n.y a C x Z l C x C C C x b b v c a a a u g r g u y C t t 9 - ",
"$ > t t z l z h V z V x x x z z l l l l a p i i t e , 8 e r 7 n.n.n.u y 5 e e r i r p a a z l b z z z x x x V z v p j C t e e % ",
"o - t y u r r q q q q r e 5 5 5 5 7 8 e 5 y y 8 y y t e 7 u 6 n.n.n.y 5 5 y y y y 7 y 8 e q 5 5 7 5 5 q q q r q q t t e t i 8 o ",
"o - r e r 3 6 7 7 5 w e y y y y i e e r e e e 5 > 4 , 8 > y 6 n.n.n.y 3 5 e 3 3 8 7 e e r e y r u y y y w w w 7 5 5 3 r w u 3 o ",
"o - y e i y w 5 5 3 3 3 3 ; ; ; ; ; - # & # & & - - - 5 ; y 6 n.n.n.y 3 3 ; & & % - - # # & ; ; * ; ; 3 3 3 3 5 7 w e i e u q + ",
"o - e e a q w ; + @ + + & & & - ; ; ; 7 3 4 4 4 4 4 - 3 ; w 2 n.n.n.7 4 3 ; - 6 4 2 2 2 3 3 2 2 - & & & + O $ + # q w t r r : X ",
". # y e a q e 3 # & % ; ; 3 7 3 2 7 3 5 3 4 3 7 2 - # 7 ; y 2 n.n.n.7 2 ; - & 2 7 7 4 2 7 3 2 2 2 7 3 2 * * * # 2 w q p q w : X ",
"X # q : r q q : & - & & & 2 7 2 - ; 3 3 2 2 4 4 2 - + 2 & 7 2 n.n.n.4 2 2 % & ; 2 2 2 ; 2 2 2 ; ; 5 3 - # = * & ; q q r q q * X ",
"X # 3 : r q 5 3 = = = & - ; 2 2 - ; 2 ; ; 2 2 2 - & + 2 & 7 < n.n.n.4 ; ; % $ & ; 2 > ; ; 3 ; - ; 2 2 - = = = = ; q q r * q * X ",
". # 3 : r q 5 3 = = = = - ; > 2 - ; ; 2 2 & ; < & & + ; % 2 < n.n.n.2 & % % $ & - 2 - - 3 > ; - - 2 2 - = = = = 2 7 3 r : q * X ",
". # : : u 5 6 5 & = & & & ; ; - - - ; ; 2 & & - & $ o 2 $ ; & n.n.n.; % & % + % - - - - ; ; - & - - 2 & $ = = & 2 q 5 r : : * o ",
". # 3 * r : 3 3 & & = & & = 2 * & & = ; - & & & & $ X & + - $ n.n.n.& % & o X = & = $ * * = = = & 2 ; & & = = $ 2 5 : e * 3 * X ",
"  + 3 * q , 3 3 $ $ $ & $ = * = & & & # % $ $ # $ $ . = $ % O n.n.n.% $ # o X $ & # $ # # # = # & - & % = $ # $ = 5 : q * : & . ",
". # * * q * 3 = % % $ % & $ = = # # & # # @ + @ + X . $ + $ O n.n.n.+ + % X X o $ + @ @ # & & # & = & $ % $ # $ = 3 * q * : & X ",
". + ; * q * ; = + $ + $ $ % % = + @ @ + @ + o o o X   + o $ o n.n.n.$ O + X . o X o o + # $ @ + % & $ $ # O + + + 3 & q * * % X ",
"  X ; * q * ; & + + o $ $ + $ $ @ @ @ @ + o + o X X . + X @ X n.n.n.+ o o X X X o + o o @ @ @ + % % + + $ X + X @ : # q * 3 $   "
};
