/* XPM */
static char *animation1[] = {
/* columns rows colors chars-per-pixel */
"64 53 137 2 ",
"   c #150C01",
".  c #1A0E02",
"X  c #1D1102",
"o  c #231505",
"O  c #261907",
"+  c #291A06",
"@  c #241609",
"#  c #29170A",
"$  c #26190A",
"%  c #2C1D0C",
"&  c #321E0A",
"*  c #221A12",
"=  c #2D1D10",
"-  c #2E210D",
";  c #33230E",
":  c #39260E",
">  c #3B290F",
",  c #2D2212",
"<  c #2C2418",
"1  c #342511",
"2  c #392711",
"3  c #362814",
"4  c #3B2A13",
"5  c #362818",
"6  c #3C2D19",
"7  c #3E3017",
"8  c #3F301B",
"9  c #432A0F",
"0  c #422E14",
"q  c #412F1A",
"w  c #443116",
"e  c #4A3415",
"r  c #4E3916",
"t  c #45331B",
"y  c #49361C",
"u  c #4C391D",
"i  c #523B17",
"p  c #583F16",
"a  c #533D1C",
"s  c #593E1C",
"d  c #463520",
"f  c #493621",
"g  c #4D3B22",
"h  c #443B2C",
"j  c #513E21",
"k  c #56411E",
"l  c #5C431D",
"z  c #5F481F",
"x  c #61461C",
"c  c #63491E",
"v  c #554223",
"b  c #5B4523",
"n  c #5E4825",
"m  c #51432B",
"M  c #5C4628",
"N  c #5D4A2A",
"B  c #4E4634",
"V  c #4F493A",
"C  c #514834",
"Z  c #584F3D",
"A  c #624622",
"S  c #644B24",
"D  c #6A4E24",
"F  c #604728",
"G  c #644C29",
"H  c #6A4F2A",
"J  c #704F24",
"K  c #675026",
"L  c #6C5125",
"P  c #67502C",
"I  c #6C532B",
"U  c #725326",
"Y  c #755925",
"T  c #7A5927",
"R  c #72552C",
"E  c #78572A",
"W  c #74592D",
"Q  c #7B5A2C",
"!  c #684F30",
"~  c #6D5431",
"^  c #725632",
"/  c #755A32",
"(  c #7C5B33",
")  c #7D5D39",
"_  c #7E6036",
"`  c #7D603A",
"'  c #5B5342",
"]  c #6E6C5B",
"[  c #726651",
"{  c #825E2E",
"}  c #825E33",
"|  c #885D32",
" . c #815F39",
".. c #83602F",
"X. c #846135",
"o. c #8A6335",
"O. c #84623A",
"+. c #8B663B",
"@. c #8E693C",
"#. c #926537",
"$. c #916739",
"%. c #946A3C",
"&. c #9B6D3D",
"*. c #9E703E",
"=. c #896740",
"-. c #8E6943",
";. c #936D43",
":. c #9B6E41",
">. c #967043",
",. c #9D7243",
"<. c #9C7349",
"1. c #A37444",
"2. c #A87745",
"3. c #A67846",
"4. c #AD7947",
"5. c #A4794A",
"6. c #AC7B4B",
"7. c #B47E4B",
"8. c #A57B52",
"9. c #AA7E55",
"0. c #847660",
"q. c #817A66",
"w. c #887B65",
"e. c #B9814D",
"r. c #AE8151",
"t. c #B38352",
"y. c #BC8552",
"u. c #BE8857",
"i. c #C18752",
"p. c #C48A55",
"a. c #C58C59",
"s. c #C88E5A",
"d. c #CD925E",
"f. c #D1935E",
"g. c #D29661",
"h. c #D59964",
"j. c #D89B66",
/* pixels */
"v G R Q ( } } { #.#.%.&.&.1.1.3.2.4.7.7.7.7.e.i.7.y.7.i.d.f.h.r.;.j.d.d.s.e.y.e.i.e.7.7.7.7.7.2.1.1.1.*.&.%.#.#.| | | ( Q E I v ",
"v K Y X.I G I I R E / ( } } X.+.+.@.@.$.;.:.:.,.1.5.:.1.,.t.h.8.-.j.a.,.<.,.1.,.1.;.%.&.%.%.$.+.+.O.} } ( ( Q U R I P D ( E L M ",
"g D Y X...Q } X.| +.#.$.%.:.,.1.1.5.5.6.6.6.7.7.y.u.y.u.5.6.g.r.-.h.t.<.p.y.y.y.t.7.6.6.3.6.1.2.1.:.:.;.%.#.+.+.X.X.( { o.Q I v ",
"t G U } { Q G n G G H ^ I I E E Q / ( ( Q } } } | +.X.6.5.1.d.<.=.d.t.:.7.o.o.o.X.X.} ) ( ( Q Q ^ E ^ U I I H L S S Q Q o.U I m ",
"y P Y } Q ( W N N N P P ! H ^ I ~ ^ ^ ) ~ ^ / / ) ) I >.,.,.s.<.O.s.9.;.5.R ) ) / / ^ ~ / / ^ ^ H ^ I ~ G ! N N N L X.T o.U R k ",
"u L Y ..Q ..Q I P I / Q E } | } ( X.O.O.)  .=.=.=.=.W ;.,.,.p.<. .p.6.%.<.^ O.@.=.+.O.) =.O.O.( ( | } W W ( I P P Y ..T o.U R k ",
"u K L ( Q { E G P P W W E E Q ( / ( | O.) )  .O.=.=.I -.&.&.p.>. .a.3.@.<.I  .@.O. .( )  . .( ( / ( Q E R R L P K W ..T X.Y R k ",
"k K Y ( Q { Y H P P ~ R R ^ Q ( ( (  .O.( ( ( )  . .I @.%.&.y.-.) i.1.o.:.H  .O. . .) (  . .} ( / ( Q ^ R Q P ! P I ( T ..R I k ",
"r L L { Q } U H P N I W W W Q / W / Q _ _ ( ( ) ` ( L O.%.$.7.-.) 7.1.o.@.I ( ) ) ) ( ( _ Q ( / / / Y E I R G P K L ..Y } Y I k ",
"g c L { U Q E A n K L R I W / / W / Q _ / _ ( ) ( _ I X.-.o.7.=.^ 6.&.O.%.I ( ( ) ( / ( ( ( ( W W / / W W R S F N L ..U { U I j ",
"u S L Q Q Q U F n G I I L R W / I / W _ Q / W ( ( ( I _ @.X.6.+.^ 6.+.X.O.G ( ( ( / / W W / / I / W Y I L I G F b L T Y { D L a ",
"u K U T U Q R F n F G L W R R / W I _ / Q W W / ( ( P ( +.Q 3.=.^ 6.+.( +.H / ( ( / R W Q _ / / / W I W L G N S F L Q Y ..L I v ",
"m N L Q T E U S F n H K K L R W I I _ W W W I _ ( ^ K / O.{ 1.) ~ 5.o.( +.G R / ( I I / W Q R I / W R K K K S F S L T J ..U D v ",
"u M U Q J T U n G N n G S K I W I L W W R I I / / / N _ O.Q 1.( H <.X.( X.S ~ / / / I W R / I S I I K G K n N N n L T J ..U D u ",
"u S K Y U U L M M M n G G G I I K K I W R I I W W / M / ) Q :.) ! 1.| / ` M I ^ R I I I I R I K I I I S K n N N n K Y J { L G k ",
"r S c T L Y Y M v M N S S D K K K I K I I I K I I I m R ( U &.) ! ,.( E _ v P R R P I I I I I K I K S S S N b v b L Y J { S K u ",
"y z c Y L L K F N N G G G K D H D I L L W I I R W ^ N I ( / &.( G &.( ^ / M ^ R ^ I I R I H R G I H K S S F F N N G Y S Q c D i ",
"y z S Y H L I Y R I I I E E ^ R ( ( ..( _ X._ X.` O.` / / W %.^ G %._ I ) ( O.O._ _ X.X.Q } } Q Q E Q ^ E H R R I I I c Q D A i ",
"t b z Q U S I H R ^ R E ( Q ^ ( Q Q X.( } | X.X.| } o.+.( I #.^ F %.W I +.+.| } +.X.X.Q } | } Q ( / ^ ( / R E E I I G D ..c F r ",
"y k n L } } } | o.o.o.o.+.$.o.&.%.$.*.*.&.&.&.1.&.&.&.2.,.( o.~ M +.( &.1.*.&.*.,.&.&.&.*.&.#.%.*.$.$.o.o.o.o.| X.X.{ | Y S n u ",
"w v b A s l b x A x A A A D D D A D D D D J J U I U J U U ( | ! n O.( E U D U J U D D J J J D S D K D A x A A b A b b l A b b r ",
"t k b L A v j b v b b b A A S F G H G H D K H H I I ^ H n H O.~ M } R n I I ^ H I P I D G G G G G S S F F A b b n v v l R F b u ",
"w k x L D b b A b A S S c D D D S H D I U R U U R R U Q I D ( ! M } I D Q U E R I I L U U H D S G S S x D D x A A l b c Y c b y ",
"w k l D x A u 6 0 t t q t 0 q t t t t u u f f f g f y F H S ( ~ v Q H F I f f g g g f y u t t t e w q t t 0 t q 6 t b z L l l u ",
"6 k l c c z k f y g g f j a j j j j j j v k j v v m f F H M W G M ( G n I f v v m j v v a a k v v v j g f f f f y a z l L l l y ",
"4 k l K x A l g g g g u s j j s n b v b b l j v b b u F N M E F j / G b S u v b b j b b b l b b v a v a u g g g g a c l L l l w ",
"4 i k D z b b u g g f g a g j j a b k k b j j g m v u b M b ^ G v / F b F u j j j j j b a a b j k j v j g f g g g a F l L l k 7 ",
"4 i i D l l v f y g t u g a g j a j v a b m j j g v u b M b R N j ^ S v S u j m j j j b k j a a v g u g u u f y y j b l L k i w ",
"4 g a S c l j u d f t u u u u a a a g a b v u j v m u v b v / N v / G a F t j j g g j F a u j a a u y u u t f f y u l l D i s w ",
"4 a i c z l a t d f d d g f u g j g j g k j g j g u t k b u 0.[ ' w.m a n y v g g g j j j g a j j u u u d d d d t u l p c l a w ",
": r a S l k i y t d t d g y y u g g g g j j g g g v t v v C ] ' V ] B u M t g g g g j a g u u j g y u g y d t y t u l p c k a 0 ",
": u u c l l a t d y t y u y f u a g y u g u y f g g d v v C q.' ' ] C u M t g g f f g g g y u j u y y y y t d t y u l l L a a 6 ",
"; y r z s a a t t t t t y u f f u g g y u j f f y m 7 v v 6 Z B h ' 8 u v 7 y g g f g g u y v u y y t u e t t d t y l i D i j 6 ",
"; y u z s s u q d d w t y t u t u v u y u g f f f 8 7 y v 5 * < < * , u v 7 y f g t g u y u u y y y t y t q t t q y j a c i u > ",
"; e r b l s u q 6 q 6 w t u f u t u u u y g f f y d 7 k v y v d 8 v g y m 8 d f f d f u y u g u t y u u y q q q q y s a S r i 4 ",
"; y y z a i a q q q 7 t y y d t y u u t y y f t d d 6 y v y b f 8 M a u u 6 d d d t u y f y y y y d y t q q q q q y a i S r u 4 ",
"; y y l s y y q q q t y y y f d y y y y y y u f d m 7 t r t v d 8 j u u u 7 f f f u u y f y y u d m y y y w t t w t u r S r u 4 ",
": y w l i t y y g a a i i i j j v v v v k l a k k l k u u w g t 6 f y w u k z l s a a k j g v j v k k r a r y a y y u r z t u > ",
"- w t k s s j j j j j j l b b n b b v b b b l z l z N S j t g 6 6 f u r b S M v b b A b A b S b v v l l v b j j j j a i z u u 1 ",
"- 7 w k p s s s x x x x l x x c z c K z z c c z z l l z S g u t 5 y u z c l z l S x x x x S S x l z z z l x x x l i k k r e y - ",
"O 0 w y > ; 1 3 : : : 2 2 2 2 0 7 > 7 7 > 7 4 7 7 7 4 > : w f q 5 y y 3 4 4 6 7 7 4 4 w 6 0 4 2 0 2 > 2 : : 2 : : ; ; ; y y t & ",
"+ 7 w e e 4 6 q q t t w y e t y t w y u e u t t t y u t 7 4 t 6 5 y 7 4 t u u t t t t e e e y t y e y e y y q q q q q 0 r 0 t ; ",
"o 0 e r e q ; ; ; ; ; : > > > > 4 4 > : > > 3 : 1 3 4 7 7 4 w 5 5 t 4 4 w 3 4 3 : ; 4 > > > 4 > 2 > : : : ; ; 3 ; ; 4 w i e e % ",
"o w w e w 0 : o o o O O $ $ % % - + - $ - % $ % - O - 3 4 3 t 5 1 w 6 : 4 - % $ - + - - % % % % % % + % # o @ O o - w 0 u 0 e + ",
"o 2 > e 0 w > & % = ; ; 2 5 4 3 5 4 4 4 4 5 4 4 3 3 - ; 4 3 t 5 < t 4 2 4 $ 3 3 5 4 4 4 4 5 2 4 3 5 4 4 1 % % % % : 0 9 e 9 0 + ",
"o : : 9 9 2 2 ; = = % % ; 4 2 ; ; 2 4 5 ; 4 5 5 3 - O ; 5 5 q < < 6 5 1 4 $ - ; 5 5 4 1 5 4 4 ; ; ; 3 3 & % & = % ; 4 0 e : 2 + ",
"X ; 2 0 w 4 4 % = = % % 1 3 3 - & ; 2 2 ; 3 4 5 3 , O 3 2 & q 5 5 6 4 ; 4 O - 3 3 3 3 ; 3 3 3 % - 1 3 ; & = = = & 5 0 0 e : 2 + ",
"o ; > w 9 2 4 = = = % - ; ; ; % ; 3 2 ; ; 3 5 3 ; - o = 1 & 6 1 , 6 1 $ 3 o $ - ; 3 3 - ; : 3 ; - ; ; ; % = = = $ 3 2 : y : 2 + ",
"X : & 0 2 4 4 % % 1 = = & : ; & - ; 1 3 - ; 3 ; % % o % , % 4 < , 4 3 $ 1 o $ $ - 1 1 1 3 1 3 - - ; ; 1 = # = = = 3 4 > e ; : + ",
". ; ; : 9 2 4 % # % = = = 5 ; % % - ; 3 , % , ; = $ X % - $ 4 , , 4 % $ = . = = , ; % % ; ; ; % % - ; ; # = = = $ 1 > : 0 & 2 o ",
"X ; & 9 : : 3 # $ % # $ $ ; % # = - - ; % = % - % $ . % , @ 5 = $ 1 % $ 1 . $ = - % % % % - & = = % - - $ = = $ @ ; 4 ; 9 & : o ",
". & & 9 : ; & # $ @ $ $ $ ; % = $ - $ $ % # % % = @   O % o 1 $ $ - $ O % . $ # % $ + % % $ = # $ % - % $ # @ O @ % ; ; 0 & & o ",
"  % & 2 ; ; % o $ o $ $ $ % % # $ - % O $ O O % $ @   @ % @ - $ X , $ @ %   o @ % $ o % + + % + $ = % $ O $ @ @ o + ; % 0 & & o "
};
