/* XPM */
static char *animation38[] = {
/* columns rows colors chars-per-pixel */
"64 53 104 2 ",
"   c #150D02",
".  c #1B0F02",
"X  c #1D1203",
"o  c #1C1308",
"O  c #231505",
"+  c #271806",
"@  c #291A07",
"#  c #241709",
"$  c #261909",
"%  c #2C1D0B",
"&  c #301F0B",
"*  c #281D10",
"=  c #2F200D",
"-  c #33230E",
";  c #38250E",
":  c #2E2213",
">  c #342511",
",  c #382611",
"<  c #372915",
"1  c #3D2B13",
"2  c #372A19",
"3  c #3B2E1B",
"4  c #353125",
"5  c #3E3B2D",
"6  c #412F15",
"7  c #412F18",
"8  c #443216",
"9  c #4A3516",
"0  c #4E3816",
"q  c #45321A",
"w  c #49361C",
"e  c #4D391D",
"r  c #503718",
"t  c #533D1C",
"y  c #443623",
"u  c #493720",
"i  c #453925",
"p  c #4D3B21",
"a  c #513E21",
"s  c #56401E",
"d  c #5B441E",
"f  c #60471F",
"g  c #554122",
"h  c #5C4522",
"j  c #5F4924",
"k  c #554429",
"l  c #5A4629",
"z  c #5B482B",
"x  c #434032",
"c  c #4E4C3D",
"v  c #514732",
"b  c #594C35",
"n  c #574D3A",
"m  c #5F5035",
"M  c #604721",
"N  c #644B24",
"B  c #694E25",
"V  c #644D29",
"C  c #694F29",
"Z  c #714F25",
"A  c #675026",
"S  c #6C5126",
"D  c #66502C",
"F  c #6D532A",
"G  c #725327",
"H  c #72552B",
"J  c #75582E",
"K  c #7B5A2D",
"L  c #634E30",
"P  c #635131",
"I  c #6C5232",
"U  c #705433",
"Y  c #755932",
"T  c #7B5C33",
"R  c #73593A",
"E  c #7D5E3A",
"W  c #7D6039",
"Q  c #515040",
"!  c #835D2F",
"~  c #805E30",
"^  c #815F38",
"/  c #846135",
"(  c #8A6335",
")  c #83633C",
"_  c #8B6639",
"`  c #906739",
"'  c #926A3C",
"]  c #886641",
"[  c #8D6B43",
"{  c #856B4B",
"}  c #926E45",
"|  c #9C7142",
" . c #957248",
".. c #997449",
"X. c #9A7650",
"o. c #9D7953",
"O. c #A27444",
"+. c #AB7947",
"@. c #A37A4E",
"#. c #A87A4B",
"$. c #B27E4B",
"%. c #A97E52",
"&. c #B08152",
"*. c None",
/* pixels */
"F P i *.*.*.*.*.*.*.*.*.*.*.*.*.*.*.*.*.*.*.*.*.*.*.*.*.*.*.*.*.*.*.*.*.*.*.*.*.*.*.*.*.*.*.*.*.*.*.*.*.*.*.*.*.*.*.*.*.*.*.p z ",
"F F V m *.*.*.*.*.*.*.*.*.*.*.*.*.*.*.*.*.*.*.*.*.*.*.*.*.*.*.*.*.*.*.*.*.*.*.*.*.*.*.*.*.*.*.*.*.*.*.*.*.*.*.*.*.*.*.*.P P g N ",
"F A D Y R *.*.*.*.*.*.*.*.*.*.*.*.*.*.*.*.*.*.*.*.*.*.*.*.*.*.*.*.*.*.*.*.*.*.*.*.*.*.*.*.*.*.*.*.*.*.*.*.*.*.*.*.*.*.I Y F g j ",
"F A A K Y ) *.*.*.*.*.*.*.*.*.*.*.*.*.*.*.*.*.*.*.*.*.*.*.*.*.*.*.*.*.*.*.*.*.*.*.*.*.*.*.*.*.*.*.*.*.*.*.*.*.*.*.*.W / J F g j ",
"F N f ~ K ~ } *.*.*.*.*.*.*.*.*.*.*.*.*.*.*.*.*.*.*.*.*.*.*.*.*.*.*.*.*.*.*.*.*.*.*.*.*.*.*.*.*.*.*.*.*.*.*.*.*.*.[ _ J T H e N ",
"F N A ~ K / _ ..{ *.*.*.*.*.*.*.*.*.*.*.*.*.*.*.*.*.*.*.*.*.*.*.*.*.*.*.*.*.*.*.*.*.*.*.*.*.*.*.*.*.*.*.*.*.*.*...' / K K H g V ",
"G A f K S F _ ' O.o.*.*.*.*.*.*.*.*.*.*.*.*.*.*.*.*.*.*.*.*.*.*.*.*.*.*.*.*.*.*.*.*.*.*.*.*.*.*.*.*.*.*.*.*.*.@.' ' K A J G g j ",
"H A S ~ G A S ` O.#.o.*.*.*.*.*.*.*.*.*.*.*.*.*.*.*.*.*.*.*.*.*.*.*.*.*.*.*.*.*.*.*.*.*.*.*.*.*.*.*.*.*.*.*.&.O.| W D H K F g j ",
"H N N K H H J H _ +.%.*.*.*.*.*.*.*.*.*.*.*.*.*.*.*.*.*.*.*.*.*.*.*.*.*.*.*.*.*.*.*.*.*.*.*.*.*.*.*.*.*.*.] $.| K H Y G K H g j ",
"H B B ! H C K T K / @.*.*.*.*.*.*.*.*.*.*.*.*.*.*.*.*.*.*.*.*.*.*.*.*.*.*.*.*.*.*.*.*.*.*.*.*.*.*.*.*.*.*.) O.Y W T F F K J e j ",
"G N N K H B Y T ^ ^  .*.*.*.*.*.*.*.*.*.*.*.*.*.*.*.*.*.*.*.*.*.*.*.*.*.*.*.*.*.*.*.*.*.*.*.*.*.*.*.*.*.*.E ' W W K F S J F w j ",
"H V M K S N J T E ^ } *.*.*.*.*.*.*.*.*.*.*.*.*.*.*.*.*.*.*.*.*.*.*.*.*.*.*.*.*.*.*.*.*.*.*.*.*.*.*.*.*.*.E ' / T K F A K F w j ",
"H C N K S N J J T T [ *.*.*.*.*.*.*.*.*.*.*.*.*.*.*.*.*.*.*.*.*.*.*.*.*.*.*.*.*.*.*.*.*.*.*.*.*.*.*.*.*.*.Y _ W W J S N K F w j ",
"F N f K F N H J T T ) *.*.*.*.*.*.*.*.*.*.*.*.*.*.*.*.*.*.*.*.*.*.*.*.*.*.*.*.*.*.*.*.*.*.*.*.*.*.*.*.*.*.U ) T J J A N G F w j ",
"G N d K A V A Y Y Y ) *.*.*.*.*.*.*.*.*.*.*.*.*.*.*.*.*.*.*.*.*.*.*.*.*.*.*.*.*.*.*.*.*.*.*.*.*.*.*.*.*.*.I W Y J H A N G D w N ",
"H N f G A N A H Y K W *.*.*.*.*.*.*.*.*.*.*.*.*.*.*.*.*.*.*.*.*.*.*.*.*.*.*.*.*.*.*.*.*.*.*.*.*.*.*.*.*.*.F W J J F N A G A 0 A ",
"H N d G S j A F Y F E *.*.*.*.*.*.*.*.*.*.*.*.*.*.*.*.*.*.*.*.*.*.*.*.*.*.*.*.*.*.*.*.*.*.*.*.*.*.*.*.*.*.I Y F H A j j H N t S ",
"J N d G A j N S F F U *.*.*.*.*.*.*.*.*.*.*.*.*.*.*.*.*.*.*.*.*.*.*.*.*.*.*.*.*.*.*.*.*.*.*.*.*.*.*.*.*.*.I Y F F A N N F N 0 A ",
"J f d F F H F H H F U *.*.*.*.*.*.*.*.*.*.*.*.*.*.*.*.*.*.*.*.*.*.*.*.*.*.*.*.*.*.*.*.*.*.*.*.*.*.*.*.*.*.L H H H H F F S N w A ",
"G N d J J K K Y T W Y *.*.*.*.*.*.*.*.*.*.*.*.*.*.*.*.*.*.*.*.*.*.*.*.*.*.*.*.*.*.*.*.*.*.*.*.*.*.*.*.*.*.V T ^ T Y Y K J N 0 A ",
"H N t Z K ~ ` ` ` ` E *.*.*.*.*.*.*.*.*.*.*.*.*.*.*.*.*.*.*.*.*.*.*.*.*.*.*.*.*.*.*.*.*.*.*.*.*.*.*.*.*.*.V _ ' ' ` ( ~ G h w N ",
"H N s N t d N Z ! ^ ^ *.*.*.*.*.*.*.*.*.*.*.*.*.*.*.*.*.*.*.*.*.*.*.*.*.*.*.*.*.*.*.*.*.*.*.*.*.*.*.*.*.*.V ( ~ G B M t h h e B ",
"G V t f N N B C C F D *.*.*.*.*.*.*.*.*.*.*.*.*.*.*.*.*.*.*.*.*.*.*.*.*.*.*.*.*.*.*.*.*.*.*.*.*.*.*.*.*.*.l C C C C B N N h 9 B ",
"G N t N e r r t l N D *.*.*.*.*.*.*.*.*.*.*.*.*.*.*.*.*.*.*.*.*.*.*.*.*.*.*.*.*.*.*.*.*.*.*.*.*.*.*.*.*.*.l C h a t 9 9 f d w C ",
"H M t N t e u p a a z *.*.*.*.*.*.*.*.*.*.*.*.*.*.*.*.*.*.*.*.*.*.*.*.*.*.*.*.*.*.*.*.*.*.*.*.*.*.*.*.*.*.k l p a e w e h h 8 V ",
"J h 0 N a a a h g g z *.*.*.*.*.*.*.*.*.*.*.*.*.*.*.*.*.*.*.*.*.*.*.*.*.*.*.*.*.*.*.*.*.*.*.*.*.*.*.*.*.*.p h g h a e t M h 9 D ",
"J M 0 N t t a a g a l *.*.*.*.*.*.*.*.*.*.*.*.*.*.*.*.*.*.*.*.*.*.*.*.*.*.*.*.*.*.*.*.*.*.*.*.*.*.*.*.*.*.p k a h a p t f s 8 S ",
"H d 0 f a u e t g a z *.*.*.*.*.*.*.*.*.*.*.*.*.*.*.*.*.*.*.*.*.*.*.*.*.*.*.*.*.*.*.*.*.*.*.*.*.*.*.*.*.*.k g k a e e e d t 9 N ",
"G d 0 N e w w p a p b x 4 *.*.*.*.*.*.*.*.*.*.*.*.*.*.*.*.*.*.*.*.*.*.*.*.*.*.*.*.*.*.*.*.*.*.*.*.*.*.*.5 n a p p e e w d s 9 N ",
"H d 0 f e w e p a u v c c *.*.*.*.*.*.*.*.*.*.*.*.*.*.*.*.*.*.*.*.*.*.*.*.*.*.*.*.*.*.*.*.*.*.*.*.*.*.*.Q v p p p e e w f s 9 N ",
"G d 9 d t q p u p p i *.*.*.*.*.*.*.*.*.*.*.*.*.*.*.*.*.*.*.*.*.*.*.*.*.*.*.*.*.*.*.*.*.*.*.*.*.*.*.*.*.*.y i p p e q e d t 8 N ",
"G s 9 d e q w p u u u *.*.*.*.*.*.*.*.*.*.*.*.*.*.*.*.*.*.*.*.*.*.*.*.*.*.*.*.*.*.*.*.*.*.*.*.*.*.*.*.*.*.3 u u p w 9 9 s s 1 N ",
"G s 8 d u 7 w e u q p *.*.*.*.*.*.*.*.*.*.*.*.*.*.*.*.*.*.*.*.*.*.*.*.*.*.*.*.*.*.*.*.*.*.*.*.*.*.*.*.*.*.3 u u w w q q s t 1 N ",
"S t 8 d e 7 q u w p u *.*.*.*.*.*.*.*.*.*.*.*.*.*.*.*.*.*.*.*.*.*.*.*.*.*.*.*.*.*.*.*.*.*.*.*.*.*.*.*.*.*.2 p e w q 7 q t e 1 j ",
"S s 6 d w 7 w u p h g *.*.*.*.*.*.*.*.*.*.*.*.*.*.*.*.*.*.*.*.*.*.*.*.*.*.*.*.*.*.*.*.*.*.*.*.*.*.*.*.*.*.3 g s p e q 8 s 0 1 N ",
"F d 9 a e r t h h d e *.*.*.*.*.*.*.*.*.*.*.*.*.*.*.*.*.*.*.*.*.*.*.*.*.*.*.*.*.*.*.*.*.*.*.*.*.*.*.*.*.*.2 t f l t r w p 0 3 N ",
"S s 9 s 0 t M f t 8 3 *.*.*.*.*.*.*.*.*.*.*.*.*.*.*.*.*.*.*.*.*.*.*.*.*.*.*.*.*.*.*.*.*.*.*.*.*.*.*.*.*.*.: q q d f h r t e 3 N ",
"S d 8 s d d 9 8 q q 1 *.*.*.*.*.*.*.*.*.*.*.*.*.*.*.*.*.*.*.*.*.*.*.*.*.*.*.*.*.*.*.*.*.*.*.*.*.*.*.*.*.*.: 1 q 8 8 s d d w q j ",
"S s 1 s 8 , 1 8 ; $ < *.*.*.*.*.*.*.*.*.*.*.*.*.*.*.*.*.*.*.*.*.*.*.*.*.*.*.*.*.*.*.*.*.*.*.*.*.*.*.*.*.*.: > * 1 8 1 1 w 9 1 N ",
"S s 1 1 1 8 > = > > > *.*.*.*.*.*.*.*.*.*.*.*.*.*.*.*.*.*.*.*.*.*.*.*.*.*.*.*.*.*.*.*.*.*.*.*.*.*.*.*.*.*.: < > = = 1 q 1 1 1 j ",
"S s 1 8 , = = - < - : *.*.*.*.*.*.*.*.*.*.*.*.*.*.*.*.*.*.*.*.*.*.*.*.*.*.*.*.*.*.*.*.*.*.*.*.*.*.*.*.*.*.* > < , - @ = 8 8 1 j ",
"A s < 9 = $ < - > : % *.*.*.*.*.*.*.*.*.*.*.*.*.*.*.*.*.*.*.*.*.*.*.*.*.*.*.*.*.*.*.*.*.*.*.*.*.*.*.*.*.*.* % > > , = @ 1 8 1 h ",
"S s , 9 ; = - - - % % *.*.*.*.*.*.*.*.*.*.*.*.*.*.*.*.*.*.*.*.*.*.*.*.*.*.*.*.*.*.*.*.*.*.*.*.*.*.*.*.*.*.$ % % - - = = 8 1 , h ",
"S s - 8 > $ > = > $ $ *.*.*.*.*.*.*.*.*.*.*.*.*.*.*.*.*.*.*.*.*.*.*.*.*.*.*.*.*.*.*.*.*.*.*.*.*.*.*.*.*.*.# $ % = > = = 1 1 < j ",
"B r - 6 ; % > % - # # *.*.*.*.*.*.*.*.*.*.*.*.*.*.*.*.*.*.*.*.*.*.*.*.*.*.*.*.*.*.*.*.*.*.*.*.*.*.*.*.*.*.O O % - - % & 1 ; ; j ",
"B e - 6 > % = % $ O o *.*.*.*.*.*.*.*.*.*.*.*.*.*.*.*.*.*.*.*.*.*.*.*.*.*.*.*.*.*.*.*.*.*.*.*.*.*.*.*.*.*.o o $ % * % & 1 , ; f ",
"B r & 6 > % % * + X X *.*.*.*.*.*.*.*.*.*.*.*.*.*.*.*.*.*.*.*.*.*.*.*.*.*.*.*.*.*.*.*.*.*.*.*.*.*.*.*.*.*.X . O $ % $ & 1 - ; d ",
"S e & 1 & $ $ % + X X *.*.*.*.*.*.*.*.*.*.*.*.*.*.*.*.*.*.*.*.*.*.*.*.*.*.*.*.*.*.*.*.*.*.*.*.*.*.*.*.*.*.  . O # % # $ 1 - ; N ",
"S t % 1 & + # # O O O *.*.*.*.*.*.*.*.*.*.*.*.*.*.*.*.*.*.*.*.*.*.*.*.*.*.*.*.*.*.*.*.*.*.*.*.*.*.*.*.*.*.X O O O # O + ; - & M ",
"N e % ; @ O # + + + O *.*.*.*.*.*.*.*.*.*.*.*.*.*.*.*.*.*.*.*.*.*.*.*.*.*.*.*.*.*.*.*.*.*.*.*.*.*.*.*.*.*.*.O $ + + O O - - > h ",
"V e % ; @ . O % & O *.*.*.*.*.*.*.*.*.*.*.*.*.*.*.*.*.*.*.*.*.*.*.*.*.*.*.*.*.*.*.*.*.*.*.*.*.*.*.*.*.*.*.*.*.$ $ + X O - & ; d ",
"N 0 @ ; + . % & + *.*.*.*.*.*.*.*.*.*.*.*.*.*.*.*.*.*.*.*.*.*.*.*.*.*.*.*.*.*.*.*.*.*.*.*.*.*.*.*.*.*.*.*.*.*.o % % O X - & - d ",
"f r % - + + & % *.*.*.*.*.*.*.*.*.*.*.*.*.*.*.*.*.*.*.*.*.*.*.*.*.*.*.*.*.*.*.*.*.*.*.*.*.*.*.*.*.*.*.*.*.*.*.*.O & @ O & % - d "
};
