/* XPM */
static char *animation3[] = {
/* columns rows colors chars-per-pixel */
"64 53 143 2 ",
"   c #150C02",
".  c #190E02",
"X  c #1E1203",
"o  c #1F1208",
"O  c #231505",
"+  c #261907",
"@  c #281906",
"#  c #241609",
"$  c #26190A",
"%  c #2B1D0C",
"&  c #311E0B",
"*  c #251C12",
"=  c #2D1D10",
"-  c #2E210D",
";  c #32230D",
":  c #39260E",
">  c #3B290E",
",  c #2E2212",
"<  c #342511",
"1  c #382712",
"2  c #362814",
"3  c #3B2A14",
"4  c #342718",
"5  c #362A19",
"6  c #3E2D19",
"7  c #3F301A",
"8  c #40290E",
"9  c #422E14",
"0  c #412F1A",
"q  c #443216",
"w  c #493515",
"e  c #45331B",
"r  c #49361C",
"t  c #4C391D",
"y  c #533C17",
"u  c #593F16",
"i  c #533D1D",
"p  c #593F19",
"a  c #463520",
"s  c #493720",
"d  c #473A24",
"f  c #4D3B21",
"g  c #433A29",
"h  c #4E3F28",
"j  c #523E21",
"k  c #5C4216",
"l  c #55401E",
"z  c #5B431C",
"x  c #5F481E",
"c  c #604217",
"v  c #60461E",
"b  c #63491E",
"n  c #4F4123",
"m  c #554123",
"M  c #5B4523",
"N  c #5E4825",
"B  c #5B4628",
"V  c #5C4929",
"C  c #494031",
"Z  c #524C3D",
"A  c #614722",
"S  c #644B24",
"D  c #6A4D24",
"F  c #604728",
"G  c #634D29",
"H  c #6A4F2A",
"J  c #675025",
"K  c #6C5225",
"L  c #66502C",
"P  c #6C522B",
"I  c #735326",
"U  c #795727",
"Y  c #72552C",
"T  c #79572A",
"R  c #74592D",
"E  c #7B5A2D",
"W  c #6D5331",
"Q  c #735632",
"!  c #765931",
"~  c #7C5C33",
"^  c #7D5D38",
"/  c #7E6036",
"(  c #776038",
")  c #5F5847",
"_  c #5C5849",
"`  c #706653",
"'  c #706D5C",
"]  c #7D715C",
"[  c #7B7561",
"{  c #825E2E",
"}  c #815E33",
"|  c #895E33",
" . c #815F39",
".. c #84602F",
"X. c #846135",
"o. c #8A6435",
"O. c #84623B",
"+. c #8B653A",
"@. c #8E693B",
"#. c #926437",
"$. c #92673A",
"%. c #936A3C",
"&. c #9B6D3E",
"*. c #9D703F",
"=. c #A16F3D",
"-. c #8A6741",
";. c #8E6943",
":. c #936E42",
">. c #9C6F40",
",. c #977245",
"<. c #9C7142",
"1. c #94714B",
"2. c #9B7449",
"3. c #A37444",
"4. c #A87645",
"5. c #A97847",
"6. c #A47749",
"7. c #A4794A",
"8. c #AC7C4C",
"9. c #B17F4D",
"0. c #A47A51",
"q. c #A97D53",
"w. c #B07F50",
"e. c #837863",
"r. c #B6814F",
"t. c #AE8050",
"y. c #AA8159",
"u. c #B58352",
"i. c #BA8654",
"p. c #BF8855",
"a. c #BF8C5B",
"s. c #C48A56",
"d. c #C38C59",
"f. c #C98F5A",
"g. c #C5905E",
"h. c #CA915E",
"j. c #C79260",
"k. c #CB9563",
"l. c #CF9866",
"z. c #D19763",
"x. c #D69965",
"c. c #D99B67",
"v. c #D49C6B",
/* pixels */
"n S Y E E } X.| #.&.&.>.3.4.8.5.8.w.i.i.u.i.d.h.d.g.a.j.l.l.v.y.1.v.l.v.k.s.f.a.h.f.i.u.u.u.w.9.9.8.4.3.>.=.&.#.| | | ~ E T L m ",
"m S Y { Y L P P Y Y ~ ~ } } o.#.$.+.%.>.>.>.>.4.4.4.4.4.9.s.x.q.:.c.f.u.8.3.4.4.4.3.>.>.>.>.$.+.+.o.X.} } ~ T W W Q H H | Y L B ",
"t J Y X.X.E / X.| O.+.+.$.&.&.>.<.6.3.6.7.7.5.8.8.u.q.8.6.4.x.0.;.v.u.:.8.9.u.9.9.6.7.7.6.3.3.6.>.>.&.%.$.+.+. .| | ~ ~ #.Y P l ",
"e S U { ..E K J H Y Y T T T { } o.o.+.$.$.$.&.>.3.3.4.r.8.3.z.7.;.z.w.4.p.4.3.3.>.>.%.%.@.+.o.o.} { ~ T T T W P G S T { X.Y P t ",
"e J I E ..E R V V V V L G L H H L W L W W H Q W Q Q P %.7.<.h.2.O.h.8.<.3.Y Q ! W Q W L W W L L G H H G G G B V V K ..E o.I I t ",
"r J U / ..E E P L L R / R ~ } ~ E  . .+. . . .-.O.;.! @.2.<.d.2.O.g.7.:.2.Q -.-.O.-./ ^ O.O. .~ ~ } ~ ! ! ~ P L L R ..U ..I R m ",
"t J R E E E E J L L Y R Y E { ~ Y  . . .} ^  . .-.-.W +.2.%.s.,.O.s.3.$.>.W O.+.O.O.^ ^ O.X. .E Q ~ E Y R ! G L J R X.U X.I K l ",
"r J Y E ..E U K L L P R Y R E ~ ~ ~  .| ^ ^  . .O.+.W O.*.%.p.%.^ s.3.$.:.W O.O.^ X.~ ~ O.|  .! ~ ~ T Y R Y L L J R ..U ..I K l ",
"t J I E E E E D L V L R Y R R E R ( ~ X.^ ~ ~ ^  . .P / %.#.u.;.~ 9.3.@.@.H ~  .^ ^ ~ ~  .E ~ ! / R I R R P G L J Y / U ..I K l ",
"t J K E E E R S N S K R Y Y ! ! R ! R ~ ^ ~ ^ ~ ~ ^ P X.%.o.9.-.! w.%.o.@.Y ~ ~ ^ ~ ~ ~ / E E R R R R R Y P S F S K E U ..K K n ",
"e J I U E U R A N G L P K Y ! ! R Y ~ ! R ! ! ~ ~ ~ L ~ ,.E 5.-.Q 8.o.o.O.L ^ ! ~ ! ! ! R ~ ! Y R ! R K P L G N V K E U ..D K n ",
"r N K E U U R S F G G L P Y R ! Y Y / ! E R R ~ ~ ^ L ! @.E 7.-.Q t.X.o.o.G / ~ ! ! R R ! ~ ! Y ! R Y Y P S G V V I E U { K J n ",
"n N K E U Y U S G F S L K K Y R Y Y ! R R ! Y ! ~ ! L R o.E 3.O.W 7.o...X.G ! ! ~ R R R ( R Y P ! Y K J K L N S N K E I ..K b l ",
"d N K E I U Y N V V S G L S P R P L Y R R P L ! Y ! S Y O.E <.^ W 6.X.~ X.V Y ! ! R P Y R R P P Y P L S S N N V N Y U I ..K S i ",
"r N J U U K Y V V V V S D S D P K K R Y R P P Y Y ! V Y / E >.^ W <.| ~ ( M Y ! R W P P P Y K S P P J J G V N N M K U K E D J t ",
"t x J I I K R V M M V V S S D P S J P P P P L Y W L B W ~ Y &.^ G >.^ R ~ B L Y W L P R K L P D J J J N S V M V N K I I E D S t ",
"t z J U K K K N V V G F S L H Y D D Y K Y P K P P ! V L ~ Y &.^ G >.^ Y ! V W P R L P Y H H H G P D L D S S V V N K I K U D A i ",
"t z b I K J P K Y P P P Y T Y Y ! ~ E / E / / / / X.( ! ~ Y $.Q G %.~ ! ~ ! O.X./ / X.E { } } ~ R R Y Y Y H P Q L K P b E b v t ",
"e x x U R N P K Y Y Y Y ~ ~ Y ! ~ E X.X.E X.X.X. .} X.O.~ K @.Q F %.! Y O.o.|  .X. .X.{ { } } E ~ R E ! ! Y T Y P P S K E b b t ",
"e m N K X.o.o.+.+.+.@.$.%.%.$.&.&.$.%.<.<.&.<.3.3.>.&.4.2.~ o.W B +.E %.5.*.=.&.3.*.&.*.3.&.$.=.<.@.%.%.$.+.$.o.o.X.o.o.U A M t ",
"q m M A k M b A A A S S D H D I H D K Y I I I U U U I T E }  .W B o.~ E T U U U U I I I I I D D P H D D D S S A A S A z S A M e ",
"q i M K S j j M M j A N A A A G G A G G D H G H L P Y H A S } W B O.Y N H P P L G L L D S S G F G D S S M M j M M m m x P z z e ",
"q j v K D A j A A M S D D b S H S H D I P I P Y Y Y T U Y S  .W B X.P S E Y Y Y Y P Y I Y H H D S D D b D D v A N M M b I x z r ",
"q j z D b A i 0 0 e e 0 r 9 0 e e r r t t t s t f f s M P A ~ L m ~ P S D t t n f d r r t r e e e e 6 q q e e 0 6 r x b Y z M r ",
"6 l z b b x M t r f f r s s j m j m i m M i j M m B f M L N ! G m ~ G A G r m B M j j M i i i M j j i f r f t f r i N b D z z q ",
"2 i z D N b z f f f f r i j j p M M M z M v j j M j f M G m Y G m ! N N S f M m j j A M M p A M m j j i i s f f t l S z K k l q ",
"> y u S A M M t f f f r i i j j i M m u M j j j j m f j N M ! V m ! V M A f m j j j j A p j M j l j j i s s f s f m S z P k l 6 ",
"> t y D A p M t t t s s j f i j j j i j j m j j h j j j V M P V j Q S m N r j h j j j j j i i j m f t j t r t s r i M z K y l 3 ",
"1 t t b b z j f a s a r s t t i i i j f p m j s j h t i N i ( V m ( V z N r f h f f j M i f j j i t t t t r a a t t z z H y i 9 ",
"> l i b v z m r e r r a f s s f j f j s j j s j j j t i M r ] ` ) e.h i M r m f f t j j s f t f f t s f a e r r r l M z D y i 9 ",
"; t y b b m i r r r a r s t r s j f f j j j s t f f s j M C ' _ Z ' g j m e f f f f j j j f t j s r f f r e a e r t k z D u i 3 ",
"; t i x z k j r a e e e t r r r f t r s j i s s h f e f B d ] _ Z [ g j B e f f s s t f s r t j t r r t r e r e r i l k S i i 3 ",
"; r t z v i j e e a e e r r r r t t d r t m s s f d 7 r V 2 C C g Z 5 m m 6 s s d s f t t t t t t r r r w e e e e i p z S i t > ",
"& t t k z i p 0 e e e e r r s a t t n s t t s s f d 7 t m 5 * , * * 2 t n 7 r d s r f t t t f r r r r r e 0 a e 0 t j p S r i ; ",
"- w w z z i t 0 6 0 e 6 e r a r r t t r r t a a t a 7 r n t M h a M f t n 7 a a a a s t a t t r e r t r e 0 0 0 0 r p p b w t > ",
"; w r z j y p 0 0 0 6 q e t r e r r r r r r r a a a 7 r l e l d a m t t t 6 a a a r t e r r r r e e e r 0 0 0 0 0 y i i b y t > ",
": r r l p r s 0 e r e r w r r s t t r s t t t t d m t q t w l a 7 n t r t e m t s f t t t t s f d d r r w r e e q e t y S r t 3 ",
"< w r l p e r r r s t t i i j j i m f l m i u m l l M t r q t 7 5 t r q i l l l l i l m i i j i n m i y t y i f r t e y N w t 2 ",
"- q w l v i j j j j j A z A M S N S S N S S v S N x J J N e s 7 5 t r z D J S x A S S S S A S N S N z N z j A j m m t k x w r ; ",
"@ 7 t w y p y p v c c c k k z z z z x k p k u k i y k y z t s 7 4 t t l y y i u z p k k p v z k k z k k u c p c k t l l t r w - ",
"@ 3 q w 3 ; < < 1 : 1 3 3 1 3 q 6 3 7 q 3 q 6 7 7 7 7 3 3 3 r 7 5 r q < 3 6 e 6 6 3 7 7 q q 6 6 6 6 1 1 1 3 1 1 ; 2 1 ; w e e & ",
"- 3 q t r 7 6 q e 0 e e e w e w w r r w w r q r q q n w 7 3 r 5 4 e 6 6 t t r r w r r r w w e e w e w w e e 0 0 q 6 0 q i 9 9 & ",
"X 9 w w e q ; - ; & % ; ; ; & ; < < ; - ; ; = - - - - 3 3 : e 6 4 e 2 2 6 - % - - - ; ; % ; ; ; ; ; ; ; ; & & ; - ; 6 q y w q % ",
"X 3 w w w 9 3 + + + O + % - % , - ; < ; - - < , , - - < 7 < 7 2 < e 2 1 3 @ - - - - ; ; ; ; 2 ; - - - % % O + + O ; q 9 w q q @ ",
"O 3 8 q 9 9 9 & ; & < - 1 2 1 2 1 2 3 3 1 2 2 3 2 2 - - 2 < 0 4 , 0 1 2 2 % < 4 2 3 3 2 3 3 3 1 2 3 3 2 ; % = % - > q 8 w 8 9 @ ",
". ; : 8 9 3 3 = = % % % ; 2 1 ; 2 1 3 3 2 2 2 6 < < - - 2 < 0 4 4 6 4 < 1 @ ; < 1 2 2 2 2 1 1 ; ; < 1 2 % % % = - 1 6 9 9 : 3 O ",
"O ; : 9 q 6 3 = = = % % 2 2 2 - % ; ; 1 ; 2 2 2 < - @ & 4 % 2 5 , 6 4 % 2 O - < 2 2 2 ; 1 1 2 - - < < ; % = % = % 1 9 8 w : 1 @ ",
"X : : 9 9 3 9 = = = = % - ; < ; % 2 2 : ; ; 4 < - - O % ; % 6 4 , 5 ; % ; O % - < 2 ; - ; 1 2 - - < < ; % = = = - 1 3 8 q : : O ",
". ; & 8 9 1 3 % & = % % % < & % % - - < ; - < , % % X % ; $ 3 , , 2 - % < X # = - < % & 2 ; ; & - - ; - = % = = % 2 3 > 9 & > @ ",
". : : : 8 : 1 % % = % % % 4 & % % - ; ; % % & = % % . % , # 2 , % 2 % $ = . $ = - & % % ; < & % - - : - $ = = $ + 2 > > 9 & : O ",
"X & & > 1 < 1 $ + $ % $ % < & = % % - - - % % % = $ . O - O < * # < $ % % . # = , % $ % % % % % % % - - $ % % # + = 1 : 8 & & O ",
"X & & > : < < $ $ + $ $ + % = $ + - $ @ % + + $ = + . O - O , # o - + + + . # % % @ @ % @ % % $ $ % - @ $ $ O # # % 1 ; 9 & & O ",
"  % & > ; ; & O # # # + + $ = % @ - % @ @ $ O $ # #   X % O = # o - $ # +   o + + + # + @ @ % @ + = % # + $ # # O % ; ; 9 & & . "
};
