/* XPM */
static char *animation14[] = {
/* columns rows colors chars-per-pixel */
"64 53 161 2 ",
"   c #0F0903",
".  c #150C01",
"X  c #190E02",
"o  c #1E1203",
"O  c #1D130B",
"+  c #231505",
"@  c #281704",
"#  c #261907",
"$  c #291A06",
"%  c #251609",
"&  c #26190A",
"*  c #2B1C0C",
"=  c #311F0B",
"-  c #2C1D10",
";  c #2E200D",
":  c #33230E",
">  c #3A250E",
",  c #3D290E",
"<  c #2E2212",
"1  c #2C251B",
"2  c #342512",
"3  c #392612",
"4  c #372814",
"5  c #3B2A14",
"6  c #342719",
"7  c #32291C",
"8  c #3D2D19",
"9  c #3F3016",
"0  c #3E311C",
"q  c #332E23",
"w  c #393223",
"e  c #402B0E",
"r  c #412E14",
"t  c #412E1A",
"y  c #443116",
"u  c #4B3515",
"i  c #4E3917",
"p  c #45331B",
"a  c #49361D",
"s  c #473B1F",
"d  c #4C391D",
"f  c #523A16",
"g  c #523D1D",
"h  c #453521",
"j  c #493721",
"k  c #453823",
"l  c #4D3B21",
"z  c #443C2B",
"x  c #513E21",
"c  c #56411E",
"v  c #5B431E",
"b  c #5F481F",
"n  c #61461E",
"m  c #63491E",
"M  c #694D1F",
"N  c #554123",
"B  c #5B4523",
"V  c #5E4925",
"C  c #53432B",
"Z  c #5C4628",
"A  c #5D4929",
"S  c #474234",
"D  c #5E4D31",
"F  c #614622",
"G  c #634B24",
"H  c #6A4E24",
"J  c #644C29",
"K  c #6A4E29",
"L  c #714F25",
"P  c #675027",
"I  c #6C5126",
"U  c #67502B",
"Y  c #6C532B",
"T  c #725426",
"R  c #785626",
"E  c #755927",
"W  c #73552C",
"Q  c #7A562B",
"!  c #74592D",
"~  c #7B5A2D",
"^  c #634E31",
"/  c #665131",
"(  c #6D5533",
")  c #625338",
"_  c #725632",
"`  c #765932",
"'  c #7B5C33",
"]  c #745A3A",
"[  c #785D3C",
"{  c #7E602E",
"}  c #7E6037",
"|  c #545143",
" . c #5A5241",
".. c #605A49",
"X. c #68604D",
"o. c #7D6243",
"O. c #7E6844",
"+. c #7B6348",
"@. c #6E6551",
"#. c #706956",
"$. c #736D5A",
"%. c #78705D",
"&. c #747260",
"*. c #825C2E",
"=. c #885E2E",
"-. c #825E33",
";. c #8A5F30",
":. c #815F38",
">. c #81612F",
",. c #846135",
"<. c #8A6335",
"1. c #84623A",
"2. c #8B653A",
"3. c #8D683B",
"4. c #906434",
"5. c #92673A",
"6. c #936B3C",
"7. c #9A6D3E",
"8. c #816442",
"9. c #8F6740",
"0. c #866945",
"q. c #8D6943",
"w. c #856B4E",
"e. c #8B6D49",
"r. c #936D43",
"t. c #9A6E41",
"y. c #926E48",
"u. c #967046",
"i. c #9C7143",
"p. c #95714B",
"a. c #9F7749",
"s. c #9E7A54",
"d. c #A37444",
"f. c #A87746",
"g. c #AB7947",
"h. c #A57749",
"j. c #A5794A",
"k. c #AB7B4B",
"l. c #B17E4D",
"z. c #A57B53",
"x. c #AC7D51",
"c. c #B27F50",
"v. c #B3804E",
"b. c #AC835B",
"n. c #B58352",
"m. c #BB8653",
"M. c #BD8855",
"N. c #BA8759",
"B. c #B68A5F",
"V. c #BA885A",
"C. c #AC8660",
"Z. c #B78A60",
"A. c #C08753",
"S. c #C18A56",
"D. c #C48C59",
"F. c #CA8F5B",
"G. c #CC915D",
"H. c #CE9562",
"J. c #D19662",
"K. c #D69965",
"L. c None",
/* pixels */
"j V ! ! ' -.2.2.9.q.y.u.y.u.y.8.8.o.+.L.L.L.L.L.L.L.L.L.L.L.L.L.L.L.L.L.L.L.L.L.L.L.L.L.L.+.o.o.8.0.y.y.r.u.r.9.2.2.1.' Q W K N ",
"s V Y ~ ~ K Y W Q -.;.2.6.7.d.h.h.h.c.c.c.x.l.N.x.z.x.n.B.b.b.w.L.C.b.Z.B.x.z.k.N.n.k.c.n.l.k.h.d.d.t.r.5.<.-.Q W W Y Q *.W J N ",
"9 V E ~ 3.! ` ' ' ' -.-.-.-.-.2.2.2.5.6.7.7.d.f.k.k.k.l.M.G.K.z.' J.H.D.m.g.l.f.k.d.t.t.7.6.5.2.2.;.-.,.-.-.' ~ ' ' W -.-.W P l ",
"0 B ! ~ <.Q E W Q -.-.;.5.5.7.i.d.d.h.h.j.k.d.k.k.n.k.j.u.v.K.s.` H.D.u.j.k.l.l.k.h.j.j.h.d.d.d.t.7.7.5.2.,.*.' _ W ~ <.*.W J s ",
"4 V W Q <.~ ~ V N V V J K J K K W ` ' :.-.2.5.6.i.d.k.n.k.g.J.s._ G.m.d.M.g.d.d.t.5.2.;.-.-.' _ K L H K A Z Z B N ! ~ <.~ T K p ",
"9 V W E <.W >.E U U U ` _ _ _ W Y ` _ _ _ Y _ _ _ ' W 6.h.d.G.p./ D.n.t.j.W ` ' _ _ ( ( _ _ _ ( _ _ _ ( _ Y / U Y >.~ ,.*.W I l ",
"p b E E >.Q >.T J U Y ! Q ' *.-.' ' ' 2.1.:.1.0.9.0.' 3.a.d.D.u.( A.c.6.a.W 2.9.2.1.:.:.2.-.:.` -.-.~ ! ! W Y J I { ~ >.~ E H d ",
"p V W E >.Q ,.Y J / Y W W _ Q -._ ' :.1.:.' :.1.1.2._ 1.7.7.D.u.( A.k.3.t._ 1.1.1.:.[ :.:.-.' ` ' ' ! ! ! Y U J P { ~ >.~ Y P l ",
"9 m E E *.Q ,.Y U U J ! ! ! ! ' ` ` } } } ' ' ' 1.1._ ,.7.7.A.r.K c.g.4.t.Y ,.1.[ -.' ' ,.-.' ' ' { ! ! ! U A K P { ~ *.~ T I a ",
"h V I T >.E >.I J J G W Y ! E ' ! ! { ' ' ' ' } ' ' Y -.6.6.v.e.^ k.f.;.3.Y [ -.:.' ' ' ' ~ ~ W ` ! ! Y W K A J J { ~ ~ ~ I P l ",
"0 c T T >.T ~ J V J J Y W W W ` ` ! ' ' ' ' ` ' ' :.W } 3.5.k.0.J k.d.-.q.Y ' ' ' ' [ ' ' ' _ ! ! ` W I I I J V F ~ E >.E I G a ",
"0 V I I *.T ~ P V A A U Y Y W ` ` Y ! ` ! ! _ ' ' ' Y ! 6.>.k.0.^ k.r.-.2.K ' ' ' ` ! ` ! ' ! _ ` ! ! I U J J V G ! E ~ R I V l ",
"0 N I E *.T Q P V J J K Y I Y ! W ! _ { ` ` ! ` ' ' Y ` 3.*.j.o.Z h.5.-.,.J ' ' ` _ ! { ` ' ! Y ! Y Y Y I G G A J E ~ Q Q I G l ",
"s c I T ~ L ~ I V A V G U J I W ! Y Y ! ! ! Y ` [ ' U ! ,.*.a.} x u.5.Q 1.K ` ` ' ! ( ! ! ! Y Y ! U P P J V A A G E T ~ ~ I G l ",
"p c P M *.I ! P Z A V V H J Y Y Y P I ! W Y Y _ ! _ G W ,.*.i.[ Z i.5.' } V W ! _ Y ! _ Y Y Y Y Y P P P V V V V V E T R R P V d ",
"9 c P I ~ I E U N Z V V J F G Y I P I I W Y U Y ! _ V ( ' ~ i.[ x i.:.' [ V Y _ Y U Y Y Y Y H P Y P P V A V V V V E I R T P V a ",
"9 c G H *.G T P Z V A V G G K H K Y Y I Y Y Y Y _ _ A U ' ! t.] l t.,.W ` Z Y Y Y K Y Y H K H K I I P G J Z V Z A T H W R H F i ",
"9 c m I ~ m Y Y Y Y Y Y Y W W W _ W ! ! E ' ` ` ` ' ( Y ' ~ 6.] N 6.,.W ` Y ' ' ` ` ' ~ ! ' W W ! Y ! Y K K Y Y Y Y G E T m v a ",
"9 c b M ~ F I Y I W W Y _ ` W _ ' ' ~ -.~ -.,.-.1.,.,.-.` Y 6.( x 3.' Y 1.1.-.:.,.} -.~ -.-.-.' ! W ! ! Y W W Y Y Y V E T G B p ",
"9 g B G } ,.-.,.,.,.2.5.5.6.5.5.7.6.6.7.7.7.7.i.t.6.7.d.u.W <.( l 1.' ,.d.7.6.t.i.t.7.7.7.6.4.t.6.3.3.6.5.5.;.;.,.} ,.,.H F B a ",
"8 i B B n n F F F G H L L L R Q Q W Q ' Q =.=.;.-.;.=.<.;.-.:.( x ,.-.<.<.=.=.=.<.=.*.Q *.Q R _ ~ W W L L H H G F G F v G B x a ",
"4 d B G I c x x Z x x Z F Z B G J F F F G G J G K K Y J F _ 1.( x :.' F J K I K J J J H J F F F A G B V B Z x x C x x H H B g y ",
"4 d v M T F V B F n G K H H H K Y Y K W W L W K W W ~ ~ Y K ' ( l ' W G ~ Q ~ ! W W W W W H K K K H H H H G n G F v B I I v B p ",
"4 c v n W v B p t t a y p y t t p p p i d i l x l g d F I J ' ^ l ' Y G I d l l l l a i i a a d y p y p t a t t p c n H M v c p ",
"2 i b v I v m d j a j j d d x x x N g g N N x N C N l B K V ` ^ l ' U V K j N C N x x N x x x x x g d l a d a j d B v H M v v 8 ",
"; a v b H v F g l N N d g x x g B B B c B v g g Z B x x K B ! J a ` K B G a B N B x B V B g B F x x g g a l l l d B v M F v c 8 ",
"; u c v Y g V g a d j a l g g x g N B g c B x x x N g x V B _ D h ( U B A a N N x x B g g v v g x g g x a l l d l B B M M c d , ",
": u f v T g V l a j a a d d j l N g c g g Z x d N N x g V B Y D p Y J c V a N l x x x F g g g x x x d l j j d p l B c G m g d 5 ",
"< i i c I v v l j k k a i a d d g g g d x B g l l C l N B N O.) k O.U g V a N l l g x g d g l x f l d d p d j j d c g H n g g 5 ",
"; u g v H g B a a a k p a j d j l l g l d c d l l l a g B p $.@.S &.C g B a l l l l x x l g d x j l l j j p p j a c v M n f g 3 ",
"* y c c I c v a a a a p a l j j l x d l l x l l l l k l N k $. .| &.z i N h l l j g x x l g g x p l l p a p p a a x g M n g d 3 ",
"; y d c M f v i p p p h a a a a d l d d d x a j l l p l Z 0 @. .z #.z d C p l l j j d d a a l l a p a a p p p a d c f M v g a > ",
"@ y g f H f g a y p p p u a a a a l l l a g j j l l 9 a N 7 7 w 1 q 1 i N 9 p k j j l j a l l d a a a i p h p p p g g M v g a : ",
"@ t g g G i F a p p 0 p a a a h a a d d j l j a l k 9 s x h 9 w L.0 p j N 0 h l k a d a a g a a k a a a t p j t t B d m g i i : ",
"# y d d G f x a 8 8 p 8 p a a a a a a a a a j h k k 9 a l d V l L.B N i x 8 h h k a a a j l a a p s a p t t t 8 y g g B c i a ; ",
"; y i g F i x a t t 8 9 p a a j a a a a a a a a h h p p l i x h 7 l d u l 8 k h h a a a a a a a h a p a t 8 t t p g d n c i d : ",
"; 9 a c G u d t h p p d i d d x l N l d l g g c x B c d a a j p 7 l d y d g B c c g d g d l N l l l d d i i a y p d a b v u s : ",
"; , s u F u a a j l d d g g g x N N N c B B B c c c F B N y d w L.a a i B n v c c c B N c c N g N N i c d j g a a a p v c a u : ",
"+ 9 p u F g g x x n G G n F m H P P P M G M M m m v m m F x g w L.a i c m m n F m M M H H I H H G G G m F F B B N N c m c u p ; ",
"o > s u f f f u f f u f i u u u u y u y 9 y y y y 9 9 5 4 y p 0 L.a a > 5 8 8 9 p 5 y y y u y y y u u u f i f f u u i u p u 9 ; ",
"o , a y y 2 2 3 4 5 5 8 8 t 4 p y 8 y u p a p p a a a d 9 4 p 6 L.t t 4 a a a a a p a y a y 9 t y 5 8 5 5 5 5 8 4 2 2 5 u y t $ ",
"o , y y d 9 8 8 t p y y y t y t y y 5 , , , > 2 : ; : 5 9 4 p 8 L.p 8 3 9 2 ; : 4 : , , , , 9 y t y y t t t t t p 9 t i u t t $ ",
"o 2 u u i t 8 * $ $ & $ $ $ $ * & ; ; ; * ; ; ; ; ; ; 2 5 3 p 4 L.9 8 > 5 ; * * ; ; ; ; * ; ; ; * & & $ $ $ $ $ & > t u i u r + ",
". : y y i e t : % $ $ $ : 3 2 4 4 4 > 8 5 4 4 4 4 ; ; ; 4 5 8 1 L.6 8 > 4 ; < 4 4 4 4 4 8 4 > 2 4 3 2 > * * $ $ * t 5 u u y 5 + ",
". : e , u , t > * : * : ; 4 4 4 2 4 5 4 5 3 4 6 2 2 & ; 3 2 t 1 L.8 8 : 5 # : : 4 4 4 4 4 4 4 2 : 4 4 : * * * * : r , u r 5 , + ",
"X : , > i > 4 : - < * * ; 4 > 2 ; ; > 4 > ; 4 4 2 2 # ; 2 : 8 2 L.8 4 * 4 + ; 4 4 4 2 2 4 > : ; ; 4 4 : * * - 2 = 5 > u > > > + ",
"X * 5 , u 5 9 3 - - < * ; : 2 2 ; ; 4 > > ; 4 2 < ; % $ < * 4 1 L.4 2 & : + * ; < 4 2 : > > 2 ; ; 2 : ; * - - * : 8 , y e > > X ",
"X $ > , y 3 4 2 * - * * $ : : : ; ; ; : 4 * : ; * * + $ < $ 7 < L.2 2 & : o & * ; ; ; ; 2 : ; ; ; ; : ; * - - * * 8 5 t r > : + ",
"X = > = u > 5 3 * * - * * 3 2 * * * : 2 ; * = 2 * * X $ ; & 2 & L.; ; & 2 o * * ; : - - : : * * ; ; 4 * - - - * * 5 > r > > : X ",
". $ > > r > 3 - & * * * * * 2 * - * ; ; < * * * < * X % ; & < * L.; * & * X & - ; * * - ; - - * ; ; : * * - & & * 4 > e > > > X ",
"X $ = > r = 3 - % & % & & * * - $ * ; $ $ * % * * & X O * + ; % L.* * + & X + $ * & & $ $ * * * * ; ; & & $ % % * > : e > > = + ",
"X $ = = r = 3 @ % % % & & & - * $ $ * * @ % % % % % . o & % & O L.& & O & . + + % + % $ $ * * $ * ; & & & % + % % : : 3 > = = X ",
"  % = = r = > + + + % + % & - * + @ $ $ @ + % O o o . X & O % O L.% & o + . X + + + + + $ + @ @ & - & % % % o + + : = 2 > = * . "
};
