/* XPM */
static char *animation9[] = {
/* columns rows colors chars-per-pixel */
"64 53 144 2 ",
"   c #150C02",
".  c #1A0F02",
"X  c #1D1103",
"o  c #1D1409",
"O  c #231505",
"+  c #261906",
"@  c #291A07",
"#  c #24160A",
"$  c #28170B",
"%  c #26190A",
"&  c #2B1C0C",
"*  c #311E0C",
"=  c #2C1D10",
"-  c #2E210D",
";  c #32230E",
":  c #39250E",
">  c #3D290F",
",  c #2E2212",
"<  c #342511",
"1  c #382612",
"2  c #372814",
"3  c #3B2A14",
"4  c #342718",
"5  c #362919",
"6  c #3D2D19",
"7  c #3F3016",
"8  c #3F311B",
"9  c #3C3325",
"0  c #442C0F",
"q  c #422E14",
"w  c #412E1A",
"e  c #453216",
"r  c #4B3516",
"t  c #4E3816",
"y  c #45331B",
"u  c #49361C",
"i  c #46381E",
"p  c #4C391D",
"a  c #543B17",
"s  c #583D17",
"d  c #533D1C",
"f  c #583F1C",
"g  c #453521",
"h  c #493721",
"j  c #443823",
"k  c #4D3B21",
"l  c #433D2F",
"z  c #513E21",
"x  c #56401E",
"c  c #5B431E",
"v  c #61451D",
"b  c #63491F",
"n  c #4F4022",
"m  c #554123",
"M  c #5B4523",
"N  c #5F4925",
"B  c #554228",
"V  c #5C4528",
"C  c #5D4929",
"Z  c #4F4635",
"A  c #514838",
"S  c #614622",
"D  c #644B24",
"F  c #694D24",
"G  c #644C29",
"H  c #694F2A",
"J  c #6C5225",
"K  c #67502A",
"L  c #6C532B",
"P  c #735426",
"I  c #765827",
"U  c #73552C",
"Y  c #7A562B",
"T  c #75592D",
"R  c #7B5A2C",
"E  c #604D32",
"W  c #6C5232",
"Q  c #735631",
"!  c #795730",
"~  c #765A31",
"^  c #7C5C33",
"/  c #7C5E39",
"(  c #7E6035",
")  c #565140",
"_  c #5D5442",
"`  c #5F5947",
"'  c #665C4A",
"]  c #7C6540",
"[  c #766A55",
"{  c #716C5A",
"}  c #76715D",
"|  c #7F7561",
" . c #815C2D",
".. c #825E33",
"X. c #815F39",
"o. c #846134",
"O. c #8A6336",
"+. c #85623A",
"@. c #8B653A",
"#. c #8E693C",
"$. c #916636",
"%. c #93673C",
"&. c #946B3C",
"*. c #9B6E3E",
"=. c #9D703F",
"-. c #8A6740",
";. c #8E6942",
":. c #8B6D4E",
">. c #946D41",
",. c #9B6E41",
"<. c #916D48",
"1. c #9D7243",
"2. c #93714E",
"3. c #9C744B",
"4. c #8C6F50",
"5. c #937351",
"6. c #9B7753",
"7. c #A27444",
"8. c #A97745",
"9. c #A77847",
"0. c #A97847",
"q. c #A27648",
"w. c #A37A4D",
"e. c #AC7C4B",
"r. c #B37E4C",
"t. c #A67C52",
"y. c #A97F54",
"u. c #B7814E",
"i. c #B8834F",
"p. c #AD8256",
"a. c #AD8358",
"s. c #B68352",
"d. c #BA8552",
"f. c #BE8856",
"g. c #C38955",
"h. c #C38C59",
"j. c #C88E5B",
"k. c #CB925E",
"l. c #CC9461",
"z. c #D49762",
"x. c #D59A67",
"c. c #D89965",
"v. c #D09968",
"b. c None",
/* pixels */
"h D T T R o.O.X.%.,.7.q.3.w.t.w.t.y.p.y.a.6.2.6.2.:.:.4.b.b.b.b.b.b.b.b.4.:.:.<.6.5.2.p.p.p.t.y.w.t.w.q.q.7.,.>.X.$.O.^ Y U H B ",
"h D U R I K L U U Y ....O.$.&.,.,.7.8.e.8.r.r.g.d.d.s.f.k.k.v.t.<.v.l.l.h.s.d.d.g.s.e.e.r.8.7.7.,.*.$.@.O... .Y L U J P ..I D B ",
"y D U R @.T ( ( X.....X.O.@.%.%.>.>.>.>.*.1.&.,.1.q.1.1.1.s.z.t.;.c.h.q.7.*.9.1.3.&.>.>.&.&.&.&.#.%.@.@.@.....X.X. .Y ..O.U L k ",
"6 N I R O.R P J U ! ......O.%.&.,.,.,.q.0.0.0.r.u.d.d.d.e.8.z.t.;.x.s.1.d.d.g.r.r.e.e.0.8.7.,.,.&.%.@.O.....Y U L L R ..o.I K i ",
"6 N I I o.R T N B V V C G G G G G W L Q U U ^ ^ X.X.o.1.p.=.k.q.+.l.e.9.e.O.o.X.^ ^ Q L U L W L G G G G V C B C V U  . ...P H p ",
"7 D I I o.I o.L K K L ( ! ! ..^ ! / ^ ( / Q / / / +.Q @.q.=.h.3.+.k.e.>.3.U X./ / / / Q / / ^ ! ^ ^ ^ Q ~ Q K K K R ..R  .I J p ",
"y D I T o.R o.L K K L T T Y ^ ..! ^ X.+./ ^ +.O.@.;.~ +.1.=.g.3.+.h.9.&.3.! %.@.+.+.X.X.+.....T ^ ..R T T T K G J ~  . ...I L k ",
"8 D I T  .R R J K K L T T ! ! ^ ^ ^ ..X.X.^ X.X.+.@.Q o.1.&.g.>.X.h.7.@.>.H +.O.+./ ^ X.+...X.~ ! ^ R U T U K K J T R R ..I J k ",
"y D U I ^ R R L K K K U U T T ^ ~ ~ ( ( ( ! X.^ X.+.W ( *.$.d.<./ d.7.@.;.H X.o.^ X.^ ^ o...^ T ( T T T L L K K K T o.R R P J n ",
"y D J I  .I  .F C C K L P U I ~ Q T R ( ( ^ ^ / ^ ( T ^ >.O.r.;./ r.*.@.@.L ^ X./ ^ ( ^ ^ ^ T T T T T T U L D C D I R I R P J n ",
"6 c J I  .I R G C C K J L U T ^ T T ( T ^ ~ ! ^ ^ ^ L ^ >.o.e.-.Q e.%.@.+.J ^ ^ ( ~ ~ ^ ^ ! ! T ~ T T J L L D C C T T R R J D i ",
"8 N J P  .I R D C G G K L L U ~ T T T ( ~ U ~ ~ ^ ^ L T &.R 0.+.Q p.O.O.+.L X.! ^ Q T ~ ~ ! U L ~ T L P K D D C D T I R  .J D n ",
"j M J I R I Y G N D D K J J L T T T ~ ~ R T T T ^ ~ L Q @.R 9.-.W w.O.( ( K ^ ^ ^ T T T ~ ~ L T Q L L K L D G C D U Y I  .P F n ",
"y M L I I P T G N N N D D K L U L K W I T W T T ^ Q K T @.R ,./ L 9.O.o.( D U ~ ~ L T L T T L L T K K K D N N C C P Y P R J C n ",
"8 M J P R P I C C V V N K D L L L J L I L L L W T Q G J +.R ,./ W q.o.^ ^ N Q Q Q W L T L U J J T J D D N M N C N P P I I J D i ",
"7 c D J R J I C M M C N D D D L K J L L W L L L W W C W / U ,./ G ,.^ ! ~ C L W Q K L T L L K K J J D D N C V M N I P I I D D p ",
"7 c b J R J P D C C C G D G F H H L J J L L L L U W C K ^ U &.^ G 1.! ! Q M W U L L L U H H H G K J K D S G V V G J J U Y S D p ",
"7 c b J I D L J L L J L U U ! U ! T ^ ( T ( ^ ^ / ( ~ Q ^ Q %./ G &.^ Q ~ Q / ..^ ^ ^ R ^  .! ! T T T L L H U L L J F J Y b v u ",
"6 x D J R N L L J U U L ! ! ~ T ! R o.o.^ ^ o.( X...O...~ J @.Q G %.! U +.o.....+.^ X.R  . .!  .T T T ~ U L ! L L L D P I b M p ",
"7 x M F o.o.o.o.o.@.@.O.@.#.@.%.1.&.&.1.7.1.=.1.,.,.,.8.3.T O.Q V @.T &.9.*.*.*.7.1.,.*.7.7.>.,.&.@.#.#.$.%.X.O.+.o.o.+.P M M i ",
"3 d M N c c S S S S F G F F F Y Y U Y Y Y Y  . .R  . . .....X.W V O.^ .... . . . .R R Y Y Y P Y I J F F F F F S S D v v S c M y ",
"3 p c J J m z M M z M M S S S S S S G G D F G G G L F G S H O.E B +.U S G H J F G G D F F G S G G D M M M M z M M m m b L N x y ",
"3 p b b P S c S S S S F F F F F H H F P P P P P U U Y Y J F ^ W B o.U F R I I U U U U P L F H F J D D F F G v S M c c J J c c y ",
"2 x c b F c c w w w p r w w w w u y y p h p k k k k k M J S ^ W M R J G F p k n h h p p p u y r y y e y r y w w 6 d c J J c c y ",
"< x c c F c c p g h k p u k d z z z d z m d z B B m p M L M ! G B ! G N D p B B V z z M z d z B z z d k u k h h p M c b F v c e ",
", n c b F c D d k k k p d z z f M M M c M M f z M B z d G B U G M ^ D M N k M m z z M M M f M M z z z d u h k z h c b v S c x 3 ",
"; r x c D c D k h k k p z z d z z x M d f M z z z m z z C M Q C n Q G M M h B k z z z z f M d f f z d k h k k p p M N b F d d 3 ",
"; t x v F x M p p p h i d k h z m z d d f M z z z B z d C M W C n U N M M p B z z z S c d d z z z k d z u u p u p m c v F d d 3 ",
"; t p c J c c p h h h y p h p u d d z p d M d h z B k d M z ( C B ] C c M p B k k d z z d k d d d p u d p y h h p x c b F t d 3 ",
"- t a c b x c u y u p i h h p h k z d h d d z p k z h d N y [ ' A | k d m i B k k k z f h k d z h p h h y y h g i x c v b a d 3 ",
"- r x c b x c r h u h y p h h p k z p z z z h z k k j p M j { ` ) { j z z g k k k k z k k p k z h u h h y g h y r z x v S a d 3 ",
"- e p c b c c r y g y y p p u h h z h p h z h h k k g k M y { _ Z | j z B y k k h h z z u u k k u p u d p y y i p d x v b d d : ",
"+ e a x D d M p y y y r r p u h p k h i p z h h h h 8 u M 6 9 9 9 9 < n n 7 g k h h z p i k h p p p u r r y w y y d d v v p p < ",
"+ r p x D a d w w g y w y u p i u p d p p h h h h i y i n y 5 5 5 5 7 n n 7 j k g p k p u p p p u h p u y w g g w z d c M a t ; ",
"- e p x c d f y w w w 6 y i i y y p k p h u i i j h 8 p z p M h 9 M x p k 6 g g j i p p p p p y y i i y w w w w w d a c c t t ; ",
"- e u d b t z y w w w w y u p i y u u h y r p i g j 7 y k y m g 9 m u u p 6 g g y i u u u p y u g i p y w w w w y d d c c p p < ",
"+ e u x S r h w g y y p p p p k k z d k k p n d x x m y p u z g 8 d u r p d z d d z p p k p z k k p u t u r w y y p t x b p u ; ",
"- e t t v w p u h p p d a a p z z z d d x x x x x m M x p e p y 6 p y u d M c d x x c m x d m d z z a d d u d u y p y x c u p 2 ",
"+ 7 e n S f d f z M S S S b S F K D F D J F D F D b J b S d h 8 5 k p S b F F S D F F F F F G S D S D N S S M M M x x c c e e - ",
"X 7 e t d s a d s a s a a a a d d t d a r t r r u y r e w u p 6 5 p t q r q e u t r t t t d a a d a a a a s s s t t a d r r e - ",
"X > e r 3 < < 4 1 1 2 3 6 w 3 w w 6 e y 7 y 6 y e y i e 7 2 g 6 4 y 6 3 y e y 7 y 6 y 7 e q 6 6 w 6 2 3 3 3 1 1 2 < < 1 u e w @ ",
"+ 3 7 r p y 6 e w y y y e r y e e e e r e e e 6 7 e 7 e y < y 6 5 y 3 3 e 7 e e 7 w e e e e e e e e u r r y w w y w w r r w y @ ",
"X > r r u e 1 @ @ @ @ @ & @ @ @ & - @ & @ - @ % - o - ; 3 1 y 5 < w 3 1 2 - % - & & - & @ - - - @ @ @ & & $ % @ % ; w r a r e O ",
". 2 y e r w q & O @ % & ; ; < 4 ; < 1 2 < 3 < 4 < ; - - 3 ; y 5 , y 3 3 2 - < < 1 1 < < 3 < ; ; 4 < < ; & + @ @ + 3 q e r q w O ",
". : q 0 r 3 e ; & & < ; ; 2 6 2 ; > > 3 3 2 6 1 1 ; - - 1 < 6 4 4 6 2 < 1 @ < < 4 3 2 2 2 3 > 2 < 2 2 3 - - & & ; > > e e > q O ",
". ; > : e 0 3 ; , , & & ; 2 2 ; - ; < 3 ; ; < 6 4 < % - 1 , 6 4 4 6 < < 1 + - < 3 3 2 < 2 2 < - ; 1 2 ; & & = , - 3 > r 0 : : O ",
". ; > > e 3 w ; , % - - ; < 2 ; - ; > < ; ; < < ; - % & < $ 6 4 , 3 < & - O - , < 2 , ; : < ; - - < < ; = = = = - 3 > 0 e : : O ",
". * : > r 3 6 * = = % - - ; ; ; - ; < < < - ; 4 - - o $ < & 3 , , 4 - & , X & - - < ; - ; : ; ; - < < ; & = = & - 7 3 3 e : : O ",
". ; : : q 1 q < & & = $ = < ; ; & - ; < ; & & < & $ o @ - % 4 - - 4 - $ < X $ = ; * & , < ; < & - ; 1 - $ = = & & 6 < 0 q : : O ",
"  & : ; q 1 1 = $ = & = & ; ; & = $ < - , & & , = = X % , # < - - < % % = X $ & - & & & ; ; & & - - < - = & = $ & 1 1 0 > ; ; . ",
". * * : q * 1 & # @ $ $ # ; & = = = & & & $ $ & , $ . X - O , % o - + % %   # = & @ $ & & & & & = & - & $ $ $ # % < ; 3 0 * ; O ",
". @ * : q * < # # # @ $ @ & = & @ @ - @ @ @ % @ $ # . X & O , # o - @ % %   # $ % + $ @ @ & @ $ & - & % % # # # # - ; : : * ; O ",
"  + * ; 3 & : O O O # % # $ = $ @ @ % @ O O O + O O   X % o % # o % + O O   X # # + O + @ @ $ + % = $ # @ # X % O & ; : 3 * *   "
};
