/* XPM */
static char *animation26[] = {
/* columns rows colors chars-per-pixel */
"64 53 124 2 ",
"   c #150C02",
".  c #1A0F01",
"X  c #1D1203",
"o  c #231504",
"O  c #261806",
"+  c #291906",
"@  c #251709",
"#  c #26190A",
"$  c #2B1D0C",
"%  c #321E0A",
"&  c #2C1D10",
"*  c #2F200D",
"=  c #33230D",
"-  c #39260E",
";  c #3B290E",
":  c #2D2011",
">  c #342512",
",  c #382613",
"<  c #362814",
"1  c #3C2B13",
"2  c #32271A",
"3  c #372919",
"4  c #3D2D1A",
"5  c #3F301C",
"6  c #412E13",
"7  c #412E19",
"8  c #443215",
"9  c #4A3516",
"0  c #4E3917",
"q  c #45331B",
"w  c #49361C",
"e  c #4C391D",
"r  c #513A16",
"t  c #523D1D",
"y  c #583F19",
"u  c #463620",
"i  c #4A3720",
"p  c #4D3B21",
"a  c #523E21",
"s  c #423F31",
"d  c #56411E",
"f  c #5B441D",
"g  c #60461E",
"h  c #63491F",
"j  c #4F4123",
"k  c #4E4329",
"l  c #554122",
"z  c #5B4522",
"x  c #574827",
"c  c #5E4825",
"v  c #5A4628",
"b  c #5D4929",
"n  c #4E4637",
"m  c #564830",
"M  c #534B3B",
"N  c #5A513F",
"B  c #614722",
"V  c #644B24",
"C  c #694E25",
"Z  c #634D29",
"A  c #6A4E2B",
"S  c #6C5125",
"D  c #66502B",
"F  c #6C522A",
"G  c #735326",
"H  c #73552C",
"J  c #79562C",
"K  c #75592D",
"L  c #7C5B2D",
"P  c #634E30",
"I  c #635132",
"U  c #6B5333",
"Y  c #685338",
"T  c #725731",
"R  c #765A31",
"E  c #7C5C33",
"W  c #755938",
"Q  c #7D5E38",
"!  c #7E602E",
"~  c #545040",
"^  c #5A5645",
"/  c #5D5A4A",
"(  c #685D48",
")  c #7E6243",
"_  c #815D2E",
"`  c #825E33",
"'  c #836135",
"]  c #8A6436",
"[  c #85623B",
"{  c #8B6539",
"}  c #8E683C",
"|  c #916739",
" . c #946B3C",
".. c #996D3E",
"X. c #99703F",
"o. c #A0713F",
"O. c #8A6740",
"+. c #8D6942",
"@. c #856A49",
"#. c #8B6E4A",
"$. c #956E43",
"%. c #986F45",
"&. c #9C7142",
"*. c #96734B",
"=. c #9B744A",
"-. c #957552",
";. c #9F7A54",
":. c #A37544",
">. c #AC7A47",
",. c #A5794A",
"<. c #AB7C4B",
"1. c #B07D49",
"2. c #A67C52",
"3. c #AE7F51",
"4. c #AF804D",
"5. c #B3804E",
"6. c #AD8054",
"7. c #B38353",
"8. c #B98857",
"9. c #B1875E",
"0. c #B98B5D",
"q. c #C18C5B",
"w. c #C08F60",
"e. c None",
/* pixels */
"I x b D m e.e.e.e.e.e.e.e.e.e.e.e.e.e.e.e.e.e.e.e.e.e.e.e.e.e.e.e.e.e.e.e.e.e.e.e.e.e.e.e.e.e.e.e.e.e.e.e.e.e.e.e.e.e.e.P P l m ",
"F c Z H R W W Y e.e.e.e.e.e.e.e.e.e.e.e.e.e.e.e.e.e.e.e.e.e.e.e.e.e.e.e.e.e.e.e.e.e.e.e.e.e.e.e.e.e.e.e.e.e.e.e.Y W R R J F l x ",
"D d V H ! H K ' { +.@.e.e.e.e.e.e.e.e.e.e.e.e.e.e.e.e.e.e.e.e.e.e.e.e.e.e.e.e.e.e.e.e.e.e.e.e.e.e.e.e.e.e.) +.O.` R H L J F e x ",
"D j c H ' E H H K _ ]  .*.*.#.e.e.e.e.e.e.e.e.e.e.e.e.e.e.e.e.e.e.e.e.e.e.e.e.e.e.e.e.e.e.e.e.e.e.e.#.=.%.| ` E T T K ] L F 0 x ",
"D j Z G ' _ K L ` ' ' ` ]  .&.<.2.-.e.e.e.e.e.e.e.e.e.e.e.e.e.e.e.e.e.e.e.e.e.e.e.e.e.e.e.e.=.2.<.,.%.{ ' ` ` ` ! L L ] H A w z ",
"Z d S G _ _ ! c Z H E }  . . .$.&.:.5.7.2.-.e.e.e.e.e.e.e.e.e.e.e.e.e.e.e.e.e.e.e.e.e.;.7.3.>.:.$. . . .| ] J A x G L ] G H e z ",
"S d V G _ L _ K Z b Z Z F L | :.:.:.&.:.<.7.q.9.e.e.e.e.e.e.e.e.e.e.e.e.e.e.e.e.-.w.8.<.<.:.%.:.:.$.` K C Z b Z D ! L _ G H e z ",
"D d h G ' ! _ G A U R H T H A H E } &.>.5.<.1.q.e.e.e.e.e.e.e.e.e.e.e.e.e.e.e.e.<.q.,.1.>.:.$.` T F H H T R F D F ! L ' H G e z ",
"F d V G L L _ F Z D R K L ' L Q Q R T Q ] :.>.0.e.e.e.e.e.e.e.e.e.e.e.e.e.e.e.e.=.7.<.| E W T Q Q E ! L H R F D D L L _ K S e f ",
"D d V G L L ` F D P F H K E L Q [ ' Q [ Q { :.7.e.e.e.e.e.e.e.e.e.e.e.e.e.e.e.e.%.7.$.Q [ O.Q ` ' E R E K R D D C ! L _ G S e l ",
"D j h S L L L S Z Z F H L R J Q ' Q Q [ ' [ &.7.e.e.e.e.e.e.e.e.e.e.e.e.e.e.e.e.%.<. .R O.` R [ Q E E K H H D c Z ! K ! S F e l ",
"C j f S L J L V B Z F H H R K L Q ! Q Q ! ' ..<.e.e.e.e.e.e.e.e.e.e.e.e.e.e.e.e.%.>.+.J ` ` E ` E K R K F K C c V K G _ S S p l ",
"D l c S L J L S c c F F H K K R E E W E R ` | ,.e.e.e.e.e.e.e.e.e.e.e.e.e.e.e.e.+.:.[ K Q E R Q R H R H H D Z c h K G _ G V e l ",
"Z d f S ! G J S c Z D F S H K K R R K E R ` | &.e.e.e.e.e.e.e.e.e.e.e.e.e.e.e.e.[ &.[ H ` R T R R K R H S C Z c V L G L S S w d ",
"h j f S L G K C b b Z Z C H K H R R K R R R ] =.e.e.e.e.e.e.e.e.e.e.e.e.e.e.e.e.O. .Q H E R K R K H K S S Z c Z V ! G L S Z e l ",
"S d f S L G H Z b c B Z C H F D R H H R T J ` #.e.e.e.e.e.e.e.e.e.e.e.e.e.e.e.e.[ } Q F R K H H H D H D Z c b x c S G ! h V 0 c ",
"S d f h ! S G S z v v Z C A C F H F F K F H ' } e.e.e.e.e.e.e.e.e.e.e.e.e.e.e.e.Q { E F T F F H S S S D B B v v v H C L h V 0 f ",
"S d f h K S S Z Z Z Z V C C A C F F F F D F E O.e.e.e.e.e.e.e.e.e.e.e.e.e.e.e.e.Q ' H B T F F U S D S S C Z Z Z Z S V L h V 0 c ",
"D 0 d h J S S F A H A H H H H T K K R R U F L [ e.e.e.e.e.e.e.e.e.e.e.e.e.e.e.e.R ' H F T K J J R K H S H A H F F F V L V c 0 d ",
"D d d f G ' K E E E ` ` E E ` ` ' ' ' ' ' Q J [ e.e.e.e.e.e.e.e.e.e.e.e.e.e.e.e.T ` R ' ' ` ` ` ' E R ! ` J E ` E R E L h z 0 z ",
"D 0 d c h C G G _ _ ` ` ` | | |  . ...%.....` E e.e.e.e.e.e.e.e.e.e.e.e.e.e.e.e.U `  . ....... . .| | ] ] ` ` _ J H C V z z q f ",
"D 0 e f C z a a a a a f B B B C A G G J L _ ` E e.e.e.e.e.e.e.e.e.e.e.e.e.e.e.e.A ` _ L J J H C Z c V z f f a a a a t F c d 8 z ",
"F 0 t f G V z B V V C C C C A A A H H A H F C E e.e.e.e.e.e.e.e.e.e.e.e.e.e.e.e.A K C H T A H F S S F C C C Z V V z c G h z q d ",
"D 0 d f C V z q 7 w w 0 0 0 0 a a a a z B C A T e.e.e.e.e.e.e.e.e.e.e.e.e.e.e.e.Z H C B z z a l t t 0 w r e w 7 q d h S f f q d ",
"D 9 d f C h z e u u i i i p a a a a a a a z C U e.e.e.e.e.e.e.e.e.e.e.e.e.e.e.e.Z F B t l p p p p a t i i u i u e z g C g f 8 d ",
"D 8 d f V h V p p a p p a y y z f a a a a z B Y e.e.e.e.e.e.e.e.e.e.e.e.e.e.e.e.Z Z c a z t z v a B a a t i a a t z f C f d 1 d ",
"S 8 9 d C f c a i p i p a t y a a a a a a a z U e.e.e.e.e.e.e.e.e.e.e.e.e.e.e.e.b Z z a a a l l z y a a a w i i e z d C d t 6 d ",
"D 8 0 0 V f z a w p w e e a a a a v v a a a B U e.e.e.e.e.e.e.e.e.e.e.e.e.e.e.e.b Z l p a a l a a a t e e i i e p z f C y t 1 z ",
"C 8 e r V h z e u u u e i e a e a a t p p t a ( s e.e.e.e.e.e.e.e.e.e.e.e.e.e.e.~ Y a w p t a a a t e w u u i u w z f C r t 7 z ",
"V 8 0 t V f l w w e w u i i a p a a a p e a p ~ ( e.e.e.e.e.e.e.e.e.e.e.e.e.e./ ^ k a w p p p a p a p i p q u w w f d C y t 6 t ",
"V 8 0 r h f d 0 q w q w i w e p i a i i w e i M e.e.e.e.e.e.e.e.e.e.e.e.e.e.e.e.n i p 9 i i p i p a w w w q q w q d y h t t ; t ",
"D ; 9 j h f f 0 u u w w e e w p i p p i i e u 3 e.e.e.e.e.e.e.e.e.e.e.e.e.e.e.e.2 3 a 9 i i p w p e i w w w u q w d y V r t ; t ",
"Z ; q t B y a w q q q w w w w p p u w w u w p k e.e.e.e.e.e.e.e.e.e.e.e.e.e.e.e.u j e q w w i w p w w w w q q u q a t V r p - 0 ",
"Z ; w r g y a q 5 8 4 q w w w w u w w w u w w p e.e.e.e.e.e.e.e.e.e.e.e.e.e.e.e.q e w 5 u w q w w w w w w 7 7 7 q a r B t e - e ",
"Z ; 8 0 f y t w q 4 5 q w w w e e p e j l w q u e.e.e.e.e.e.e.e.e.e.e.e.e.e.e.e.5 q 9 d j e w u w w w u q 7 4 7 q a y B e e - e ",
"Z ; 9 0 z t p q q q 0 e e p e t j l z f f V l u e.e.e.e.e.e.e.e.e.e.e.e.e.e.e.e.5 w c h f d z l l j j j t w q 9 q i 0 B r w - t ",
"Z ; 9 0 z t w w w i e a f d B V V h g f d 0 0 q e.e.e.e.e.e.e.e.e.e.e.e.e.e.e.e.4 w 0 0 y g B V Z c c f t t e e w e e f 0 w < j ",
"c ; 5 w y y w a z z B g f f y t 0 8 8 q 8 8 1 5 e.e.e.e.e.e.e.e.e.e.e.e.e.e.e.e.3 5 1 q 8 7 8 8 0 t f f g g B z x e t f 0 w = d ",
"D ; 8 9 r f y r r 9 9 6 1 8 7 7 q 8 q ; ; 4 1 4 e.e.e.e.e.e.e.e.e.e.e.e.e.e.e.e.3 1 6 ; 6 7 q 8 q 8 4 1 6 7 9 r 0 r f d 9 9 = j ",
"x ; ; 9 q - , , 1 7 6 7 q 8 6 1 = * * * * , , 3 e.e.e.e.e.e.e.e.e.e.e.e.e.e.e.e.< 1 < $ $ $ = = ; 1 8 8 q 8 1 1 1 , ; 1 0 8 * 0 ",
"D = ; 9 w q 4 4 4 1 ; = * $ + = = > < > = > < 3 e.e.e.e.e.e.e.e.e.e.e.e.e.e.e.e.2 1 , * > < < > = * + $ $ - 1 1 7 4 7 w 6 7 % 0 ",
"x - ; 8 0 q 1 * # o o $ > , < < 1 < < < * * < 3 e.e.e.e.e.e.e.e.e.e.e.e.e.e.e.e.2 , * + > < < 3 , , < 2 % @ O O O , q 0 8 q $ e ",
"V * < 9 0 8 8 * + : * = < , = , < < < < $ $ * < e.e.e.e.e.e.e.e.e.e.e.e.e.e.e.e.2 : * O * < > > < = - , 2 % % $ $ 7 6 0 8 q + 0 ",
"V * ; 5 9 8 1 > * & $ * < > * = < = < * + $ * : e.e.e.e.e.e.e.e.e.e.e.e.e.e.e.e.: : * X * > : > - = = 2 = $ & $ % 1 1 0 6 8 + e ",
"V + - - 6 6 1 - & $ $ : < = * * : * * * # $ $ & e.e.e.e.e.e.e.e.e.e.e.e.e.e.e.e.: # : X : : $ > : * * = $ $ & & = 1 1 9 - 1 + 0 ",
"c $ = ; 6 6 1 > & & & $ = * * : > : + * # X # # e.e.e.e.e.e.e.e.e.e.e.e.e.e.e.e.# # # X * * $ * < * * = > $ & & $ , ; 9 - ; O w ",
"c * % - 6 7 1 > $ & & $ = * & $ * + @ : @ X X # e.e.e.e.e.e.e.e.e.e.e.e.e.e.e.e.X : X X X + $ * : * * * & $ & $ * 1 , 8 - - o 0 ",
"x * % % 6 1 1 : # $ & + * $ # * + # # @   X X # e.e.e.e.e.e.e.e.e.e.e.e.e.e.e.e.X X X . X O # # $ + $ * & # $ $ : 1 - 7 - , o 0 ",
"c $ = - ; ; 1 & # # # # & $ + $ + o o . . . o . e.e.e.e.e.e.e.e.e.e.e.e.e.e.e.e.. o .   . o o + # O + * # # # @ $ , - 6 = - o 9 ",
"z $ % = 6 - - # @ @ @ @ & @ @ @ o o o o o . . . e.e.e.e.e.e.e.e.e.e.e.e.e.e.e.e.  . . X X o o o O o # & O O @ @ O , = 6 % - o q ",
"z $ $ % ; = - o o X @ o @ + @ o o o o O o o o   e.e.e.e.e.e.e.e.e.e.e.e.e.e.e.e.    o o o o o o o o O # o o o o o % * 1 % = O 0 ",
"z $ + % - = = + X X X X o + + + O + + + o X . e.e.e.e.e.e.e.e.e.e.e.e.e.e.e.e.e.e.  . o + + + + O O O O X X X X X - $ 1 % % o w ",
"z $ # % - = % O . . X o + % % + - = O X . e.e.e.e.e.e.e.e.e.e.e.e.e.e.e.e.e.e.e.e.e.e.e.. o $ = * $ $ + + o X . o % $ ; % % X w "
};
