/* XPM */
static char *animation13[] = {
/* columns rows colors chars-per-pixel */
"64 53 152 2 ",
"   c #0F0903",
".  c #150C02",
"X  c #190E01",
"o  c #1D1203",
"O  c #1E1209",
"+  c #231505",
"@  c #261906",
"#  c #291A06",
"$  c #241609",
"%  c #28170B",
"&  c #26190A",
"*  c #2B1C0C",
"=  c #311F0C",
"-  c #2D1E10",
";  c #2E200D",
":  c #33230E",
">  c #3A260E",
",  c #36280E",
"<  c #3C280F",
"1  c #2D2213",
"2  c #342511",
"3  c #392712",
"4  c #372914",
"5  c #3B2A14",
"6  c #302518",
"7  c #35291A",
"8  c #3D2D19",
"9  c #3F3016",
"0  c #3E301C",
"q  c #352D22",
"w  c #393126",
"e  c #422A0E",
"r  c #422E13",
"t  c #412E1A",
"y  c #443216",
"u  c #4B3516",
"i  c #4E3917",
"p  c #45331B",
"a  c #49361C",
"s  c #4C391D",
"d  c #523A16",
"f  c #523D1D",
"g  c #453521",
"h  c #493720",
"j  c #443823",
"k  c #4D3B21",
"l  c #4F3F28",
"z  c #513E21",
"x  c #56411E",
"c  c #5B441D",
"v  c #60451D",
"b  c #644A1E",
"n  c #684B1F",
"m  c #4F4126",
"M  c #554123",
"N  c #5B4523",
"B  c #5E4925",
"V  c #5E4729",
"C  c #5E4A29",
"Z  c #4D4739",
"A  c #534D3F",
"S  c #614621",
"D  c #634B24",
"F  c #6A4D24",
"G  c #634C29",
"H  c #694F29",
"J  c #704F26",
"K  c #675127",
"L  c #6C5126",
"P  c #67502B",
"I  c #6C532A",
"U  c #725326",
"Y  c #785727",
"T  c #755827",
"R  c #785827",
"E  c #73552C",
"W  c #7A562A",
"Q  c #75592D",
"!  c #7B5A2D",
"~  c #634E30",
"^  c #694E31",
"/  c #645035",
"(  c #6C5234",
")  c #735631",
"_  c #785730",
"`  c #765932",
"'  c #7B5C33",
"]  c #765739",
"[  c #765B3B",
"{  c #7B5D38",
"}  c #7F6135",
"|  c #7F613D",
" . c #555244",
".. c #5D5644",
"X. c #5F5B4B",
"o. c #7D6342",
"O. c #6A6250",
"+. c #6F6B59",
"@. c #726956",
"#. c #746E5A",
"$. c #73705E",
"%. c #79715E",
"&. c #825C2E",
"*. c #825E33",
"=. c #815E39",
"-. c #846135",
";. c #8A6335",
":. c #85623A",
">. c #8B653A",
",. c #8E683B",
"<. c #906736",
"1. c #906639",
"2. c #936A3C",
"3. c #996D3E",
"4. c #9C703F",
"5. c #806341",
"6. c #896744",
"7. c #8C6843",
"8. c #86694A",
"9. c #8B6C4B",
"0. c #946D41",
"q. c #996F41",
"w. c #8D704F",
"e. c #9C7143",
"r. c #94714B",
"t. c #9B744B",
"y. c #9E794F",
"u. c #947450",
"i. c #9C7850",
"p. c #A37444",
"a. c #A77847",
"s. c #A97847",
"d. c #A47748",
"f. c #A3784A",
"g. c #AC7B4A",
"h. c #B17E4D",
"j. c #A17C52",
"k. c #AF804F",
"l. c #B5804F",
"z. c #B48251",
"x. c #BA8554",
"c. c #BA8856",
"v. c #BA8758",
"b. c #C28A56",
"n. c #C38C59",
"m. c #C98F5B",
"M. c #CC935E",
"N. c #C59263",
"B. c #CE9461",
"V. c #D59965",
"C. c #D89965",
"Z. c None",
/* pixels */
"a B E ! _ =.>.>.7.q.d.t.q.t.y.y.j.u.9.9.5.8.9.Z.Z.Z.Z.Z.Z.Z.Z.Z.Z.Z.Z.Z.Z.Z.Z.Z.Z.9.8.o.8.9.r.j.f.f.f.r.t.p.q.0.=.1.>.' Q Q H z ",
"k B I ! Q H E J E &.*.*.1.2.3.q.p.p.g.h.h.h.x.b.x.x.z.v.N.N.N.u.[ N.N.N.n.h.x.c.b.c.l.h.h.h.a.d.t.3.2.2.<.*.&.Q E E J U &.E H m ",
"p D T ! >.Q ' } *.*.*.=.=.=.;.>.2.,.2.2.0.0.2.e.p.p.p.d.g.b.C.r.[ V.N.h.a.p.d.p.p.3.2.0.2.1.2.1.>.>.-.;.=.*.*.{ *.] _ -.-.Q H l ",
"8 B E ! ;.! T I _ _ &.=.<.1.3.3.3.p.t.a.g.g.s.h.h.c.z.z.f.s.V.r.] V.c.q.z.x.x.h.h.g.g.s.g.d.p.4.3.3.1.;.;.*.&.` E J ! =.*.T G g ",
"8 B I R ;.! ! N M N N G H G D H H ) ) _ W ` =.:.>.2.2.g.k.p.B.9.^ B.h.p.l.3.2.;.=.;.' _ _ ) ) I H D D G G V N N N Q ! -.&.J H a ",
"9 K T ! -.R -.I P / I ` Q _ _ _ E ' ` [ ' _ ` ` [ [ I >.d.4.M.7.^ N.h.q.e.E [ ' [ { _ _ { ` ' _ ` _ _ Q Q ( ( P K ! &.&.&.R I k ",
"p K T Q -.R -.L P P I ` Q _ *.*.! { *.>.:.{ :.:.>.7.' :.t.3.b.6.^ n.g.2.t._ 2.>.:.:.=.=.:.=.*.! { *.Q W Q E G G K } ' &.' T L s ",
"0 b I T &.! &.I G ( H Q Q Q W ' _ ' *.=.=.{ =.=.>.:.) :.e.3.b.,.^ n.d.2.0.E :.:.=.*.' =.=.*.{ ` ' *.Q Q Q E I G K ! ! ! &.T L k ",
"p D T R &.! &.L K K G Q E Q ! ! ` ` } -.} ' { *.:.-.I -.e.2.x.5.G x.p.1.2.I *.=.{ *.` *.-.*.' ` ' Q Q E Q K G G K ! ! &.! U I s ",
"p b L U &.! ! K G C K E I E Q ` ` Q ' ! } ' ' { { { E ' 2.<.z.:.~ h.p.;.>.E { *.{ { { { ' ! ! E } Q Q T E H G G K Q ! ! R U L m ",
"9 c I T &.U ! F B G G L I E Q ` Q Q ! ' ' ` ' ' ' { ) ' 2.;.g.o.^ g.0.;.,.I *.{ { ` ` ! ` ' _ ) Q Q E I I H G B B Q ! ! R L K a ",
"0 B I U &.T ! G B V G G I I E Q ) Q Q Q Q ` Q ` ` ' I Q 2.! g.:.G g.>.;.-.H { ` ` Q Q ! ` ' E E ) Q E U K G S B D T T ! R L G h ",
"p N L T ! U ! G G B G G L K I Q Q E ` ' ` ` E ` ' ' I Q ,.! p.5.( f.>.*.-.G } ` ` Q ` ` ! ` Q E ) E K K K H G B G T R W &.L F k ",
"j N L T ! U ! G B G D D K K H T I K I ` Q E I ) ` ` G Q ,.! e.[ C p.;.*.-.G ) ` ` E I E Q Q I I Q P P K G B B G G T R U R U B k ",
"p N K L ! U ! G N B B B H D H I I F I E E I I Q Q ) G E -.! e.[ ~ e.=.&.} B ) ) Q I I ) E E H K I K K K G N B B B U U T T K B k ",
"9 c K L ! F T G M N B B D D H L K L I K Q I P I ) E C P { ! 3.[ G q.=.` ` N I ) I I I Q I H H F L L G B B C N M B T U R T D D s ",
"9 c D L ! n E G B V C B G G H H H H K L E I I K Q I C P { Q 3.] G 0.*.) ) N E E K I I I H H H H K K G G D S V C G I L U R F S a ",
"9 x b L T G I K I I I H E E E E Q Q ! ! Q ' ' ' ' { ` I ' Q 2.[ S 2.' Q ` ( ' { ' ' ' ! ! &.E _ Q Q Q T H H P I K I K U U S B i ",
"9 x D L ! D I I U E E I Q Q Q _ ` ! &.*.' *.-.-.:.*.-.;.` L 1.( V 7.` E :.-.*.=.-.*.-.' *.*.&._ _ Q Q _ E E W E I I D T U D c a ",
"9 f N F -.-.*.-.=.:.>.>.;.2.2.2.3.3.2.e.e.2.2.e.q.q.q.p.t.Q ;.( S =.Q 2.d.q.3.3.e.3.3.q.3.3.1.0.0.,.2.>.1.1.*.=.-.-.-.-.L S N a ",
"9 s N b v c S S S D F F J H U E W E W W W &.&.&.&.&.&.*.;.&.-./ l >.*.*.<.&.&.&.&.! W &.&.W J W Q U F J n F D D D S v c D N M y ",
"4 s N G I x z M N z M N B S S S B B G G F G D S G H I H G F *.( l =.Q S D H J H G G D D G D S G G G B B N N z M N z z D I N f a ",
"4 f v n J B N S S v b H F F F F H H I E U E E E E T ! W E F { / z *.E F Q W Q E E E U E E J H H F G F F F S S S S M B F L v N p ",
"4 x c n F c N t t t a r a t t a a p p a i a h k k k s c H D ' / M { H D F s z k k k a s s u p s y t y y t a a t t f b n F c M 9 ",
", s c b F c c s a a k a s s k z M z f f f M z z V M k N I N ` C z { G S G a M M S l z M z f f z z z s s a k h h k N c n b v c r ",
"1 i c c L c D f k k k a f f f f N c c x B c f z M M z z G M ) C z _ G B D s V M z z N S z c c B z z f f s k k k k c B n D f x 5 ",
": i x b H x S f s k k h z z s f f x N x c N z z z M z z G N ( C k ) G N B k z z l z z v f N c f f z f z a h k k s N N D H f f 5 ",
"; i d c F f B s a a k a s s k z M f f f x M z k m M f f C M I C k E B M B h M m z z z f f f f z z f k k a s s a s N x S F d f 5 ",
"2 s f c F c c z h h h a a a k s f f z s f N f h k M s x B z | / l o.G f N a l z k f z c s z s z s s s s p h h h s M c n b i z 5 ",
"; i d c F f c a p a p p h k s h k z f f f f f k k m a s B p @.O. .%.l z N y l k k z z z s z s z k s k h p s h p a f x b b d z 5 ",
"; i f c n d c a p g p a a k a a k z s k k M k k l k h z N j +.X. .+.j z z g z k h h z z h z z z h s s s p p h a a f x b S d f 3 ",
"; y s x n x c i h p h a a s a h s s s h h z h h k k g s N p +...Z #.j z M p k k h a z k a a s k a a a a p p p a a x f n c f s , ",
"* y z f F d z a p g p a a a a h a k k a a z k k k k 9 a N 4 w w q w 1 m x 9 h k h h M a h k z a a h a a p h p a p z f v c f s , ",
"@ y s f D i v p t p p y u a a h a h M s a s h h h k 9 a m p 7 7 7 7 9 k k 9 h j h h a a s s s a g a a a t t g t t f f S c s a : ",
"* y f d D i z u t t t 8 a y h a a a h a a a a g j h 0 a M h N k j N M h k t j j g a a a a k a a j p i p t t t t p f f v c a a : ",
"* y i f S s f p t t t p p a p g p a a a a a a g j j 9 p s a x h 8 z a i k t g g j a s p a a a h a a a a t t t t p d s v c i i , ",
"; r i s S u k p t p a i a i f k k k k s s x f f f M M u i y s w 0 s s y i f N f x s f z k s z h k s a s i a p p p a i c c a a , ",
"; y s s S u a a p z f s f d f z M x M x M M M f x x N c s y s p 0 s a a N N x f f x x M x x M f m m d i d f s a a a p c x a a , ",
"@ 9 u i D f z z z V S S S D S D F K K F F n n n K c b n b m a 0 8 a a D n n n b F b n n L L K F K D b D B v S B M x x c x u p ; ",
"o 5 a a d d d d d d d d i d i i u i i u u u y a y y y 9 5 a a 0 7 a i 5 5 t y y a y u y u i a i i i i d i d d d i i i x y a y # ",
"o 5 y u 9 2 2 4 5 3 5 5 8 8 5 t 8 5 9 y y a y 9 9 a a a 9 4 g 8 6 p 9 4 a a a y a y p y y y 5 8 t 8 8 8 8 3 3 3 6 4 2 5 y y t # ",
"@ 5 y y i y t 8 t t t y y y a t y y y y y y 5 5 5 4 5 9 9 4 p 7 6 p 8 5 y 5 4 5 5 5 r t e y y y y y y y t p y t y 8 t u i r y * ",
"o , i i i t 3 # # @ & # * * @ * * ; * * * ; * * ; & * , 9 , 9 6 1 0 5 3 4 # * * * * ; # * * * * # * & # # * # * @ : y u i u t + ",
"X , y y i r y * + * & * : 2 2 2 2 3 4 4 5 4 5 7 4 2 ; ; 9 2 0 6 1 9 5 3 , ; 4 6 4 4 4 4 5 3 3 2 4 3 3 : * @ & * # 9 t y i y r + ",
"X : r e u r r = * - : = : 5 4 4 2 3 3 5 3 3 4 5 2 2 ; ; 5 2 p 6 1 8 5 , 3 @ : 2 4 7 4 4 5 3 5 , : 4 5 , * : - * : e e r r r 5 + ",
". : 5 > y 3 5 2 - - * * ; 3 5 2 ; : , 5 : 2 4 4 4 2 # ; 4 - 8 6 1 8 4 ; 3 @ 2 4 4 5 , , 5 3 : ; ; 5 4 : * - * - : 5 5 u e > > + ",
"X = 3 e u 5 r 1 - - 1 * ; : 2 : * : 3 : , : 4 4 2 ; @ * 2 * 8 1 1 5 2 * ; + * : 2 4 , ; : : 3 ; ; 4 : : * - - - ; 5 5 r e > , + ",
"X = > 5 u 3 t - - * * * * , : 2 ; ; : , : * 1 2 * * + * 1 & 4 1 - 7 1 * : o * * ; 2 ; ; 3 : : * ; : 2 ; * - - * 1 5 5 r r > : + ",
"X = > : r 3 t : * * - * * 2 : 2 - * : : 2 * = - = - X @ 1 @ 4 * & 2 ; & 2 X * - * 2 * - 2 = * - ; : 4 * * - - * - 5 5 r < : > o ",
". * > : r > 5 = * * * % % 2 2 * - * ; ; * * * - 2 * o $ 2 $ 2 * & : * & * X % * ; = * = * 2 * - ; ; 3 * % * * % * 5 > r < : : X ",
"X = > = r = 5 * $ $ * * % * * * * * ; # * @ @ * - % X + * @ 1 $ O 1 * @ & . $ * * * % # # * - % * ; ; & $ * @ $ * 3 : < e = : + ",
". # = > e = 2 # $ $ $ & @ * * - @ * ; # # * @ @ * $ . o & $ * & O * & + * . + # @ + # # # * # # * ; * @ @ $ @ $ @ = : > e = : o ",
"  # = : 5 = : + + + $ @ $ % - * + # # * @ @ + o o o . o & o & O O * $ O + . X + + + + + # # # + * * % $ $ $ o + + : = > > = = . "
};
