/* XPM */
static char *animation30[] = {
/* columns rows colors chars-per-pixel */
"64 53 114 2 ",
"   c #170D02",
".  c #190F02",
"X  c #1D1103",
"o  c #231504",
"O  c #261806",
"+  c #2A1A06",
"@  c #251708",
"#  c #26190A",
"$  c #2C1D0C",
"%  c #311F0C",
"&  c #2F210D",
"*  c #33230E",
"=  c #38250E",
"-  c #3C2A0F",
";  c #352511",
":  c #3A2712",
">  c #372813",
",  c #3C2A13",
"<  c #362B1A",
"1  c #3C2D19",
"2  c #3E301E",
"3  c #363124",
"4  c #3F3625",
"5  c #3E3B2E",
"6  c #422E14",
"7  c #412E19",
"8  c #433116",
"9  c #493516",
"0  c #4D3917",
"q  c #45331B",
"w  c #49361C",
"e  c #4C391D",
"r  c #513A16",
"t  c #523C1C",
"y  c #453621",
"u  c #493720",
"i  c #4D3A21",
"p  c #523E21",
"a  c #56401E",
"s  c #5B431D",
"d  c #61461E",
"f  c #62491E",
"g  c #544121",
"h  c #5B4522",
"j  c #5D4824",
"k  c #53432A",
"l  c #5D472C",
"z  c #5F4A2A",
"x  c #4D4B3C",
"c  c #5B4B32",
"v  c #504C3B",
"b  c #57513D",
"n  c #604721",
"m  c #634A24",
"M  c #6A4E25",
"N  c #634D2A",
"B  c #6A4F29",
"V  c #6C5127",
"C  c #66512C",
"Z  c #6C532A",
"A  c #725327",
"S  c #72552B",
"D  c #795629",
"F  c #74582E",
"G  c #7B5A2C",
"H  c #664F32",
"J  c #645031",
"K  c #6C5334",
"L  c #725533",
"P  c #765A31",
"I  c #7B5B32",
"U  c #775A3C",
"Y  c #7B5E3B",
"T  c #7F6035",
"R  c #7F613D",
"E  c #5F5540",
"W  c #815C2D",
"Q  c #885E2E",
"!  c #825E33",
"~  c #885F35",
"^  c #846036",
"/  c #8B6335",
"(  c #846239",
")  c #8C653A",
"_  c #8F683A",
"`  c #926739",
"'  c #936A3C",
"]  c #9A6E3E",
"[  c #856542",
"{  c #866947",
"}  c #8B6A41",
"|  c #956E41",
" . c #916F4A",
".. c #8E704D",
"X. c #967046",
"o. c #9C7244",
"O. c #9C754B",
"+. c #987450",
"@. c #9C7851",
"#. c #A27544",
"$. c #A87544",
"%. c #A67846",
"&. c #AD7A47",
"*. c #A1764B",
"=. c #A5794B",
"-. c #AC7B4A",
";. c #B17F4E",
":. c #A67E53",
">. c #AD8154",
",. c #A7815B",
"<. c #B28252",
"1. c #B98655",
"2. c #B4865A",
"3. c None",
/* pixels */
"Z z k 3.3.3.3.3.3.3.3.3.3.3.3.3.3.3.3.3.3.3.3.3.3.3.3.3.3.3.3.3.3.3.3.3.3.3.3.3.3.3.3.3.3.3.3.3.3.3.3.3.3.3.3.3.3.3.3.3.3.k i z ",
"Z C j S K 3.3.3.3.3.3.3.3.3.3.3.3.3.3.3.3.3.3.3.3.3.3.3.3.3.3.3.3.3.3.3.3.3.3.3.3.3.3.3.3.3.3.3.3.3.3.3.3.3.3.3.3.3.3.H L V g j ",
"V N m F G T R 3.3.3.3.3.3.3.3.3.3.3.3.3.3.3.3.3.3.3.3.3.3.3.3.3.3.3.3.3.3.3.3.3.3.3.3.3.3.3.3.3.3.3.3.3.3.3.3.3.3.U Y G G V g k ",
"V j j G P Z I _ { 3.3.3.3.3.3.3.3.3.3.3.3.3.3.3.3.3.3.3.3.3.3.3.3.3.3.3.3.3.3.3.3.3.3.3.3.3.3.3.3.3.3.3.3.3.3.Y ) ( S S T C i j ",
"V h s G ^ G G G ) X...3.3.3.3.3.3.3.3.3.3.3.3.3.3.3.3.3.3.3.3.3.3.3.3.3.3.3.3.3.3.3.3.3.3.3.3.3.3.3.3.3.3.{ X.| T T G ! G V y j ",
"V j f F ! S D ^ ( / ] *.+.3.3.3.3.3.3.3.3.3.3.3.3.3.3.3.3.3.3.3.3.3.3.3.3.3.3.3.3.3.3.3.3.3.3.3.3.3.3. .=.#.` ( ^ G Z G W V g z ",
"V j f D G F j N I ` | ] #.<.:.3.3.3.3.3.3.3.3.3.3.3.3.3.3.3.3.3.3.3.3.3.3.3.3.3.3.3.3.3.3.3.3.3.3.@.>.-.o.] ] ~ Z j Z W G Z e j ",
"S j m G W G Z C J B ! ' #.#.&.1.,.3.3.3.3.3.3.3.3.3.3.3.3.3.3.3.3.3.3.3.3.3.3.3.3.3.3.3.3.3.3.3.2.;.%.#.o./ S N C C P W G V e j ",
"S m f D G P V C P I P F ! ] &.&.2.3.3.3.3.3.3.3.3.3.3.3.3.3.3.3.3.3.3.3.3.3.3.3.3.3.3.3.3.3.3.[ <.-.%.) F F P P F C F G G V a s ",
"Z j j D G G V C F P P T Y P ^ $.>.3.3.3.3.3.3.3.3.3.3.3.3.3.3.3.3.3.3.3.3.3.3.3.3.3.3.3.3.3.3.Y <.| I P ( I P P S C F G G V e h ",
"Z s s F G G M B F P P T ( ( ( ' :.3.3.3.3.3.3.3.3.3.3.3.3.3.3.3.3.3.3.3.3.3.3.3.3.3.3.3.3.3.3.L =.( ( Y ! I P F C C S G F V e j ",
"S j s A G D m m Z P P I I I ~ ` *.3.3.3.3.3.3.3.3.3.3.3.3.3.3.3.3.3.3.3.3.3.3.3.3.3.3.3.3.3.3.K #.( ~ I I I P F Z j V G D N q j ",
"Z z s F D F m N C S P G I I ! ) O.3.3.3.3.3.3.3.3.3.3.3.3.3.3.3.3.3.3.3.3.3.3.3.3.3.3.3.3.3.3.L o.I I I T F P Z V j V D G M e s ",
"Z j f A D A m m C Z P F I I I ~ X.3.3.3.3.3.3.3.3.3.3.3.3.3.3.3.3.3.3.3.3.3.3.3.3.3.3.3.3.3.3.U | I Y I P F S Z C f V D G m q j ",
"Z j s Z D A m z C Z F L F I L ~ | 3.3.3.3.3.3.3.3.3.3.3.3.3.3.3.3.3.3.3.3.3.3.3.3.3.3.3.3.3.3.K } G F F P F S C N j V F F m e s ",
"S s s Z D Z j j N B S S F F L G } 3.3.3.3.3.3.3.3.3.3.3.3.3.3.3.3.3.3.3.3.3.3.3.3.3.3.3.3.3.3.K ) F P F F Z Z V z j V S D j e j ",
"S s s V A V s f N m B Z A S Z I [ 3.3.3.3.3.3.3.3.3.3.3.3.3.3.3.3.3.3.3.3.3.3.3.3.3.3.3.3.3.3.K ( S S S Z M B m j l M S S n e m ",
"F f a M V V m z N m C V Z Z Z L ( 3.3.3.3.3.3.3.3.3.3.3.3.3.3.3.3.3.3.3.3.3.3.3.3.3.3.3.3.3.3.H ( Z Z S B B B N N j M A A d 0 m ",
"S s a V V V S V Z F S F S Z Z F R 3.3.3.3.3.3.3.3.3.3.3.3.3.3.3.3.3.3.3.3.3.3.3.3.3.3.3.3.3.3.H T C S Z S S S L B Z Z M S h w m ",
"S s a V G P F P L I I ! T T T I R 3.3.3.3.3.3.3.3.3.3.3.3.3.3.3.3.3.3.3.3.3.3.3.3.3.3.3.3.3.3.H T P T T W I I I L I F I A h 9 m ",
"F s t m V D G ^ ~ } ` ` ] ` ` ) U 3.3.3.3.3.3.3.3.3.3.3.3.3.3.3.3.3.3.3.3.3.3.3.3.3.3.3.3.3.3.N T _ ' ' ' ` ` ~ / W D A m g 0 m ",
"S a t m s a a a n n B B D W ~ / Y 3.3.3.3.3.3.3.3.3.3.3.3.3.3.3.3.3.3.3.3.3.3.3.3.3.3.3.3.3.3.N ^ / Q D A M m n g p g a M t w m ",
"S g 0 f M h m m M M B B M B Z Z K 3.3.3.3.3.3.3.3.3.3.3.3.3.3.3.3.3.3.3.3.3.3.3.3.3.3.3.3.3.3.l Z V V B M B B M M m n m M a 9 m ",
"S g t f M t 9 w e r t t h n m B K 3.3.3.3.3.3.3.3.3.3.3.3.3.3.3.3.3.3.3.3.3.3.3.3.3.3.3.3.3.3.k Z M j j s t r w e w t m f a q m ",
"A g r f f s e w y u p w p i p h C 3.3.3.3.3.3.3.3.3.3.3.3.3.3.3.3.3.3.3.3.3.3.3.3.3.3.3.3.3.3.k B p p p i p i w w w g m f a 8 m ",
"S a 0 s m s t p i p g h h g p h N 3.3.3.3.3.3.3.3.3.3.3.3.3.3.3.3.3.3.3.3.3.3.3.3.3.3.3.3.3.3.k N h t t t h p p i i a f f a 8 m ",
"S a 9 s m a t i i p p g p g p h z 3.3.3.3.3.3.3.3.3.3.3.3.3.3.3.3.3.3.3.3.3.3.3.3.3.3.3.3.3.3.k N p p n t p p i u e g s m e 6 m ",
"S a 9 s m g w w i i p p p p p p J 3.3.3.3.3.3.3.3.3.3.3.3.3.3.3.3.3.3.3.3.3.3.3.3.3.3.3.3.3.3.k N p p p p p e u u u p d f t 6 m ",
"V a w a f a u y w u i p p i i p E 5 3.3.3.3.3.3.3.3.3.3.3.3.3.3.3.3.3.3.3.3.3.3.3.3.3.3.3.3.5 v c i p p e i i i u y t f d t 6 m ",
"S r 0 s s a w w u i t p i i i i E x 3.3.3.3.3.3.3.3.3.3.3.3.3.3.3.3.3.3.3.3.3.3.3.3.3.3.3.3.E v k u i i i p u u w w r s d r 6 j ",
"Z a 8 s f a 9 w u u w w w i w i 3 3.3.3.3.3.3.3.3.3.3.3.3.3.3.3.3.3.3.3.3.3.3.3.3.3.3.3.3.3.3.3 y q u i w w u u y w e s f r - m ",
"V 0 8 a s a w q q w i i w i u i 4 3.3.3.3.3.3.3.3.3.3.3.3.3.3.3.3.3.3.3.3.3.3.3.3.3.3.3.3.3.3.< y y w i i w w w w q t s s 0 - s ",
"B 0 9 t s t 7 q q y w w i u q e u 3.3.3.3.3.3.3.3.3.3.3.3.3.3.3.3.3.3.3.3.3.3.3.3.3.3.3.3.3.3.4 i y w w e w w w q q e s s e = s ",
"A 0 8 t t t q 7 q w w w w w u w y 3.3.3.3.3.3.3.3.3.3.3.3.3.3.3.3.3.3.3.3.3.3.3.3.3.3.3.3.3.3.1 w u y w w w y w 7 1 0 t s 9 = h ",
"M e 6 t s t 7 7 q q e i t t h p w 3.3.3.3.3.3.3.3.3.3.3.3.3.3.3.3.3.3.3.3.3.3.3.3.3.3.3.3.3.3.< w s a i e e u w 7 7 e t s 9 , h ",
"Z r q t t w q 9 w g g s h m n g w 3.3.3.3.3.3.3.3.3.3.3.3.3.3.3.3.3.3.3.3.3.3.3.3.3.3.3.3.3.3.< i s s m h g p 0 e w w t a q , m ",
"V r q e t 0 9 p g s m f a 0 8 7 1 3.3.3.3.3.3.3.3.3.3.3.3.3.3.3.3.3.3.3.3.3.3.3.3.3.3.3.3.3.3.3.2 8 w 0 s f f h g 0 w 0 a q , j ",
"M 0 q 0 s t n n s 0 9 8 8 8 8 7 1 3.3.3.3.3.3.3.3.3.3.3.3.3.3.3.3.3.3.3.3.3.3.3.3.3.3.3.3.3.3.3.1 8 8 8 8 9 9 a s j s a a 9 1 h ",
"V 0 , w t 0 8 , 1 2 9 8 - * $ ; < 3.3.3.3.3.3.3.3.3.3.3.3.3.3.3.3.3.3.3.3.3.3.3.3.3.3.3.3.3.3.3., & & = - 8 8 1 , 6 9 r e 9 , s ",
"V q - 9 : , , 8 8 , & & & * ; ; > 3.3.3.3.3.3.3.3.3.3.3.3.3.3.3.3.3.3.3.3.3.3.3.3.3.3.3.3.3.3.3.> * & & & & = , 7 q > > 9 8 = j ",
"V w = 8 w , * & $ & ; : > > * $ ; 3.3.3.3.3.3.3.3.3.3.3.3.3.3.3.3.3.3.3.3.3.3.3.3.3.3.3.3.3.3.3.; & > > : ; % # + * , 8 9 6 ; g ",
"V w = 9 9 > O O & > ; > ; > ; $ ; 3.3.3.3.3.3.3.3.3.3.3.3.3.3.3.3.3.3.3.3.3.3.3.3.3.3.3.3.3.3.3.& # ; ; : ; > ; + o * 8 w 6 : g ",
"V 8 * 9 9 1 & $ & > & ; ; ; $ $ & 3.3.3.3.3.3.3.3.3.3.3.3.3.3.3.3.3.3.3.3.3.3.3.3.3.3.3.3.3.3.3.& # $ * ; % < ; & $ > 8 e , % g ",
"C 8 * 8 6 , & $ % ; & < ; $ # o # 3.3.3.3.3.3.3.3.3.3.3.3.3.3.3.3.3.3.3.3.3.3.3.3.3.3.3.3.3.3.3.$ o $ % ; & & ; & & > 6 6 6 $ j ",
"M 6 % 6 6 : * $ $ ; $ & & $ # # # 3.3.3.3.3.3.3.3.3.3.3.3.3.3.3.3.3.3.3.3.3.3.3.3.3.3.3.3.3.3.3.# X + & & & & & $ $ ; 6 6 = % s ",
"M 6 % = 6 - & $ $ ; $ & $ # @ X @ 3.3.3.3.3.3.3.3.3.3.3.3.3.3.3.3.3.3.3.3.3.3.3.3.3.3.3.3.3.3.3.@ X # + $ $ & & $ $ = 6 6 % $ s ",
"M 1 $ 6 6 > $ $ # & $ $ # @ X . X 3.3.3.3.3.3.3.3.3.3.3.3.3.3.3.3.3.3.3.3.3.3.3.3.3.3.3.3.3.3.3.X   X O $ $ $ $ $ $ = 6 6 % % s ",
"m 8 $ = 6 > $ # # $ $ + # o . . X 3.3.3.3.3.3.3.3.3.3.3.3.3.3.3.3.3.3.3.3.3.3.3.3.3.3.3.3.3.3.3..   X o # # $ # # # * = 6 % $ h ",
"M 8 $ = - ; # # @ # # o o o o X X 3.3.3.3.3.3.3.3.3.3.3.3.3.3.3.3.3.3.3.3.3.3.3.3.3.3.3.3.3.3.3.X X X o o o + # @ @ * - : * $ s ",
"M 1 $ * = * o o @ # O o o + + o   3.3.3.3.3.3.3.3.3.3.3.3.3.3.3.3.3.3.3.3.3.3.3.3.3.3.3.3.3.3.3.  o o o o o # @ o o + = = * % t ",
"m 8 + = = * o . X o # O + + X   3.3.3.3.3.3.3.3.3.3.3.3.3.3.3.3.3.3.3.3.3.3.3.3.3.3.3.3.3.3.3.3.3.. o + + + # o . o $ * : % % a ",
"f 1 + * * + o . o # $ % % o 3.3.3.3.3.3.3.3.3.3.3.3.3.3.3.3.3.3.3.3.3.3.3.3.3.3.3.3.3.3.3.3.3.3.3.3.3.O * % # o . . + % = % + s ",
"n 7 # % * + o o + $ * + o 3.3.3.3.3.3.3.3.3.3.3.3.3.3.3.3.3.3.3.3.3.3.3.3.3.3.3.3.3.3.3.3.3.3.3.3.3.3.3.o * % # O o O * * % # t "
};
