/* XPM */
static char *animation28[] = {
/* columns rows colors chars-per-pixel */
"64 53 130 2 ",
"   c #150C02",
".  c #1A0F01",
"X  c #1D1103",
"o  c #231504",
"O  c #281704",
"+  c #261807",
"@  c #291A06",
"#  c #241609",
"$  c #26190A",
"%  c #2C1C0C",
"&  c #311F0A",
"*  c #2D1E10",
"=  c #2E210D",
"-  c #33230D",
";  c #39260E",
":  c #3A280E",
">  c #2F2212",
",  c #342612",
"<  c #392711",
"1  c #362815",
"2  c #3C2A13",
"3  c #312518",
"4  c #362919",
"5  c #3C2C19",
"6  c #3F301B",
"7  c #412E13",
"8  c #412E19",
"9  c #443215",
"0  c #4A3515",
"q  c #4C3816",
"w  c #45331B",
"e  c #4A361C",
"r  c #4D391D",
"t  c #533B17",
"y  c #503718",
"u  c #523D1C",
"i  c #5A3F19",
"p  c #473620",
"a  c #493720",
"s  c #473924",
"d  c #4D3A21",
"f  c #463C29",
"g  c #513E21",
"h  c #463F31",
"j  c #5A4017",
"k  c #56411E",
"l  c #5B441D",
"z  c #5F481F",
"x  c #61471E",
"c  c #63491F",
"v  c #4F4123",
"b  c #4F442D",
"n  c #554121",
"m  c #5B4522",
"M  c #5E4924",
"N  c #59462A",
"B  c #5D492A",
"V  c #464033",
"C  c #5C4B31",
"Z  c #524B3B",
"A  c #58503C",
"S  c #614721",
"D  c #644B24",
"F  c #6A4D25",
"G  c #624C29",
"H  c #694F29",
"J  c #724F24",
"K  c #6B5126",
"L  c #67502B",
"P  c #6C532B",
"I  c #735426",
"U  c #7A5927",
"Y  c #73562C",
"T  c #79562B",
"R  c #74582D",
"E  c #7C5B2D",
"W  c #664E31",
"Q  c #684F32",
"!  c #6D5532",
"~  c #685338",
"^  c #735731",
"/  c #795730",
"(  c #765A31",
")  c #7B5B32",
"_  c #725838",
"`  c #7D5E38",
"'  c #7C613D",
"]  c #5A5746",
"[  c #655A44",
"{  c #7C5F40",
"}  c #825D2E",
"|  c #825E33",
" . c #825F38",
".. c #856134",
"X. c #8A6436",
"o. c #83613A",
"O. c #8C663A",
"+. c #8F693B",
"@. c #91673D",
"#. c #946B3C",
"$. c #9B6E3F",
"%. c #866644",
"&. c #836842",
"*. c #8C6B44",
"=. c #8B6C48",
"-. c #926E43",
";. c #9A6E40",
":. c #977146",
">. c #9C7242",
",. c #94714B",
"<. c #9D764C",
"1. c #9C7954",
"2. c #9D7E5C",
"3. c #A37544",
"4. c #A67847",
"5. c #AA7846",
"6. c #A47749",
"7. c #A2794D",
"8. c #AB7B4B",
"9. c #B07E4C",
"0. c #A47C53",
"q. c #AC7E51",
"w. c #B5814F",
"e. c #AE8357",
"r. c #AD835A",
"t. c #B48252",
"y. c #BA8553",
"u. c #B2865A",
"i. c #C38E5D",
"p. c None",
/* pixels */
"L B N N p.p.p.p.p.p.p.p.p.p.p.p.p.p.p.p.p.p.p.p.p.p.p.p.p.p.p.p.p.p.p.p.p.p.p.p.p.p.p.p.p.p.p.p.p.p.p.p.p.p.p.p.p.p.p.p.N B v N ",
"P M M R R _ ~ p.p.p.p.p.p.p.p.p.p.p.p.p.p.p.p.p.p.p.p.p.p.p.p.p.p.p.p.p.p.p.p.p.p.p.p.p.p.p.p.p.p.p.p.p.p.p.p.p.p.p._ / / L v M ",
"P M M R E R ' ..%.p.p.p.p.p.p.p.p.p.p.p.p.p.p.p.p.p.p.p.p.p.p.p.p.p.p.p.p.p.p.p.p.p.p.p.p.p.p.p.p.p.p.p.p.p.p.` o. ./ E R P v m ",
"L n M U X.R P R | @.*.=.p.p.p.p.p.p.p.p.p.p.p.p.p.p.p.p.p.p.p.p.p.p.p.p.p.p.p.p.p.p.p.p.p.p.p.p.p.p.p.p.=.-.-.X.R P P ..E P e M ",
"K k z R } E E ..) ) ..@.>.7.1.p.p.p.p.p.p.p.p.p.p.p.p.p.p.p.p.p.p.p.p.p.p.p.p.p.p.p.p.p.p.p.p.p.p.=.0.6.$.X.| ) ' ) E ..T H e N ",
"L k D R X.E K D T X.+.O.@.#.3.8.0.1.p.p.p.p.p.p.p.p.p.p.p.p.p.p.p.p.p.p.p.p.p.p.p.p.p.p.p.p.p.0.8.8.$.O.O.+.O.| K F E X.U P r M ",
"K l D I } U E G N G Y | #.>.$.>.3.8.t.u.2.p.p.p.p.p.p.p.p.p.p.p.p.p.p.p.p.p.p.p.p.p.p.p.r.q.9.4.;.>.>.$.X.R H N S R E ..E I t M ",
"K m c I } E ..P H ! P P H T X.$.3.8.4.8.i.1.p.p.p.p.p.p.p.p.p.p.p.p.p.p.p.p.p.p.p.p.p.u.t.8.8.4.6.@.) Y P P ! L K R E E U P r m ",
"P m D I } E E H H ^ R ' E E R R / O.6.w.t.0.p.p.p.p.p.p.p.p.p.p.p.p.p.p.p.p.p.p.p.p.p.u.8.8.$...^ R / E ' ( / L L R } ..R P r z ",
"L m c K E E E H W P R R E ' o. .` ` ) #.w.1.p.p.p.p.p.p.p.p.p.p.p.p.p.p.p.p.p.p.p.p.p.q.6...` ) ' ..' ) E Y ^ L L P E } I K r n ",
"P k z I E E E G G L R R ) ) |  .` O...+.w.<.p.p.p.p.p.p.p.p.p.p.p.p.p.p.p.p.p.p.p.p.p.7.>.o.O.o.` ..) ) R R ! H L I E E I F r n ",
"P n z K E T R S B P Y R R R ) ` ) ..' X.5.,.p.p.p.p.p.p.p.p.p.p.p.p.p.p.p.p.p.p.p.p.p.6.;.` o.` ) ) ( ( / I P G M K R E J L s m ",
"L m m K } I E M M L P P R R ) ) ) ' ) ..3.,.p.p.p.p.p.p.p.p.p.p.p.p.p.p.p.p.p.p.p.p.p.>.#.) ` ) ) ) R ( R K P G M K U } I L r k ",
"L z z K E I I G B L P K R R / ) ( ) R ' >.=.p.p.p.p.p.p.p.p.p.p.p.p.p.p.p.p.p.p.p.p.p.:.O./ ( / ( ( R R R K L M M K U E I c r k ",
"K k z K E I R G B G L K R R ^ / R ( R ' #.*.p.p.p.p.p.p.p.p.p.p.p.p.p.p.p.p.p.p.p.p.p.-.o.R / / ( ( R R K L G G B K I E I G e n ",
"P l l D E I I M B M L L P P P R Y / R ) #.&.p.p.p.p.p.p.p.p.p.p.p.p.p.p.p.p.p.p.p.p.p.*...R / ^ R R P P K L G B M K I U F G q m ",
"P l l D R I I M N N D D P F P P P R P R X.' p.p.p.p.p.p.p.p.p.p.p.p.p.p.p.p.p.p.p.p.p.O.| P ^ P Y Y L P H D G N g Y K E F S q m ",
"K k l c R K K D G G D F F P K P P P P R X.' p.p.p.p.p.p.p.p.p.p.p.p.p.p.p.p.p.p.p.p.p.o.) H P H L P K K F D G N G F K Y F c q S ",
"K k k c R c K P Y H Y Y P R R R ^ I P P ..` p.p.p.p.p.p.p.p.p.p.p.p.p.p.p.p.p.p.p.p.p.o./ H Y ^ R R R P Y Y P Y P P D I F M e M ",
"R k k z R E R ' ) ) / / ) ) E ..o.' ' ) ) _ p.p.p.p.p.p.p.p.p.p.p.p.p.p.p.p.p.p.p.p.p. .T )  .| ' E ' E / | / | ) / R ..c l e z ",
"P k t m c K I E } | X.X.X.@.@.;.#.;.#.#...! p.p.p.p.p.p.p.p.p.p.p.p.p.p.p.p.p.p.p.p.p.) | ;.#.#.#.#.O.@.X.X. .} T T I H S N 0 z ",
"P u u m K k g k g g S S c F F T Y E } } ..Q p.p.p.p.p.p.p.p.p.p.p.p.p.p.p.p.p.p.p.p.p.` } } } T I I F F c x g g g u u S S n 0 n ",
"P t t M I S m D D D F F J H H P H Y P P R Q p.p.p.p.p.p.p.p.p.p.p.p.p.p.p.p.p.p.p.p.p.^ F Y Y H P H P H F H F S F M z F c m w n ",
"P k t x H S u w e r y y y t u m m m M F R Q p.p.p.p.p.p.p.p.p.p.p.p.p.p.p.p.p.p.p.p.p.! H D m N k m u q 0 y r e w q z H c l 9 M ",
"L q v j F x m e p s p r d u g g d g g S P G p.p.p.p.p.p.p.p.p.p.p.p.p.p.p.p.p.p.p.p.p.L D g g d d d r d d p p p p n z c x l 9 n ",
"P k k l F z k g d d r n i m k m N g g N H G p.p.p.p.p.p.p.p.p.p.p.p.p.p.p.p.p.p.p.p.p.L S k N n N m m m g g d d d m z F x k 2 m ",
"K q 9 j F k m r d d d g g i l g n g g m G B p.p.p.p.p.p.p.p.p.p.p.p.p.p.p.p.p.p.p.p.p.G M g g g k k i g u g a y d n k F z u 2 M ",
"K q 9 k F i m d p p r r u g u g g g g g G C p.p.p.p.p.p.p.p.p.p.p.p.p.p.p.p.p.p.p.p.p.! k g g g n u u g a r a a e g k F i t 2 M ",
"P q q t F z n a p e e r r u y g d d d k C Z p.p.p.p.p.p.p.p.p.p.p.p.p.p.p.p.p.p.p.p.V [ g d d d v d u r r a e p p u l F t g 7 n ",
"K q q q F j n w e e p d r d r d d d e g b ] ] p.p.p.p.p.p.p.p.p.p.p.p.p.p.p.p.p.p.p.] A g r e d d d g r p d p e e u k c j u 7 z ",
"K 9 0 k z j n e w e e e e y d a d a p d s h p.p.p.p.p.p.p.p.p.p.p.p.p.p.p.p.p.p.p.p.p.f r e d d d d r r p e e w w g i c i g : l ",
"K 6 9 k c j k w p w w e e r r d d a e a w 3 p.p.p.p.p.p.p.p.p.p.p.p.p.p.p.p.p.p.p.p.p., d 8 p p p e r e e e e e w u k c u r : k ",
"L 9 w u S i g e w w w q e e r e p p p e u p p.p.p.p.p.p.p.p.p.p.p.p.p.p.p.p.p.p.p.p.p.r r w p p e r r e e e 8 p 8 g u S u r - u ",
"F 2 9 r l u u 8 6 6 w e e e e e e p p e a p p.p.p.p.p.p.p.p.p.p.p.p.p.p.p.p.p.p.p.p.p.r e w p r w p e e e p 8 8 8 e u x u q ; k ",
"F 2 9 q z u u 8 8 5 w r e r e d r k k k r 6 p.p.p.p.p.p.p.p.p.p.p.p.p.p.p.p.p.p.p.p.p.w e k k u d a r r e e 8 8 8 r u S t e - k ",
"K 9 9 q z y e 8 w r r r g g n n m m z D d 5 p.p.p.p.p.p.p.p.p.p.p.p.p.p.p.p.p.p.p.p.p.w l c l n N n n d g y d e w e q m r e : l ",
"K 9 6 v z e e e d g g i S F c z l k q 2 w 4 p.p.p.p.p.p.p.p.p.p.p.p.p.p.p.p.p.p.p.p.p.w 2 9 q u z c c D l k u u e r 0 k r q 1 k ",
"D 9 : q k u u m S x x i t q 9 0 w 6 w 0 8 4 p.p.p.p.p.p.p.p.p.p.p.p.p.p.p.p.p.p.p.p.p.5 7 e w 6 8 9 0 q t l x x m n r z q q 1 n ",
"K 9 2 k i i y 0 9 7 2 7 9 w w w 6 1 - : 2 4 p.p.p.p.p.p.p.p.p.p.p.p.p.p.p.p.p.p.p.p.p.4 2 , - < 9 9 9 0 9 2 7 7 0 0 j k e w : k ",
"K 2 : 9 8 ; , 2 7 8 w 7 : : - % = = = , 2 3 p.p.p.p.p.p.p.p.p.p.p.p.p.p.p.p.p.p.p.p.p.4 < % > % % = - 2 7 9 w 8 5 < 1 2 q 9 = k ",
"D 2 : 9 q 9 6 2 < - % @ % - , , 1 1 = , 1 3 p.p.p.p.p.p.p.p.p.p.p.p.p.p.p.p.p.p.p.p.p., , = , 4 1 1 - = % % & , 2 2 8 e w 8 & u ",
"L 2 : q q 6 1 + o $ = 1 1 1 : 1 1 1 = = , > p.p.p.p.p.p.p.p.p.p.p.p.p.p.p.p.p.p.p.p.p., = % , , , < ; 1 < , $ # o - 8 q 0 9 & g ",
"D : : 9 q 7 2 = % = - 2 - - : 1 , , = $ = > p.p.p.p.p.p.p.p.p.p.p.p.p.p.p.p.p.p.p.p.p.> % $ % , - 1 - % < , * * % : 9 0 9 w % g ",
"D : , 6 9 7 2 - * % % , - = , > = , o $ % = p.p.p.p.p.p.p.p.p.p.p.p.p.p.p.p.p.p.p.p.p.% % # % * = - - = - , $ * = < 2 0 7 7 @ k ",
"c ; & ; 9 7 ; & * * * , - - = > * > $ $ % $ p.p.p.p.p.p.p.p.p.p.p.p.p.p.p.p.p.p.p.p.p.$ $ o % * = , = = , = % % % , 7 9 ; ; @ u ",
"S ; & ; 7 7 2 * $ * * * = % % * $ > X X # X p.p.p.p.p.p.p.p.p.p.p.p.p.p.p.p.p.p.p.p.p.# $ X $ % % , % = - * * * % < 2 9 ; ; $ i ",
"F - & ; 8 2 2 & * $ % - % % % % $ $ X X $ X p.p.p.p.p.p.p.p.p.p.p.p.p.p.p.p.p.p.p.p.p.o X X # # @ @ % % = % * % % < 2 8 : - + u ",
"S : & ; 8 < , % % % $ % % % % @ + X X X X # p.p.p.p.p.p.p.p.p.p.p.p.p.p.p.p.p.p.p.p.p.X X   X # + @ % + % % $ % $ , ; 7 ; , $ t ",
"G , = - : ; ; $ $ $ $ % % O O O o . . . . X p.p.p.p.p.p.p.p.p.p.p.p.p.p.p.p.p.p.p.p.p.. . . . o o @ o @ % # $ # $ - ; 7 & ; o u ",
"D - @ - 7 - & $ # $ $ $ $ O o o o o o o X . p.p.p.p.p.p.p.p.p.p.p.p.p.p.p.p.p.p.p.p.p.  o o o o o o o + % o # # o % - 2 ; & o y ",
"M : @ - 2 - - o o o o # O o O O O O o o . p.p.p.p.p.p.p.p.p.p.p.p.p.p.p.p.p.p.p.p.p.p.  . o @ O @ @ o o @ o o o o @ - : - - @ t ",
"S - @ & : @ - o . . . o % O % & % o . p.p.p.p.p.p.p.p.p.p.p.p.p.p.p.p.p.p.p.p.p.p.p.p.p.p.  X o = = @ @ @ X . X . % - ; - = # u ",
"S - $ & - = & X . o @ @ % & ; & X p.p.p.p.p.p.p.p.p.p.p.p.p.p.p.p.p.p.p.p.p.p.p.p.p.p.p.p.p.p.. o - - & @ @ o X X @ & - & & o u "
};
