/* XPM */
static char *animation15[] = {
/* columns rows colors chars-per-pixel */
"64 53 156 2 ",
"   c #0F0902",
".  c #150C01",
"X  c #1A0E01",
"o  c #1D1204",
"O  c #1D130B",
"+  c #231505",
"@  c #291706",
"#  c #261906",
"$  c #291A06",
"%  c #251609",
"&  c #28170A",
"*  c #26190A",
"=  c #2B1C0C",
"-  c #311F0B",
";  c #261E11",
":  c #2E1F10",
">  c #2E210D",
",  c #32230E",
"<  c #3A250D",
"1  c #3A280F",
"2  c #2D2212",
"3  c #2F281E",
"4  c #342512",
"5  c #382612",
"6  c #362814",
"7  c #3B2A14",
"8  c #342A1B",
"9  c #3D2D19",
"0  c #3F3017",
"q  c #3E311B",
"w  c #332B21",
"e  c #3A3020",
"r  c #402B0F",
"t  c #412E14",
"y  c #412F19",
"u  c #453216",
"i  c #4B3515",
"p  c #4E3816",
"a  c #45331B",
"s  c #49361C",
"d  c #4D391D",
"f  c #563E16",
"g  c #523D1D",
"h  c #583F19",
"j  c #453521",
"k  c #493720",
"l  c #453925",
"z  c #4D3B21",
"x  c #513E21",
"c  c #56411E",
"v  c #5B431D",
"b  c #62461E",
"n  c #644A1E",
"m  c #4F4226",
"M  c #48402E",
"N  c #554123",
"B  c #5B4522",
"V  c #5E4926",
"C  c #59472A",
"Z  c #5E4A29",
"A  c #4E4530",
"S  c #554935",
"D  c #5C4C33",
"F  c #524C3B",
"G  c #614622",
"H  c #644B24",
"J  c #6A4D24",
"K  c #644D29",
"L  c #694E28",
"P  c #724E25",
"I  c #704F29",
"U  c #6C5126",
"Y  c #67502B",
"T  c #6C532A",
"R  c #725426",
"E  c #73552C",
"W  c #79562B",
"Q  c #74592D",
"!  c #7B5A2D",
"~  c #644E31",
"^  c #6D5431",
"/  c #6C5837",
"(  c #725631",
")  c #765931",
"_  c #7B5B33",
"`  c #765A39",
"'  c #7B5D3C",
"]  c #7F602E",
"[  c #7E6034",
"{  c #7C603E",
"}  c #514F41",
"|  c #5B5445",
" . c #5D5948",
".. c #765D42",
"X. c #795F42",
"o. c #7C6243",
"O. c #7F6946",
"+. c #6C6552",
"@. c #736B59",
"#. c #74715E",
"$. c #747261",
"%. c #845D2E",
"&. c #885E2F",
"*. c #825E33",
"=. c #885E30",
"-. c #805E38",
";. c #83612F",
":. c #846135",
">. c #8A6234",
",. c #85623A",
"<. c #8B653B",
"1. c #8E693C",
"2. c #906434",
"3. c #91673A",
"4. c #946A3C",
"5. c #996D3E",
"6. c #9D703F",
"7. c #846643",
"8. c #8A6741",
"9. c #876A45",
"0. c #8B6A45",
"q. c #8E6E49",
"w. c #936C42",
"e. c #9A6F41",
"r. c #916E48",
"t. c #977245",
"y. c #9D7243",
"u. c #95724B",
"i. c #9D7549",
"p. c #9E7A53",
"a. c #9F7D59",
"s. c #A27444",
"d. c #A37847",
"f. c #AA7847",
"g. c #A27749",
"h. c #A5794A",
"j. c #AB7B4C",
"k. c #B27E4C",
"l. c #A27D56",
"z. c #AC7D51",
"x. c #A17D59",
"c. c #B5804E",
"v. c #AE8053",
"b. c #AA835B",
"n. c #B48355",
"m. c #BB8654",
"M. c #B6865A",
"N. c #BF8E60",
"B. c #C18A57",
"V. c #C48D5B",
"C. c #C98F5C",
"Z. c #CB915E",
"A. c #CC9664",
"S. c #D19764",
"D. c #D49965",
"F. c None",
/* pixels */
"k V E Q _ :.<.8.<.q.q.u.7.o.o.X...F.F.F.F.F.F.F.F.F.F.F.F.F.F.F.F.F.F.F.F.F.F.F.F.F.F.F.F.F.F.F.X.o.7.X.r.e.w.8.8.<.:._ ! ) K m ",
"l V T ! ! U T W W *.>.3.5.e.s.f.h.z.j.z.z.v.n.M.z.b.a.b.F.F.F.F.F.F.F.F.b.l.b.z.M.n.v.z.k.j.j.j.h.g.e.5.4.2.=._ E W T E ! W Y N ",
"q B R ! 1.E ) ! _ _ _ _ _ *.:.>.<.3.4.e.y.s.s.k.k.k.c.m.C.Z.A.l.F.N.A.C.B.k.c.k.k.f.s.e.y.5.3.<.1.,.=._ _ _ _ _ _ ( ( <.;.E K z ",
"q B R ! >.! W E W *.>.>.4.4.e.y.y.s.s.s.d.d.s.s.j.j.d.y.y.m.D.l.F.C.A.y.s.s.h.j.g.s.s.g.h.g.s.y.e.e.5.4.<.>.*._ ) W ! >.! E K j ",
"6 B R Q 2.! ] B N V V K L L I E W -.*.>.3.5.5.s.f.k.k.M.h.k.S.p.F.C.V.6.m.c.k.f.g.e.w.3.<.*.*._ E P J L K G V B v Q ! :.%.R J s ",
"q V Q R 2.R ;.Q Y Y Y Q E E E ( ^ ^ ( ( ( L E E ( ) W y.d.f.C.u.F.m.m.5.j.:.! _ ( ( E ^ ( ( ^ ^ E ) ( T E ^ Y ~ T ;.! %.! E U j ",
"a V Q R ;.Q ;.E Y Y T ) ) W *.*.! _ -.,.-._ ,.,.,.8.( w.y.s.C.r.F.M.M.4.i.W ,.<.<.,.-.-.<.-.-.! _ *.! Q Q E Y K Y ] ! :.W E J k ",
"q v R Q ;.! ;.E K Y Y Q E E W _ _ _ -.>.-.' -.,.<.8.( 1.t.y.B.r.F.n.k.1.i.( ,.<.>.-.' -.-.*._ ) _ _ W Q W T Y K Y ] ! ;.! R Y z ",
"a v Q R ;.W %.T Y Y Y E E Q Q ) [ Q [ [ [ _ ' -.,.<.Q <.5.6.m.0.F.k.k.1.y.T -.>.-.-._ [ :.=._ _ ) ] ] T E T Y Y Y ] ! ;.! R H d ",
"a v R U :.R :.T K K K T E E E [ ) Q [ ) ' _ _ _ _ [ T :.1.6.n.0.F.j.j.=.w.L _ -.' -._ _ _ _ ) Q [ Q T Q E Y K Z U ! Q ! R R H z ",
"q N R U :.R ] J V Z K U T T Q ) ^ Q Q [ _ _ _ _ _ ' T :.1.4.j.0.F.g.s.:.w.R _ _ [ ) _ [ [ _ Q ) ^ Q E T T Y Y V H ! R ] W U K s ",
"q B U R ;.R ! Y B Z K Y E T Q ) Q Q ) ) Q Q ) _ _ _ T [ 1.>.j.9.F.s.6.:.8.L _ _ _ ) ) ) ) ) E E ) Q E R Y K V V H Q R ;.R R V l ",
"l B U R ;.R W U V V V Y T T R Q Q E Q Q ) ) Q ) _ _ ^ ) ,.:.h.7.F.i.5.! <.Y _ _ _ ^ Q [ ) ) E Q ^ Q T T Y Y V V J R R ! ! U v m ",
"q N T U %.U ! U V K V H Y H U E Q U T [ ) E E ) _ ) Y _ :.=.y.{ F.t.3.! :.Y ) ) ) ) Q ^ ) E T T Q T H Y H H V V n ! R ! ] U H l ",
"q c U U ! U W Y V V V V K K Y T E Y U E Q T T ) ) ) H ) :.*.e.` F.w.3.! ,.V E ) ) E T E E E Y U Q Y H Y H C V V H ] R ! R U V d ",
"q c U n ] J W U N B V V H K J T Y Y U T E T T T ^ T Z ( _ *.y.` F.w.<.E :.V T ) ^ T T Q T T Y Y T U H H V C B N H R U ! R H B s ",
"0 c n J ] H Q H V Z Z V H H J L L J U U T T T T E / C ^ _ _ e.` F.w.<.E ' B T T T Y T T T T J L U H H H K H C V H T J Q R H G s ",
"0 v n J ] v E U L T T T T E E E E ) Q Q Q ) ) Q ) _ T T _ ! 4.( F.<.>.R _ K _ _ Q ) _ Q E ) W E T Q Q Q L L T T T T J R R H v s ",
"0 c v J ] n Y U T E E R W ) ) W ) _ %.:.! *.:.-.,.:.,._ ) E 1./ F.>.:.T ,.-.,.:.:.:.:._ %.*.W _ Q Q Q Q E T E R T T V W R H v d ",
"0 c v n _ :.[ :.-.>.<.1.<.<.3.1.w.3.1.5.e.5.5.e.e.4.4.y.1.E <.Y F.-._ _ y.5.4.4.y.w.5.5.y.3.1.5.1.<.1.1.3.<.<.:.:._ :.%.n B N s ",
"9 p B B b v G G G J I L I P P W W R W %.%.%.=.=.>.&.%.>.>._ :.~ F.-.*.=.>.&.&.&.>.=.*.%.=.W W W ! E R T P P I G H G G v H G N u ",
"8 p B H T c x x N x N B V V G G K V G K H J K K K K T J G R ,.~ F.' _ G K J L K H H H H G K G Z K V V B B B x N N x x J J v N a ",
"6 d B n R B G G H b H J J J J I L L L R R R T R E W _ W L R [ ~ F._ Q H ! W Q W E R R R R L L L U J J J J H G G G B V R n V g q ",
"6 g v b R v V s 9 u a a i y y a i s a d d d z z x d z H L J _ Z F.Q E G T g x x z z d d p s s s a u u a u a y y y x v U J v c u ",
"4 d v v U v n z s s d d d d z x x x x x N N z N N m z Z K K _ D F.) T B L s N m x x x N x g x x x g d k s z k k z B v n n v c 9 ",
"> s v v U v n g z m z d g g x g B B B c V v c g N B z B H V ) Z F.E T B J d B N B x B V v c B B c N g g s z z z d G v H n b g 7 ",
", u v v T c V g k k z d d x x x c c B g c B x x m N z B V V ( C F.^ Y g G g N x z x N c h c c g x x g x k k k g g V c J H h f 6 ",
"> u f v T g V N k d k s d z k z N g c g c B x z z N d c B V T m F.T J N K k m x x x N B x g g B x d z g d k d a z B c J b g p 7 ",
"2 s d f T c B z k k k s s d d d g d g d c N g z z m d N B B O.D F.o./ p V s N z k g B g d x x x d d d d s k k k d c v U b g x 5 ",
"> p f c U c v p s s s j k z d k z g g z g c g z z N k x N l @.| F.@.S p B a x z x x x x z g x z z d k k a j k a s v v n v g g 5 ",
"= u c c J f v s a j s a s k d s z x d z z x z k z x k x N l $. .} $.M d N a z z k k k x z d x z d k z s a k s a s c c n v h d , ",
"$ u c c J v v p s a s a s d s j k x d d d z k k l z a z N j +.F F.+.A k B a k z k d x d d d d d k s s s a a a a s v c n v x d , ",
"$ 0 d g J g x d a a a a u s s j d k z d d d k d z z q d m 4 3 w F.w 2 s N 0 s k k k z d s z z s k k d s k y k k k x g n h g s , ",
"+ u g d J h x s y a a a s s s j j d z k d d k j k j 0 d x k j e F.j s s m q j k j d z d d d d s s j s a y y y y u x g G h p s > ",
"$ u g p n f h s y y y y i s s s d s d d j s j j j j q d z d B l F.N c s x 9 j j s j d d d k s s s s s a y y y y s g g G c p i > ",
"> 0 d p H d x s y y y 9 a s s s s s s s s s s s j z a d d d z e F.z x a z u l k j s a a s s s s a s s s y y y y a g i G v d d , ",
"$ 0 p p K s x a j a d d g f d x z z z z m c g h N v N d a a z q F.k d u d h N c N g g g g x x x m d p g d s s s a k s B c s s , ",
"> 0 d u G i a d j z z p g f g x N N N v B v v v B v n H N s d q F.s d d H H B v v c B B c c N x N N g g g d d s d d u v f s u , ",
"# 7 s p G h x x b b G G b n n J U H U n J n n v v v v v v x s 8 F.s d c v v v v n b n n n J J n J n n n G G G b N N v H d p u > ",
"o 1 d u i p f i i p i p i i t u u p u u 0 u u 0 0 0 0 1 4 t s 8 F.u s 1 1 t 9 9 9 9 u u u u u u u u u i i i p p i i p p u s u $ ",
"o , s u u 4 4 4 8 7 7 7 9 t 9 u u a a s u a a a a s d c 7 7 a 8 F.y u 6 a s s a a s s a s i u a a 0 9 9 7 7 7 7 6 4 4 7 a u t @ ",
"o 1 a u p a u q u u y u u t t 9 0 0 7 1 1 1 4 , , > > 6 7 6 u 3 F.9 y 4 0 , , , , , 1 1 < 7 6 9 7 u r u u a y y u 9 y p u a t $ ",
"o 4 i i g t 9 = @ $ + @ * = # = > > > > = - = , > 2 > 4 7 6 q 2 F.7 9 4 7 = = 2 > > > = = = > > $ $ $ @ @ % @ # * 7 y i i i t + ",
". , u t p 7 y , @ = = = , 4 6 6 4 6 1 6 6 6 7 8 6 4 > > 6 6 q 2 F.8 9 4 6 = 4 4 6 7 6 6 9 5 7 6 6 6 7 , = = = * = t 7 i i y 7 o ",
"X , t < i 7 y < = : - = > 6 7 6 , , 6 6 6 4 6 8 , 4 > , 6 4 9 3 F.9 9 , 6 * 4 4 6 9 6 , 6 7 < , 4 6 7 , = = : - - t 7 i t 5 r o ",
"X - 1 < i 7 7 4 : : : = = 6 6 4 , , 4 4 5 , 6 5 6 2 # > 2 > 9 2 F.4 6 = 4 + = 4 6 6 , , 6 5 , > > 6 6 > = & = : , 7 < i r < < o ",
"X $ 7 1 u 7 9 4 ; : = = > , 4 4 > 4 4 1 , , 4 4 > > + = > > 8 2 F.4 4 * 4 + * 4 2 6 , , , < 4 > > 4 , > : : : : , 6 7 i t < - + ",
"X - < 1 i 5 t 4 = : : = = , , , > > , , 4 = , , > > o = : = 6 ; F.4 4 * 4 X * = > 2 = , 4 , , > > , 4 > & : : = , 9 < y t < - + ",
". = < , i < 7 , = = : = & 4 4 - = = 4 , 4 = : = 4 : X = > # 4 * F.> > * 4 o * = = = = - 4 , - = > > 1 = : : = : : 6 < t < - 5 X ",
". @ < - t < 7 , % = = = & : - : : ; = > : = = - = * X O = * 2 % F.= = * = X % = = = = = = : = & > > > # & : & % : 6 , t < < , X ",
"X @ < - t - 7 - % % % = % = = : # = > = * = + * = # . + # * = O F.# > o = . o # = + % * @ = = = = > > # = % & % = 4 , r < - , + ",
". @ , - t - 4 $ + % % * & % : = $ $ = = @ + + + % o . O * % = O F.% # o * . o @ @ + @ @ * = = @ = ; * $ & % + % % , , 7 < - - X ",
". % - - 9 = , $ + + + % + & = & + @ + @ @ + + o X o . X % o % o F.+ % o o . . o + + @ @ $ @ @ + * : % + % + X % + , - < < - = . "
};
