/* XPM */
static char *animation4[] = {
/* columns rows colors chars-per-pixel */
"64 53 140 2 ",
"   c #140B02",
".  c #190E02",
"X  c #1D1203",
"o  c #231605",
"O  c #281704",
"+  c #261906",
"@  c #291A06",
"#  c #24160A",
"$  c #26190A",
"%  c #2B1D0C",
"&  c #301E0B",
"*  c #2D1D10",
"=  c #2E210D",
"-  c #32230D",
";  c #3A260E",
":  c #3A280E",
">  c #2D2213",
",  c #2C2218",
"<  c #342511",
"1  c #382712",
"2  c #372813",
"3  c #3B2A14",
"4  c #372918",
"5  c #3D2D19",
"6  c #3F3017",
"7  c #3F321D",
"8  c #3F3425",
"9  c #422D0F",
"0  c #422D14",
"q  c #412F1A",
"w  c #443116",
"e  c #4A3415",
"r  c #4E3816",
"t  c #45331B",
"y  c #49361C",
"u  c #4C391D",
"i  c #543C16",
"p  c #593E16",
"a  c #533D1C",
"s  c #593F19",
"d  c #463521",
"f  c #493721",
"g  c #463924",
"h  c #4D3A21",
"j  c #433B2B",
"k  c #523E21",
"l  c #5A4116",
"z  c #56411E",
"x  c #5B431D",
"c  c #61461D",
"v  c #62491E",
"b  c #6C4F1F",
"n  c #4D4028",
"m  c #554123",
"M  c #5B4523",
"N  c #5E4824",
"B  c #5A4628",
"V  c #5D4929",
"C  c #4C4534",
"Z  c #544B3A",
"A  c #584F3F",
"S  c #614621",
"D  c #644B24",
"F  c #6A4E24",
"G  c #604728",
"H  c #644D2A",
"J  c #694F2A",
"K  c #6C5126",
"L  c #66502B",
"P  c #6C532B",
"I  c #725326",
"U  c #785726",
"Y  c #73552B",
"T  c #79562A",
"R  c #75592D",
"E  c #7B5B2C",
"W  c #654F31",
"Q  c #6B5131",
"!  c #745631",
"~  c #765931",
"^  c #7C5C33",
"/  c #775F39",
"(  c #7C5D38",
")  c #7F6035",
"_  c #7D623A",
"`  c #534F41",
"'  c #5E5847",
"]  c #5D594A",
"[  c #6F6654",
"{  c #736E5B",
"}  c #796D59",
"|  c #78725F",
" . c #815D2E",
".. c #815E33",
"X. c #8A5F33",
"o. c #805E38",
"O. c #846134",
"+. c #8B6336",
"@. c #84623B",
"#. c #8A653A",
"$. c #8E683B",
"%. c #926537",
"&. c #92673A",
"*. c #936A3C",
"=. c #9A6D3E",
"-. c #816445",
";. c #8A6740",
":. c #8E6943",
">. c #956D42",
",. c #9B6E41",
"<. c #9D7243",
"1. c #9C7449",
"2. c #947452",
"3. c #A27343",
"4. c #A97646",
"5. c #A67846",
"6. c #AA7947",
"7. c #A47649",
"8. c #A5794A",
"9. c #AB7C4C",
"0. c #B27D4B",
"q. c #A57C54",
"w. c #AA7F55",
"e. c #827864",
"r. c #B1804F",
"t. c #AD835A",
"y. c #B48454",
"u. c #BA8452",
"i. c #BF8855",
"p. c #B3875A",
"a. c #B6895C",
"s. c #B98A5C",
"d. c #B28961",
"f. c #C08753",
"g. c #C28956",
"h. c #C58C59",
"j. c #CD925E",
"k. c #D29561",
"l. c #D69965",
"z. c #D99C68",
/* pixels */
"m D Y E E O.+.X.%.=.,.3.3.8.9.9.w.y.y.y.s.y.y.a.a.s.p.q.t.t.p.2.-.d.t.t.t.t.h.a.s.a.p.s.s.y.y.0.w.9.8.1.3.=.=.&.X.X.+.^ T R F m ",
"n D Y E Y K P P Y Y E o.o.+.#.*.*.*.<.3.3.3.6.0.0.0.6.y.i.j.l.w.>.z.k.g.u.6.0.9.0.6.3.3.3.=.=.=.*.#.+.O.....T Y Q ! L P X.Y P m ",
"u D Y O.O.E ) ) o.X.+.#.$.&.=.>.,.<.<.<.3.3.3.3.9.9.8.8.<.5.l.q.:.l.s.>.8.5.9.9.9.<.3.1.3.,.,.,.,.>.*.$.#.+.#.o.o.o.^ ..+.T P k ",
"t D Y E O.E K L P Y ! T .. .X.+.&.&.>.=.,.<.3.4.6.0.0.u.r.3.j.q.:.l.0.7.g.0.0.9.4.3.<.<.=.=.&.&.+.X...^ ^ T Y Y J F T  .O.Y P y ",
"t H I E O.E E V B B V V G H H H J W J Q J P Y ! ! ~ Y *.9.<.j.<.@.j.9.<.8.R ^ ! Y ! J P P P Q L H H J H V V B B V K  . .O.I P h ",
"y L R E  .E E P L L R E R ^ ..o.^ ( ( @.( ( o.@.@.;.~ #.1.<.h.1.@.h.9.>.1.Y #.@.-.@.( ( @.o.o.^ ~ ....R R R P L P E  .E  .U P a ",
"u F I E  .E E K J L Y R R T E ..R ^ o.@.o.^ o.@.#.;.! +.1.*.f.1.@.g.3.*.<.! #.#.#.@.o.o.@.o.o.~ ^ ^ E Y R Y L H L R  .E ..U Y a ",
"n v I E E  . .K L L P R ! ! E E ^ ..o.@.o.^ o.o.@.;.! o.<.%.f.>.( g.3.$.>.P @.@.o.o.~ ^ +.o.o.~ ^ E R R R R L W L R  .E ..Y P u ",
"n D I E  .E E D L H K R P R E ^ ~ ~ ) ) ) ) ..^ ( ) P ^ =.+.u.:.( u.,.#.:.J o.o.^ o.~ ^ O.^ ^ R / R R P R P D L D R ) U ) I K z ",
"y b P U E E E D D V L P P R R ~ Q R R ) ~ ) ^ o.^ ) ! ^ *.+.0.;.~ 0.=.#.$.J ^ ^ ( ^ ( ^ ^ E ^ Y R R R R R P D V v U E U E U K z ",
"w x K U E U E N V H J P P I R ~ R R ~ R R ~ ~ / ^ ( P E >. .6.;.~ r.$.#.#.J ^ ^ ~ ~ ^ ~ ~ ^ R R ~ R R K P L L N N K E E R b L n ",
"n D I U E U R D N G H L P Y Y ~ ! P ) ) R R R ~ / ^ Q R $.E 8.;.! 9.O.O.@.J ^ ^ / ~ Y E R ^ ! Y R R R K P D V N N R E U E b v z ",
"n N K E E U R D N D L K K K K R R P R R ~ R R ~ ^ ~ L R #.T 3.@.Q 8.+.E O.P ~ ~ ^ R R ! R ~ P P R R P L K L v N D K U U O.K K m ",
"y x K E R U Y D V V N D H F P R P K R R Y Y P ! T ~ J Y #.T <.( Q 3.O...^ N R R ! Y R Y ! Y P P R P b L L v N V N R U I E I v n ",
"n N D R U I P N N N N V D D P P L K Y P Y P P R R R V P @.R ,.( Q 3.@.^ ) N ! ~ ! P P P Y Y J P P K L v L m V V N K I I E v D n ",
"e v v I U K R N B N V V D D K L K K K P P P P Q P Q V L ^ Y ,.( H ,...~ / m P Q P P P R P P K D K L L v D V m M m R R I E v x z ",
"t x v R R K I D G V G H D J F J J F K K P P K P P ! V L / Y =.( H =.^ ! ~ M P Y P P P Y F J J F P K D D H G V V V F I K E S S u ",
"z x v I I v K K P P P P Y R ! T ! ^ ) E ) ^ ^ ) ) _ _ P / Y &.! H *.^ R ^ ~ _ ^ ) ) ^ ^ ^ .. .! R R R R Y J Y P P P K K E b c u ",
"6 x v I R N P K Y Y Y Y ^ T R ! ^ E O.O.^ O.O.O.O.O.+.O.^ F %.! G *.~ P @.O.X...O.O.O..... . . .R R R R Y P ! Y P P D K E v S y ",
"7 z N K O.O.O.#.+.#.#.&.#.*.#.=.=.*.*.<.=.=.=.=.<.=.3.6.8.E +.! N #.E =.9.3.3.=.<.=.=.=.3.=.&.=.=.$.*.*.&.&.%.+.O.O.O.+.U S M y ",
"6 m M v x x v S S F S F F F F I J F I I U I I U U U T  . . .X.Q B +... . .T  .T E Y I I I T F F P K F F b D F S S v D x D N M y ",
"6 a x K K z m M m k M M S S G G D D G J D P H J L P P J D D o.Q B o.Y M J P J F L D J F F G G G H H N N M M k m N m m x P x x w ",
"5 a x b K N z S S S D F F F F F J F F I Y P P Y Y Y E T Y D ^ Q m ) P F E R R Y P P Y I I J F J F H F b F D S S S M N b I x M w ",
"6 z x b b x z 5 q t y q t 0 q t t t y y y y h h h h h x K S ^ H m E P D D y h m h h y y u t t t w w 6 w t t t 0 5 y x v P x M y ",
"5 z x v F x x y f h h y u a h k m z a h M k k m B B h M J M ~ W B ~ J D J f B m m k k M a a a k m a k a y h f f y z x v F x x t ",
"2 a x v v x M a h h h y h k k s M M x z M z a k m m k a J m Y H m ^ G N N y m m M k M M M s M M m k k a y h h k u z v c F x z w ",
"1 r a D D M M k f h h h k a k k m m M a M k k k k m h a D m ! V k ! H m N y m m k k k S a s m k k k k k f f k f y M N x K s a 0 ",
"1 a i D D s M h f h f y a u h k z z m a M m k a k m a a D m P V k ! N M N t m m k k m k a k M k k h f k u y f f y M M x F a a 3 ",
"1 u u c b z z y y f f y u y u u a u k u m M k f h n y k N k _ W n _ V m N y m n h h k M u k a k a y u a y f f f y z x c F i k 0 ",
"; a a v v z M y t f f t h h f h n h a h k a h h k n h a N t } [ A e.n a M t m h h h k s u h f k h y f h y f d t t z x x F i a 3 ",
"- u a x v a z y d f t t f h y y h h h h k a f h h h g k M g { ] ` { g k m d h h f h k k h h k h h f f h d t h t y a z c D a a 1 ",
"- e a x v l z y t t f t y y f f u u u h u k f f h h d h V d { ' Z | g k B t g h f f a h h y h h y y f y t t t d t m l c v a a : ",
"= y u l S i s d t t t y y y y h y h h u y h f h n g 7 y B 4 j j g C 4 m m 6 t u f f k h y h k u y h t y e y t d t h k x D u y 1 ",
"% y u z S a k q t t t w y y d f u y z y y h f d h u 6 u m 6 * , , , 4 u n 6 y g g h h y h y u y h t y y t q t t q a s s v i u ; ",
"= e u l c a s q 5 q t 5 y y f t y y u y y h d d g t w y m y M h t M h u n 6 d g d t y y y h y y 7 y y y q q q q q r k s x r u ; ",
"- w r x x y k q q q 5 6 y y y t y y y y y y h t d d 6 w n w m g 7 m u u u 4 d d d y y y t y y y y y y y q q q q q a a s v r u : ",
"- w u x S y y t d t e y y y y h h u u u u u a a u m u t u y u t 4 z u y y y m u k a y a u f h h g n y u u t t d t y u a x y u : ",
": w y z s t y y t h r a a a a k h m h z z z a a z z x a y w a 7 4 u y w a x x z a s a k a a k k n z a u a r a u t y y a N y y 2 ",
"= w w z S a k k S k S k M v S D N D D D D F b v D v D K D h f t 7 u y x F K N N D D D D F D D S v N x N M c M k B a u x x w y - ",
"o 6 y t i i i a s p c s l l p s l l x l i i a a a u r r i u h q 4 y y r i r r u a i s s i x s s l l l l p p p s i a i l u y e = ",
"O 3 w y 2 < < 2 2 ; 3 3 5 2 5 0 5 5 w 5 5 t 5 5 6 7 6 6 2 4 f 5 4 y 6 4 6 6 7 7 7 5 5 5 q 0 q 5 0 5 2 5 3 3 1 2 2 < < ; t t w % ",
"O 3 t e y 0 5 q q t t w y e t w t t e y y e t t w w y y w 2 d 4 4 t 5 4 y w t w t t y e t r t t y t e e t t q q t 5 q t u 0 w & ",
"o 3 r r y q - % % % @ = & % % % - - % @ % % @ % = + = : 5 - t 4 2 t 3 : 6 = $ $ @ % % & @ % % < % @ % % & % % % % - t t r y w @ ",
"X : w e e 0 0 O o + + @ = - - < - - - < - - < < > > = - 5 ; t 2 < w 3 2 2 = < < - - - - < < < < > < - - @ O # + o ; 0 0 u 0 w O ",
"X : 9 9 e 0 0 & % % - - < 3 3 2 < 1 3 3 2 3 4 3 2 < = = 5 < 8 4 , t 2 < < @ < < 3 3 2 2 5 2 1 1 : 2 4 3 - = % % % : 0 w e 3 0 O ",
"X - ; ; w 3 5 - < * % % - 3 2 - - ; 3 3 ; < 3 4 < < $ = 1 % q 4 , 5 2 ; 3 @ < - 2 3 2 2 2 2 1 - - : 2 : % % % < & 3 3 w 9 ; ; o ",
"X ; 3 9 e : 3 & * * * % < < < - = < 2 2 < < 2 2 < - + % < % 5 < < 5 ; % < + = < 2 2 2 - 2 1 < - = 2 - < * * % * & 3 3 9 0 ; 1 o ",
"X & ; 0 0 3 5 * * * % % = - < - = < < < - > 2 < = = X % < % 3 4 , 4 > % - X % = < < < = ; < < - = - - = % % * * * 3 3 0 w ; ; o ",
". - ; ; 0 1 3 & % < * % % < & & % = - < - = < - % # # + = + 2 , > 2 > $ < X % % - < & & < - - & = = 2 = % * * * % 2 3 0 0 - 1 o ",
"X & ; & 0 ; 1 % % % % * * < < % * % - - = % % < % * X + > + 2 * $ < % % < X # > = % * * - < * $ = = ; = * * % % % 2 2 : 9 & - o ",
"o & & ; 0 ; < % # # % % % = % % * % % = = % % % * * X X = + , * $ < $ $ # . $ * % % $ * & % * * * % = % # % * # # < < ; 9 & - o ",
". & & ; 1 & < o # # # # # % % * + @ = + % + o $ * # X X = X = * # > + + +   # # % % $ % O @ % @ + = = + # # # $ # % 1 ; 9 & & o ",
"  % & ; ; - - o # # # # # # % % + + % + + + + # # #   X % + % X X > $ + +   X + + o + O O % $ @ + * * # o # X + o @ 1 & 9 & & . "
};
