/* XPM */
static char *animation21[] = {
/* columns rows colors chars-per-pixel */
"64 53 144 2 ",
"   c #0F0902",
".  c #150C02",
"X  c #190E02",
"o  c #1D1203",
"O  c #231504",
"+  c #251806",
"@  c #291A06",
"#  c #241609",
"$  c #26190A",
"%  c #2B1D0C",
"&  c #321E09",
"*  c #2B1D10",
"=  c #2E210D",
"-  c #32230E",
";  c #3A250D",
":  c #3B290F",
">  c #2E2211",
",  c #342511",
"<  c #392712",
"1  c #362914",
"2  c #3B2A14",
"3  c #352A1A",
"4  c #3C2D1A",
"5  c #3D3017",
"6  c #3E321D",
"7  c #3C3121",
"8  c #402E0F",
"9  c #422E13",
"0  c #412F19",
"q  c #443116",
"w  c #493415",
"e  c #4E3816",
"r  c #45331B",
"t  c #49361C",
"y  c #4D391D",
"u  c #543C17",
"i  c #593E17",
"p  c #523D1D",
"a  c #583F1B",
"s  c #443522",
"d  c #493621",
"f  c #443922",
"g  c #4D3B21",
"h  c #473E2C",
"j  c #523E21",
"k  c #56411D",
"l  c #5B431D",
"z  c #62471D",
"x  c #63491D",
"c  c #554122",
"v  c #5B4522",
"b  c #5E4925",
"n  c #5B4428",
"m  c #5E4A29",
"M  c #4B4232",
"N  c #504936",
"B  c #594B34",
"V  c #614722",
"C  c #644B24",
"Z  c #6A4E24",
"A  c #614728",
"S  c #644D29",
"D  c #694F29",
"F  c #714F25",
"G  c #6C5125",
"H  c #67502B",
"J  c #6D532A",
"K  c #725426",
"L  c #73552C",
"P  c #79562B",
"I  c #75592D",
"U  c #7B5A2D",
"Y  c #614D33",
"T  c #644F38",
"R  c #665137",
"E  c #6D5430",
"W  c #6E5B3D",
"Q  c #725631",
"!  c #765932",
"~  c #7B5B33",
"^  c #70563A",
"/  c #755C3C",
"(  c #7C5D39",
")  c #5A5441",
"_  c #605C4B",
"`  c #64604F",
"'  c #716148",
"]  c #7E6D4F",
"[  c #6D6958",
"{  c #74705D",
"}  c #825E2E",
"|  c #825E33",
" . c #885E30",
".. c #805F39",
"X. c #81612F",
"o. c #846135",
"O. c #8B6335",
"+. c #84623A",
"@. c #8B653A",
"#. c #8E693E",
"$. c #926737",
"%. c #956837",
"&. c #906739",
"*. c #93693B",
"=. c #9A6D3C",
"-. c #9F723F",
";. c #A06E3C",
":. c #856542",
">. c #8C6A44",
",. c #8C6E4C",
"<. c #926D42",
"1. c #9A6F41",
"2. c #8D704C",
"3. c #977041",
"4. c #9D7243",
"5. c #977248",
"6. c #9B754A",
"7. c #987650",
"8. c #A47444",
"9. c #A97745",
"0. c #A97846",
"q. c #A17749",
"w. c #A57A4B",
"e. c #AD7B4A",
"r. c #B37F4C",
"t. c #A67C51",
"y. c #AB7F51",
"u. c #B4804F",
"i. c #AD8156",
"p. c #AC855D",
"a. c #B48253",
"s. c #BA8553",
"d. c #BB8857",
"f. c #B08459",
"g. c #B68A5E",
"h. c #AD8862",
"j. c #BA8C61",
"k. c #C08A57",
"l. c #C48D59",
"z. c #CC925E",
"x. c #CB9462",
"c. c #D19763",
"v. c #D19866",
"b. c None",
/* pixels */
"6 c H ! ^ / / R R b.b.b.b.b.b.b.b.b.b.b.b.b.b.b.b.b.b.b.b.b.b.b.b.b.b.b.b.b.b.b.b.b.b.b.b.b.b.b.b.b.b.b.b.b.b.b.T ^ / ! ! Q n s ",
"r c J I U L ~ |  .#.<.<.>.>.2.b.b.b.b.b.b.b.b.b.b.b.b.b.b.b.b.b.b.b.b.b.b.b.b.b.b.b.b.b.b.b.b.b.b.b.,.>.<.*.&.+.| | P U P Q b f ",
"3 c J P O.L H J L P }  .&.=.6.w.w.t.t.y.7.2.b.b.b.b.b.b.b.b.b.b.b.b.b.b.b.b.b.b.b.b.,.7.y.t.y.w.q.q.=.=.O.| U K L D J @.U L m 6 ",
"3 k J K O.X.| ~ ......o.+.o. .@.&.<.1.0.0.e.s.s.a.i.p.h.h.b.b.b.b.b.b.p.p.f.f.a.a.g.r.0.9.8.*.$.@.o.o.....O...o.| ( ~ O.I J n 4 ",
"> y J K O.~ U G A J P ~ o.$.*.=.4.8.4.4.4.-.=.8.0.8.r.d.c.j.b.b.b.b.:.v.l.a.0.9.8.8.1.5.1.4.4.8.-.1.@.O.| U L S C U U O.L L n 5 ",
"3 k K K O.U U I m m m A S S D F P ..o.*.-.8.0.u.a.a.e.4.z.j.b.b.b.b.<.v.0.w.r.s.r.r.8.4.1.$.| ~ L D S S A v m m G ~ U O.P K b 6 ",
"3 k G K X.U X.U H H J ! ! Q ! ! J Q Q Q J J ! ~ +.*.r.4.l.g.b.b.b.b.>.x.8.r.=.O.~ ! ! D Q L Q Q Q U ! L ~ J H H L ~ U X.K P v r ",
"3 k K K X.U X.U S J H L P L | | U ....+.( ( +.+.+.L 1.=.s.f.b.b.b.b.@.l.4.q.~ ( +...........| U ~ ~ I P I J H S I X.U o.K K b 6 ",
"3 k K K X.P X.I H H H K I I U ~ ! ~ ( @.( ~ +.@.#.! 3.*.u.i.b.b.b.b.+.l.=.6.! +.#.+...( +.o.~ / ~ ! I I I H H H J ~ U X.K I l 6 ",
"3 k K G X.P X.I S H m L I I I ~ ! ! X.+.( ~ ( +.+.L #.$.u.y.b.b.b.b...d.*.1.L ..+.| ( ~ o.o.~ ! ~ I I I K S S S K X.U X.K U b 6 ",
"> k G G X.P ~ K m V S G L L I ! I I ~ ~ ~ ( ~ o.o.J @.O.e.w.b.b.b.b.( a.$.<.L | ..~ ~ ~ ~ ~ ~ I ! I L L L H A V G ~ K X.G L c 6 ",
"> c G Z } P ~ K v A S H J L L I I I ~ ~ ~ ~ ~ ~ ( L @.O.9.6.b.b.b.b.( r.O.>.L ! | ( ! ~ ~ ~ I Q ! I K J H S m b G ~ K ~ G G c 6 ",
"7 c b G X.P U K C m S H J J L I I L ! ! I Q ! ~ / J o.O.4.6.b.b.b.b./ 0.| @.D ~ ~ ! ! I ! ~ I L I I J J H S V b G U K } K G c f ",
"3 c C G ~ K U J m S l C G H J J I J I ! ! L Q ~ ~ J ~ } =.5.b.b.b.b.( q.U @.J ! ( P L ! ~ ! J L I L H G H V A m H U Z } K J c f ",
"3 k C G U K P J b m m b H S H L L H E L L L I Q Q H ~ ~ =.<.b.b.b.b.Q 4.} o.H L P ! J L I L J K L G C H V b b m Z U Z } G Z c 6 ",
"1 k C x U K K J v b b b C C S J J G J I L J I L Q H ~ U &.>.b.b.b.b.E 1.U +.S L Q L H L L J H H J H C C b m b c H P G } Z S c 5 ",
"> k C C U G I G m v b m S V Z D D Z J J L J H I E m Q I $.>.b.b.b.b.E 3.U ~ n E I L H L J J D D G C C C A m n n H K G U Z Z p q ",
"> k x x U C J G H H S H D J D L L J L G L J H I Q m E I O.@.b.b.b.b.D *.I ! m E E J J K J J J J J J G J D D J S H K x ~ Z x k 5 ",
"> q x x U G x J G J L Z L ! L P ! ~ | o.U o.( o.+.( ( L O.@.b.b.b.b.S *.L ~ ( ..( ~ ( o.| | | P I I ! I L K L K J H x U Z C j 4 ",
"3 k v v U @.~ ~ | o.@.o.o.@.o.+.@...@.@.@.@.@.@. .@.#.L o.( b.b.b.b.A @.J @.&.@.O.@.@.@.@.O. .@.@.o.+.+.o.o...| o.( o.~ V v p 6 ",
", r l l x x G Z Z F P P P P | | O.o.O.$.*.%.%.%.%.=.8.*.} / b.b.b.b.n +.| 8.;.%.*.*.$.$.*.O. . .+.~ U P P P F Z Z Z C C b v y 4 ",
"> t l b G b c p c c p v l v v v V v V A C H C Z Z D Z F | / b.b.b.b.n o.K Z Z Z G H C x C A V v b b c l l k j v j c k J x v y 1 ",
"> r l l K C v l A V V Z Z Z Z K D J G L L L K P U ! I C U ^ b.b.b.b.n ..C J U I I I K I L F J J G G H G H C V A v v C K x l y 1 ",
"= t l l K x v y 0 q t r e w 0 r e t e y p y c c c p G C L Q b.b.b.b.c U C J n g c c g k p e t t t q w t q t q 0 t m l K x l k 1 ",
"> 5 l l Z x x c t d d d t y y j j j g y k j j c c g m V K E b.b.b.b.m ! b S y c c M g c p y p c j g g t d d d t p v l K l z y , ",
"> 5 l l Z l V v y g c y y p j j n v v c v k j c c g b v J E b.b.b.b.c Q l S p c c c k v v k v v k j j p y d j d p V l H l l t = ",
"= : k k K v m c y d d d y p p g j k k k c c j j c d v v H E b.b.b.b.j L v A y j c g j v k k v p j g j j t j j t j m k J k i w - ",
"% : k u G l l c d y y y y g g g c p c p n c g j c y v k Z S b.b.b.b.g J v v g j c d c c p c p c j g d p t t d t j b i G k p t , ",
"$ 5 k e Z b l c y s s t t y y t p y p y c c g g h y v p W ' b.b.b.b.B ] p v y g g g j v j p p j t y t y r f d d c l l Z u p e , ",
"% 5 k u x l v j t t t t t g g d g j y g j p d g g y c g M ` b.b.b.b.` ) t v y g g g g j d j t j g y d g t t t s t l l Z k u t * ",
"+ : k e G l l y t t t r t y y t g g y g j y d g g s j g N { b.b.b.b.[ ) t n t d g d d j d p g g t y g t r f r t t c i Z k p q = ",
"+ 2 y k x l i p r r s r t y t s t j y t y j d g g r g d 7 N b.b.b.b.h M 4 c 0 s g d g p t d y g t t t y t r r t y l k C p p q = ",
"O : y y V k j p r t s r r t t d t y y y y g d g d 5 c t 3 3 b.b.b.b.3 3 6 c 6 t g d y y t y y t s t t t r 0 d d t j u C u j 0 $ ",
"o : y e x k p g 0 r r q q t t d r y y y t d t s f 6 y t v j b.b.b.b.t v t g 4 r s s d y y f y y t t t t 0 s 0 0 t j u C t u q $ ",
"+ : u t v k p p 0 0 0 0 r t d t s t y t t t t s d r y t p t b.b.b.b.6 p w y 0 t s t t t t y t y t r t r 0 0 0 0 e j u C w u 2 $ ",
"= : y w b i j y 4 0 0 0 t t d t y d y y y y p p k c t t y t b.b.b.b.r y r t y c y k y p y d d d t t t t 0 0 0 0 t j e Z y t q = ",
"o 1 k 5 A u t d d t p e u u p j y k k c c l i l c V A y t r b.b.b.b.6 y w v b l k v l k k p j j c c u u p t t t r k t C e y q = ",
"> , e r v e r t d j j j k l j C S C C C Z x V V l l l k y r b.b.b.b.4 t k k l l v V x Z C Z C V m c l k a j j t y t r C w y 5 = ",
"o - e r l z l a l z z z l l i l u e e w q t 2 r 4 r 5 , t r b.b.b.b.3 t 2 < q 6 r 0 q q w e u u k k l z z z z z b l l x t t 4 $ ",
"o = r e r q 9 9 9 9 ; 9 2 2 2 2 q 6 r w q t t r t t y : q 4 b.b.b.b., r < q t t r t q t q q 0 4 5 2 : : < < 9 9 : 5 q r w t : o ",
"o = w q r 5 2 2 0 0 0 q t q w q q 2 5 : : - - - = = 1 , q 4 b.b.b.b., r < 2 = % = = - ; : 9 9 q q t q q r 0 0 0 4 2 < t q r ; O ",
"o = r 8 e r 9 2 ; - ; & - % @ + % = $ = - - % , > = 1 , 5 1 b.b.b.b.> 4 , 2 = > - , = = > % % % $ @ % - & - , , 2 2 q y 9 r < O ",
"X + 5 q e q 0 - O O O O % - , 1 1 2 1 2 1 2 2 1 > = < - 2 4 b.b.b.b., 4 - 1 % - , 2 2 1 2 1 < 1 , , , > @ # # O @ q 5 e q t - X ",
". = w 5 e 9 q 2 % % - - - 1 4 , - , : 2 1 1 1 2 1 @ - = 2 1 b.b.b.b.= 4 = 1 @ > , 1 1 - < 1 < 1 1 1 2 - = & & % - w 2 u 9 q ; X ",
". @ 8 ; q 9 9 2 * = % % % < 1 , = - < < - , 1 , > # = % 1 , b.b.b.b.= 1 $ > $ % = 1 1 - 1 - , % = 1 1 = @ * = & ; 9 9 w ; 9 - X ",
". O ; ; 8 9 2 1 & * * % = - < , = = , < - - , = % o % % < , b.b.b.b.> 1 $ , O $ = - , = ; 1 < = = 1 - = % * * * , 2 2 w ; 2 & X ",
". O < ; w 9 0 1 * * * % % = - = = = - - , % > & * o % $ > % b.b.b.b.$ , # > o # % = = % - - , % = - - = % * * * , 4 2 w < < @ X ",
". @ ; ; 9 < 2 < % * % * % , < % % % , - % % * > $ o $ $ = % b.b.b.b.$ = O = . # = = % % = - = * = - , % % * % % - 4 ; r ; < & X ",
". O ; & 8 < < < @ % * * % * * % $ * % @ % % @ % # X # # % $ b.b.b.b.o % # @ X o % % # @ * & % * * > = % % % % % * 2 ; 9 & < & . ",
". O ; ; 9 : 2 , % # @ % % % & * % % % # # # # @ O . O # # # b.b.b.b.o # o # X X # @ O @ # @ % @ $ = % # % # # # * 2 ; 9 & < # . ",
". O & & 9 & , , # % # # @ # * * @ @ @ @ @ # O o X . X o O O b.b.b.b.. # o # . X o o O O + @ @ # % * @ O # # # # % < & 9 & - @ X ",
". X ; % 2 ; , % X O X + # # % # O O O O O O O o X X o X O O b.b.b.b.. # X o X X X O O O O # @ O # % # O # # o O # < & 0 & , @ . ",
". . , @ 9 & & % o O o O O O @ # O O O O O o O O O O o X o X b.b.b.b.  # X X o o O o o O O O O + # @ + O O X O o + ; + 2 & - %   "
};
