/* XPM */
static char *animation22[] = {
/* columns rows colors chars-per-pixel */
"64 53 141 2 ",
"   c #150D02",
".  c #190F02",
"X  c #1D1203",
"o  c #231504",
"O  c #261806",
"+  c #291A06",
"@  c #241609",
"#  c #281709",
"$  c #26190A",
"%  c #2B1C0C",
"&  c #321D09",
"*  c #2D1D10",
"=  c #301F10",
"-  c #2F210D",
";  c #33230D",
":  c #39250E",
">  c #3B290F",
",  c #2E2212",
"<  c #342512",
"1  c #392712",
"2  c #352815",
"3  c #3B2B14",
"4  c #362B1B",
"5  c #3D2E19",
"6  c #3E311C",
"7  c #373227",
"8  c #3D3324",
"9  c #402D0F",
"0  c #422E14",
"q  c #412F19",
"w  c #443116",
"e  c #4A3516",
"r  c #4F3816",
"t  c #45331B",
"y  c #49361C",
"u  c #4D391D",
"i  c #533C16",
"p  c #583F17",
"a  c #523D1D",
"s  c #583F1B",
"d  c #443621",
"f  c #493720",
"g  c #453923",
"h  c #4D3B21",
"j  c #453C28",
"k  c #523E21",
"l  c #56411E",
"z  c #5C441D",
"x  c #61461D",
"c  c #63491E",
"v  c #4D4026",
"b  c #4B402E",
"n  c #554123",
"m  c #5B4522",
"M  c #5E4825",
"N  c #5B4728",
"B  c #5D4928",
"V  c #504835",
"C  c #564F3E",
"Z  c #634722",
"A  c #634A24",
"S  c #6A4E25",
"D  c #61472A",
"F  c #654D29",
"G  c #6A4F2B",
"H  c #675027",
"J  c #6C5125",
"K  c #66502D",
"L  c #6C532A",
"P  c #725426",
"I  c #72552B",
"U  c #79572C",
"Y  c #74592D",
"T  c #7B5A2D",
"R  c #614E32",
"E  c #6C4F34",
"W  c #675231",
"Q  c #6C5434",
"!  c #6A593D",
"~  c #735631",
"^  c #755932",
"/  c #7C5C33",
"(  c #775B38",
")  c #7C5D3A",
"_  c #7E6034",
"`  c #7E613E",
"'  c #625E4D",
"]  c #6D614B",
"[  c #7A6143",
"{  c #79684D",
"}  c #686656",
"|  c #815D2E",
" . c #815E33",
".. c #835F38",
"X. c #846134",
"o. c #8B6335",
"O. c #846239",
"+. c #8A653B",
"@. c #8E693C",
"#. c #916637",
"$. c #936937",
"%. c #92673A",
"&. c #956B3C",
"*. c #9A6D3C",
"=. c #9B703E",
"-. c #836440",
";. c #856845",
":. c #8B6B46",
">. c #866848",
",. c #8B6E4E",
"<. c #966D41",
"1. c #9A6F41",
"2. c #9D7142",
"3. c #96734C",
"4. c #99754D",
"5. c #9F794D",
"6. c #937555",
"7. c #997853",
"8. c #A37544",
"9. c #A97745",
"0. c #A77847",
"q. c #A97947",
"w. c #A57748",
"e. c #A97749",
"r. c #A57949",
"t. c #AB7B4B",
"y. c #B27E4D",
"u. c #A37C54",
"i. c #A87F55",
"p. c #B4814F",
"a. c #B58251",
"s. c #BA8552",
"d. c #BD8957",
"f. c #B98758",
"g. c #BE8A59",
"h. c #BB8D61",
"j. c #BF9063",
"k. c #C28E5D",
"l. c #CA9362",
"z. c #D09460",
"x. c None",
/* pixels */
"j n L ^ Q Q W x.x.x.x.x.x.x.x.x.x.x.x.x.x.x.x.x.x.x.x.x.x.x.x.x.x.x.x.x.x.x.x.x.x.x.x.x.x.x.x.x.x.x.x.x.x.x.x.x.x.R W Q ^ Q n j ",
"v n J I T U ......+.O.;.[ x.x.x.x.x.x.x.x.x.x.x.x.x.x.x.x.x.x.x.x.x.x.x.x.x.x.x.x.x.x.x.x.x.x.x.x.x.x.x.-...-......./ T Y P N n ",
"g l J Y X.I L I I / ..%.&.2.r.7.3.,.x.x.x.x.x.x.x.x.x.x.x.x.x.x.x.x.x.x.x.x.x.x.x.x.x.x.x.x.>.4.4.5.2.1.%.#. .I I G G o.U I n j ",
"g u J Y o. ./ / ../  ./ /  .+.&.2.w.t.t.u.i.i.7.x.x.x.x.x.x.x.x.x.x.x.x.x.x.x.x.x.u.i.i.i.t.e.2.*.@.X.../  . ...../ / o.U I l g ",
"g y L P X.| T K G U  .o.%.&.*.<.<.<.&.<.2.9.y.y.a.f.g.l.6.x.x.x.x.x.x.x.h.h.k.y.y.y.t.2.1.&.&.<.<.<.&.%.+. .^ P H T T o.P P k d ",
"y u P I X.T T Y N N m A L G U  .%.<.8.w.q.e.e.e.0.0.t.z.u.x.x.x.x.x.x.E l.d.e.8.e.t.w.r.w.0.1.&.o.T I L F D N N H | Y o.P U n h ",
"g i J P X.| | T L F K Y I Q I G G L ~ ^ ..@.*.9.y.a.8.k.u.x.x.x.x.x.x.( l.9.y.y.t.1.%.../ ~ ~ L G L Q L Y L G L J X.T X.I P z h ",
"g v P P | T T T F F K Y Y U  . .T ..) / ^ ^ ^ / U 1.8.d.u.x.x.x.x.x.x.x.k.0.q. .( ^ / ^ ( ../ / / ..T Y T G F F I X.U o.P Y n g ",
"6 l P P | T | Y F W K Y Y Y T T ^  .X.O./ O.+.:./ @.2.s.4.x.x.x.x.x.x.Q f.8.4.^ +.;.O./ ..O./ ^ / / Y Y Y L K K L | U X.P P z v ",
"6 l J J T U _ Y G F F L I Y T / ^ / X.O./ ....+./ +.&.p.4.x.x.x.x.x.x.G s.&.2.Y +.O.X.) ..X.../ ^ T T I Y F F F L X.T | P P l v ",
"6 v J J | U T I A D F L I I T / Y ^ / _ / / ) O.^ O.@.t.4.x.x.x.x.x.x.F p.&.<.Q O.` / / / / / Y ^ ^ Y I L F D A J _ P | J P l 6 ",
"6 u J J T U T I M N F H L P Y ^ Y Y / _ / / / / ~ ..@.q.:.x.x.x.x.x.x.D p.$.@.Y / / / / / / / Y _ ^ I L L F D M H T P X.J P v 8 ",
"8 u H J | U T I A D F F L L Y Y Y Y ^ T Y ^ / / I / @.8.:.x.x.x.x.x.x.E w.o.@.L / / ^ Y T ^ / L Y Y L L K F A M J T P | P J v u ",
"g v c J | P Y P M B A F K J L Y L Y T ^ Y ^ ^ / I / ..<.:.x.x.x.x.x.x.G w.| +.K / / Y Y Y ^ ^ I Y L H H F A M M J T P X.J J l g ",
"6 u H J T P I I B B N Z G F L Y I L ^ ^ I L ^ / L /  .&.:.x.x.x.x.x.x.R 2.| O.J ~ ^ Y Y Y ^ L L Y L H H A N B B K T J | J F v u ",
"6 r H c T P P L N N N M F A S L L K L I L I I Y G ^ / %.` x.x.x.x.x.x.x.2.T O.F ^ ^ L L I I L K L J H H F N B n H I J | c F l u ",
"y l H c T J P J B N N B F A S S G J L I L J Y Q F L / @.` x.x.x.x.x.x.N <.T / D L Y L L I L G S H H H A Z N N N K I c _ c S i y ",
"6 e z c Y J J H F F K K J K L J L K J J I H L Y D E ^ +.O.x.x.x.x.x.x.N &.^ ^ N K Y L L L G L G L J J H F G F F H L S U S c l u ",
"6 e M c Y J A L J P Y P I T ^ I T / _ _ | _ _ _ ( ^ I o.[ x.x.x.x.x.x.x.@.U ^ ~ ` _ / _ T  . .T ^ Y Y Y G I I P I H A _ c F u y ",
"y u z M P X.X._  ...X. .X.O...X.o...X.X.X.O.O.X.O.+.I  .( x.x.x.x.x.x.x...P ..o.O.O.X.o.X.o... .X.X.O.X. ... . ._ / X.T x M u g ",
"6 t m z A Z S P P P U U |  . .o.#.o.#.&.*.*.=.*.*.8.@. .( x.x.x.x.x.x.x...| 2.*.=.*.*.$.%.&.#.#.#. . .| U U U P J S S c m m u t ",
"t w z z P m k k n k k k z m m Z M N A A S c S J J G P  .! x.x.x.x.x.x.k ..U P S J S S c A Z Z N A m m m s s k k k n l J A m y t ",
"6 t z z P S m m A A Z S S S S G G J P I P I P U T I F T ! x.x.x.x.x.x.x./ F L ^ Y Y I U U P L L L G S S S Z Z D Z N A I c z u 6 ",
"6 w z z S c Z u q t t e r y e y u y u a l k n m n S S I Q x.x.x.x.x.x.x.T A P z n n l a a a y u e y w r y e y q e m z I z z u t ",
"6 w z z S c x n y f y h y u u k n u u n k k k n g N Z I W x.x.x.x.x.x.x.^ M F f k N h h k h u k k h u f u f f f a m z P z z u t ",
"4 3 l z F x A n h h h h u a k s m m l m m k k N k N M G W x.x.x.x.x.x.x.I M D h k N k m m m z m k k s s u f h h a F z J z z w 5 ",
"6 > l l J Z M n f u h y k k k a a n n l m k k k k m N K B x.x.x.x.x.x.x.L m N h N k k k s a z k k k h h u f f u a F l J z a w 5 ",
"3 > l r S z m n y y h y y h f k l k a l N k k k h n m S F x.x.x.x.x.x.x.L m M u k k k k m a a k k h f a f f f y h m z J p a w 5 ",
"6 3 a r S z z a f f f t y f u u a a k u m a f k h k k ! ] x.x.x.x.x.x.j { n N y k h h k s a h a a u u u y d d d h z z J i k t 5 ",
"3 > l i S z m a y y y y f k f f h h h h k y f k h k n j } x.x.x.x.x.x.} C t n f h h a k h h f k h u u f t f y t u z l J p a w 3 ",
"4 > u i c z z u t y f t y h y y h h u h a y f k t h h V } x.x.x.x.x.x.' ' t m t h h f h h u u h f y y u y t y t u m p S p a 0 1 ",
"2 : v i S z p a t t t y y y y y u h u f k h f f t h h 4 7 x.x.x.x.x.x.x.8 4 N 5 f f u h u f h h y y y u e d t t y z i S a a 0 2 ",
", > u i x z a a t y t t e y d h y h u y y f f h t u u t 4 x.x.x.x.x.x.x.5 t k 5 t g h h y y k f y f t e y q d d u k a F i k 3 < ",
", ; u u m z a h q q d q t y y t e y h f f y d d 6 y y n h x.x.x.x.x.x.x.n u u w d d y y t h y y y y y f q q q q y s i A r u 1 < ",
"2 ; r e x z a a q q q 5 t f y t y h y y y y f f d t e a d x.x.x.x.x.x.x.u e u t h t e u y y f f t y t f q q q q u s a A u i 3 2 ",
"4 > u u x a a y q q t t y y y h h h u k a k a l m u t y 6 x.x.x.x.x.x.x.y w y l n l a a h h a f f h y y y q q q e k r A r u 3 3 ",
"4 > u e z i f y f y a r p i a k h l l n z m x m A S l u 6 x.x.x.x.x.x.x.y u A x m m z m m a n a k k i a i y y y t u e c r u 3 3 ",
"3 ; u e m i y f h k k k z z m F S A H x c z z i u r w u 6 x.x.x.x.x.x.x.t u e r i l z c c c S A A A z m N k k a u u u H y u 3 3 ",
"2 ; e e z x z z z x x x l i i r w w w w w 5 5 t t t 2 w 6 x.x.x.x.x.x.x.w > 6 t t w 5 q w w w w r r i p p z x x l z c z e u > 2 ",
"2 - 6 e w 9 0 1 > 3 : 3 3 3 5 w t w y e e w w 5 3 w 3 w 4 x.x.x.x.x.x.x.5 2 t 3 3 w 0 t e e t 0 t 5 5 3 0 1 : > 3 3 > 6 e e ; , ",
"2 - w w e 3 3 6 5 q t w w w w 5 3 > ; - ; - + - - 2 2 5 2 x.x.x.x.x.x.x.5 < 3 % % $ % - & ; 2 5 0 0 0 w w w q q 5 3 3 y w t ; - ",
", - w w u e 5 2 < ; % % % + + % - - , ; ; 2 2 2 - ; 2 3 2 x.x.x.x.x.x.x.3 < 2 % < < 2 < = < & - % $ + + % % ; ; > 5 t i w t - - ",
", - 5 e r w w ; + + $ + - ; 2 2 2 2 2 1 < 3 2 ; % ; , 3 2 x.x.x.x.x.x.x.3 < 2 $ ; 2 4 3 1 3 1 2 2 2 2 2 + $ # o - 5 3 r w e % % ",
"2 X 5 9 e w w 5 % & % ; ; 2 1 2 ; > > 2 < 3 2 ; $ % * 2 , x.x.x.x.x.x.x.3 % ; @ ; ; 2 2 2 1 1 < ; 2 3 ; ; & % % : w 9 i w w % % ",
"< o 9 > 9 0 0 > % = % % % 2 2 < - ; 1 ; - < < - $ % % 2 , x.x.x.x.x.x.x.< % < X % - ; ; ; 2 2 & ; 2 2 ; % % % & : 3 9 e : 3 % % ",
", o > : 0 0 3 3 * * * % % ; ; ; % 2 ; ; - < - % @ * $ , % x.x.x.x.x.x.x.< $ * X $ - ; ; ; 2 < & - ; ; - % * * * < 3 9 e : > + % ",
"< o > : w 0 3 2 * * = * % ; ; ; % ; ; < = % , % X $ % - % x.x.x.x.x.x.x.; @ % X $ - - % - ; ; % - ; ; - * * * % < q 3 w : 1 + - ",
"* o : : 0 0 1 3 * & % % % ; 2 % % % % < % % % * X X $ % % x.x.x.x.x.x.x.% o $ . $ * % $ % - , % % ; ; % % % % % ; 5 > w : 2 + % ",
", o 1 & 9 1 1 2 % # % % $ * = % # % % + + # O # . X # # @ x.x.x.x.x.x.x.$ o O   o O O # % $ & $ % % ; % % % * $ < 3 : 0 & 1 O % ",
", X : ; > > 1 < # # $ $ $ # * % O % % O # o o o . . o O X x.x.x.x.x.x.x.o . o   . o o o o $ * + $ % % $ $ $ @ @ * < : 0 : : o % ",
", X ; & > : 1 % @ @ o @ $ # * # O O O O X o X .   . . O X x.x.x.x.x.x.x.X . X . . . o o o O o O $ $ $ + @ @ o o % : & 0 & ; $ % ",
", o & & > : ; & o @ . O o $ # $ o o o o X o X o o .   X X x.x.x.x.x.x.x..   . . o . X X o o o o O % $ o o o X o # 2 - 0 & < @ $ ",
"* X , % : & ; % . o . . . o # $ o o o O o o o O o + X .   x.x.x.x.x.x.x.  . O o o o X o o O o o O + o X X . X X + : + 3 + ; o $ "
};
