/* XPM */
static char *animation17[] = {
/* columns rows colors chars-per-pixel */
"64 53 145 2 ",
"   c #0E0803",
".  c #150D01",
"X  c #190F01",
"o  c #1D1204",
"O  c #231505",
"+  c #261806",
"@  c #291A06",
"#  c #241609",
"$  c #28170A",
"%  c #26190A",
"&  c #2B1C0C",
"*  c #311E09",
"=  c #2C1C10",
"-  c #2E210D",
";  c #32230D",
":  c #39250D",
">  c #3C290E",
",  c #2D2213",
"<  c #2F281D",
"1  c #342511",
"2  c #392712",
"3  c #362914",
"4  c #3B2A14",
"5  c #30271D",
"6  c #362C18",
"7  c #3C2D19",
"8  c #3E311B",
"9  c #412E14",
"0  c #412F19",
"q  c #453215",
"w  c #4A3515",
"e  c #4E3815",
"r  c #45331B",
"t  c #49361C",
"y  c #46381D",
"u  c #4D391D",
"i  c #543C17",
"p  c #533D1C",
"a  c #593F1E",
"s  c #453521",
"d  c #493721",
"f  c #473922",
"g  c #4D3B21",
"h  c #493E2B",
"j  c #523E21",
"k  c #56401D",
"l  c #5B431D",
"z  c #61451E",
"x  c #644A1E",
"c  c #4C412E",
"v  c #554223",
"b  c #5B4522",
"n  c #5E4926",
"m  c #5C4728",
"M  c #5D4928",
"N  c #4C4431",
"B  c #5C4A35",
"V  c #564D3C",
"C  c #614722",
"Z  c #644B24",
"A  c #6A4E25",
"S  c #644D29",
"D  c #694F29",
"F  c #724F24",
"G  c #675026",
"H  c #6C5125",
"J  c #67502A",
"K  c #6C532A",
"L  c #725326",
"P  c #745926",
"I  c #72552C",
"U  c #79572A",
"Y  c #74592E",
"T  c #7B5A2D",
"R  c #614E37",
"E  c #6B5432",
"W  c #6C593B",
"Q  c #735730",
"!  c #785730",
"~  c #755931",
"^  c #7B5B33",
"/  c #725A3D",
"(  c #7D5E3A",
")  c #7F602E",
"_  c #7E6037",
"`  c #7E613D",
"'  c #5E5542",
"]  c #655D4B",
"[  c #755D40",
"{  c #7A6544",
"}  c #7D6848",
"|  c #666251",
" . c #726D5C",
".. c #767361",
"X. c #835D2E",
"o. c #825E32",
"O. c #885E30",
"+. c #815F38",
"@. c #83602F",
"#. c #846135",
"$. c #8B6335",
"%. c #84623A",
"&. c #8B663A",
"*. c #8D683A",
"=. c #926635",
"-. c #92673B",
";. c #946A3C",
":. c #9A6E3E",
">. c #9C703F",
",. c #856441",
"<. c #886543",
"1. c #8E6D4A",
"2. c #946D41",
"3. c #996F41",
"4. c #9C7243",
"5. c #95714B",
"6. c #9A734B",
"7. c #967450",
"8. c #9D7A54",
"9. c #A37444",
"0. c #A97746",
"q. c #A57846",
"w. c #A87846",
"e. c #A1774B",
"r. c #A2794B",
"t. c #AB7B49",
"y. c #B27E4C",
"u. c #A47C53",
"i. c #AB7D51",
"p. c #B5814F",
"a. c #B58353",
"s. c #BA8553",
"d. c #BD8854",
"f. c #B3875D",
"g. c #B4885D",
"h. c #BA895B",
"j. c #B68E67",
"k. c #BE8F63",
"l. c #C08956",
"z. c #C38D5B",
"x. c #CA925F",
"c. c #D0935E",
"v. c #C69364",
"b. c #D39966",
"n. c None",
/* pixels */
"s b K Y ! %.%.+.,.<.( [ [ B n.n.n.n.n.n.n.n.n.n.n.n.n.n.n.n.n.n.n.n.n.n.n.n.n.n.n.n.n.n.n.n.n.n.n.n.R / ( ( <.<.{ +.%.^ ! ! Z g ",
"y b K Y T K I ! ^ &.-.;.3.3.r.r.6.6.r.u.7.1.8.n.n.n.n.n.n.n.n.n.n.n.n.n.n.n.n.n.n.8.1.7.u.u.6.6.e.r.4.4.;.;.$.O.^ ! I Y U I Z c ",
"8 b P T *.Y Y Q Q Q ! ^ o.o.$.*.;.:.9.0.t.t.p.d.a.a.a.h.g.h.j.n.n.8.j.f.h.a.a.a.d.s.y.t.t.9.:.:.;.&.#.o.! ^ ! Q ! ! I %.X.Y Z f ",
"6 v L Y $.T T T o.O.$.&.-.;.3.3.3.3.3.3.2.4.:.9.6.9.9.t.p.b.v.n.n.p.b.d.t.w.w.9.9.3.:.;.3.3.3.3.2.2.;.;.-.&.+.o.^ Y T $.T Y n 8 ",
"3 v K I $.T T Z v S Z J I I U o.$.-.;.3.9.w.0.y.p.s.p.p.>.z.v.n.n.u.b.9.t.a.s.a.y.t.q.w.9.:.;.&.O.! I I K S M m b Y T $.T L S 8 ",
"6 l P P $.U @.Y J M S K D E E D S E K Y I I I ^ #.&.*.p.4.d.z.n.n.e.x.4.a.>.&.#.^ ! Y K K D K S J K J J E S S S K @.P $.U P H r ",
"8 v Y L @.U @.I S J J ^ ! U o.o.! ( o.%.^ ^ +.( ( %.Y 6.:.p.h.n.n.4.z.>.r.! ^ %.( ( ^ ( %.o.%.Y o.o.! Y ^ I D D J @.U @.U I Z y ",
"8 l P P @.U @.I S J J Y T I ^ ! ~ ^ ^ %.%.^ +.%.&.<.Y 6.;.p.s.n.n.6.l.;.e.^ +.*.%.+.( o.%.+._ ~ ^ ^ Y Y Y K S S K @.U #.T L Z y ",
"6 l P P X.U #.L J J J Y L Y ~ ^ ^ ~ #.%.#.^ +.+.%.%.K 2.;.y.a.n.n.3.d.&.6.! o.&.+.^ ^ ( %.o.^ ^ ^ ~ Y I Y D S S H ) T @.U L D y ",
"8 l H L #.P #.K S S S K I I Y ~ ~ Y T ^ _ ^ ^ ( %.%.K ;.$.t.i.n.n.2.a.=.3.Q ^ +.( ( ^ ^ o.o.! ~ ~ ~ I P Y S S S H ) Y T P L Z s ",
"6 k H H #.L @.H Z C S K K L Y ~ Q Y ^ T ^ ^ ^ ^ ( ^ K *.#.0.r.n.n.<.y.$.2.K ! +._ ^ ^ _ ^ T Q Y ^ Y Y K K S S b Z T P #.P K m r ",
"6 v H H @.L T H m m S S K H Y ~ Q Y Y ~ ^ Y ~ ^ ^ ^ K *.#.:.e.n.n.&.0.o.3.D ! ^ ^ ~ Q ~ ! ~ Y Q Q Y L K D S Z m G T L ) L H n s ",
"s v G H @.L U K Z m Z S K K P Y ~ Y ~ ^ ~ I ~ ~ ^ ^ J %.o.;.e.n.n.&.e.T *.J ~ ^ ~ Q ~ ~ _ ~ ~ Y ~ Y K K J Z S m H P L X.U H m g ",
"8 v H H @.F U H n S C S J J J K ~ K I Q ~ Y Y Q ^ ~ S _ T ;.4.n.n.%.9.T *.D Y ! ~ Y K Y Y Y K K I J G G S Z M M G U L T P H m s ",
"6 k G H T H U H m n n m S S J I K J K I I I Y Y Y Y Z _ ^ =.2.n.n.( 3.U &.S K Q Y Y I I Y Y A K I J G G Z n n b Z Y H X.L A b y ",
"3 k S x X.H Y J v m m m S Z A H H H K K K K J I E E M _ T $.2.n.n.( :.U %.Z K Q Q J K I J K D H J G Z Z n M b v G Y H T A A v r ",
"4 p Z x #.A L G m n n Z Z S A A J S H J K K J K K E b / P #.2.n.n.^ ;.L ^ m S Q Y J J K K A S A J G Z Z S C M M Z L A Y H A l r ",
"4 k x A T x K H J J J K K D K Y Y L Y K Y Y Y ~ Y Q J ~ Y #.2.n.n.( ;.Y ( S Q ~ Y Y ~ Y I I I I Y L K K D D D K J L A Y A x l q ",
"3 p x x T Z S H H I I K I ! ! I ! ^ X.@.T o.#.#.%.%.o.o.K #.&.n.n.! *.J ^ #.$.o.#.%.#.^ X.o.^ ^ I ~ ! ~ D L I I J H b T H C l r ",
"6 p b Z T o.o.#.%.$.&.&.&.&.-.&.2.&.*.;.;.;.;.;.;.-.;.:.^ X.%.n.n.! $.L 4.;.-.=.;.;.;.;.;.;.$.-.*.$.*.*.$.&.&.+.&._ #.X.x m k r ",
"1 e m l x z C Z Z A F F F L U T O.U X.O.O.X.$.=.=.=.=.;.&.o.+.n.n.^ +.o.:.=.=.=.;.$.$.X.O.X.U X.o.Y I L F F F A A C C z C b k 7 ",
"3 t v n L v j j m j j m m C b C S b m S Z S C S S D S S Z ^ _ n.n.~ #.D S S A Z Z M S Z S M C S C m b b v l j v j j j A G l k 7 ",
", y x x L C C C C C C A A A D D D D D L I L L I Y Y T T Z U ^ n.n.Q ^ A Y Y T I I I L I L F D S D A A A A S z C Z b b P x x u 8 ",
", u l z L b b t 7 q t 0 t t 0 0 r t t t p u j j j p p H Z I ~ n.n.J T C L a j j g j e p e t t y r r r t r t r 9 r v l L x l k 6 ",
"- y l l H l b v t d u g t t j j j j j u v j g v v v t S C K ~ n.n.J T b K u j v v g v v p u p v j p u d s j s t d C l A z l k > ",
"- y l l H l C p g g g g p a j p l b b l b l v j v m g Z b S Q n.n.S I v S p v v v v v b l b b b j j j p t d j j j C l A z z k 1 ",
"- q k l H k C j g g g y d j p g j k v k l v j j v v u n v H E n.n.S Y v Z g j j v g v l k v v p j p j j d g d u u m l A z k y 1 ",
"@ q k k L k b j t t t s t j d p v p p p a v j j g v t b l A J n.n.Z D k Z u j v g g v l p p k v j t g u t t d t j b i A l k u ; ",
"@ w i i H k l j t d d t t u d u p j p g p v p d g v t b k E } n.n.W { u n u j g g p v v u g p j u t p t t t s s t l l H l p u 1 ",
"- q k k H k b u t s d r t g d d g g p u g k j g g c y v y c  .n.n.| R r b t g g g g j p j p u j d p g d r t t r t l k F z i u : ",
"+ q k k H k l e r s t r t g d t u g g j g j g d g g y v u N ..n.n...V r n y g g g d j j t p p g d g d d r t y y t l i x l p u ; ",
"+ 8 k y x k l i s r t r t t t d t j u t t j t d g d r v p c ] n.n.' V 7 M r d g d t g g d t j d t t t t t r r r y l k x k v t - ",
"@ 9 u p Z i j d r s r r t t t s t g j u t g d g g g r u g , 5 n.n.< , 6 v r y s f d g g y u g t d t t t t 0 d d r j e A i p t * ",
"O 9 u u Z i a t 0 r s 0 w t t t y t u t g t d s s y 7 v g j g n.n.g k r v y r d g t g t t u u t t t t t 0 0 r 0 t j e F p u t & ",
"o 7 u e A p a t 0 0 0 0 0 t t s t t e d y t t d s s 4 j y p v n.n.g l w v 7 s s f y t r t u t t y y t r 0 0 0 0 w a i C i u w & ",
"+ q u u Z e p t 0 0 0 0 t t t d s t t t t t t t g g y t t g g n.n.s g w u r d d t t u t u d t d s t t t 0 0 0 0 r j t C p u r - ",
"% 4 y e S w u t r t d p i p u j g j j u k p p a p l l u q u g n.n.y u q u p l l l p p v p p j j j j u p e t t r r u u C p t t - ",
"- 4 u e C q r d s d g u i i j j v m b l Z C C b m C Z A v t t n.n.w u u Z x Z b C l C Z b b v v j j p i p u p t t y w l e t r ; ",
"o > y w C z j a z z C F x x x x x A x x z l l l k e e e e d s n.n.r t u w w i p k l z l z Z x x Z x x x x x C z b a k n u e q % ",
"o 2 e y w e e q q w q q q q 9 0 q 4 4 q 4 0 7 8 8 r r 7 1 r r n.n.6 t > 4 r 0 r r 4 9 7 9 9 7 0 0 0 9 w q q w w 0 w e w e t 7 + ",
"o ; w q q 3 3 3 6 6 9 9 0 r 0 r y r r e w w 0 w q 8 q y 4 7 0 n.n.7 r : w r q q r r r w t w 0 r r r r 0 4 9 4 4 6 2 2 0 w t 2 O ",
"o ; y q u q 0 8 q 9 9 2 7 2 : 2 1 : ; ; & ; & @ + - - 3 : q 7 n.n.6 r ; 4 - & @ % @ - ; * ; 2 : ; 1 : 7 4 9 0 0 9 9 0 t w 0 9 + ",
"X - w w i 9 0 & @ @ + # @ & @ & & - ; 1 1 1 1 1 1 1 - 3 1 7 7 n.n.3 0 : 4 - 1 , 1 3 1 - ; - ; & & & $ @ $ O + + @ 7 9 e w t 4 o ",
"X - y > i 9 0 3 @ @ & & ; 2 6 6 3 3 : 6 2 2 3 3 1 ; @ 3 1 7 6 n.n.1 7 ; 6 & - 1 3 6 3 3 7 2 6 1 3 3 2 1 * & & $ - 0 9 e 9 w 4 X ",
". ; 9 : w 4 0 : & 1 & & - 3 3 3 - 1 2 3 1 1 3 3 ; 1 + 3 = 3 7 n.n.1 7 & 6 @ = 1 3 3 3 ; 6 2 1 - ; 3 3 ; * & & - * 9 9 w 9 9 : X ",
". @ > : w > 7 2 * , & & & 1 : 1 & - : : 1 1 3 1 1 - + - & 3 3 n.n.1 7 @ 1 # @ 1 ; 3 1 ; : 2 ; - ; 2 : - $ & - = 2 2 > w * 9 : o ",
"X @ > > w > 4 2 = = & & - - 1 1 - ; ; 1 1 1 1 1 = & O - % 1 1 n.n., 6 @ ; O # & - 1 - ; 1 1 1 & ; 1 ; - = = = & 1 3 2 w 9 2 * o ",
"X @ : : t > 7 1 = = & & & ; ; ; & & ; ; ; & & = & & X - % & 1 n.n.= 1 # ; O # & - - & - : ; - & - ; ; & & = & & ; 7 : q 9 : * o ",
". @ 2 * q : 4 1 @ & & & = 1 1 * = & - ; - & & & ; & X & % & - n.n.% - O 1 X # & - - & & 1 * & = - ; 1 & = = & = ; 3 : 9 : * ; X ",
". @ : ; w : > 1 # & & & $ & 1 = & & = & & # @ @ & # . % % @ & n.n.% & O & . # & & @ $ & @ & = & & , - % & = # # * 3 : 9 : : * X ",
"X @ ; * 9 * 2 & # @ # % % % & = % & - @ @ @ # # # # . # O # % n.n.# & O & . X + @ # # @ $ & $ @ & - & % % # % # = 2 ; 9 : ; ; o ",
". + ; * 9 * 2 & # # O % # O = = @ + @ @ @ # # O O o . o o O # n.n.o # o # . . O O O # # @ @ + @ & & % O % # O # # ; - 9 * ; & X ",
"  O * * 4 @ 2 & X O O # # # $ & O O + O + O O o . X . o o O O n.n.o @ o O . . X X O O O O O @ O % = # o # o O o O : & 4 : * & . "
};
