/* XPM */
static char *animation5[] = {
/* columns rows colors chars-per-pixel */
"64 53 149 2 ",
"   c #150C02",
".  c #1A0F02",
"X  c #1D1203",
"o  c #241605",
"O  c #281706",
"+  c #261806",
"@  c #291B07",
"#  c #24160A",
"$  c #26190A",
"%  c #2B1C0C",
"&  c #321F0B",
"*  c #2C1D10",
"=  c #2E2007",
"-  c #2E210D",
";  c #32230E",
":  c #39250E",
">  c #3C290E",
",  c #2E2213",
"<  c #2E2418",
"1  c #342512",
"2  c #382712",
"3  c #362814",
"4  c #3B2A14",
"5  c #322718",
"6  c #3C2D19",
"7  c #3F3115",
"8  c #3F301A",
"9  c #3C3425",
"0  c #3F392C",
"q  c #412B0F",
"w  c #422E14",
"e  c #412F1A",
"r  c #453216",
"t  c #4A3515",
"y  c #4A3817",
"u  c #45331B",
"i  c #49361C",
"p  c #47391D",
"a  c #4D391D",
"s  c #543C17",
"d  c #583E16",
"f  c #533D1D",
"g  c #583F19",
"h  c #463521",
"j  c #493720",
"k  c #443923",
"l  c #4D3B21",
"z  c #443C2D",
"x  c #513E21",
"c  c #5A4016",
"v  c #56401D",
"b  c #5B441D",
"n  c #5F481F",
"m  c #61451D",
"M  c #63491F",
"N  c #4F4026",
"B  c #554123",
"V  c #5B4523",
"C  c #5E4925",
"Z  c #564428",
"A  c #5A4629",
"S  c #5D4929",
"D  c #524B3B",
"F  c #614622",
"G  c #644B24",
"H  c #6A4E24",
"J  c #644C2A",
"K  c #6A4F2A",
"L  c #704F24",
"P  c #6C5225",
"I  c #66502B",
"U  c #6C532B",
"Y  c #735326",
"T  c #7A5627",
"R  c #735927",
"E  c #72552C",
"W  c #79572B",
"Q  c #74592D",
"!  c #7B5A2C",
"~  c #684E30",
"^  c #655133",
"/  c #6B5131",
"(  c #735631",
")  c #765931",
"_  c #7C5C33",
"`  c #7C5D38",
"'  c #7E6036",
"]  c #7E6239",
"[  c #565141",
"{  c #5E5745",
"}  c #605B4A",
"|  c #7D6244",
" . c #6F6B5A",
".. c #736754",
"X. c #736E5B",
"o. c #7A6F5B",
"O. c #77735F",
"+. c #815D2D",
"@. c #825E33",
"#. c #825F38",
"$. c #846134",
"%. c #8A6336",
"&. c #84623A",
"*. c #8B663A",
"=. c #8E693C",
"-. c #906636",
";. c #946538",
":. c #946A3C",
">. c #9A6D3E",
",. c #9B703F",
"<. c #876640",
"1. c #8C6741",
"2. c #8D6943",
"3. c #946D42",
"4. c #996F41",
"5. c #977143",
"6. c #9D7143",
"7. c #9B7249",
"8. c #8F7252",
"9. c #A27444",
"0. c #A87645",
"q. c #AD7947",
"w. c #A27748",
"e. c #A67A4A",
"r. c #AC7C4B",
"t. c #B37E4C",
"y. c #A57C53",
"u. c #AA7E52",
"i. c #837864",
"p. c #AD804F",
"a. c #B6814E",
"s. c #B9824F",
"d. c #AC8054",
"f. c #AC835B",
"g. c #B48353",
"h. c #BA8351",
"j. c #BF8956",
"k. c #B2875B",
"l. c #B3885D",
"z. c #BC8A5A",
"x. c #BB8D60",
"c. c #C28955",
"v. c #C78E5A",
"b. c #C88F5B",
"n. c #CD915C",
"m. c #CC9461",
"M. c #D29561",
"N. c #D69965",
"B. c #D69B68",
/* pixels */
"N C E ! _ @.%.#.;.>.4.9.9.q.u.u.u.u.u.u.g.k.j.x.k.z.f.f.d.y.f.8.| f.y.y.l.f.l.f.x.z.k.g.u.u.u.t.u.u.e.w.9.9.>.;.*.#.@.@.W W K Z ",
"B J E ! W I K U E W @.@.@.#.-.>.:.>.9.0.0.0.q.s.t.t.a.h.n.n.N.y.5.B.m.n.j.t.s.t.t.t.0.0.0.0.>.>.4.:.%.@.@.@.W W E ( K E +.E U B ",
"a J R +.%.) _ $.#.@.#.#.;.;.3.3.4.4.5.4.4.9.>.9.w.e.w.7.5.q.N.y.2.B.z.3.9.9.e.w.0.4.5.6.4.4.4.4.3.3.:.=.*.@.@.#.#.` ) +.%.E K l ",
"8 C E +.$.! U H E E +.+.@.@.@.%.:.:.4.6.9.9.0.0.t.a.h.h.p.0.M.y.1.N.g.9.j.s.s.t.q.e.9.9.9.>.;.>.-.*.@.@.@.) W E K H T @.$.E U a ",
"u J U ! $.! ) A A A A I J J K G K ~ I U / U E ( ) _ ! ,.e.6.n.7.&.n.r.6.e._ _ ) ( ) / U E K K K G J J J J A Z A A R ! +.$.Y U a ",
"p G R ! +.! +.U I I R ) ) _ @.@.W ` ` &.` ) &.&.` <.( *.7.,.v.7.&.b.r.3.7.E &.&.` &.` ` &.#.` ) ) #._ ) ) ( / I P ! @.+.+.R E a ",
"a I R ! $.! +.U I I E ) ( W _ _ W ` @.&.@.@.&.&.*.1.) &.7.>.c.5.#.v.9.3.3.E =.=.&.&.` @.#.#.@._ _ +.W E W E K J I R @.! +.Y E a ",
"a G R ! +.! ! U K ^ I W W W W _ _ ` @.&.#.` #.@.&.1.( $.6.:.c.5.#.c.9.:.3.E &.&.@.@.` ` &.@.` ) _ _ ) ( E ( K ~ I R +.! @.R U f ",
"p G R W +.! _ H J J I R R Q ! _ ) Q ' ' ' ! ` ` #.$.U ' >.-.h.2.` t.9.=.2.U @.@.` ` _ ` $._ _ ) _ Q Q Q ( U J J I Q $.R +.P R a ",
"j G Y T ! ! ! G G J I E U Q ( ) Q Q _ _ ' _ _ ' ` ` E _ 3.*.t.1.` t.>.%.*.U ` ` ` _ _ _ _ _ ! Q ) ( Q Q Q I G C G Q ! T +.Y P v ",
"u C P R $.R ! G A J J U P U Q ) ( Q ' ) ) ) ) _ _ ` U _ 3.$.q.1.( d.=.%.&.U _ _ ` ) ) _ _ _ Q U ) Q U U U P J S G R ! Q ! L I y ",
"j C Y R +.R ! J A G J I U U Q ( Q Q ) ) Q Q ) ) _ _ U E =.! e.<.( r.%.$.$.K ` ) _ Q Q Q Q ) ) ( ) Q R P U J G C C R ! T +.P I l ",
"k F P ! ! Y Q G C C J I P P P W ( R Q ( ) Q Q ) _ ) U E *.T w.&./ e.%._ $.I ) _ _ Q Q ' Q ( ( R ) U R P P I C J J E T T +.P H v ",
"k A P ! W R Q G S C C J I I U E R I ( R E E U ( Q ) K E %.! 9.` ~ w.$.$.' F ( Q ( ( U Q Q Q I U ( U P S G C C S C E W L +.P J l ",
"a V P R ! Y Q C S S C G P G K U P I R U E U U R ( ) S U $.! 4.` ~ 9.&._ ' V W Q ( U U U U R U P R P I G G V C A V P R Y R P C a ",
"p V F Y ! P R C V A A S G G G U H I U U ( U I ( ( U S / ` Y >.` K 4.@.Q ) A / ( U P U R I U U G I P G G J S V A C R R R ! G G a ",
"p b M R ! H Y G S S S J G G H K H U P P U U U U Q U S I _ Q :._ J 5._ W ( A / E U P U E K K K K I H I G G J A A J P P Y ! M F f ",
"y b M P E G U U U U U U E W ( W W ) _ _ ! ' _ ' ` &.' / _ E :._ J :._ ( ) ) ] $.` ` @.! _ @.) W Q Q Q R ( K U U U U P P Q G m y ",
"u b C Y ! F P U K W E E ) W W Q _ ! @.$.@.$.' $.@.$.%.&._ U *.( J :.Q E &.$.@.@.$.$.@.@.+.@.@._ _ Q Q _ E K W W U U J Y ! m F i ",
"u v C G $.$.$.%.%.%.*.;.=.:.*.:.>.=.:.>.>.,.,.9.9.6.>.0.7.! $./ Z %.! :.q.9.4.9.0.6.9.>.>.>.;.;.:.%.:.=.;.*.;.@.$.$.$.$.R F V a ",
"r f A F b m F F F H H G H H L L E K Y Y Y T T +.+.+.+.+.+.@.@./ A $._ @.@.T +.+.! +.! Y Y T K K E H H H H H H F F F m m F V V u ",
"6 f V P H f x V Z x x F F A F G J F J J G P J J G K U G F K @.~ Z %.E F K K K H J G P G J G F J S G C F V V x Z A B x F E V V r ",
"6 f n M Y F x F F F G H H H H H H K H Y E U E E E E W W E K _ ~ A ' U K ! W ) E U U U Y E L K K P G G M H H m F F V V G Y n v u ",
"6 v b H H m x e e u u r r e e r u u i i a i l l l l a V U F _ ~ Z ! U G H a l l l l a a a y u r u r r u u u e e w a n M P n b u ",
"4 v n m M m V a i j l i a x x x x B f x B x x Z Z Z a V K V _ J Z _ J G G a Z Z x x x Z x x f x x x l l j l j u i v C M M m b r ",
"3 a b M G V F x l l l l f x x f V V V B V b g x x V f x J B E J V Q G V A a V B x x F F V b V A V f x f i l x x a V F m H b v r ",
"4 y v M H v F j l l l i x f l f f V V f v V x x x B x f J B ( S B ) J V A a x x x x x x f x V g f x f x j j l l a V V F P f f > ",
"2 y s M H f V x i i j p l f j x B f f f g Z x x x B f x C V U S x U C B V y Z x x x V m f f g x x j a l a i j j i V V c H s v 4 ",
"2 l f m H v g j j h j p a i f a f a x a f A x j x x l f A f ` ^ Z | S V A i x x l l x m a x x x x j a a a j j j i v b M H s f w ",
": a s m G g V j u u j i l j j j x l f a f f j x z x a f V u o...[ i.l f b i x l x i x x l f i x j a a j u j j u i f V m M s f 4 ",
"; y f m M g g u u j u u i j j j x x a l x x l j l l l l V k  .} [ X.k l Z j l l l j x x l l l x l u j x u u j u p f v m G f f 2 ",
"= i x c M d V u j u j u i a j i l l i l a x a j l l h a C p X.{ D O.k B B u l l j i x x i i a a a a u a u u h u p f c m M f f 2 ",
"@ i a v F d g i u u u u i i p j i f l i a x j j l l u y A 3 0 z 9 N < N N 7 p k j j x l i a f j i i i i i u u u u f g m F a a : ",
"@ r a b F a x e u u u u i i i j i a a a i j j j j p 8 p B 6 , 5 < < 6 v v 7 j l j p j a i a l i i i y i e e e h e x f m F a a ; ",
"; t a s F s x e e e u e r i i i u a a y i j j j k k 8 p B p A l 9 A l a l 6 h h h j l i j a l i u u a p e e e e e a g g m y f ; ",
"; r a g F y f u e e 6 u u i u p p i i i i i u p h h 8 u v r B k 8 B a a a 6 h h u p i i i i i i h p p u e e e e e s f g M a y : ",
"= r a v m i l u e u i i i r f j a l a a f f a x x B x t a r x h 6 x a y p y Z a x x f x a a x l l l y i y r u i u a a s V i y > ",
": r y a m e i j j l i s f f f x f x B f x b g x f f V f i u a u 6 a p r f V v v g g f x f f x f f x s f f a a l p j u f n u y 3 ",
"@ r u v F f x x x x F F F F F J G G G G H M M M G F H P G a j h 6 l a F H P G F F M M G H G J G G F F C F F x V x x v n v t i ; ",
"O 4 p y s d d s m d d d d d d g c v c s s s s a f y t t y a i 6 5 p a t t t y a f s s s s g g s s b s c d d d c s s s s a i u % ",
"+ > u y 4 ; 1 1 2 2 2 2 6 6 4 e 8 6 r u 6 u 6 r 7 8 r 7 4 4 u 6 3 p e 1 6 u 8 8 8 6 8 r e e 6 e e 4 2 6 4 4 1 2 2 1 1 2 y r r % ",
"O 4 w y i e e e e e u u r y u r u r r r r r e u p 7 r p u 2 u 6 5 p 4 4 y u u u u r r r t r e r r u y u u r e e e e e r y e e & ",
"o 2 r y t e 2 % @ % @ % @ @ % @ - ; @ % @ @ @ % - + - 1 6 1 u 5 5 e 4 : 4 = @ % % @ % @ % @ ; % % % O % & % % % % ; r r s t e O ",
"X > r t t w w O o % o % ; 1 ; 1 ; ; : 3 1 1 1 1 1 , - - 6 ; u 6 3 u 4 2 3 = , 1 1 3 ; 2 2 1 ; 1 1 1 1 ; % o @ @ o 2 r w t w w O ",
". > w q t w w & % * 1 ; 1 4 4 1 1 2 2 4 4 3 4 4 1 1 = - 2 1 u 3 5 e 4 1 2 @ , 3 3 6 4 3 6 2 2 3 : 4 3 3 ; ; * - % > w r t q w o ",
"X ; : q t 2 6 - - & % % ; 3 4 ; ; 1 4 4 1 2 5 4 1 1 - = 2 1 6 5 5 6 3 ; 2 + ; ; 3 3 3 1 2 3 1 ; - 3 4 1 % % % * ; : w q q : 2 o ",
". ; 2 q t 2 4 - - * * % - 1 1 1 ; 1 : 2 ; ; 4 5 1 , + % 1 % 6 5 , 4 1 % ; o - , 3 3 1 ; 3 1 1 ; - 3 1 1 * * % 1 % 4 w w w : : o ",
"X ; : w r 4 e - * * * % % 1 ; 1 - ; 1 2 1 ; 5 - - % o # 1 % 6 , , 6 , % ; X % - , 3 - ; : 1 1 ; - 1 ; - % * * % % 6 4 q r : : o ",
"X & : : w : 4 ; % , * % % 1 & & % ; ; 1 ; % , ; % % o # , $ 4 , * 3 - - * X % * * ; % - 1 ; 1 % - ; : , $ * * * % 4 4 > r & : o ",
". & 2 ; w : 4 % % % % % % 2 & * % * 1 - - % % - - % X @ - # 3 % $ 1 $ $ ;   % * - 1 % - ; 1 % % % - : % * % * $ % 2 > 4 > ; ; X ",
". & & : w : 2 $ # $ % $ % & % * * % - @ - # % % * % . # - # , * X < # $ %   # * % % # % % % % $ * % - % # % % # # 1 > : q & : o ",
". & & : 2 & 1 # # o # $ # % % * @ $ = + @ % # % % #   X % X , # # - # @ @   X % % % O @ O % % % % % - + # # # # # ; 1 : q & ; X ",
"  % % : : ; ; o o # # # # % % % + @ @ @ + + o # # o   X % X % # X , # # @   X # o o o o o @ @ O @ * * X # # X @ o & ; ; : & & . "
};
