/* XPM */
static char *animation10[] = {
/* columns rows colors chars-per-pixel */
"64 53 146 2 ",
"   c #140C02",
".  c #190F02",
"X  c #1D1203",
"o  c #1E140C",
"O  c #231505",
"+  c #261906",
"@  c #291A07",
"#  c #241609",
"$  c #26190A",
"%  c #2B1C0C",
"&  c #311F0C",
"*  c #2C1D10",
"=  c #2E210D",
"-  c #33230E",
";  c #39250E",
":  c #3B290F",
">  c #2E2212",
",  c #342512",
"<  c #382713",
"1  c #362814",
"2  c #3B2A14",
"3  c #342718",
"4  c #352919",
"5  c #3D2D19",
"6  c #3F3016",
"7  c #3F311B",
"8  c #3C3324",
"9  c #422E14",
"0  c #412E1A",
"q  c #453115",
"w  c #4A3515",
"e  c #4E3816",
"r  c #45331B",
"t  c #49361C",
"y  c #47381E",
"u  c #4C391D",
"i  c #543B16",
"p  c #583C17",
"a  c #533D1D",
"s  c #583E1E",
"d  c #453521",
"f  c #493721",
"g  c #453923",
"h  c #4D3B21",
"j  c #433D2F",
"k  c #513E21",
"l  c #56411D",
"z  c #5B431E",
"x  c #5E481F",
"c  c #61461D",
"v  c #634A1F",
"b  c #554123",
"n  c #5B4523",
"m  c #5E4925",
"M  c #514128",
"N  c #5D4628",
"B  c #5E4929",
"V  c #514837",
"C  c #524938",
"Z  c #614622",
"A  c #644B24",
"S  c #694E24",
"D  c #644C29",
"F  c #6A4F2A",
"G  c #675026",
"H  c #6C5226",
"J  c #67502A",
"K  c #6C532B",
"L  c #735426",
"P  c #73552C",
"I  c #79562B",
"U  c #75592D",
"Y  c #7B5A2D",
"T  c #644E30",
"R  c #665030",
"E  c #6B5131",
"W  c #725631",
"Q  c #785730",
"!  c #765931",
"~  c #7C5C33",
"^  c #7C5E39",
"/  c #7E6035",
"(  c #7E623D",
")  c #565141",
"_  c #605642",
"`  c #605947",
"'  c #685E4B",
"]  c #746B57",
"[  c #716D5B",
"{  c #76705D",
"}  c #7E7461",
"|  c #815C2D",
" . c #825E33",
".. c #815F39",
"X. c #82612F",
"o. c #846134",
"O. c #8A6336",
"+. c #85623A",
"@. c #8B653A",
"#. c #8F693D",
"$. c #916636",
"%. c #92673A",
"&. c #946B3D",
"*. c #9B6E3E",
"=. c #9E703F",
"-. c #876640",
";. c #8C6741",
":. c #8D6942",
">. c #8B6D4E",
",. c #946C41",
"<. c #9B6E41",
"1. c #916E49",
"2. c #977145",
"3. c #9D7242",
"4. c #93714E",
"5. c #9C754A",
"6. c #9E7849",
"7. c #8C6F50",
"8. c #927351",
"9. c #9B7853",
"0. c #A27444",
"q. c #AA7746",
"w. c #A87847",
"e. c #A47648",
"r. c #A47A4D",
"t. c #AC7C4B",
"y. c #B27D4C",
"u. c #A57C52",
"i. c #A97F54",
"p. c #B7804E",
"a. c #B8824F",
"s. c #AD8256",
"d. c #AD8358",
"f. c #B68352",
"g. c #BA8452",
"h. c #BF8957",
"j. c #C28955",
"k. c #C48C59",
"l. c #C88E5A",
"z. c #CC925F",
"x. c #CB9462",
"c. c #D49763",
"v. c #D59966",
"b. c #D89965",
"n. c #D09968",
"m. c None",
/* pixels */
"f m U U U O.O. .%.<.3.e.5.r.u.r.u.i.s.s.d.5.4.9.4.>.>.7.m.m.m.m.m.m.m.m.7.>.>.4.9.8.8.i.d.d.u.i.r.u.r.5.3.5.<.<...O.O.Y Y I F b ",
"y G P Y U G P K P |  . . .%.&.<.<.0.q.t.y.t.y.j.g.g.g.j.z.z.x.s.1.n.x.x.j.f.j.f.j.f.y.q.y.q.0.0.<.<.$.@.O. .| P P P F P  .L J M ",
"r A P | @.U ~ / .... . .@.O.%.#.&.,.,.,.&.,.&.<.5.e.3.3.3.f.b.u.1.b.k.e.0.=.0.3.3.,.<.,.*.&.,.%.&.#.@.@.O.O. .~ ..~ I o.O.L H h ",
"2 m P Y o.Y L K P Q | ....O.%.%.*.<.<.e.w.t.q.y.y.g.g.g.t.q.c.r.-.v.f.3.g.g.g.a.y.w.t.r.q.3.=.<.&.%.O.O. . .Q P F P U  .o.P J g ",
"2 m L Y X.Y ~ n M B B B D D D D F K R W W P ! ~  ...O.3.s.=.z.5.@.x.t.0.t.O.o. .~ ~ E P W E K F D D D D N N N N n U Y o.o.L H u ",
"7 G L Y X.Y X.K K J K ! Q ~ ~ | W ^ ~ ..~ W ^ ^ ^ +.E @.6.=.z.2...z.t.2.5.K ....^ ^ ^ W ..^ ~ ! ~ ~ ~ ! U W T K H Y | Y | L K f ",
"r v U U X.Y X.K J R K Y I Y | ..!  ...@...~ +.+.-.;.W @.6.*.j.2...l.w.,.2.W #.@.-.+.~ ..+. .o.U ~  .Y P U P F D G ~ Y X.o.L P u ",
"7 v L U X.Y Y H J R K U W Q Q Q Q Q ......~  .+.@.-.W o.=.&.j.2...j.0.&.,.F +.@.....!  .+. ./ ! ! ~ U P U P K D G U | I | L K u ",
"7 v U U | Y ~ H J J J U P U Y ~ ! ! / / / ~ / ~ ^ +.E o.3.$.g.:.^ g.0.O.;.K .. .^ ^ !  .o. .Q W / U U P P K D D G U Y Y X.L H l ",
"7 v L L Y U | S B B D P K P U ! U ! Y / / ~ ~ ~ ~ / U ~ &.O.p.:.^ y.<.O.@.K ~ ..~ ~ ~ ^ ~ Y ~ U U U U P P F m D G U Y Y Y L G y ",
"7 m L L o.L ~ A B B D K K P P ! K U ! Y ! ! ! Q ~ ~ K ~ ,.o.t.@.! t.&.@.+.K ~ ~ ~ Q ! ^ ~ ~ U W ! U P K K F D N m L U Y Y H G y ",
"7 m H L | L Y A m D D S K H P ! U P / ! U U ! ~ ~ ~ K U #.Y t.-.! s.O.+.+.H ..Q ~ U U P ! Q P U ! U P K H D D m A U Y Y Y H G M ",
"y n H U Y L U D B A A J H J K U U K ! ! ~ ! U ! ~ ^ K P @.Y e.+.W r.o.o./ J ! ~ ^ P ! ! U ! W K U P H G J S m m G L I Y | L v b ",
"7 m H L I H Y S B B m A G S K P K K U U U K K ! ! ! D W @.Y 0.^ R 0.o.o./ A U ~ ! K K U U U K K W K G J G m m B m L I L Y H A h ",
"7 z H L Y L U B B m B n D D F K K G K P P K W K U W D K +.U <.^ E 3.o.~ ^ B W ! W W K U P K H H K H G A m m m B m P U L Y H m y ",
"6 z G L Y H U D b N B B S A S H G G H P K K G W K W B K ^ I <.^ E <. .Q ~ b K E U G K K K H K D K G G m m B B n m L L L L A A u ",
"6 l v L U G U v N N B D A D S K F S H H K K H K P K B K / K <.! D <. .P W n P W K G K P G K F F K G S A D Z N B D H H L Y S Z e ",
"6 z v H U v P G F P K F P P W P U ~ / Y Y / ~ ~ ^ / ! E ^ W &.! D &.~ W W W ^  .^ ^ ~ Y ~ ~ Q Q U U W K F F K K H K G H L A n e ",
"6 l v H Y A G K K P W P Q U U U Q Y X.o.Y ~ / o.o. .O...~ H @.W D %.! P +.o. . .o. . .~ | o.| | U U U ~ P P I I K K A L U v n u ",
"6 l x G X.o.o.+...@.O.O.@.%.%.%.0.&.&.3.0.=.=.3.3.*.*.q.3.U O.E N @.U &.q.3.*.*.3.=.*.3.0.*.%.<.&.@.%.#.O.%.O...+.o.o.+.L n n y ",
"2 l n Z x c Z Z Z S S S S F F L I L I I I Y I | | | | |  . . .E k @... .| | | | | Y Y I I I L I L P S S S S S Z Z Z c c Z z n r ",
"1 u n S G b k n k k k Z Z Z Z Z D Z A D S S D D D H F A Z F o.R k O.P Z D K S F D S S S D D Z D A A m n n n k k N b b A K n l r ",
"1 l x v L Z n Z Z Z Z S S Z S S F D S P P P P L P L I I P A  .R N o.K S U I L P P K K L P S H S D A S S S A Z Z n z z v H x n r ",
", l z v H z s 0 0 r t q t q q r r y r u e u h h h h u Z H Z ~ T N ~ F A S u h M h h y u e r y r r r q t q r r 0 5 a v v H x l r ",
", l z x S z n u y u f u t h h k b k a k n k k b M b h n F n ! D b Q D A D f b M k k k n a a a b k k a u t h t f u n z A v z z 9 ",
"> u z x S z Z a h h h f p k k s n z n z z n a k n n k a A n P D b ~ A n m u N b k k Z n s z n n s k k s t h h k u z c v S c l 5 ",
"> e l x S l A u h h h f k k h k a l b a z n k k b b h z A b W B b U A n N u b k k k k c s n z a k k u k t h k u u n n c S a a 2 ",
"- e i z S a n u f f u y u u h k b k l a s k k k h b h a A b P B M K m n z u M k k k n k a a a k k a h k t t f u u b z c S i a 2 ",
"> u u z H z z h f f d r u u u u a a k u a n k u h M l u m a / T n ' B n N y b h h u k k h a a k u f u u u r f d u l z c S e k 9 ",
"- e i x v l z u r y u f f f u f h h a h a a u k h b u u n r ] ' V } h a b r b h h h s s h u h k h u f f r d f r y a z c v i k 2 ",
"= t a z v p z t r u d r u f f f k k u h a k f f h h f h b g [ ` ) { g h k d h h h h k k h u u k f r u h r r r u r k z c Z p u < ",
"% w h l v z z t d r r r u d t t u h f u u k u d h h d u B g ] ) V { g b b d h h h f u h h t h h u u u u t r d r u b l c Z p u : ",
"= r e l v i s t r r r r r u r f f a h r u k f f h g q r b 4 8 8 8 j 3 M l 7 y h f f h u u h f u d f u t r r f r f u a c c e u ; ",
"+ r u a A a k r r f r r e e f d u u u u u u f f h f q y b r 4 4 4 1 7 h y 6 f f f f f f u u u u u r e r 0 0 0 f 0 s a z z a u - ",
"+ q u l Z a a r 0 0 r 5 d u u r r u k u d r y f f f 7 y b u m h d m k f a 5 g f g f u u u u u t r f u r 0 0 0 0 r a p z x e e = ",
"= w e l Z e s r 0 0 5 0 r r u r r r r u r u y f d g 6 r l r b d 7 b u e y 4 d d r u r y y r r u y r y u 0 0 0 0 0 a a s x u u , ",
"= w e l Z t u 0 0 d t e u u u h h k h h u a h a h b b w u r u r 5 k e r u u b l a a u h a u k h h h t e u r r f r e u a n e e , ",
"= : y e Z q t t f f u u a i u k k a a a b l z a b l n l u 9 h r 4 u r t l n l l l l z b a a k a k a i a a a e t y t t l l y u - ",
"= 6 r l Z a k k n n Z Z Z v Z D D S S S S G v G A v v H S a u 0 5 u e Z L v v A A A S S S S A A D Z c Z z Z n n b a l z l r r = ",
"X 1 e q a p p e e p p p i i e p u e l e w e e e r w q q 9 r u 8 5 y e 9 q q q t e w e e e a a i a i i i p p p i e i i i t e w @ ",
"X : r q 7 , - 1 , 1 < 2 5 5 2 0 6 5 q q 7 r 0 q 7 w w q 2 1 r 5 4 y 5 < q y w r 7 5 r q q 5 5 0 0 9 2 9 2 2 < < < , , < r r 0 @ ",
"O : q q u 7 5 q r r r 0 q q q r r q r w q q q 5 q 6 6 q 7 1 d 5 4 r 2 2 r 6 6 q 6 9 r q w w r q 0 r r r r r 0 0 0 0 9 t e 9 9 & ",
"X : w e t q < @ @ $ $ @ & @ @ @ @ = @ @ @ = @ + = o = = 6 , r 1 , r 2 < 2 @ $ $ = @ = = @ @ @ = @ % @ @ @ @ @ @ @ & 0 w i w q O ",
". , q q w q q % + @ + @ - - , 1 , , < < , 1 < 4 1 - = = 6 - 7 4 , r < < 1 = , 1 , 1 , - < 1 , - , , , , @ + + + + 9 9 q e 9 q O ",
". ; 9 9 w 9 q - % = > = - 2 2 1 , 1 : 2 < 1 < < , , = = < , 5 3 3 5 < , 1 @ , , 1 4 1 1 2 1 < 1 ; < 2 1 - = % & & : 9 w q : 9 O ",
". = : ; w < < - = > % % - 1 1 - = - : 1 1 - < 4 , , $ = 1 - 5 4 3 5 1 - , + > , 2 1 , , 1 < , = = 1 < , & % * * = : : q 9 ; ; O ",
". - : : q 2 5 , % % * = = : 1 - = - : , - = < 1 , = # @ , % 5 3 > 5 > % - X = , , 1 , - , ; , = = 1 , - * * % % = 2 2 q 9 ; ; O ",
". & ; 9 q < 2 , * * * % = - - - = - , , - = , , > % O % , + 4 > > 4 = % - X = % = , = = : - - = = , , = % * * % = 2 < 9 q ; ; O ",
". & ; ; q ; 9 , % * * $ % , & & % > - - - @ - & * * X # > # 1 > = 1 % % * O % * , & % & , & - % = - 1 = * * * % & 2 1 : 9 - ; O ",
". @ ; - 9 < < & $ % * $ % , , & % % - - > * % % = % X + , O , = $ , $ * * . # % % % * * - , * * = = , % $ * * # % < ; 9 : ; ; . ",
". @ & ; 9 & < % # % * * % & % * * * = % % % % % % $ . o = O > $ $ > + + @ . # * % @ # % @ % % $ % % - @ $ % % # # , ; : 9 & - O ",
". & & ; 9 & , O # # O # # % % % @ % % @ @ @ # # @ # . X $ # * $ o % + # $   # + % + @ @ + % % @ % > % + # # # + # & - ; : & - . ",
"  O & ; 2 & - O O O # O # @ * % @ @ @ @ O O O # O O   X % o @ # o $ # O +   X # O O O O @ @ @ + % * $ # # # X O O & - & ; & & . "
};
