/* XPM */
static char *animation8[] = {
/* columns rows colors chars-per-pixel */
"64 53 143 2 ",
"   c #140C02",
".  c #190E02",
"X  c #1D1103",
"o  c #1F140B",
"O  c #231505",
"+  c #261806",
"@  c #291B07",
"#  c #241609",
"$  c #26190A",
"%  c #2B1C0C",
"&  c #321E0B",
"*  c #2B1C10",
"=  c #2E210D",
"-  c #33230E",
";  c #39250D",
":  c #37280F",
">  c #3D290F",
",  c #2E2212",
"<  c #342512",
"1  c #392711",
"2  c #372815",
"3  c #3B2A14",
"4  c #342718",
"5  c #352819",
"6  c #3D2D19",
"7  c #3F3117",
"8  c #3F311C",
"9  c #3B3224",
"0  c #422E13",
"q  c #412E1A",
"w  c #443115",
"e  c #4B3516",
"r  c #4D3816",
"t  c #45331B",
"y  c #49361C",
"u  c #47381F",
"i  c #4C391D",
"p  c #533B16",
"a  c #583D16",
"s  c #533D1C",
"d  c #453621",
"f  c #493721",
"g  c #443822",
"h  c #4D3B21",
"j  c #443C2E",
"k  c #523E21",
"l  c #56411E",
"z  c #5B431D",
"x  c #61461D",
"c  c #634A1F",
"v  c #684D1F",
"b  c #544123",
"n  c #5B4523",
"m  c #5E4825",
"M  c #5E4628",
"N  c #5E4929",
"B  c #504736",
"V  c #524939",
"C  c #614622",
"Z  c #644B24",
"A  c #6A4D24",
"S  c #644C29",
"D  c #6A4F2A",
"F  c #6C5126",
"G  c #67502A",
"H  c #6C522A",
"J  c #735326",
"K  c #73552C",
"L  c #7A562B",
"P  c #74592D",
"I  c #7B5A2D",
"U  c #684F31",
"Y  c #6B5231",
"T  c #735631",
"R  c #765931",
"E  c #7C5C33",
"W  c #7D5E39",
"Q  c #7F6035",
"!  c #7C623C",
"~  c #555141",
"^  c #5E5441",
"/  c #5F5947",
"(  c #695D4B",
")  c #6F6B59",
"_  c #756B57",
"`  c #736F5C",
"'  c #7E7561",
"]  c #825C2E",
"[  c #825E33",
"{  c #815F39",
"}  c #846134",
"|  c #8A6436",
" . c #85623A",
".. c #8A653A",
"X. c #8E683D",
"o. c #916636",
"O. c #966837",
"+. c #92673A",
"@. c #936B3D",
"#. c #9B6D3E",
"$. c #9E713F",
"%. c #8A6741",
"&. c #8C6942",
"*. c #8B6E4E",
"=. c #946D41",
"-. c #9B6F41",
";. c #906D48",
":. c #977245",
">. c #9D7243",
",. c #93714E",
"<. c #9D744A",
"1. c #8C6F51",
"2. c #8E7151",
"3. c #957451",
"4. c #997754",
"5. c #9B7854",
"6. c #A27444",
"7. c #A97745",
"8. c #A77847",
"9. c #A97847",
"0. c #A27748",
"q. c #A57A4C",
"w. c #AC7C4B",
"e. c #B27E4C",
"r. c #A57C52",
"t. c #AA7F54",
"y. c #B6804D",
"u. c #B8824F",
"i. c #AD8256",
"p. c #AD8358",
"a. c #B48453",
"s. c #BA8553",
"d. c #BE8856",
"f. c #C08754",
"g. c #C38A55",
"h. c #C38D5B",
"j. c #C98E5A",
"k. c #CC925F",
"l. c #CB9462",
"z. c #D49762",
"x. c #D39967",
"c. c #D89A65",
"v. c None",
/* pixels */
"f Z P R I } ..| +.-.6.<.<.q.r.r.t.t.t.t.p.4.3.5.,.*.1.1.v.v.v.v.v.v.v.v.2.*.*.;.4.3.3.t.p.p.e.t.r.r.r.<.0.6.-.=.{ ..[ [ L L D b ",
"u Z K I I G H K K P [ [ | | @.$.-.>.7.w.w.e.e.f.s.s.a.d.j.l.l.t.*.x.l.l.h.a.d.s.g.e.w.w.e.7.6.>.-.@.o.| | [ E L K H H K [ K G b ",
"t Z K ] | P Q Q [ { [ [ ....X.X.=.=.=.=.#.>.@.-.>.0.>.>.6.y.c.r.;.c.h.0.0.#.6.6.>.-.=.=.=.#.=.@.=.+.X.....[ [ E [ E E [ | P G h ",
"7 m K I } I H F K L [ [ | | +.O.-.-.-.7.7.9.7.e.e.s.s.s.w.6.z.r.%.c.a.6.d.s.f.e.e.q.w.7.7.>.#.-.@.O...[ [ ] R T H J L ] [ P H g ",
"7 m F I | I I m b m m N M S S D D D U T T T R E [ { | 6.w.>.k.0...l.w.6.w.| | E W E T K K T Y D S S S C S M M M m P I ] [ K A i ",
"7 Z J P ] I Q P Y G H R T R E E T E E { E R W W {  .Y ..0.$.h.<. .j.w.:.>.H { W W W R R W W E R R { R P R T G Y G I ] I ] J H h ",
"u Z P I ] I Q F G G H R P L ] { R { { ..{ E { ....%.R ..<.$.f.:.{ j.7.@.-.T ..+. . .E {  .{ [ P E [ L P P K D S F P I } [ K J k ",
"8 Z F I ] I I F G U H P P L L E R R { { { E { { ..%.T } >.O.f.:.{ h.8...=.D ..%.{ { E {  .[ { R E E L P P K D S G I ] I ] J F h ",
"8 v J L ] I } F G N S P K P I E R R } Q Q R [ W {  .P } >.o.s.&.E s.-.+.=.D { { W { E E  .[ E R Q I P P P H G G G P I I ] J F l ",
"7 Z J L I P I Z N N Z K H P P R P R Q I W E E E E E H E @.| y.&.W e.#.....H E { E E E W E E R P P P P K H H m N G I I I I J Z b ",
"8 z F J } J I Z N N G H H J P R P P E P E E R E E W Y E =.} w.%.R i.@... .H E E E R R E R E P K R P K F H H S N m P I I I F Z b ",
"8 Z F J ] P I Z N S S G H H P R P H E R P P P R E E H P @.I 9.%.Y w.| | } H [ R E T P R P R R K R P H H H S N m m P P I I F Z u ",
"u m F P I J I G m S Z G H F H P P P P R R R P R E E H P ..I 8. .T q.| } Q Z E E R T P R P R H P R H H F G G m m Z P J I I F A b ",
"8 m F P L J I Z N N m Z Z G D P H G K P P H H R R R S P ..] >.W U 6.} } Q Z P R R H P Y P P H H P H F m c m m G Z J L J I J m b ",
"8 z A F I J P m m N M n Z Z D K H H H P P H H P R R Z K [ P -.W U 6.[ E E m R R P H H K P K F H P G Z G c N m m m F J I I Z m b ",
"w z A F I F P N n n N S Z c D D F Z H H H H H H Y Y N H { P -.W D 6.Q R R N H Y K H H K H H D Z G A G m N N n n m P J J P c m u ",
"7 z A F I A P m M N N S Z Z A D D A F F H H F H K K N G ! K -.R S -.E P T b Y K H G H K A D D A H F G Z A C M M N F F J I A C e ",
"7 z z F P v H F D H H H K T K K R R E I E E E E W E R Y E P +.T S #.R T R P W [ E Q E E E [ T T P P P K H D U K H H Z F P c z i ",
"7 l Z F I Z H H H L K H P R L P [ R } } E [ } } | [ | [ R H o.T M +.T K  .| [ [ } } } I ] [ L [ I P P E K H L K H H Z K K Z Z e ",
"8 l m v } } } } [ ......X.+.X.X.$.O.@.6.>.>.#.>.>.#.#.6.<.P | T M ..L @.8.#.#.#.>.>.#.$.6.#.=.-.@.| X.X.o.+.{ {  .} | } J m n u ",
"2 l z Z z z C C C A A A A A J J L K L L L I ] ] ] ] L ] ] [ { Y n  .E [ ] ] ] ] ] I I L ] L J L K F A A A A A Z C Z x z c z z t ",
"2 i n A F l k n n k k n C n C Z C C Z S A Z Z Z Z D D D Z D [ U M { P C D D A D S S Z D S S C C Z Z C z n n k k n b k c H n l t ",
"2 l z v J C z C C C Z A A A A A D D D J K J K J K K L L J A E U M | H D L K P T H P J J J D A D D Z A A A A x C C n n F F z z t ",
"< l z Z F z z q q q y w w q q q y t t i i y h h h h i C H C E S b I H C D i k h h h y i i y y y t w w t q y q q 6 s z v F z z t ",
": l l z F z z i y y h u y h s k k k s s n k k b n M h b H M P S b R S Z Z y n b k k k b k k k k k k h h y h f y y n z C v z z w ",
"= l z z Z z Z i h k h y s k k s n n n z n s s k b b k b D b P S b R Z n m f M b k k C C x s n C s k s s f h h k i z c x A z l 3 ",
"- r l z F l m i y h h y h s i k s b n s z n k k k b h k Z b P N b R m b M f b h k k k n s C k s k k s k y i h i f n n C A s s 3 ",
"- r l z A l n i f i i y s k f k b s k s s n k k b b s s m b H N k P m M M g b b k k n k k s s k k s s h i y f y y n z x A p s 3 ",
"= i r z v z z h y f d y i y i s s s k i s n s h h b u s Z s ! N b ! N b n u b b h h k n h h a k i i y i f y f f i l l v A r k 3 ",
"- r l z v l z y u y y y h f f f h h i k s s i h h b f k n t _ ( V ' h s b t b h h i a k h s h k h i h f t y f t y l z x v p s 3 ",
"= r l z v l l y t y t t y h y y h h i h k k h i h h g h M g ) / ~ ` g k b d g h h h k h h i h h h y f h t d f y y s l x C p s 1 ",
"= w r l v a z e d u d y y f y f h k i i h k f f h h d f M 8 _ ^ B ' d b b 9 h h f i h h h y h i y y y y t y t t f s l x x s s ; ",
"@ w i l Z s k f d t t e e y y f y h k y f k f y h f 7 y M 5 9 g 9 9 , b b 7 g h f f k i y h h y y y y y y t t t t k s x x p f ; ",
"@ r i l C a s q q t d q e y y y y i i y i f f f f g 7 y b 8 5 5 5 5 7 b b 2 g g f f h y y i h y y d y r q q t d q s s x s s i - ",
"@ w r p C p a f q q q q d u f u y r f i y y f u f g 8 y h y n h 9 n l u h 6 d d d d f e f i y e t u y u q q q q q s s x z i r < ",
"= e i p Z i s q 6 q q 6 u t t u u y y y y y y u d g 8 t l t b g 9 b i r i 6 d d u u y u y y y f u d e u t q q q q k s a x i i - ",
"= w r l C e h q t q y y i e i h h h h i h s i k s b s e i w l g 6 k y e i i b l s i s s i h k h h i i i i e t t t i i l z y y - ",
"= 7 u r C w y y f i i i s p s k k k s s l l z s n l z b i w y 8 5 h t t z z z s z s b b s p b k k k i p s r i i e i t z z e y < ",
"+ 7 e l Z s k k k n C C C C C Z Z S D Z F A Z Z Z c A v C s f 8 6 f r c A v c Z Z v v A A A S Z Z Z Z Z n C n b b k l z l e y - ",
"X 3 r 7 s a a r a a a a p a p a p p p p r r e e y e w w q y f 6 5 y i w 0 w w e i e r e p s p p p p r p a a a a r a p p e y w @ ",
"X > t y > : < < 3 < 3 3 6 6 3 q 8 6 w w q t q t w t w t 3 2 y 6 5 u 3 3 7 y w 8 t 3 t 7 w w 3 3 q 0 3 6 q 3 1 1 1 < - 1 y q 0 @ ",
"+ > w e e 8 6 t q t t w t t t t t t t w w w 0 3 7 7 7 w t < y 5 4 t 3 3 w 7 w w w 7 t w e w t t t w w y t q q q q q q r r q q & ",
"X : y r r w < @ @ @ $ @ @ @ @ % @ = @ @ @ = @ % = + % - 3 < t 5 , q 3 1 2 = % @ @ @ = @ @ % = % @ @ + @ @ + $ @ @ - q w r e w O ",
". : w w r q w % + + $ @ - < < < < < < 3 < < 1 5 < , = = 3 : t 5 , t 3 3 2 = < 4 5 2 < < 3 - - < 4 < < < @ + $ + + 3 0 w e w 0 O ",
". ; 0 0 e 0 q & % * - - - 3 3 < < < 3 3 3 < 5 6 2 < @ = 5 - 6 4 < 6 3 < < @ - < 3 6 2 2 2 3 1 < < 3 3 < - - % % % > 0 e w 0 0 X ",
". - ; ; w 3 3 - , % % % - 3 3 - - - : 3 < < 1 1 < < % = 1 = 6 4 , 6 < = < + , < 2 2 < : 3 < < - - < 3 < % * % < & > > w 0 ; ; O ",
". - ; > w 3 3 < , * * % = : < , = - < - - - 1 4 < < $ @ < % 6 4 , 5 < % - X = < < 2 : = - ; < = = < < < * % % * - 3 3 0 0 ; ; O ",
". & > 0 w 3 3 < * * % % = - : - = - : 3 - = < < % @ O * = % 5 < , 6 = % - X % , , < = = < - < = = < - = % * * * = 3 3 0 0 ; ; O ",
". - - - 0 1 0 = * * % * % 1 - & % , - - < @ = = * % X $ , $ < , * < % $ & X % * = = % * - - < % = - < - % * * & % 3 1 0 0 ; ; X ",
". % ; - 0 < 3 = % & * % * & < * % % , - , * % % = * X $ < O < , % < % % = . % % & & % * - < * * = = < % % * * # % 1 ; 0 > & 1 X ",
". & ; ; 0 - 3 % # % % # % % % % % * = % = % $ % * * . X = O * * $ , O $ %   $ * * @ % % @ % % % * = - % # % $ # $ < 1 > 0 & & O ",
". @ & & 0 & < # # # # $ $ % & * $ % = @ @ @ + $ % # X X % O * # o % $ $ %   O $ @ + # @ @ % @ @ % % % $ $ # # $ # = < ; > & & O ",
"  $ & - > % - + # X # O $ $ * * + + @ @ + O O # O O   . % # $ # o $ # O O   X $ $ O # O @ @ + + $ % * # + $ X + O & - - > & & . "
};
