/* XPM */
static char *animation12[] = {
/* columns rows colors chars-per-pixel */
"64 53 147 2 ",
"   c #0F0902",
".  c #150D02",
"X  c #190E02",
"o  c #1D1203",
"O  c #1E130C",
"+  c #231505",
"@  c #261806",
"#  c #291A07",
"$  c #241609",
"%  c #281709",
"&  c #261A09",
"*  c #2B1C0C",
"=  c #301E0C",
"-  c #2A1D11",
";  c #2F210D",
":  c #33230E",
">  c #39260E",
",  c #37290D",
"<  c #3D290F",
"1  c #2C2113",
"2  c #342511",
"3  c #392712",
"4  c #362813",
"5  c #3B2A14",
"6  c #332719",
"7  c #36291A",
"8  c #3C2D19",
"9  c #3F3017",
"0  c #3F311C",
"q  c #393023",
"w  c #3D3729",
"e  c #402B0F",
"r  c #422E14",
"t  c #412F1A",
"y  c #443115",
"u  c #4B3515",
"i  c #4E3917",
"p  c #45331B",
"a  c #49361C",
"s  c #47381F",
"d  c #4C391D",
"f  c #533B16",
"g  c #533D1D",
"h  c #583F1C",
"j  c #463521",
"k  c #493721",
"l  c #433823",
"z  c #4D3B21",
"x  c #423728",
"c  c #4E3F28",
"v  c #513E21",
"b  c #56411E",
"n  c #5B441D",
"m  c #61451D",
"M  c #654B1F",
"N  c #4F4326",
"B  c #554223",
"V  c #5B4523",
"C  c #5E4825",
"Z  c #574128",
"A  c #5A4529",
"S  c #5E4929",
"D  c #524C3C",
"F  c #614622",
"G  c #644B24",
"H  c #694E24",
"J  c #644C2A",
"K  c #694F2A",
"L  c #675027",
"P  c #6C5126",
"I  c #67502A",
"U  c #6C532B",
"Y  c #735426",
"T  c #795627",
"R  c #735927",
"E  c #73552C",
"W  c #79562A",
"Q  c #75592D",
"!  c #7B5A2D",
"~  c #675031",
"^  c #6C5332",
"/  c #665338",
"(  c #745732",
")  c #765A31",
"_  c #7C5C33",
"`  c #755A39",
"'  c #7B5D39",
"]  c #7F6036",
"[  c #7D603C",
"{  c #605947",
"}  c #7A6540",
"|  c #6E6551",
" . c #736A56",
".. c #706C5A",
"X. c #74705D",
"o. c #7B725F",
"O. c #815B2D",
"+. c #885E2F",
"@. c #825E33",
"#. c #815F39",
"$. c #846134",
"%. c #8A6336",
"&. c #85623A",
"*. c #8B653A",
"=. c #8E693C",
"-. c #926937",
";. c #93673A",
":. c #936B3D",
">. c #996D3E",
",. c #9E703F",
"<. c #846643",
"1. c #886742",
"2. c #8B6843",
"3. c #8C6D4C",
"4. c #946E41",
"5. c #9A6E41",
"6. c #8E704F",
"7. c #977040",
"8. c #9D7243",
"9. c #93714C",
"0. c #9B734A",
"q. c #9F794F",
"w. c #8F7050",
"e. c #9C7750",
"r. c #A27444",
"t. c #AB7947",
"y. c #A27649",
"u. c #A4794C",
"i. c #AC7B4B",
"p. c #B27E4C",
"a. c #A37C53",
"s. c #B4804E",
"d. c #AC8257",
"f. c #AE855A",
"g. c #B58453",
"h. c #BA8452",
"j. c #BF8856",
"k. c #C28956",
"l. c #C58E5B",
"z. c #C88F5B",
"x. c #CE925E",
"c. c #C28F60",
"v. c #C79161",
"b. c #C99362",
"n. c #D59965",
"m. c #D89964",
"M. c None",
/* pixels */
"z G E Q ! @.*.+.4.5.0.0.0.0.a.a.a.a.f.e.3.w.6.6.3.3.M.M.M.M.M.M.M.M.M.M.M.M.3.3.w.w.w.3.9.d.d.u.a.a.u.0.y.0.5.5.+.1.*._ ! W J B ",
"l G U ! Q L E E ( W @.+.%.;.>.,.5.r.i.p.p.p.s.k.h.k.h.j.b.z.b.a.` b.c.v.l.h.j.h.l.p.p.p.p.t.r.r.5.>.-.*.$.@.O.W E E K E O.E I Z ",
"p G E O.%.Q ! ] #.#.+.#.+.*.;.*.:.4.;.4.:.>.:.5.8.y.8.8.u.h.m.a.` n.v.t.r.r.r.r.8.5.4.4.4.:.:.:.=.=.%.%.&.%.$._ ' _ ) @.%.! I z ",
"8 G R ! %.! Q U E W O.#.*.%.;.>.5.r.8.r.i.i.i.p.h.j.g.g.u.r.n.q.^ n.g.0.h.h.h.h.p.i.i.i.t.r.r.8.5.4.*.%.%.O.! ! E K W +.O.E L l ",
"7 G P ! %.! ! S A A C S J G J J K U ( ( E Q _ @.@.*.*.t.i.r.x.q.~ x.d.r.s.=.%.%._ ' ) E E E E U J J J J S V Z Z V R ! +.@.Y U s ",
"9 L Y ! @.T @.U I ~ U ) ( ) _ _ ( _ _ ' _ ( ' ' ' ' ^ =.y.8.z.0.K x.i.7.0.U ' ' ' ' ( _ ' _ _ ) _ _ ) ( Q ( ~ I U ] ! ! +.Y P d ",
"p G E Q $.T $.U I I U _ Q W ! @.) @.@.&.#.' &.&.2.2.) %.8.>.k.9.~ l.i.;.4.( *.*.1.#.#.#.1.@.@.) _ @.! Q ! E J K L ! O.@.O.E P v ",
"0 L R R @.! @.P I I K Q E W ! _ ) ' @.&.#._ @.#.*.&.( @.8.:.k.8.^ k.u.;.4.( &.*.#.#._ #.#.@._ ) _ ! W Q Q E K K I ! ! O._ E U z ",
"y G Q T O.! _ U I J I Q U Q ! _ ) ) ] ] ] ] @.' $.&.^ $.7.;.h.4.J j.r.;.4.K #.#.' ' _ @.@.@._ Q _ Q Q R E U J I L Q ! ! @.Y P b ",
"p C Y R @.R O.H S S G R U Q Q ) ( Q ! ! _ _ _ ' _ _ Q _ 4.;.p.2.S p.0.+.*.E _ #._ _ ' _ @._ ) Q ) Q Q Q E U S J L R ! ! ! Y L z ",
"9 V P R $.Y ! G C S I U P E Q ) Q Q _ ! _ _ ) _ _ ' U _ 4.%.i.1.J i.4.*.&.K _ _ @.) ) ) _ ) ( Q ) Q E P P U J V C R Q ! ! P L s ",
"0 V P R O.Y ! U C S J L U U E Q ( Q Q ) R Q Q ) _ _ U E ;.! i.<.S i.%.%.&.K @._ _ ( Q ) Q _ Q Q ) Q U U U G G C L R R ! T P L z ",
"l C L R ! Y ! G C G G L P L U Q Q E ) ) ! ) Q ) _ _ U ( %.! u.<.~ a.%.@._ U ) _ ) Q Q ) ) ! Q U ( R U I U L C C G R T T O.P M N ",
"p V P R ! Y ! G S S C G I L P Q U U Q Q Q U U ) ) ( L U %.! 8.&.A 5.%.@._ G Q ) ) E U ( Q Q U U Q U L J G C C S G R E Y ! R G d ",
"p V L R ! P Q G A S A C J G K P P J U Q E P U ( U ) J U &.! 8.} A r.#.@._ C E ) ( U U Q E E H U U P G L L V C C C Y Y R R P C d ",
"8 n H P ! P ! G Z A S J G G H U U L U U U U U U U ^ S U @.W ,.' c r.@.) ` C ^ U ^ U U U U U H J U L G G C A A A V Q Y R T G G d ",
"9 n M P W H Y G S S S J G G H K K H U L U U L U U ( S I ` Q >.' v 5._ Q ( V ( E U U U E H H J K P L L G J F S S S P P E T G F a ",
"9 n M P W G U U P K P U E E Q Q ( ) ! ! Q ] _ _ _ _ ] U _ Q ;.' J 4._ Q ( ^ _ ' _ ) _ ! _ _ ! ( Q ( Q Q K K U U U U I Y R M F i ",
"8 b G P ! G U P E E E E ( ) ) Q ! ! $.$._ $.$.@.&.$.%.@.` P -.` v 4.) E &.$.@.@.$.] $._ +.@.W _ ) Q ) Q E Y W W U U C R E m F s ",
"0 b V H @.%.@.&.@.%.*.#.*.;.;.;.8.;.:.,.8.5.>.8.5.>.>.r.8.Q %.` c *.) :.r.>.>.5.8.7.5.>.8.>.;.5.5.=.=.%.*.;.+.#.&.$.$.$.Y F V s ",
"5 b V m n m F F F F J H H K Y W W E W O.W W O.O.O.! O.+.%._ $.( v #.@.%.+.O.O.O.O.O.! W W W T Y W E P H H H H F F F m m G V n p ",
"4 d V G K v v V V v v J F V F F F J F G G H G J J U K G F K $.^ c ;.W F J K K G J G G G J J F J C G V V V V v v Z v v F L V g p ",
"4 b m H Y V V V F F F H H H H H K K H E E Y Y E E E ! W E G _ ^ c _ Y J W W Q E Y E E E Y K K K H H H H H H m F F V G H P n n p ",
"4 d n M H n V t t p p t u r t a p p p a d a k z z z z V P G ) ~ v _ P F G g z z z z s i g a p s s t r p t p p t r g m M P n b p ",
"4 b n n H n C i s s z s d k v v v v g g b B v v Z Z z B U A Q ~ v _ J G J k Z Z v v v v v v g v v g d d d k a k z Z n M H n n y ",
"; d n M H n G d z z v a g g v g A V V n V n g v V V z b G V E ~ k ( J V V d V B v v F J v n F V v v v g d k v v d n C m G n b 5 ",
": u b n H B G a a g z s v v z g g B V g n V v v N B z b G Z ( S z ( G V A z B N v v v v h V v v v g g v d k k d d V n m G h g 5 ",
": i b m H h V v k a a s d v k v B g g g g V v g v B z b G B U S z E C V V u Z z v v V F h g g v v v z v a k d p z B n G H f g 5 ",
": d f n P b V d k k s p d d d d g g g d B n g k z B d b C v [ / c } S b V p B z z d h h d v v v g k d d a a j j z b n M G f v 5 ",
": i b n M b V a p p s p k z d k v z g z v g v v z N s g V p  .| D o.N g n s B z z z v v z d d v k d a k a k j a s g n m M f g 5 ",
"* i g n M f n a k p j p a z a a z v d z v v z k z z z d Z l ..{ D X.l d Z j z z z d v v z d z v d k z k p a s p p g b m m h g > ",
"; y z b M n n u p k s p a d k a d z a k s g a k z z j s C p ..{ D X.l B B p z z k k z z a d v k a a a d a a p s s h h m m g d , ",
"# p d b G f h a p p p u a a k k s v g s a v k k z z 9 u A 6 w x q w 6 d B 9 z z k k z a k d v a a a s a a t p j p v g m m f k > ",
"# y d g G f v p p p j t a p k k p k g a a z a s j s p a B p 7 7 6 6 p z d 9 j j k p z s d d z a p k a a a t p p t v g m h d i : ",
"# y i b G f h t t t p t p a k p p d g s k k s s j j 0 s g s V z l C b s z 8 j j s s a s k g p a p s a a t t t t p z h h n d a : ",
"; y a g G i g a t t r t p s p p p a a a a a s j l j 0 p g u Z j 7 v d i d 8 j l j k u s s a p a k u s u t t t t t h d m n i d : ",
"; y a b F u z p p a a a i a d v v v z d d b d v v V v u d p v j 7 N d a i g B g g v g g g d v z z d a f a s p p p a u n V a a , ",
"; y u i F r s a k k a i g i g v g v b g b b b b g g n V g r d p 4 d u u B V n h g n b v g g v g v v d f d i d a s s p b n a s , ",
"@ 9 y b F h g h V F F F F M F G I G H G H H P G G m G M H v a q 8 s d n P M m G G M H H H H H F J G m G F G F F v h g m B u p : ",
"o 9 a 9 i h f u f h f f f f i f i i i i u u u a p y y y r p a j 4 s i r r y y y u y u u i i i i f i i f f f f f i f f g u u y # ",
"+ , p y 9 : 2 2 3 7 3 5 5 8 5 t 8 8 8 y y p p p 9 p a p 9 4 p 7 6 s 8 3 p a a y p p p y y r 8 8 t 5 5 t 8 5 3 3 3 2 : 5 u p r # ",
"@ < 9 u i p 8 t t t p p p p p t p y y y y y r 5 9 9 < y y 4 p 8 1 p 8 5 y 9 9 5 9 5 y y y y y p p p u p p p t t t t t u a y r * ",
"o , a u i y 3 * # @ @ # # # # * * ; # * * * # @ ; & # : 9 4 p 7 1 p 5 > 4 & # ; ; & # ; * * * ; # # # # % @ # # % : t u f u y @ ",
". , y u u r y * @ # @ * : 2 2 3 : 3 3 5 2 4 4 8 4 4 ; ; 5 2 0 7 1 8 5 2 2 ; 2 6 6 2 2 , 5 3 2 2 4 2 2 2 # @ % @ @ 5 r y a t r + ",
"X > r e u 5 y : = 2 * : : 5 5 4 4 3 3 5 5 3 5 8 , 2 * ; 3 2 8 6 1 8 5 2 4 # , 2 4 6 4 4 4 5 , 5 2 5 5 4 : = * * * r r y y r r + ",
"X : < > u 3 5 2 - = * * ; 3 4 2 ; : 3 5 2 : 4 4 4 2 & ; 3 - t 7 1 8 2 ; 4 @ 1 2 5 3 2 , 4 4 : ; : 3 4 : * * - 2 : < e y e > > o ",
"X : < < y 5 8 : - * 1 * 1 , 2 2 * : 2 , : : 4 4 2 ; $ # 2 * 8 4 1 5 2 * : + ; ; 2 4 2 : , 2 : ; ; 2 : 2 - = * - = 5 5 e r > > + ",
"X = > < u 5 8 = - * * * ; : : 2 ; : : , : * ; 2 1 * + $ 2 * 8 1 - 6 1 * ; o * ; ; 2 ; : 2 2 : : ; 2 , ; = - * - ; 5 5 r r > : + ",
"X ; : > r 3 r 2 * * - * * 2 = : = = : : 2 # = = - - + $ 1 @ 4 1 & 4 * * = + % - - = * = 2 = = * ; ; 4 ; - * - = - 5 3 e < > > o ",
"X * > : r > 5 * * * * - * : 2 = * - 2 : * - * = 2 $ o $ 2 @ 2 * & 1 * * - X % * : = - - : 2 = - ; ; 2 * * * * % * 3 > r < : > X ",
"X = : > r : 3 * $ % * * % = = - - * * # * % # * - - X o * + 1 $ O 1 @ @ # X % * * # % * # * * * * ; ; * * % # $ % 4 2 > e : : + ",
". = = = r = 2 @ $ $ $ @ % * - * # * - # @ % $ % # $ X o * + - $ O ; @ $ * . + @ # @ $ # # * * % * ; * @ $ $ $ @ $ = : 3 e = = X ",
". @ = : 5 * > + + + $ $ $ % - % @ @ # # @ + @ @ $ + . X @ O # $ O * O o @ . X @ + + + + # # % @ * * $ $ $ $ o $ + = = > 3 = = . "
};
