/* XPM */
static char *animation24[] = {
/* columns rows colors chars-per-pixel */
"64 53 132 2 ",
"   c #150C01",
".  c #190E02",
"X  c #1D1203",
"o  c #231505",
"O  c #281704",
"+  c #271806",
"@  c #291906",
"#  c #241608",
"$  c #261909",
"%  c #2B1C0C",
"&  c #311E0A",
"*  c #2C1D10",
"=  c #2E200D",
"-  c #33230D",
";  c #39260D",
":  c #3B290E",
">  c #2F2110",
",  c #2F271C",
"<  c #342511",
"1  c #392712",
"2  c #362915",
"3  c #3B2A14",
"4  c #362718",
"5  c #372919",
"6  c #3D2D19",
"7  c #3F311E",
"8  c #412E14",
"9  c #412F1A",
"0  c #443116",
"q  c #4A3516",
"w  c #4E3816",
"e  c #45331C",
"r  c #49361C",
"t  c #4C391D",
"y  c #553C15",
"u  c #593F17",
"i  c #533D1D",
"p  c #593E1B",
"a  c #453621",
"s  c #493720",
"d  c #473821",
"f  c #4D3B21",
"g  c #4E3E28",
"h  c #513E21",
"j  c #56401E",
"k  c #5B431D",
"l  c #60471E",
"z  c #63491F",
"x  c #4F4026",
"c  c #544123",
"v  c #5B4522",
"b  c #5E4925",
"n  c #53432A",
"m  c #5B4629",
"M  c #57482B",
"N  c #5F4A28",
"B  c #4F4938",
"V  c #5E4C32",
"C  c #504838",
"Z  c #624722",
"A  c #634A24",
"S  c #694D24",
"D  c #644D2A",
"F  c #694F29",
"G  c #704F26",
"H  c #675027",
"J  c #6C5126",
"K  c #66502C",
"L  c #6D532A",
"P  c #725326",
"I  c #73552B",
"U  c #79562B",
"Y  c #75592D",
"T  c #7C5B2D",
"R  c #624D32",
"E  c #6C5433",
"W  c #745632",
"Q  c #765A31",
"!  c #7B5C33",
"~  c #745A3A",
"^  c #7D5E3A",
"/  c #5B5643",
"(  c #5F5946",
")  c #615E4D",
"_  c #6C5F49",
"`  c #745E42",
"'  c #7E6242",
"]  c #72654E",
"[  c #825D2E",
"{  c #825E33",
"}  c #805F38",
"|  c #846134",
" . c #8B6335",
".. c #84623A",
"X. c #8C663A",
"o. c #8C683D",
"O. c #906637",
"+. c #916738",
"@. c #936A3B",
"#. c #9A6D3D",
"$. c #8F6B42",
"%. c #896E4B",
"&. c #936D43",
"*. c #9B6F40",
"=. c #9D7243",
"-. c #95724B",
";. c #9B754B",
":. c #937654",
">. c #987450",
",. c #A37444",
"<. c #A97645",
"1. c #A67847",
"2. c #AC7947",
"3. c #A2774A",
"4. c #A5794C",
"5. c #AD7C4B",
"6. c #B17D4B",
"7. c #A27B53",
"8. c #AB7E53",
"9. c #B4814F",
"0. c #AF8055",
"q. c #A68058",
"w. c #B48455",
"e. c #B98452",
"r. c #B48659",
"t. c #BA895A",
"y. c #B78B60",
"u. c #C18856",
"i. c #C28E5E",
"p. c #C29060",
"a. c #CA9463",
"s. c None",
/* pixels */
"n c K E E V s.s.s.s.s.s.s.s.s.s.s.s.s.s.s.s.s.s.s.s.s.s.s.s.s.s.s.s.s.s.s.s.s.s.s.s.s.s.s.s.s.s.s.s.s.s.s.s.s.s.s.s.R R W L c n ",
"M c H I T Q ^ } ^ ' ` s.s.s.s.s.s.s.s.s.s.s.s.s.s.s.s.s.s.s.s.s.s.s.s.s.s.s.s.s.s.s.s.s.s.s.s.s.s.s.s.s.s.s.^ ^ ^ } ! T Y I m M ",
"n i H I | P L Y U  .@.&.&.-.%.s.s.s.s.s.s.s.s.s.s.s.s.s.s.s.s.s.s.s.s.s.s.s.s.s.s.s.s.s.s.s.s.s.s.' -.-.$.@.O.{ Q E F | Y I c c ",
"x t H U | { Q ! ! Q Q !  .+.=.3.4.7.7.:.s.s.s.s.s.s.s.s.s.s.s.s.s.s.s.s.s.s.s.s.s.s.s.s.s.;.4.4.3.=.@.X.{ ! U Q ! ! !  .T L f x ",
"x e H P | [ T L Q { X.X.X.X.X.+.o.*.1.4.6.t.r.q.:.s.s.s.s.s.s.s.s.s.s.s.s.s.s.s.>.r.r.w.2.<.,.&.o.o.X.X.X. .{ ! I Y T  .I P h g ",
"n t J P [ [ T L v v N L T { +.#.,.,.=.=.=.<.2.6.e.i.y.s.s.s.s.s.s.s.s.s.s.7.i.i.6.5.1.*.*.,.*.,.=.@. .! I S N m H T T  .P I c h ",
"c y J P [ T [ ! R D F L F F F F U { o.*.,.5.6.6.4.5.a.^ s.s.s.s.s.s.s.s.s.w.u.,.5.6.5.<.,.@.} { P F F F F F R D L | U  .P I p n ",
"n t H P [ T T T F F L Q Q T { Q Q ~ W L Y {  .#.6.<.i.~ s.s.s.s.s.s.s.s.s.8.6.6.,.+.} ! L W W ! Q ! Q Q T I F D L T T | P I i x ",
"x j J P [ T [ P D K L Y Y Y ! T ! | o.^ ^ | } Q &.,.t.~ s.s.s.s.s.s.s.s.s.1.5.;.! ^ ^ ..^ } } } ! ! T I Q L K R I T T [ P Y j x ",
"x j J J T T [ Y F K D I I Y ! Q ! | ^ ^ ^ ..o.! &.*.r.E s.s.s.s.s.s.s.s.s.3.5.=.! X...{ ! } } } Q Q Y Y I L D D L | T [ P P j j ",
"x 0 J J T T T I D D D I I I T Q Q ! ^ ! ^ | ..Q o.#.w.E s.s.s.s.s.s.s.s.s.=.,.&.Q | ..^ { { { ! Q ! Y I I F Z Z L T Y | J H x t ",
"x r z J T T T I v v A L J I U Q Y ! ^ ! ! ! | Y ..+.5.E s.s.s.s.s.s.s.s.s.&.,.$.I ! ^ ! ! ! ! Q Y ! I L L F D v H T P [ J H x x ",
"x t A J T U U J b b b L L I Y Y I Q Q Q Q ! ! W .. .4.R s.s.s.s.s.s.s.s.s.&.*.o.W ! ! Q Q Q Q Y Y Q I L K A D N H T P [ J J j x ",
"x j z J [ P U I A N A K L J Y Y Y Q Q Q Y Q ! W }  .;.R s.s.s.s.s.s.s.s.s.$.+.$.L Q Q Q Q U Q W L Y L H L A b b H T P [ J J t x ",
"x j A H T P I L b N b b F H L Y L L Q Y I Q ! I ^ { =.V s.s.s.s.s.s.s.s.s.$.X...L Q Q I I Q Q L I L L H A b N b H T J [ J H j x ",
"x j A z U P P L m N N A A A L L L L Y I L Y Y F ! { &.m s.s.s.s.s.s.s.s.s.X. .^ F W Q I P I I F L L H H S m m v H Y J [ z H w x ",
"j q b z Y P J L M v m N A A S F S L L I L L Y D Q T &.s.s.s.s.s.s.s.s.s.s.} } } K E I L L L L L H L H H Z N v n A Y z | z S w h ",
"c q l z Y J J H F F D A A L S F H L J L L L L N E T X.s.s.s.s.s.s.s.s.s.s.} { ! b L L J L L L S H H H H F D D D H L S T S z y c ",
"x 3 l z T L A L L I I F Y Y Q Y Q T ! T ! ! ^ E W I o.s.s.s.s.s.s.s.s.s.s.} { W L Q ! ! ! ! { ! T Y Y Y I L I F L H z T Z A t h ",
"c j k b P | T ! ! { { { { | ! { { | | | | | | | | I ..s.s.s.s.s.s.s.s.s.s.} Q Q | ..| | { { { { | ! ! | { { { { ^ Q { T z v t c ",
"c q k k z z S P U P [ { { O.{ +. .@.#.@.#.#.#.#.,.{ } s.s.s.s.s.s.s.s.s.s.~ [ #.,.#.#.#.#.#.#.{ O. .| [ [ [ U G P P A S k v t x ",
"c 0 j k L k h h h h p h k h Z Z Z Z A A L J P P U T ^ s.s.s.s.s.s.s.s.s.s.W T U P P S S S Z Z Z b b k b j p p h h c j L Z v e j ",
"x 0 u k S S b b Z Z Z S S G S G L F P I I I I Y L A ^ s.s.s.s.s.s.s.s.s.s.W I D Q U Y I I I L F L L A S S S Z Z Z v A P z k 0 x ",
"g 0 k k P z b w 9 e r r q r r i i t p j j h v b L H Y s.s.s.s.s.s.s.s.s.s.L S F Z h v c h p i t t q q t r r e 9 e m k P k k r t ",
"f 6 k k z z l c t r t r s r f h i f f h i h c s D A I s.s.s.s.s.s.s.s.s.s.F F F f c c g h h t i h f t f t s s r t Z l J l k 0 f ",
"x : j k S l Z j f g g t i i p h v v j b j c v h v m L s.s.s.s.s.s.s.s.s.s.I D Z h c c p j v j v b p h h s s f f i Z k J k k 6 t ",
"j : j j A b v k t f t s f p h h j c p v c h c f m v L s.s.s.s.s.s.s.s.s.s.R Z m f c c c c j p v p f s h t s s s t b k J j i 0 t ",
"t ; j w J l c c r s s r f f s h i h h c h h c f c v E s.s.s.s.s.s.s.s.s.s.D Z m f c t h v j f h c f t i t s r s h v j J y j 6 r ",
"x : t r z k v x s s s e t s s f h t f h p f h f c c ] C s.s.s.s.s.s.s.s.s._ R c t g f i c i f h h t t t r s s s t k k J y i 0 d ",
"j : j w J k k t r e r e s s s f g f f h h t f f c t B ) s.s.s.s.s.s.s.s.) / g c s f t t h f h f f t s s 9 r s e t k k J y j 6 t ",
"e : j j z z k j a s a r t t s r i t s h t s f s x d / ) s.s.s.s.s.s.s.s.s.( f h e r s t h t f t f r t s r a s e t k y S i j 3 e ",
"e < r j k k k t e e 9 r t r r r f f s t f s s e f e , s.s.s.s.s.s.s.s.s.s., 4 h e s f s f s s t s r r t r e e e t j j S i i : 0 ",
"e - w t b k p h e a e e e r r d r f t t s a a e f t s s.s.s.s.s.s.s.s.s.s.a s g e a d a s s f t t s t e r 9 s e s h i S y t : 6 ",
"e - t t k j i s 9 9 e 6 r r r r r t r r r a a e d t m s.s.s.s.s.s.s.s.s.s.s i f 7 e e t t t s t r e e t 9 9 9 9 r h y A t i : 6 ",
"r - t t k j i t 9 9 0 7 e r r e r r t r t r t s e t f s.s.s.s.s.s.s.s.s.s.e q t r d t t e t t e e r r r 9 9 9 6 q h p S w t ; 0 ",
"t - q w l j i r e 9 e 0 t t f t f x f f p j j v j e t s.s.s.s.s.s.s.s.s.s.e e s j k j j c f f f x f t t r r e 9 r h t Z t t 2 e ",
"t - r r k p r s s i r i i i h c c v k H l l l Z A k r s.s.s.s.s.s.s.s.s.s.0 s b Z l z l l b k m c c j y t w t r r t q H t t : e ",
"x < w w j i r f h h Z h l Z Z S z z k j i t q 0 6 3 r s.s.s.s.s.s.s.s.s.s.7 0 3 0 0 t w u k k Z A A z z k b v p f t w k q t 2 r ",
"r = 7 w i l k p p k p y w q 0 0 0 6 0 6 e 0 e e e 3 7 s.s.s.s.s.s.s.s.s.s.6 6 6 e e 0 0 0 6 9 8 6 q q w y y u j j k l k 0 t ; e ",
"r = 7 0 q 8 1 < 2 1 1 8 6 0 0 e 0 q 0 8 3 ; ; - 3 : 7 s.s.s.s.s.s.s.s.s.s.5 3 3 - = ; 3 8 8 0 e e 0 6 6 6 3 : 1 1 : 6 0 q q = 7 ",
"e = 7 0 w 6 3 6 0 e 9 8 3 3 < - - = = = = = = = 2 2 6 s.s.s.s.s.s.s.s.s.s.4 5 2 & = = = % % % = - = : 3 8 8 9 0 7 3 3 t 0 e % 6 ",
"7 = 0 3 w 0 7 < = @ + + @ % = > < 1 5 2 : 1 < = > 1 7 s.s.s.s.s.s.s.s.s.s.4 2 2 % < 2 2 1 2 3 1 = = = % % + @ % - 3 0 y 0 e % 0 ",
"7 = : j w q 0 : + % % % 1 1 1 1 1 5 2 < 2 2 < = < = 6 s.s.s.s.s.s.s.s.s.s.4 < > $ = 1 2 1 1 3 2 1 2 1 1 % % % O % 7 3 w 0 q % 6 ",
"7 + : 3 q 0 6 3 % < & % = 3 1 = > 1 1 < 2 2 > o = % 2 s.s.s.s.s.s.s.s.s.s.> > > o = < 1 - < 2 < = < 3 ; % % * & ; 0 8 w 8 e # 6 ",
"e # : : : 8 : 3 % * * % = 1 1 = - < ; = - - = o = $ 2 s.s.s.s.s.s.s.s.s.s.= = % X = = < = - < < = < < - * % * * - 3 : q ; 8 @ 3 ",
"7 X ; ; 8 0 3 3 * * * % = < = > = = < = = = > X $ % > s.s.s.s.s.s.s.s.s.s.% $ = X $ % > % < - < = - - = % * % * 1 3 8 q ; : + 5 ",
"e o ; ; 0 0 6 1 * * * * % < - % = > - > % = = X % $ % s.s.s.s.s.s.s.s.s.s.# # % X $ > = % * < % % = - = * * % % < 6 3 0 ; 3 + 3 ",
"0 o ; ; 3 3 3 1 % % * % % - % % * % % % # % $ X # # # s.s.s.s.s.s.s.s.s.s.# + # . $ $ # # % % % $ = < = % * % % ; 3 1 0 ; : + 5 ",
"7 o 1 - : 8 1 2 $ $ % $ % % % % % % + + # + o . o X # s.s.s.s.s.s.s.s.s.s.o o # . X o X + + % % % % = % # % % # > 3 ; 8 & ; + 2 ",
"7 X - 1 : : 1 * # $ # # # % % % + % @ o o X .   . X + s.s.s.s.s.s.s.s.s.s.X X .   . . o o O $ # # % = # # # # # % 1 ; 8 ; ; o 2 ",
"0 o & & : ; ; % # # o # # $ % # o o O X o X X . X . X s.s.s.s.s.s.s.s.s.s.X .   . . X o X O o + o # $ # o # # # # 1 % 8 & ; o 4 ",
"7 X % & ; - - - X o . o o o $ # o o o o o o O o + X . s.s.s.s.s.s.s.s.s.s.  . o O o X o o O O O + + % X o X X X + 1 % 3 & < X 2 ",
"7 X % % ; - & % X X . X . o @ $ O O O O O @ @ % # X   s.s.s.s.s.s.s.s.s.s.  . o O @ @ O O O O O + % o X X X X X O ; @ 3 & - . 4 "
};
