/* XPM */
static char *animation2[] = {
/* columns rows colors chars-per-pixel */
"64 53 135 2 ",
"   c #160C01",
".  c #1B0F02",
"X  c #1E1103",
"o  c #231505",
"O  c #261906",
"+  c #2A1B07",
"@  c #241609",
"#  c #28170A",
"$  c #27190A",
"%  c #2B1D0C",
"&  c #301E0B",
"*  c #221A12",
"=  c #2C1D10",
"-  c #2E210D",
";  c #33230E",
":  c #39260E",
">  c #3B290E",
",  c #2D2212",
"<  c #2B2318",
"1  c #342512",
"2  c #382612",
"3  c #362814",
"4  c #3B2A13",
"5  c #362918",
"6  c #3C2D19",
"7  c #3F311A",
"8  c #422B0E",
"9  c #422E14",
"0  c #412E1A",
"q  c #453216",
"w  c #4B3516",
"e  c #4E3817",
"r  c #45331B",
"t  c #49361C",
"y  c #4C391D",
"u  c #533A17",
"i  c #593F17",
"p  c #523D1C",
"a  c #593E1B",
"s  c #463521",
"d  c #493720",
"f  c #473824",
"g  c #4D3B21",
"h  c #473D2D",
"j  c #513E21",
"k  c #583F23",
"l  c #56411E",
"z  c #5C431D",
"x  c #61461C",
"c  c #62491E",
"v  c #4E432D",
"b  c #554123",
"n  c #5B4523",
"m  c #5E4825",
"M  c #544229",
"N  c #5C4628",
"B  c #5D4A2A",
"V  c #4E4531",
"C  c #4D4839",
"Z  c #514632",
"A  c #534B39",
"S  c #614622",
"D  c #644B24",
"F  c #6A4E25",
"G  c #644D29",
"H  c #6A4F2B",
"J  c #714F24",
"K  c #675025",
"L  c #6C5225",
"P  c #66502C",
"I  c #6C522A",
"U  c #725326",
"Y  c #735827",
"T  c #73552C",
"R  c #79572A",
"E  c #74592E",
"W  c #7B5A2D",
"Q  c #674F31",
"!  c #6E5432",
"~  c #725632",
"^  c #755932",
"/  c #7C5C33",
"(  c #7C5E39",
")  c #7F6034",
"_  c #7F6139",
"`  c #5B5443",
"'  c #6F6C5B",
"]  c #825E2E",
"[  c #825E33",
"{  c #815F39",
"}  c #82602E",
"|  c #846135",
" . c #8B6436",
".. c #85623A",
"X. c #8B653B",
"o. c #8E693B",
"O. c #916537",
"+. c #91673A",
"@. c #946A3C",
"#. c #9B6D3D",
"$. c #9E703F",
"%. c #A1713F",
"&. c #886640",
"*. c #8D6943",
"=. c #946D43",
"-. c #9B6E41",
";. c #977145",
":. c #9C7244",
">. c #9D734A",
",. c #9F784A",
"<. c #A27344",
"1. c #AA7746",
"2. c #A67847",
"3. c #AA7947",
"4. c #A77748",
"5. c #A57949",
"6. c #AB7B4A",
"7. c #B37D4C",
"8. c #A67C53",
"9. c #AA7E54",
"0. c #897C66",
"q. c #BA814E",
"w. c #AE8050",
"e. c #B58554",
"r. c #BC8552",
"t. c #BD8856",
"y. c #C08652",
"u. c #C48A55",
"i. c #C28C5A",
"p. c #C98E59",
"a. c #CE925E",
"s. c #D1935E",
"d. c #D09460",
"f. c #D69965",
"g. c #D89A66",
/* pixels */
"b G Y W W [ [ [ O.O.@.-.-.<.2.1.1.6.7.7.7.7.q.u.7.u.7.u.a.s.f.9.=.g.d.a.p.q.y.q.y.r.7.7.7.7.7.1.1.2.<.#.#.@.@.O.[ [ [ / W R H M ",
"b K Y | T P H I I W ^ / [ { | X.X.+.+.=.@.#.#.<.<.<.-.<.=.r.g.8.=.g.i.-.,.-.<.:.:.-.@.-.@.@.+.O.X...{ [ [ ^ W T T I H F [ R L N ",
"y F Y | } W ] | { X.O.+.@.-.<.-.<.<.5.6.6.6.6.7.r.t.t.t.5.3.f.8.*.f.e.<.t.r.t.r.r.6.6.6.6.1.<.<.<.-.#.#.+.+.X.X.[ { [ ] o.R U b ",
"r D R [ ] W D m F F H T T U T W / / / / [ ] [ { {  .X.1.5.<.a.,.X.a.9.-.7. .X.X.| | | ( [ / / / ^ R T H T H F H F S W R  .R I g ",
"t K U } ] W E B B B P P H H I ! ! ~ ~ ^ ! ~ ^ ~ / ( I ;.:.<.p.:.X.p.w.@.5.T ( ( ^ ^ ~ ! ^ ^ ~ ~ H ~ I ! G Q G B B K | W  .U U j ",
"y I Y W W } W I I I E W ~ [ [ [ / [ { X.( { &.X.X.*.~ =.:.$.u.;.{ i.6.=.,.T { X...&...( &...{ [ ^ [ [ W E ^ I P I Y } R } Y T b ",
"l K Y ) W ] W G P P T E T R [ ~ ^ [ { ..( / { { X.&.I *.;.$.t.;.{ u.1. .>.H { *...../ / { ..[ ^ ^ [ W T E ^ I P P Y } R | Y T l ",
"t K I ) W ] E G P P ~ T T R / / ^ [ { ..( / { / ..{ I X.@.#.r.;.( t.<.X.-.H [ X.[ ( ( / { { { ^ / / T E T T P P P I ] W ] Y I l ",
"e L Y W R [ W G K B I E E E E / E ^ W ) / / / [ ( / I | @.+.7.*./ 7.<.{ o.H / { / / / ( / [ / T ^ W Y E T ~ G D K L [ R ] Y U l ",
"l K J ] R W Y S m G I E I E ^ E E ^ ) ^ / / / ( ( _ I | @.X.7.&.~ 9.#. .@.I ^ { ( / / ^ [ W / T E ^ E T I H G G D L ] Y ] U I j ",
"7 K J W R W T m D D P I L T E W E E ^ ^ ^ ^ E [ W / I ) o./ 6.X.^ 6.X.| X.H / / / ^ ^ T W ^ ^ E ~ E Y T I I G B m K } Y ] F L g ",
"y D L W R R T S N B G I I T T ^ Y E ) ^ E E E ^ ^ / I / X.W 4.&.~ 6...| ..H / ^ ^ ^ T ^ ^ ^ ^ E ^ E E I I G D D m K W Y } L L b ",
"v m K W Y R U D B D K K G L T E Y I ^ E E E E ^ / ^ K / ..W 2.( ! >. ./ ..K ~ ^ / E Y E ^ ^ T I E Y I K K K D B D L W U } U F j ",
"y m Y W U R U m B B B G G K U E I P E E T I I E E ~ m ^ | ] <./ Q <.| / | c T ~ ^ T I I T E L G E I K K K m B B m L Y J ] Y G j ",
"y K K Y U Y L n N B N D G F I I K I Y I E I I E ! E B ^ ( R -.( Q <...^ _ m ! T E I I ! I T I L I I K G K m B m m K R J ] F F g ",
"t c c W U U E n N N B D c G F I K K K I ! K P Y I ! N ! / Y #.( H -.( Y / M P E I I P Y I I I D K K K D m B N n n L Y J ] c G p ",
"t z F R L J L m B B G G G L F J H H I K E I I I I ~ B ! ^ E #.^ G #.( E ^ N ! T E I L T L I H F P L L G F S G N N G Y F ] c D u ",
"l z c Y K L I L I T I I ^ T ~ ^ W [ | W / | ) | ....) / ^ E +.^ G @./ ! ( / ..[ ) ) | | / [ [ / ^ T T W T H ! T I I Y c W D c p ",
"r z K Y Y D I I T T T T ^ W W ^ / W | [ [ | | | | [ | X./ L +.~ G  .E I o... .[ ..| | ] ] | / W / E ^ ^ W I T T I T F c ] c D y ",
"r l m L [ [ |  .X. . .O.+.@. .#.#.+.#.:.$.$.%.<.%.%.#.1.,./ | ~ N X.W $.3.%.#.<.<.:.$.#.$.$.@.#.:.+.+.+.X.O.O. .| | [ | R D n y ",
"r b n S a n S S S S S D D D F F F F F U U F J U U R J R R / { ! N | [ R R J R J U J J F J F H G F F F D c S S S S n S z S n z t ",
"q l n I S b k n k k m m D S D G D G G G F F F I I I ! P D F [ Q N { T n P I T H I I I H H G F D G G D S D S k k n M k z T D n w ",
"q b z U D n n n S S D D c F D F G G F U U U U U T U R T I F / ! N | T D W U T T I I L U L F F G F D D D F D D S S n n c Y c n r ",
"q l z J c S y 6 0 t w 0 r 9 0 r 0 s r t d g f f g d s D F D / G M W H D I y d g d g d y y t r r r r 9 r r 0 w 0 6 r n z Y z z y ",
"6 l z c c n z t d g g d j g b b k p j j b l j M M n y m K N ^ Q N E G m H t b n n j M b b p g b b j y g d d t d t p z z L z z y ",
"4 p z F z c z g g g g g p p j z N n b n n z k j n b g n m n E G M E D N G t n M M b b n n p n n n b p p p d j g j p c z L z l q ",
"4 e l F z m n y g g d y p p y k l l l l b b j j g b y n N m ^ B j ^ D b D d j j j g j z z p n k l j j k g t g g d p D z L i l 7 ",
"4 p i c z z b d y y d d j g y k j l b p n k g j b b y n N n E B j Y D n B d j j j g b b p p l p b g t j t d g d t k n l L i p q ",
"4 y e c c z p y s d d y y y t p p p j p b b j j g M t n n l ! A b ^ m l m t b g j g k n p j t j p y y y y r d d d y z z F u j r ",
"4 p u K z z p t t t d r d y d g g y j g p k y g d b t b n t ' ' ` 0.M l m r b g d j p k g j y p j d t d d r t r r y z z F i l 9 ",
": y l K z z y r r t s r d d y g j g g g j j y g g j r b b v ' ` C ' V y N r g g j d y j d g g j g t y g r s r d t y z i K i p 9 ",
": e y z z z l t s r r t y t t t g y y y y j d d h g r b M Z w.` ` ' V l M r d g d d y j g t g j t t t t y r s r r y z z c p p 4 ",
"; y e m n a u t r r r r y r d y y g g t y j d d g f 7 y M 5 A V V ` 6 l M 7 r f d d g g y y g y y d y y t t 0 s s t l l c p y 7 ",
"- y y z a p y 0 r s q r t t d d t b y y t g t y b y 7 y n 5 * < < * , y b 6 t g f s g y t y y y y r r t w 0 0 s 0 e l i D u p : ",
"; w y z a i y 0 6 r q r t y d r t y y y t d y s s s 7 l g y b f 7 b g y b 7 s f s d y r t t g y r y y t s 0 0 6 0 t p p D e e 4 ",
"; y y z p p u 0 0 6 5 r t r r r t t y r t y s s f 7 7 y y t n g s N y y g 7 7 s s r y y r y y r r r r t r 0 0 0 0 y b u D e e 4 ",
"; t t l p t t 0 r t w t t t d d y t t f y t y r f g r t y w j s 6 g e w y 7 d g d d y y t t t g f y t w t r w s 7 r e w m e b 3 ",
"; w t l y w y t d t t u p e j j b b l b l l p z l l n e t w y r 5 b y q y l m l z p p b j y k j b b l u p e e t e e t w z e t 3 ",
"- q t z z p p j k k n k z n n n n D n n m m m z z m m m l r d r 6 f r y D D m z n x S m D n S m N m z z n z k k b b l l z w t ; ",
"- q w t i a u i z z x x x x x c z c c z x x c c m z z z n j t s 6 y b z x z z z n c x x x c D x z z z c z x z x z e l l l t w ; ",
"- > w w 3 : ; > 2 2 4 2 4 2 4 9 7 > 7 7 > 4 4 q 7 7 > 3 3 q t 6 5 t r 3 : 4 q 7 7 4 9 q 4 9 4 4 9 4 : 4 2 > 2 2 > ; ; ; q w r ; ",
"- > 7 t q 7 6 6 7 q q r r r r t r r y q w y r r t w e t 7 4 r 5 5 r 7 3 r y t r r r t r w e t 0 t w r r r r 0 0 q 7 6 q u 9 0 ; ",
"o > w e w 0 ; ; ; : : : : 2 : 3 > > 1 > : 4 2 > ; 3 3 q 7 4 r 6 5 q 4 > q 6 3 3 3 : 4 : : 4 4 4 : > 4 ; : ; ; : - ; 4 q u w q ; ",
"X q q e q 9 : o o o o $ + + + - - - - + - + $ % - O - 1 4 3 q 5 < q 6 > 6 + + % + + + - % - + + % % + + % o @ o o - q q e 9 q + ",
"o > 4 q 9 9 > & + & 1 1 2 4 3 2 5 4 4 4 4 3 5 5 3 3 - 1 5 3 r 5 1 r 4 3 6 + 1 3 5 6 6 3 4 5 4 3 1 3 3 3 2 % % % % : 9 9 e 8 9 + ",
"o : : 8 9 4 4 & , % % + ; 4 3 ; ; : 5 5 2 3 5 2 ; , - - 3 1 6 5 < 6 4 1 3 + - ; 4 5 3 3 2 4 2 1 - > 4 3 & % = 1 % 2 4 8 q : > + ",
"o ; : 8 8 9 4 % = % % % 1 2 2 - & : 2 2 ; 2 5 4 1 ; # 1 1 ; 0 5 5 6 3 & 4 @ - 1 3 3 3 - : 3 2 - - 1 > ; % = = = & 2 4 9 w : 2 + ",
"o ; : q q 4 5 = = = % - - ; ; - - 2 1 : , 2 3 1 2 + o = ; = 5 1 , 6 1 $ 2 o % , 1 1 1 ; ; 2 1 ; - 1 1 - = $ = = = 1 4 8 w : 2 o ",
". : & 9 4 4 4 % % , = % ; 1 ; % - ; 1 1 - - 1 1 % % X % 1 + 6 1 1 5 , + 2 X $ = , 1 ; 1 2 1 1 ; - - ; - % = = = % 3 4 > q & > + ",
". ; & > 8 : 4 + = % % = = 3 1 & % , ; 1 - - - ; = $ X + % $ 2 < = 3 , $ 1 X @ = - - % % - ; ; % - - 1 - # = % % + 1 4 : 8 ; : o ",
"o & & 9 > 1 1 # + $ % $ % 1 % $ = % , - - = % , % $ X % - @ 3 * % 1 % $ , . @ = 1 - % % - , % = % % ; - = $ + $ @ 1 2 ; q & : o ",
"X & & 8 : 1 & @ @ @ + $ + & % = % - + + $ + % % = @   @ - @ 1 % $ - + $ +   @ = % + # % + + % # % + - - $ $ @ $ @ % 2 ; 9 & & o ",
"  % & > ; ; & o o @ $ @ $ % = + + % % O + $ o = $ @   o % $ - @ X , + X +   X $ % o o % o % % + $ % % $ o $ @ O o + : & 9 & & X "
};
