/* XPM */
static char *animation6[] = {
/* columns rows colors chars-per-pixel */
"64 53 152 2 ",
"   c #140C02",
".  c #1A0F02",
"X  c #1D1103",
"o  c #231505",
"O  c #281704",
"+  c #261806",
"@  c #291A07",
"#  c #241609",
"$  c #26190A",
"%  c #2B1C0C",
"&  c #311E0C",
"*  c #2C1D10",
"=  c #2F210D",
"-  c #33230E",
";  c #39250E",
":  c #36290F",
">  c #3C290F",
",  c #2E2212",
"<  c #342512",
"1  c #382713",
"2  c #362814",
"3  c #3B2A14",
"4  c #312619",
"5  c #362918",
"6  c #3D2D19",
"7  c #3F3016",
"8  c #3F311A",
"9  c #3B3225",
"0  c #3F3729",
"q  c #432C0F",
"w  c #412E14",
"e  c #412F1A",
"r  c #453216",
"t  c #4A3416",
"y  c #4F3917",
"u  c #45331B",
"i  c #49361C",
"p  c #46391E",
"a  c #4C391D",
"s  c #503716",
"d  c #543B17",
"f  c #593E15",
"g  c #503718",
"h  c #533D1C",
"j  c #583F1D",
"k  c #463521",
"l  c #493621",
"z  c #443923",
"x  c #4D3B21",
"c  c #433C2F",
"v  c #4B3E28",
"b  c #513E21",
"n  c #55401E",
"m  c #5B431D",
"M  c #62461D",
"N  c #63491F",
"B  c #4F4125",
"V  c #554123",
"C  c #5B4523",
"Z  c #5E4926",
"A  c #524028",
"S  c #5B4628",
"D  c #5E4A29",
"F  c #524939",
"G  c #614622",
"H  c #644B24",
"J  c #694D24",
"K  c #644C29",
"L  c #6A4F2A",
"P  c #704F26",
"I  c #6C5126",
"U  c #67502A",
"Y  c #6C522A",
"T  c #725326",
"R  c #765827",
"E  c #73552C",
"W  c #7A562B",
"Q  c #74592D",
"!  c #7B5A2C",
"~  c #634E31",
"^  c #684F31",
"/  c #6B5031",
"(  c #735631",
")  c #785732",
"_  c #765A32",
"`  c #7C5C33",
"'  c #7D5D39",
"]  c #7F6035",
"[  c #7C613A",
"{  c #575243",
"}  c #5F5A4A",
"|  c #605847",
" . c #6C614E",
".. c #6F6C59",
"X. c #746B57",
"o. c #716E5D",
"O. c #77715D",
"+. c #7F7662",
"@. c #815C2D",
"#. c #825E33",
"$. c #805E39",
"%. c #83602E",
"&. c #846134",
"*. c #8A6336",
"=. c #85623A",
"-. c #8B653A",
";. c #8E683E",
":. c #946837",
">. c #926639",
",. c #936A3C",
"<. c #9B6E3E",
"1. c #9D713F",
"2. c #876740",
"3. c #8B6742",
"4. c #8D6943",
"5. c #8D6E4D",
"6. c #956E42",
"7. c #9B6E41",
"8. c #906C48",
"9. c #977142",
"0. c #9D7243",
"q. c #96724D",
"w. c #9D744A",
"e. c #8D6E50",
"r. c #8F7151",
"t. c #917252",
"y. c #A27444",
"u. c #A87544",
"i. c #A67847",
"p. c #AB7947",
"a. c #A17648",
"s. c #A5794A",
"d. c #AC7C4B",
"f. c #B37E4C",
"g. c #A57C53",
"h. c #AA7E51",
"j. c #B6804E",
"k. c #B8814F",
"l. c #AC8155",
"z. c #AC8258",
"x. c #B48454",
"c. c #BB8552",
"v. c #BD8856",
"b. c #C48A56",
"n. c #C28B59",
"m. c #C88F5B",
"M. c #CC915E",
"N. c #CB9361",
"B. c #D29763",
"V. c #D59965",
"C. c #D99B67",
"Z. c None",
/* pixels */
"B H E ! ! #.*.$.:.7.0.y.w.s.h.w.g.h.x.h.z.z.l.g.t.q.8.8.r.5.r.Z.Z.Z.5.t.r.r.q.q.g.g.z.z.h.x.f.h.w.g.s.w.i.y.7.>.$.>.*.! ! W L A ",
"A H T ! ! U L E ( @.#.#.*.*.,.7.<.7.u.d.d.f.f.c.c.c.c.v.M.M.B.g.5.V.N.N.n.j.c.k.v.f.d.d.p.i.7.7.7.6.-.*.#.#.` W E L U T #.E U A ",
"B H Q ] *.Q ` ] $.$.#.#.*.-.,.4.6.7.6.6.6.0.,.7.y.a.0.0.1.j.C.g.6.V.n.0.a.y.u.a.0.7.9.9.7.7.6.6.,.6.-.-.-.#.#.' $.` ) &.*.W I B ",
"8 Z T ! &.! E U P W #.$.#.#.>.>.,.7.0.a.u.i.p.f.j.c.v.x.l.y.B.g.3.V.x.y.v.k.k.j.f.d.s.i.i.0.<.<.,.>.*.#.#.` W ( E L ! #.%.E U p ",
"8 H T ! &.! ! S S S D D K K K K L ^ Y / Y E _ ) ` #.&.1.d.1.M.w.=.M.d.y.d.&.@.' ` ) ( Y E Y Y U K K K K D S S S S T ! %.%.T L a ",
"p U R ! %.! %.Y U U E _ ) ` @.$._ ' ` =.' ` ' $.' =.E -.w.0.m.w.=.M.h.9.0.Q =.$.[ [ ) ' $.' ' ` ` #.` _ ) Q L Y Y ] ! @.%.R T a ",
"a J R ! %.R %.U U U Y ! E W ` #.Q #.#.=.$.$.=.=.3.3.) =.w.:.b.q.=.b.i.,.7.E -.*.=.=.' $.=.#.#._ ` @.! E ! E U U U R ` @.@.R I x ",
"B m T R ] ! @.I U U Y _ E ) W ` ) ' #.&.' ` $.#.=.;.E ] 0.:.b.9.$.b.a.>.8.E =.-.$.$.` $.=.#.' _ ) ` W _ Q E U ~ U _ @.! %.E I x ",
"a N T W @.! #.I U D U Q E Q ! ! ] Q ] ] ] ` ' ' [ =.Y ] 1.-.c.4.' c.0.-.;.L ' $.' &.` ` &.` ` _ ! Q Q Q Q Y K U U R ! ! %.R I B ",
"p H T R ! Q ! U K D U Q Y Q _ _ Q Q ` ` ' ` ` ` ` ` Q ` ,.*.j.3.' f.<.-.;.E ` #.' ` [ ` &.! ! E ] Q Q Q E U Z K U ! ] ! ! T I p ",
"u m I R @.Q ! G Z D U I U T E ) E _ ` _ ` ! _ ` ` ' Q ! ,.&.d.2.( f.,.-.-.U ` ` ] _ _ ` ` ) _ E _ Q Y Y I U H D N R R ! ! T U p ",
"z H T R ! R ! H Z D K U Y T E _ E Q _ _ Q Q E ` ! ' Y E ,.! i.2.( l.*.&.=.U ` ` ` _ E E ) ) Q ( _ Q Q T Y H D H Z R R R @.I I z ",
"B Z I R ! T ! H Z D K U I U T E E E ! Q _ E E ( ` ` U E -.! a.=.( i.*.&.] H ` ` _ E Q ] Q Q E E Q Y Y U U U Z Z H E R W @.I N n ",
"z C I R W T Q H K K G H U U T E Y U Q Q Q Y Q _ ) ( U E -.! y.' L a.*.` ] H E _ _ Q Y Q Q Q Y Y ( Y Y H J Z Z D H E R T ! I H z ",
"a Z I R R T Q Z S Z S G J H L Y I U Y E E Y Y ( ( _ K Y =.! 7.' ^ y.&.` ' Z E ( Q Q Y Q Y E U U Q I H U H Z C D S T R T W J H B ",
"t m H I ! I Q D C C D D H H I U I U I Y Y Q U Y Q ( S Y #.W ,.' L 0.&._ _ S / E / U Y Y U Y I H I U H N D D C S Z T R R R H K t ",
"t C N T ! J T K S D D K G K J L I L I I Y Y U I E E D U ` E ,.' K 0.` _ ( S / E E U I E I J J K I U J H H K S S K U I R W J G i ",
"i m N T E N Y I I E Y Y E E ) E Q ) ! ] ` ] ` ` ' [ [ Y ' E ,._ K ,.` ( _ ( =.&.` ` ' ) ` ` ` W Q Q E Q Y L Y Y U E U T R N G y ",
"u n H I ! H Y I L E E T ) Q E Q ` ! ] &.#.#.&.&.&.#.&.=.' U :.( S ,.Q E *.&.#.#.&.' #.#.#.#.` ` _ ! ! _ E E ) P I U H E ! N G p ",
"p n C J &.*.&.*.*.-.-.-.,.,.>.,.<.,.,.1.0.0.<.y.y.7.<.u.0.! *./ S -.! ,.i.1.<.7.y.0.<.0.y.7.>.6.,.*.,.;.*.,.*.*.-.&.&.&.T C C i ",
"8 h C H m m G G G G J J J J P T T L W W W W @.@.@.@.W @.#.#.#./ S &.` #.#.@.@.@.@.@.! R @.W P E E I J J J J J G M N G M H C C u ",
"6 y C H J V b C C b C S H C H G K G K K J H J K K L Y L G J &.^ C =.E G K I J L K K J J K K G G K G C Z C C b b S V V N I C n u ",
"6 h N J I G C G G G H J J H J J K L J T E T P E T E ! W E H #./ V &.E J ! W Q E E Y Y E T J L J U H J J J J M G G C Z J T m n u ",
"6 n m J J m n e w u t t u e e u u u u a a i x x x x a C E G ) ^ S ` U H U g x x x x a a y u p u u r r u u u u e 8 y m N I m m u ",
"3 n m N J m m a l l x a i h l b b b j b V n b V S V x V U S ! ~ C ` U G K x C A C v b C n h h V b b b g u b a l i V m N J M m 6 ",
"2 y m N J m H g x x z a h b b j G C C m C m b b V C a m H C E L V _ G C G x C V b b C C m m C C C b b b a l x x x C Z N J m m 3 ",
"3 t h H H m G l x x x a b h b b n V C n m C b b V V x m K V _ D A Q K C Z l V V b b C G j V n j b x g b a l l b a C C M I h h 3 ",
"2 t d M J n C a i l a i b h l b V b n h b C b b B A a n D C Y D A E Z m S a V x b b V b h h n b b a a b a i b l i C m M J f h 3 ",
"2 a y m J m C a l l i p a a a i h b b x b C g x x A a n H h [ D V  .D C C i b v b h b b a b g b g a a a i u l l p f m M N s h 3 ",
"; a h M J n n l u p i i l l a l b a g x j j b x z V z a Z u X. .F +.v b C p b x l b b h a b b b x a l l l u l u p n m M J d j 3 ",
"- t h m N f n i u i l i a x a a x a x x x b x a b x l h C z ..} F O.z b V k x b b l b b l b l b x i x l u k l u u j m M H d h ; ",
"- t h m N f m i l u u u i i u l x b a a x b l l x x p l S u X.} F O.z b V u x x l l l b l i b a i i a a i u u u p j n M N h a : ",
"= r h n G j j i u u u u i i l l a x x i a V l l v l u t S 2 9 c 9 c 4 n B 7 p l l l B x a l b a u l i i u l u u l h h m N y a < ",
"@ u y n N d b u u k u r i i l l i x g a p x l l l l 8 u V 6 < 4 4 2 8 z n 7 k l l l a p a a x i l i i i u e k e e j j m m h t - ",
"= t t n H h b u e e u 6 u i i u u a l a i i k k l l 8 p b i S x k C n a B 6 k k k k a p p a i i u i i i e e e e e g j m m a y - ",
"= r y n G t b u 6 e e u r i p i i i y u p i a k k k u u h u b k u V a y a 6 k k u p i i p i i i p p p u e e e e e h g C m a t 2 ",
"- r t m b g h e e u u g y i a l x x x g a x h x x V B t a u x u 6 x a t t a V h b x a a x a b x a a i y a u u e u p a j Z t a : ",
"- r p n G r i u l b i h h y b b g V n b n n n f n n m n a r a p 8 x t r V m m n f n m V h h V j b b y h g g g b i i u f m t t : ",
"= r u y G j b b b C G G M H G K H H U H J J N H N N J J J h a 6 5 a y C I N H M H J J J H U H H H G H H H G C C V b h Z m r i = ",
"O 3 i i d f j d d d f f f h f f f d n s y s y y y t r r w a l 9 5 a i r t t r i a t s y y f s h h f h s d f d d s d f n t u r = ",
"O : u t 6 1 < < 1 1 2 3 6 6 2 w 6 6 r u 6 u 6 6 8 u u 8 7 2 u 6 4 i 6 1 7 u r 7 8 6 8 r u 6 6 6 e 6 3 6 3 3 1 1 2 1 < 2 i u w @ ",
"O 3 u t y 6 e e e e u r u t u u u u r r r t e u r 7 7 t u : u 6 4 u 6 3 u r r u r u u r t r u r u e t t u u e e e 6 r i t u w % ",
"o 3 r t y e 1 @ % % O @ % @ % % @ = @ % @ % % @ = $ = = 3 < u 2 < u 3 1 3 = % $ % @ % @ $ % % % % @ + % & @ + % % - r r y r r O ",
"X : r t t w w % O $ # % - - - 1 - 1 1 2 2 < 1 1 2 , = = 7 - u 4 < u 2 : 2 $ < < 2 1 2 2 2 1 ; - , < < - % # % + O 3 w r t r e o ",
"X ; 3 q t w e & & % - - 1 3 2 2 2 2 2 2 2 4 2 2 < 2 = = 1 < u 4 4 6 1 < 1 @ < < 2 3 2 2 6 2 1 2 ; 3 3 2 - - % % = 7 q t t > w o ",
"X - > > r 1 3 < , , % % & 2 2 - - ; 3 2 ; ; 2 3 2 2 $ = 2 - 6 4 , 6 2 - 2 + , < 5 5 4 : 2 2 1 = = 2 2 - % % % , = : 3 q q ; ; o ",
"X - ; q t 3 3 , * % % % = 1 2 - % - 1 ; - = 2 2 < = # @ < % 6 4 , 5 2 % - X = < < 2 2 = ; ; < = = 2 2 - % * % % % : 3 r q ; ; o ",
". & ; q e 3 e & * * * % % - - - = - : 2 - = 1 1 = % o + < % 3 , , 5 < % - X % % = 2 = = ; ; < = = < - = % * * % = 7 3 3 r ; ; o ",
". - - ; w 1 w - % * * * * 1 - & % - - - < % , - % * X # , $ 2 , % 2 % % , X * % & - % * < - , % = - 2 % % * * % & 3 3 q q ; ; X ",
". & ; - w < 1 * % % * * % < - % % % - < = % % - & % X $ < $ 1 % $ 1 $ % & . # = - % % * - < & % % = 2 % * * % # % 2 ; 3 > - ; X ",
". & & ; q & 1 % # @ % $ % % & * $ % % % % % % % * * . X = X , $ $ , + $ $   # * % % @ % % % % % % = - % # @ % # # 1 ; : q & - o ",
". & & ; q , < O # # # # # % % % % % = @ % # o # $ # . o , X , $ X % $ $ # . # $ $ O @ + + % % + % % % $ # # o # # & ; ; 1 & - X ",
"  % & ; ; & - o o X # # # % * * + $ % @ $ $ $ $ # X   X % X % # # $ $ X +   X o # o o o O @ % + $ * $ # # # # # o & - - w & &   "
};
