/* XPM */
static char *animation36[] = {
/* columns rows colors chars-per-pixel */
"64 53 106 2 ",
"   c #170E03",
".  c #190F02",
"X  c #1D1204",
"o  c #231505",
"O  c #251907",
"+  c #281907",
"@  c #241608",
"#  c #261809",
"$  c #2B1C0B",
"%  c #301E0C",
"&  c #2F200D",
"*  c #33220E",
"=  c #39260F",
"-  c #3F2C0F",
";  c #2E2210",
":  c #2E2A1B",
">  c #342512",
",  c #382612",
"<  c #372814",
"1  c #3D2B14",
"2  c #352B1B",
"3  c #3A2C19",
"4  c #3E311E",
"5  c #3A3324",
"6  c #422F15",
"7  c #412E18",
"8  c #453216",
"9  c #4A3516",
"0  c #4E3917",
"q  c #45331A",
"w  c #49371B",
"e  c #4D391C",
"r  c #503815",
"t  c #533D1D",
"y  c #443521",
"u  c #493720",
"i  c #4D3B22",
"p  c #413D2E",
"a  c #513E21",
"s  c #56411E",
"d  c #5B431E",
"f  c #60481F",
"g  c #4E412B",
"h  c #554122",
"j  c #5C4522",
"k  c #5E4924",
"l  c #52432A",
"z  c #59462A",
"x  c #5D492C",
"c  c #464435",
"v  c #4D4431",
"b  c #4D4836",
"n  c #4C4A3B",
"m  c #554B35",
"M  c #504A39",
"N  c #644722",
"B  c #644B24",
"V  c #694E26",
"C  c #644D29",
"Z  c #694F29",
"A  c #6C5126",
"S  c #66512F",
"D  c #6D522A",
"F  c #755527",
"G  c #72552B",
"H  c #78562B",
"J  c #75592E",
"K  c #7B5A2D",
"L  c #624D30",
"P  c #655136",
"I  c #6D5434",
"U  c #735732",
"Y  c #765931",
"T  c #7C5B33",
"R  c #735A39",
"E  c #7B5F3C",
"W  c #7F6035",
"Q  c #7C6446",
"!  c #835D2F",
"~  c #815E33",
"^  c #815E39",
"/  c #856135",
"(  c #8A6335",
")  c #83623B",
"_  c #8C663A",
"`  c #8E683A",
"'  c #92693C",
"]  c #986D3F",
"[  c #816342",
"{  c #886740",
"}  c #876946",
"|  c #8D6A42",
" . c #896B49",
".. c #946D42",
"X. c #9B7243",
"o. c #94734E",
"O. c #9B7549",
"+. c #A27444",
"@. c #A87847",
"#. c #A1774C",
"$. c #A4784B",
"%. c #AC7B4A",
"&. c #A27C54",
"*. c #AA8056",
"=. c #B28151",
"-. c None",
/* pixels */
"I S i -.-.-.-.-.-.-.-.-.-.-.-.-.-.-.-.-.-.-.-.-.-.-.-.-.-.-.-.-.-.-.-.-.-.-.-.-.-.-.-.-.-.-.-.-.-.-.-.-.-.-.-.-.-.-.-.-.-.-.i x ",
"G D C P -.-.-.-.-.-.-.-.-.-.-.-.-.-.-.-.-.-.-.-.-.-.-.-.-.-.-.-.-.-.-.-.-.-.-.-.-.-.-.-.-.-.-.-.-.-.-.-.-.-.-.-.-.-.-.-.x P h k ",
"D S C J R -.-.-.-.-.-.-.-.-.-.-.-.-.-.-.-.-.-.-.-.-.-.-.-.-.-.-.-.-.-.-.-.-.-.-.-.-.-.-.-.-.-.-.-.-.-.-.-.-.-.-.-.-.-.U T D l k ",
"D A B K K ) -.-.-.-.-.-.-.-.-.-.-.-.-.-.-.-.-.-.-.-.-.-.-.-.-.-.-.-.-.-.-.-.-.-.-.-.-.-.-.-.-.-.-.-.-.-.-.-.-.-.-.-.{ T J D h k ",
"D B B K K K ' Q -.-.-.-.-.-.-.-.-.-.-.-.-.-.-.-.-.-.-.-.-.-.-.-.-.-.-.-.-.-.-.-.-.-.-.-.-.-.-.-.-.-.-.-.-.-.-.-.-.| / K W G e k ",
"D B V K K / / X.o.-.-.-.-.-.-.-.-.-.-.-.-.-.-.-.-.-.-.-.-.-.-.-.-.-.-.-.-.-.-.-.-.-.-.-.-.-.-.-.-.-.-.-.-.-.-.-.O.` / K K G l k ",
"F B V ! A B ( ] +.*.-.-.-.-.-.-.-.-.-.-.-.-.-.-.-.-.-.-.-.-.-.-.-.-.-.-.-.-.-.-.-.-.-.-.-.-.-.-.-.-.-.-.-.-.} $.] ` H f K F s k ",
"D A V K J C A ( +.+.*.-.-.-.-.-.-.-.-.-.-.-.-.-.-.-.-.-.-.-.-.-.-.-.-.-.-.-.-.-.-.-.-.-.-.-.-.-.-.-.-.-.-.&.%.+...J S D K G h k ",
"D A B K G D J G / +.=.o.-.-.-.-.-.-.-.-.-.-.-.-.-.-.-.-.-.-.-.-.-.-.-.-.-.-.-.-.-.-.-.-.-.-.-.-.-.-.-.-.-.#.%.' J J J A K G h d ",
"D B A K G A J T Y W $.o.-.-.-.-.-.-.-.-.-.-.-.-.-.-.-.-.-.-.-.-.-.-.-.-.-.-.-.-.-.-.-.-.-.-.-.-.-.-.-.-.-.#.' T T K G D K J h k ",
"G B B K G V J T ) ) .. .-.-.-.-.-.-.-.-.-.-.-.-.-.-.-.-.-.-.-.-.-.-.-.-.-.-.-.-.-.-.-.-.-.-.-.-.-.-.-.-.-...^ ^ T T D A K D w j ",
"G B k K A V G T T ^ | } -.-.-.-.-.-.-.-.-.-.-.-.-.-.-.-.-.-.-.-.-.-.-.-.-.-.-.-.-.-.-.-.-.-.-.-.-.-.-.-.-...) E T Y D B K S w k ",
"G V B H D B D Y T T _ [ -.-.-.-.-.-.-.-.-.-.-.-.-.-.-.-.-.-.-.-.-.-.-.-.-.-.-.-.-.-.-.-.-.-.-.-.-.-.-.-.-. .W W J J D V F D e d ",
"G V d K D N D Y T T ) E -.-.-.-.-.-.-.-.-.-.-.-.-.-.-.-.-.-.-.-.-.-.-.-.-.-.-.-.-.-.-.-.-.-.-.-.-.-.-.-.-.W T T J G V B K D w k ",
"F B f K A k D J U Y ) E -.-.-.-.-.-.-.-.-.-.-.-.-.-.-.-.-.-.-.-.-.-.-.-.-.-.-.-.-.-.-.-.-.-.-.-.-.-.-.-.-.W W Y J D C V F A w d ",
"D B d F D N B D U Y W R -.-.-.-.-.-.-.-.-.-.-.-.-.-.-.-.-.-.-.-.-.-.-.-.-.-.-.-.-.-.-.-.-.-.-.-.-.-.-.-.-.W G Y J D B B F B s B ",
"H B d F A k C A D U T I -.-.-.-.-.-.-.-.-.-.-.-.-.-.-.-.-.-.-.-.-.-.-.-.-.-.-.-.-.-.-.-.-.-.-.-.-.-.-.-.-.R J U D D k B G V e A ",
"G B d D V k C V D I Y I -.-.-.-.-.-.-.-.-.-.-.-.-.-.-.-.-.-.-.-.-.-.-.-.-.-.-.-.-.-.-.-.-.-.-.-.-.-.-.-.-.Y D D D V N B D B e V ",
"H k d A D D D D G D U I -.-.-.-.-.-.-.-.-.-.-.-.-.-.-.-.-.-.-.-.-.-.-.-.-.-.-.-.-.-.-.-.-.-.-.-.-.-.-.-.-.U Z U D D G D A B 0 B ",
"G B d K J K Y K ^ T T P -.-.-.-.-.-.-.-.-.-.-.-.-.-.-.-.-.-.-.-.-.-.-.-.-.-.-.-.-.-.-.-.-.-.-.-.-.-.-.-.-.U T T T Y J J K k s B ",
"J k t V K / _ ' ' ' _ L -.-.-.-.-.-.-.-.-.-.-.-.-.-.-.-.-.-.-.-.-.-.-.-.-.-.-.-.-.-.-.-.-.-.-.-.-.-.-.-.-.Y ' ' ' ` ( K F j w B ",
"H N s k s d f V H ~ _ C -.-.-.-.-.-.-.-.-.-.-.-.-.-.-.-.-.-.-.-.-.-.-.-.-.-.-.-.-.-.-.-.-.-.-.-.-.-.-.-.-.T ! ! F B j s d j w B ",
"H k t V N B V Z Z Z U x -.-.-.-.-.-.-.-.-.-.-.-.-.-.-.-.-.-.-.-.-.-.-.-.-.-.-.-.-.-.-.-.-.-.-.-.-.-.-.-.-.Z D Z V V B B B k 0 B ",
"G N t V 0 9 0 t j j Z m -.-.-.-.-.-.-.-.-.-.-.-.-.-.-.-.-.-.-.-.-.-.-.-.-.-.-.-.-.-.-.-.-.-.-.-.-.-.-.-.-.C C j h 0 e 0 d j 9 A ",
"G k s k s w w i i i z l -.-.-.-.-.-.-.-.-.-.-.-.-.-.-.-.-.-.-.-.-.-.-.-.-.-.-.-.-.-.-.-.-.-.-.-.-.-.-.-.-.x i i i i w e N k 9 C ",
"G j s B h i i j z h j l -.-.-.-.-.-.-.-.-.-.-.-.-.-.-.-.-.-.-.-.-.-.-.-.-.-.-.-.-.-.-.-.-.-.-.-.-.-.-.-.-.x l j h h i a d d 9 B ",
"F d 9 d s u w h h h h g -.-.-.-.-.-.-.-.-.-.-.-.-.-.-.-.-.-.-.-.-.-.-.-.-.-.-.-.-.-.-.-.-.-.-.-.-.-.-.-.-.z a a h a i t j s 8 C ",
"F d s B h w w h a a h g -.-.-.-.-.-.-.-.-.-.-.-.-.-.-.-.-.-.-.-.-.-.-.-.-.-.-.-.-.-.-.-.-.-.-.-.-.-.-.-.-.z a a h e w e d d 9 B ",
"G d 9 d s w u i i i i M 5 -.-.-.-.-.-.-.-.-.-.-.-.-.-.-.-.-.-.-.-.-.-.-.-.-.-.-.-.-.-.-.-.-.-.-.-.-.-.-.p m e a i e w w d s q B ",
"F d s f s 4 w i i i i n n -.-.-.-.-.-.-.-.-.-.-.-.-.-.-.-.-.-.-.-.-.-.-.-.-.-.-.-.-.-.-.-.-.-.-.-.-.-.c n v u i i u w w d d 0 B ",
"D s 0 d s q w e i i y 2 -.-.-.-.-.-.-.-.-.-.-.-.-.-.-.-.-.-.-.-.-.-.-.-.-.-.-.-.-.-.-.-.-.-.-.-.-.-.-.-.-.5 w i i e w w d t 8 B ",
"D d 9 d 9 4 w e i u u 2 -.-.-.-.-.-.-.-.-.-.-.-.-.-.-.-.-.-.-.-.-.-.-.-.-.-.-.-.-.-.-.-.-.-.-.-.-.-.-.-.-.y u u i w q 9 d s - B ",
"A s q s e q q w u w w 5 -.-.-.-.-.-.-.-.-.-.-.-.-.-.-.-.-.-.-.-.-.-.-.-.-.-.-.-.-.-.-.-.-.-.-.-.-.-.-.-.-.y q y e w q 8 s t 1 k ",
"F s 8 j w 7 q q w u w 3 -.-.-.-.-.-.-.-.-.-.-.-.-.-.-.-.-.-.-.-.-.-.-.-.-.-.-.-.-.-.-.-.-.-.-.-.-.-.-.-.-.y u u w w q 8 s 0 1 N ",
"A s 8 s w 7 9 i a h h 4 -.-.-.-.-.-.-.-.-.-.-.-.-.-.-.-.-.-.-.-.-.-.-.-.-.-.-.-.-.-.-.-.-.-.-.-.-.-.-.-.-.w h a u w q q d e 1 B ",
"F s 8 t w 0 t h k N s 3 -.-.-.-.-.-.-.-.-.-.-.-.-.-.-.-.-.-.-.-.-.-.-.-.-.-.-.-.-.-.-.-.-.-.-.-.-.-.-.-.-.8 d N j a e q h e q k ",
"A d 8 e 9 t f N s 8 4 > -.-.-.-.-.-.-.-.-.-.-.-.-.-.-.-.-.-.-.-.-.-.-.-.-.-.-.-.-.-.-.-.-.-.-.-.-.-.-.-.-.3 7 0 d f d e w w q k ",
"A s 8 d d d r 6 q q 1 > -.-.-.-.-.-.-.-.-.-.-.-.-.-.-.-.-.-.-.-.-.-.-.-.-.-.-.-.-.-.-.-.-.-.-.-.-.-.-.-.-.< 3 q 8 8 s j d w q j ",
"A d - e 6 1 1 q 1 & > 2 -.-.-.-.-.-.-.-.-.-.-.-.-.-.-.-.-.-.-.-.-.-.-.-.-.-.-.-.-.-.-.-.-.-.-.-.-.-.-.-.-.; ; ; 1 8 1 - 0 q 1 j ",
"D h 1 1 1 q < & ; > < ; -.-.-.-.-.-.-.-.-.-.-.-.-.-.-.-.-.-.-.-.-.-.-.-.-.-.-.-.-.-.-.-.-.-.-.-.-.-.-.-.-.> > > & * - 1 1 8 1 k ",
"D h < 9 , + $ > 1 < ; > -.-.-.-.-.-.-.-.-.-.-.-.-.-.-.-.-.-.-.-.-.-.-.-.-.-.-.-.-.-.-.-.-.-.-.-.-.-.-.-.-.; * < < & + & 8 8 < k ",
"D s 1 8 * $ > > > > $ ; -.-.-.-.-.-.-.-.-.-.-.-.-.-.-.-.-.-.-.-.-.-.-.-.-.-.-.-.-.-.-.-.-.-.-.-.-.-.-.-.-.$ $ > > < & + - 8 < j ",
"S t < 9 , $ * * > & # ; -.-.-.-.-.-.-.-.-.-.-.-.-.-.-.-.-.-.-.-.-.-.-.-.-.-.-.-.-.-.-.-.-.-.-.-.-.-.-.-.-.# $ * * * & & 8 6 < k ",
"A e > 8 , $ % * ; $ @ @ -.-.-.-.-.-.-.-.-.-.-.-.-.-.-.-.-.-.-.-.-.-.-.-.-.-.-.-.-.-.-.-.-.-.-.-.-.-.-.-.-.# @ > * & & & 1 < < k ",
"Z e % 6 = $ $ & $ $ o @ -.-.-.-.-.-.-.-.-.-.-.-.-.-.-.-.-.-.-.-.-.-.-.-.-.-.-.-.-.-.-.-.-.-.-.-.-.-.-.-.-.@ @ $ & * $ $ 6 = = j ",
"V 0 % 6 = $ ; $ $ @ X X -.-.-.-.-.-.-.-.-.-.-.-.-.-.-.-.-.-.-.-.-.-.-.-.-.-.-.-.-.-.-.-.-.-.-.-.-.-.-.-.-.X o @ $ * $ & - = = j ",
"V t % 6 > $ $ $ $ o . X -.-.-.-.-.-.-.-.-.-.-.-.-.-.-.-.-.-.-.-.-.-.-.-.-.-.-.-.-.-.-.-.-.-.-.-.-.-.-.-.-.X . o $ $ $ $ 1 = = j ",
"Z 0 % 1 & # $ # O X .   -.-.-.-.-.-.-.-.-.-.-.-.-.-.-.-.-.-.-.-.-.-.-.-.-.-.-.-.-.-.-.-.-.-.-.-.-.-.-.-.-.. . o + # + $ < * = j ",
"Z e % 6 % + # # o o O   -.-.-.-.-.-.-.-.-.-.-.-.-.-.-.-.-.-.-.-.-.-.-.-.-.-.-.-.-.-.-.-.-.-.-.-.-.-.-.-.-.X o o o @ + + = = * j ",
"N e $ = + o o @ o + O -.-.-.-.-.-.-.-.-.-.-.-.-.-.-.-.-.-.-.-.-.-.-.-.-.-.-.-.-.-.-.-.-.-.-.-.-.-.-.-.-.-.  @ O o + X o * % * j ",
"N 0 $ % + X o # % + -.-.-.-.-.-.-.-.-.-.-.-.-.-.-.-.-.-.-.-.-.-.-.-.-.-.-.-.-.-.-.-.-.-.-.-.-.-.-.-.-.-.-.-.X $ + + . o * % = s ",
"N w $ = + X # % $ -.-.-.-.-.-.-.-.-.-.-.-.-.-.-.-.-.-.-.-.-.-.-.-.-.-.-.-.-.-.-.-.-.-.-.-.-.-.-.-.-.-.-.-.-.-.@ * $ X X * $ = s ",
"N a % % @ + % % o -.-.-.-.-.-.-.-.-.-.-.-.-.-.-.-.-.-.-.-.-.-.-.-.-.-.-.-.-.-.-.-.-.-.-.-.-.-.-.-.-.-.-.-.-.-.-.O * + o % % * s "
};
