/* XPM */
static char *_be5cc6587e94836f254a5895b5ea041CPSJyprfF22ZtFzz[] = {
/* columns rows colors chars-per-pixel */
"64 64 182 2 ",
"   c #060504",
".  c #0A0605",
"X  c #060805",
"o  c #0B0906",
"O  c #070709",
"+  c #090708",
"@  c #070909",
"#  c #0D0C0A",
"$  c #120C07",
"%  c #120E0A",
"&  c #1A0F0A",
"*  c #0F100B",
"=  c #131007",
"-  c #14120D",
";  c #1A140D",
":  c #1C180E",
">  c #151511",
",  c #1A1611",
"<  c #171813",
"1  c #1C1A14",
"2  c #1D1D1A",
"3  c #20170E",
"4  c #21190F",
"5  c #211611",
"6  c #231C14",
"7  c #291D15",
"8  c #221E1A",
"9  c #2A1F1B",
"0  c #1E2015",
"q  c #1E211D",
"w  c #252115",
"e  c #292216",
"r  c #24221C",
"t  c #2B241B",
"y  c #2D291D",
"u  c #362617",
"i  c #32251C",
"p  c #39271C",
"a  c #332A1D",
"s  c #3C2C1E",
"d  c #242522",
"f  c #292622",
"g  c #262825",
"h  c #2A2B25",
"j  c #272C28",
"k  c #2C2D29",
"l  c #332622",
"z  c #332C23",
"x  c #3A2D23",
"c  c #312F2A",
"v  c #2E312C",
"b  c #353125",
"n  c #3C3225",
"m  c #32332D",
"M  c #3B352A",
"N  c #3D392D",
"B  c #2F3430",
"V  c #343631",
"C  c #383733",
"Z  c #363A34",
"A  c #383A36",
"S  c #393C35",
"D  c #383D37",
"F  c #383D36",
"G  c #3A3C37",
"H  c #393E37",
"J  c #393B36",
"K  c #373B3A",
"L  c #373C38",
"P  c #373D39",
"I  c #373C38",
"U  c #393B38",
"Y  c #3B3B39",
"T  c #383D39",
"R  c #3B3D38",
"E  c #3A3C39",
"W  c #393E38",
"Q  c #3A3F39",
"!  c #3A3F38",
"~  c #3B3D3A",
"^  c #393E3A",
"/  c #393F3B",
"(  c #3A3F3B",
")  c #3C3D38",
"_  c #3C3E39",
"`  c #3D3E39",
"'  c #3D3F3A",
"]  c #3C3E3B",
"[  c #3E3F3A",
"{  c #3D3F3C",
"}  c #3A3E39",
"|  c #432D1B",
" . c #44311F",
".. c #4B351E",
"X. c #433123",
"o. c #463523",
"O. c #413124",
"+. c #403225",
"@. c #423225",
"#. c #433324",
"$. c #413326",
"%. c #433125",
"&. c #463426",
"*. c #433224",
"=. c #483224",
"-. c #493727",
";. c #463826",
":. c #493D27",
">. c #42362A",
",. c #433A2D",
"<. c #4E3B2C",
"1. c #4C3B2A",
"2. c #543E27",
"3. c #583F21",
"4. c #543C29",
"5. c #443D31",
"6. c #4B3E32",
"7. c #37413A",
"8. c #3B403A",
"9. c #3A413A",
"0. c #3B423B",
"q. c #3B4039",
"w. c #3C413B",
"e. c #3C413A",
"r. c #3E403B",
"t. c #3F403B",
"y. c #3B403C",
"u. c #3B413D",
"i. c #3C413D",
"p. c #3F413C",
"a. c #3E403D",
"s. c #3D423C",
"d. c #3C433C",
"f. c #3E433C",
"g. c #3E433D",
"h. c #3F413E",
"j. c #3D423E",
"k. c #3E433F",
"l. c #3F443E",
"z. c #3F463F",
"x. c #3D423C",
"c. c #4D422D",
"v. c #5B432D",
"b. c #454135",
"n. c #4C4334",
"m. c #40413C",
"M. c #40423D",
"N. c #41433D",
"B. c #41433E",
"V. c #42433E",
"C. c #40453F",
"Z. c #42443F",
"A. c #40473F",
"S. c #41443E",
"D. c #4F4539",
"F. c #4C4A3D",
"G. c #524434",
"H. c #594431",
"J. c #534739",
"K. c #554939",
"L. c #584B3B",
"P. c #52513F",
"I. c #6B4D33",
"U. c #3F4440",
"Y. c #3F4440",
"T. c #434540",
"R. c #414640",
"E. c #444641",
"W. c #454742",
"Q. c #444643",
"!. c #464742",
"~. c #454744",
"^. c #414641",
"/. c #444943",
"(. c #464843",
"). c #474944",
"_. c #424942",
"`. c #484944",
"'. c #484A45",
"]. c #4A4C47",
"[. c #4C4D47",
"{. c #514D41",
/* pixels */
"Y ] R R F 8.s.s.R F 8.s.s.Z.r.2 l f r 8 v y.8.r.s.s.s.8.R 8.8.8.R ] ] W.Z.W.T.s.r 8 r 8 8 8 ] Z.M.Z.T.l.s.r.T./.Z.r.s.r.R r.8.8.",
"r.R L R D R s.R 8.L R R r.r.D 2 x l l 8 v s.] r.8.s.s.R s.r.8.R R M.] T.T.].R D d 6 y 9 9 r Z y.W./.M.s.R R l.l.8.s.R 8.r.r.R D ",
"{ L L R R L L K R r.R s.l.] L 8 x p i 9 m l.R D y.s.8.D L 8.8.s.8.L R s.M.Y m V g 7 i i i r A V ] /.s.m V Y A L R s.R R L R r.s.",
"] A L L Y A L R L D r.r.Z.] Z 2 l t 6 t m l.R F y.r.r.R L R 8.Z.8.L A D L L m A 2 5 t 5 p 1 k A A ] D m v C C D r.r.s.R R R R s.",
"R Y Y A A A L R F R s.r.l.L V 2 x e ; t m s.R R R r.r.R R ] R s.8.R R ] A L V s.r 6 t ; x e V T.s.A A D L ] ] r.8.s.8.R R R R R ",
"] D A ] D A A D Y L r.s.s.L m 2 x %.i 9 m r.R L R l.U.L L D R R 8.L L R ] A Z D r 7 %.x s h W.[.W.r.] ] /.Z.] s.s.s.s.R R ] r.A ",
"M.s.R ] A A r.R Y L R s.~.M.D r z &.x t V y.R R V m m V A D s.8.8.R R R A Z V D 8 7 %.X.=.t L M.{ /.W.Z.W.T.r.R M.s.W.M.M.r.s.Z.",
"Z.r.D R V A s.s.D D ] r.T.W.] 8 z %.l f m s.8.8.h z i d R V ] Y R R R R R D ] M.r 7 %.%.X.6 d d k A W.`.Z./.M.] s.s.T.s.s.] r./.",
"~.T.r.R Y ] M.T.] r.T.T.W.`.M.8 z %.p l v 8.Y L h 7 7 h Z V Z C L R 8.r.] ] /./.r t <.%.o.e k k k d k M.Z.W.Z.] M.s.M.Z.r.s.s.W.",
"z y t z h d r r f t f r r r 8 < ; 1 ; ; r z b b t s a e b z h z b b b b b b b b r e i t 7 6 d t r r r f d h d f h h t t z z y t ",
"% - * - # # % # # - - % - % % o         - ; 1 1 - - - % , > - , , 1 1 , , - - - - $ o o o - > % # # # # @ # @ # # # # - - - # - ",
", 6 4 1 1 6 6 6 7 t 6 a a i t 4 ; $ - ; a a y i 6 6 6 4 t t t t t a y t t t t w t % & ; & ; 6 1 , , 1 1 , , , , , , 6 w w 1 1 , ",
"- - % - % - - , > , , , 1 , - #         ; 2 1 , 1 K.J.- > > > 1 1 1 1 1 1 < - > % . o o o # - # - - % - * # # # # # > > - - - # ",
"r f r 8 r 2 r z h h z z b b t % # # # o r c m b a n n t h h y m v m b N b f h h , % , , ; ; g r h d 2 d 2 1 d 8 8 d f d r q q 2 ",
"n M ,.,.,.$.>.<.>.>.,.n.,.,.z t , 3 7 7 z m m ,.x 6 6 t n.,.z m b b b n.>.z z z y 6 7 7 7 6 r r f r e r r z b z n M S b.b.b k h ",
"8 t r r 8 6 8 t t t w r t t 1 - % % ; ; > , > , ; , ; - e > - - 1 2 , 1 - > > , > % $ - ; % 1 > - - - - > 1 2 8 6 1 r e t r 1 q ",
"e t e e e t a t t y t t t t t 5 % # 3 4 1 1 1 2 ; e 9 - 8 2 , , , 2 1 1 , 1 2 1 6 ; ; 6 6 1 e 8 8 8 2 r 8 8 2 r e r r r r r r r ",
"1 1 1 2 1 1 1 1 1 1 < > 1 2 > % % % ; ; % - > > # G.6.# - % # # - # # # @ # # > # % - ; - % > > > > > > > < > > 1 1 1 1 1 1 < 1 ",
"V V V A L V Z V m m k h h v v , 6 t a t 1 d h h 1 , 6 < r r r 2 d f 8 2 2 1 2 k 1 6 z t t r m v v h g h j v m m V m m v v v k V ",
"L L R M.r.] r.] ] ] D A A A m 2 x 6 t s h m Z m r ; , r k h h d h h h h k r f A 2 t b , l t L L A V m m v v v V Z m m A ] ] A r.",
"D L L R M.l.r.] R ] Z.M.M.W.D 2 x t t a v R D A f z z r c k k v k k m h h c m ) 8 9 y 6 x e ] ] 8.8.R Z Z V v L R L V s.] ] r.M.",
"F V V R R ] 8.D D s.W.R s.T.] 2 l a a t v T.s.M.h t t f V V C V m v f t t 8 C ] r 6 a t z t s.s.8.s.s.R L V v F s.L V /.s.r.Z.M.",
"R V V v L L R D R ] /.Y / s.L 1 y y w 6 k y.L L V v h k B V V V v k r r t 1 v Z 2 6 z 6 t r L R y.s.y.V V L v v B B V U.s.U.T.s.",
",.,.,.,.N 5.5.5.5.5.n.n.5.,.5.z s  ...| M n.K.<.G.G.n.G.G.G.n.K.G.G.$.t t a n.b.b a ;.a a b ,.,.N N N M 5.D.n.N ,.G.n.5.n.L.c.6.",
"X.x &.1.X.X.%.X.%.-.&.-.1.1.&.n p | 3.| 1.v.I.4.4.2.&.1.4.1.1.H.H.v. .a z i &.b z u i u a X.&.X.a t y z n n M n >.n.c.:.*.:.;.:.",
"o o % % # % % % % % % % - % $ o o o   o - , : - - - #     o % % - % % % ;   o o o         o # o @ +       o   o o @ # - - - % # ",
"6 6 1 6 6 6 6 6 6 6 1 1 6 6 ; ; 4 ; 3 ; e w 2 1 w w e t e w 6 1 1 6 ; 5.{.1 - , , ; ; % % ; , 1 6 : 6 e e e 1 , , 6 t t w 2 0 1 ",
"t 6 w e 6 6 6 6 6 6 ; : 6 1 ; ; ; ; ; ; w w t 6 e 6 6 e e 6 6 1 6 e ; 5.P.1 - , - % ; # % - ; 1 1 - , 2 2 1 1 6 1 1 8 w e 2 1 r ",
"6 6 6 1 1 , , ; - > > , w 6 , ; % % - 3 2 < 2 e 6 2 2 1 6 1 , 1 1 8 - 6 e - - - - $ o $ % % - - < 1 # < > - , - , 8 r 2 r 1 2 2 ",
"6 w w 6 w 6 e t 6 6 w 6 6 6 6 6 ; 6 e a t , , w w 6 w 6 w w 2 , , 1 ; 1 8 - 1 1 6 $ % - - > - > 1 1 > , 1 , 1 1 1 e y y t 2 , 1 ",
"      X     o @ o o     X o o   o o o .   o @ o o @ # @ X o @   o X   # -     O o   o # o     @ o X               @   @ o @ @ @ ",
"6 6 w 6 6 6 e t e 4 1 1 : 1 1 ; - ; ; ; , 6 1 2 6 w 6 , 1 1 , ; , 1 % b F., , - % o % - = # > > > , - - > - - - > , 1 , , 1 1 1 ",
"1 1 6 6 6 1 8 6 w 1 1 , ; ; - - ; % ; ; , 1 : 1 , , , ; 6 1 , , ; > % 8 h - > - # % % - - % - - - - - - > > - - , , , , , 1 , , ",
"j d d d d j d q 2 2 q q 2 g r > t 7 7 6 < 2 d 2 q d r d r q 2 2 d d 1 - - > 2 < - , 6 8 8 - 1 2 > r d r d r 8 2 2 d q d g g j d ",
"R L R A V V k h m v m v h k h , n a a t d m k g m h h v v m V m m v h y z 1 g r > 6 e z m 2 h m k V L V V v k m m k h m V L ] ] ",
"F L L L A V m v m k k h k m h < n s a a g m g h m h k m m V A L m k k h y 8 h h % 6 i h ) r h m m m A L L V m m V m h k m V L 8.",
"R R R L L L L V m k h h k v j 1 b 8 5 x k V h f k k m v m L F A m v m v k h k m < 6 t ; M r k V m m Z L A A L V V Z V v m L Z F ",
"R R R F D F L L m k h h k v h , M l i a f k d d f m V m V L A D V m m V m m m V 1 6 t f M r k V m m m Z A A Z L L A A m m V V Z ",
"8.R R R F L y.R V v g h h v k 1 N ,.%.a t h d h k m m V V Z M.R Z V Z m k k v k 1 7 M M 5.r v V m m k m R L L L A Z A Z L A F R ",
"8.y./ R L L R r.L V v v h k k < 5.,.n a r h d h h v v h m Z D A Z V V V k v m m 2 t l >.V.r m m m v k m L L A Z Z V V m L D r.R ",
"R 8.R 8.s.R F 8.Z V v k k h d , N ,.n y r r f h h m m v h k k m m m m m m v k V 8 e x ,.) 1 k k m m v m V A V R 8.D Z L F D R 8.",
"s.R R s.8.R ^.l.R m k k k g f , ,.,.x l 6 r f h h m v h h h k v v V m V V m k A r a >.z M r h m m k v m m m V l./.T.8.D D R r.R ",
"r.r.8.R R 8.l.^.^.s.m L v f g - N >.a i 8 d f h k V V m k k m m v m v m m v m D r t $.z z r k A v v m C V V A 8.R L y.L L F 8.D ",
"R R 8.8.8.8.l.^.l.^.R ] m h g , N t 6 z 2 d h v m m v k h k v v m v k V m m Z D d 6 e , h r m V m v k V V m L F R s.y.V V A F F ",
"D D r.r.l.s.8.'.^.l.l.R k g k , N b y a 2 d k m v m h k h k k k m V h V V Z ] D r 6 t 6 a 8 v k m v h m V m V F L R L V V L D F ",
"R 8.R l.^.8.^./.T.D ] R m g d , S ,.n y r h m m m m m v v m m h v V k V V m A s.r 6 a n z 2 h v m m m m V m m 7.s.V F L A A L Z ",
"F R 8.T.^.l.T.^.s.D V V V m h , M N x y r h h m V V m m V V m k d h m V V V V ] r 6 z i h 8 k h k m A m v V L y.8.r.D L R V V Z ",
"Z F R s.T.'.^.l.V D R V V V m 1 M M b t d c h v V V m V D Z m m h h m m m A V A r 2 y a y 8 k m h m Z V Z s.^.L 7.l.8.D s.] Z L ",
"V Z r.s.s.Z.l.^.D Z C A A Z v 1 N N b y d m m V V V m m A A V m h k m m k v V R r e z y h 8 v m m m L V D r.s.T.D s.s.s.r.r.D V ",
"V V L L 8.s.s.s.l.8.A V Z V h , M N M z d m m V C m m h h m c k k h k h h v k Z r t l z z 2 k m V m V m V R L U.s.s.s.s.] ] ] V ",
"V m m L r.l.Z.s.s.F R A V A m 1 M S N z f m m m V k k h h m m c j h h h h h k m 2 e a b M r m m k V V m L D D R 8.R D D R R F L ",
"V V V L s.Z.l.s.l.R R s.Z A m 1 M b z z f m m m m k k f h m m k h h h h h h c m 2 t a w c r c V m V Z V R 8.8.D R r.R R D F 8.R ",
"V m V L R l.Z.l.y.F 8.s.R A V 1 N r 6 a h V m V V m m h h m m m h k k k h h v m 8 t e - z 2 c V m V Z Z ] R R R 8.s.s.8.L Z D D ",
"L v v L L D s.r.R 8.R Z 8.s.R 2 b z h e g V m V V V V k f h m m m m k k h h k v 1 e t e h 2 m L V A A Z V L L D s.s.s.R L F A A ",
"V v k m m V L L F L A V Y R R 2 h y t 6 h V m m m m m m h f h h v m h h j k h k 1 8 6 6 e 2 m V m A A V V v V F l.s.R R Z F F L ",
"v v v m v V Z F Z m m L V V m 1 t f e 6 d m k k m m v v f f f h v k k h h k m V 2 8 e 1 e 2 m V V m V m m k v m R r.F R V V V v ",
"V V v v v m V V Z v V V V V v 1 h t 6 6 g k h h v m m k h h g k m m V k k m m v 2 , w 6 6 2 V L R V m v v v v V V F V V V V V v ",
"m v v v m v v V B V Z v v v h < z t 6 1 d g j k k v v v k h v V V L C k v v m m q 1 t w 6 1 k B V V C v k g g k v v v k v v v V ",
"v V m h k v k k v v v v k v g < r t t , q g g h k k v k k h h m V V V j g h v v 1 2 w 8 1 < k k v v v v g d d k v k k j h v v v ",
"j V k k k g h k k k k g j k j > 2 1 1 , q g j g j k h d g g g g h v k d d k g k 1 1 6 - ; > d k k k k j g g g k g j g g g v k k ",
"g k k h k j k g k g k g k g d > 2 > - 1 2 g j h g g g d g d h g j v k d d d d k 2 > ; % , > d k k h k d d d d h k k h d g d k j ",
"g g d d g d d g g g g d d d r > 1 , 1 ; 1 g d d q d d d g d h h d k k d d d d j 2 > - - , - d d g k k d r q g d d g d d d d d j ",
"d g d q d d d g d g g d d d d - 6 1 1 , 2 d q q 2 d g g d q q d g h d d d 2 r g < > , - , > 2 r d d d d d q d d d j d d 2 q d d ",
"d q d d q r r d d q q k g d q - 1 1 6 8 2 d r r g d g d d 2 2 d d d g d d r q d > - 1 1 8 - 2 q d 2 q r q 2 r q d k d q q d d q "
};
