/* XPM */
static char *b7e63185e34b4be788a9c0bc7f9ea815nl5TfpoMk6d14S01[] = {
/* columns rows colors chars-per-pixel */
"64 64 125 2 ",
"   c None",
".  c #0E0D0E",
"X  c #100F0F",
"o  c #100F10",
"O  c #151415",
"+  c #181717",
"@  c #181817",
"#  c #171618",
"$  c #181719",
"%  c #1B1B1C",
"&  c #201F1F",
"*  c #20201F",
"=  c #1F1E20",
"-  c #201F21",
";  c #242324",
":  c #282727",
">  c #292827",
",  c #272628",
"<  c #282728",
"1  c #2C2B2B",
"2  c #302F2F",
"3  c #31302F",
"4  c #302F30",
"5  c #343332",
"6  c #353433",
"7  c #353434",
"8  c #363434",
"9  c #363535",
"0  c #373636",
"q  c #333232",
"w  c #383736",
"e  c #383737",
"r  c #383737",
"t  c #393836",
"y  c #393837",
"u  c #393837",
"i  c #393738",
"p  c #3A3838",
"a  c #3A3938",
"s  c #3B3938",
"d  c #3B3939",
"f  c #3B3A38",
"g  c #3B3A39",
"h  c #3C3A39",
"j  c #3C3B39",
"k  c #3C3A3A",
"l  c #3C3B3A",
"z  c #3D3B3A",
"x  c #3C3B3B",
"c  c #3E3C3B",
"v  c #3E3D3B",
"b  c #3F3D3C",
"n  c #3E3D3D",
"m  c #3F3E3C",
"M  c #3D3B3A",
"N  c #403E3D",
"B  c #403F3D",
"V  c #413F3D",
"C  c #413F3E",
"Z  c #413F3F",
"A  c #413F3F",
"S  c #41403E",
"D  c #41403F",
"F  c #42403E",
"G  c #42403F",
"H  c #43413F",
"J  c #43413E",
"K  c #434141",
"L  c #444240",
"P  c #454343",
"I  c #464441",
"U  c #454443",
"Y  c #474642",
"T  c #474545",
"R  c #454342",
"E  c #494744",
"W  c #484646",
"Q  c #494747",
"!  c #484645",
"~  c #4A4945",
"^  c #4B4A46",
"/  c #4B4947",
"(  c #4B4948",
")  c #4D4B48",
"_  c #4D4B49",
"`  c #4D4B4A",
"'  c #4F4D49",
"]  c #4F4D4B",
"[  c #4F4D4C",
"{  c #4D4B4A",
"}  c #504E4A",
"|  c #504E4B",
" . c #514E4C",
".. c #514F4D",
"X. c #514F4E",
"o. c #514E4C",
"O. c #52504D",
"+. c #52504E",
"@. c #52504F",
"#. c #545150",
"$. c #545250",
"%. c #555351",
"&. c #565352",
"*. c #575452",
"=. c #555352",
"-. c #585554",
";. c #585654",
":. c #595655",
">. c #5A5755",
",. c #595655",
"<. c #5B5857",
"1. c #5B5957",
"2. c #5C5957",
"3. c #5C5958",
"4. c #5E5B59",
"5. c #5F5C5B",
"6. c #5E5B5A",
"7. c #605E5C",
"8. c #625F5E",
"9. c #625F5E",
"0. c #63605E",
"q. c #63605F",
"w. c #646160",
"e. c #646161",
"r. c #656261",
/* pixels */
"% O $ $ $ % % % % = - ; ; ; ; ; ; ; ; ; ; ; ; ; ; ; , , , , ; ; ; ; ; ; ; ; ; ; ; ; ; - - = % % % % % $ $ $ $ $ # O O O O O O $ ",
"$ $ $ $ $ $ % % % % % % = - - - ; ; ; ; ; ; ; ; ; ; ; ; ; ; ; ; ; ; ; ; ; ; ; % % % % % % % $ $ $ $ $ $ O O O O O O O O O O O $ ",
"$ $ O                     %                       ;                       ; :                       -                     O % % ",
"$ $ O                     ;                       1                       < 1                       ;                     O % % ",
"$ % O                     ;                       1                       < q                       ;                     O % % ",
"% % O                     ;                       4                       1 q                       <                     O - = ",
"% % O                     <                       q                       1 7                       <                     O ; - ",
"% = O                     <                       7                       2 i                       1                     O ; ; ",
"= = O % % % % - ; ; ; ; , ; ; ; ; ; ; : : > > > 1 2 1 < < < < < < < > > : < 1 : ; ; ; ; ; ; & % % % ; ; $ $ $ $ $ O O O O O ; ; ",
"= - $ % ; ; ; ; ; ; < < 1 1 1 1 1 1 2 2 q q q q 6 7 5 5 5 5 5 5 q q q q 3 q q 1 1 1 < < < : ; ; ; ; ; ; - & % % % % $ $ $ $ ; ; ",
"- ; #                     1                       x                       7 Z                       2                     $ ; ; ",
"; ; #                     1                       n                       y K                       q                     $ ; ; ",
"; ; O                     4                       Z                       d L                       q                     $ , ; ",
"; ; #                     q                       K                       x Q                       5                     $ < < ",
"; ; #                     q                       U                       n (                       7                     $ < < ",
"; ; +                     5                       T                       Z _                       7                     $ < < ",
"; ; $                     7                       Q                       F [                       w                     $ < < ",
"; ; +                     7                       (                       F ..                      y                     $ < < ",
"; ; +                     7                       _                       L $.                      d                     % < 1 ",
"; ; @                     7                       ]                       U $.                      d                     % < 1 ",
"; ; @                     w                       ..                      U ;.                      x                     % 1 1 ",
"; ; $                     y                       +.                      Q ;.                      x                     % 1 1 ",
"< < $                     d                       $.                      / <.                      M                     % 1 1 ",
"< < $                     d                       $.                      / 3.                      M                     % 1 1 ",
"< ; $                     d                       *.                      _ 5.                      n                     % 1 1 ",
"< , $                     x                       ;.                      ] 7.                      Z                     % 1 1 ",
"< < $                     x                       ;.                      | 7.                      Z                     % 1 1 ",
", , $                     x                       ;.                      | q.                      Z                     % 1 1 ",
", < $                     x                       <.                      +.e.                      F                     % 1 1 ",
", < $                     x                       2.                      +.e.                      F                     % 1 1 ",
", < $                     x                       2.                      +.e.                      F                     % 1 1 ",
", ; @                     x                       3.                      +.e.                      F                     % 1 1 ",
", ; O                     x                       <.                      ..e.                      Z                     % 1 1 ",
"; ; O                     d                       <.                      ..e.                      Z                     % 1 1 ",
"; ; O                     d                       ;.                      ..q.                      Z                     % 1 1 ",
"; ; O                     d                       ;.                      | 7.                      n                     $ 1 1 ",
"; ; O                     y                       *.                      ] 7.                      M                     $ 1 < ",
"; ; +                     w                       $.                      _ 5.                      M                     $ < < ",
"; ; O                     7                       #.                      / 3.                      x                     $ < < ",
"; ; O                     7                       ..                      Q ;.                      y                     $ < < ",
"; ; O                     5                       ]                       U *.                      w                     $ : < ",
"; ; O                     q                       _                       H $.                      7                     @ ; ; ",
"; ; O                     q                       /                       F +.                      6                     O ; ; ",
"; - O                     2                       Q                       M [                       5                     O ; ; ",
"- - O                     1                       T                       M _                       q                     O ; ; ",
"= = O                     1                       L                       x (                       q                     O ; ; ",
"= % O                     1                       Z                       y Q                       2                     O ; ; ",
"% % O                     1                       n                       7 L                       1                     O ; ; ",
"% % O                     <                       x                       6 K                       1                     O ; ; ",
"% % O                     <                       d                       q Z                       1                     O ; ; ",
"% % O                     :                       w                       3 x                       <                     O - = ",
"% % O                     ;                       7                       1 d                       <                     O % = ",
"$ $ O                     ;                       5                       1 w                       ;                     O % % ",
"$ $ o                     ;                       q                       < 7                       ;                     O % % ",
"$ $ X                     ;                       2                       < 5                       ;                     O % % ",
"$ $ .                     ;                       1                       : q                       ;                     O % % ",
"# # .                     -                       <                       ; 1                       ;                     O $ $ ",
"# O .                     %                       <                       ; 1                       ;                     O $ $ ",
"O O .                     %                       :                       ; 1                       %                     o $ $ ",
"O O .                     %                       ;                       ; <                       %                     o $ $ ",
"O O .                     %                       ;                       * <                       %                     o O # ",
"O O .                     $                       -                       $ ;                       $                     . O O ",
"O O $ % % % % = - ; ; ; ; ; ; ; ; ; ; ; : ; ; ; : ; : < < < < < : : ; ; ; ; ; ; ; ; ; ; ; - % % % % % % $ $ $ $ $ O O O O O O O ",
"% $ % % % = - ; ; ; ; ; ; , < < < < < 1 1 1 1 1 1 1 1 1 1 1 1 1 1 1 1 < < < < < ; ; ; ; ; ; ; ; ; - = % % % % % $ $ $ $ # O O % "
};
