/* XPM */
static char *wall3[] = {
/* columns rows colors chars-per-pixel */
"64 64 44 1 ",
"  c #1F1913",
". c #231C16",
"X c #261E18",
"o c #281F19",
"O c #27201A",
"+ c #2C221C",
"@ c #31251F",
"# c #2F2620",
"$ c #2F2822",
"% c #332720",
"& c #352923",
"* c #3B2C26",
"= c #372D28",
"- c #3E2E28",
"; c #3D312B",
": c #3D3530",
"> c #402F29",
", c #45332D",
"< c #49352E",
"1 c #443730",
"2 c #4C3730",
"3 c #463932",
"4 c #4E3932",
"5 c #4E3F38",
"6 c #533C34",
"7 c #583F37",
"8 c #543F38",
"9 c #4E4039",
"0 c #534037",
"q c #594037",
"w c #55423A",
"e c #5A433B",
"r c #5B483F",
"t c #61473F",
"y c #61483F",
"u c #574740",
"i c #5E4941",
"p c #624C44",
"a c #665047",
"s c #655249",
"d c #6A544B",
"f c #6E584F",
"g c #6F5B52",
"h c #705A51",
/* pixels */
"fhhhhhasgw3fsaaaaaaaddd6w8wiptt6;spiippire3iwwew9iei59iwuww5w5w4",
"eeetetw6pp9p7weq777777e668ww777<-w667676704545<63444,,6444424164",
"677762<>6w,q6777767622<<<466766<O-66666662,<44464,,2&%2644666444",
"6666<,,<,3=6777666662<,<<<46626<@;-<46262,,,,<<<24;,%=6224244424",
"66222<,<,,%666266262<,,,,,>2444<%2>>>,,>,>,,,,,,,,,,=%64<<644222",
"6622<<<,,-%626624626<,,<,*,>><6<%,,<,-,>-,<,<,,<,,,-+%222,244622",
"66<22<<,<@@626622442,,,<*,,,,>><%,,,,>>>><,<,,,,,<,2%=262<<44422",
"42<22<<,<-@2662<<,<,,<**>,,,,<<@+,,,,>&>,,,,,,,,,,,<&+,,<,<44422",
"<<<,,,,,,>+2<<,,,,,<-->>-<,,,,<*#1,,,<@,<,,,,,,,,,,<&O><,>,,,<<,",
"<<,,<,,,,>+,,,,<,,,@>,<<>><,,,,>+,,,,<*><,<,,,,,<,<2*@2,<<,,<,<,",
"*>,>,>,>,*o*>>,>>,@=,>>>*&>>,>,*o*>>>,=->>>>,,,,<<,<*@2<<<<<6<,,",
"o@@@@@@@@+X@@+@@@++@+++o@o+@+@@+.+@#@@@O@o++@@@&-@*-@@@=>>>@*>*@",
"eeeq6qqqw6ww6654*3w33+#084206656ww654,,w63+=4=1000090w09,+=0676,",
"tttetttetew7wwwe6e006=1e780ee7eweeewe50eqw-4tq0eqq0qqqwy;;aet6qq",
"qqqet7tq7676777w6,764&=66668676766677,6764*<qq4qq4q44qq<=e7676qq",
"7qqq77676767666wq2,2<@%666w676676666<,666<@<qeqqqqqq0qq>0q6q6qq6",
"47767746666662666662>X@q676642424222>222,*@14q0q44q4666@26444666",
"4,22,,,,<22622662662< -66666<<<,,<<>>2<2@-@>44,2<<222<<>*,<<<<22",
",,2224422<<<>2626222,O;466<<<><<,,,,,<,@>>.>44,,,,<,,,,<,>*<><<2",
"46626464462<@262266<,O=0<6<<<<<>,,,<>->>--O-<<>,<<,,,<,,<<*,<,<<",
"<<22<424222<*,42442,2@@4<<<,,,,,,,,,-,<,-,O&<,-*,,,,,,,,,,,>><><",
",<,,,<,<22<<,@<<<,,,,@@2,,<,<,<,2,<>,<,>,,O&,<*-><<<,,,,<,,<><,<",
">>>>>>>>>@@->@-->>---+O->>>>->;>>>>>>>*@>-O@*>@***>>>>>>>>>>>*>>",
"@+@+@@+++++O++O@@@@@@..+@@+@+@@++O++++@@@@  @@@O++@++o++@++@.o@+",
">*&&&+&&@O.@**&&@&+@&&;@@;==*&&+.+==@&=&@--&@@&&=@++ O&@o&==-=&@",
"terrt60r9*3ptqrwee3weer39rrrqqw4&0yerrayttrr9rter090@9pe<ettrer0",
"67q766,74-1926666644624,6646666<@1q44400666q020qq246@;0q6,664776",
"76776647,@-06666666166626666666<@,0<4qq4q666q0422004@=466<467666",
"77q647662@>92004446,26224666666<@*<<4646666664q2,444@*4462,62446",
"676726472*=22242224<,4<22226662,+*22266462224446<-26@&2426>>4444",
"462<,244<@@2,22222,,><@,2224<22>O146<24226242444<4,2@@<266<,,622",
"24<<,<<<,+@1<2<22,,2,,-2<<<2<<2>O-<<2>,<<<2<<<24<42<@@<222,*>22<",
"662,,,,,>o+,,<<<<><<<<<><<<<<<<*O=,,,>,,,,,<,,<2,242+&,,3,,-,,-,",
"22<,,,,,>+O:,,,<>,<,,,<>>,<<<<<*O-,,,,,,,,,,,,,2,,2<+&,,>=,<,,-,",
",,,,,,,,>o$,,,,,>,,,,,<>><,,,,,&O=2,,,,,,,,,,,,,,>,,++---,,,-,,=",
",,,<,<,,-+o>,,,,>><,<,><-><,,<,*O@>2<,,<,,,,2,,,,>,,O.&;,,,<,><,",
"********%. +=&***o%*--*-*o*****%OO&===*@=****&****+*OO==**-=*@**",
"@X@+o@%%$$$&=%o+$@++o...++++%$@%@@@@@@@@+O.O@@++@@+++@@@+@++@++o",
"91,<3u988uuuww22uuu3:.$39eu8wwe8wrw009000;@902-0q9wrrwwww0q6965-",
"we858eww878777e68886,$3u8888e877q00qqqq090,rwqq4eqwwwqwewwwwwwq2",
"86862767886767766666<@-<686666660q0666666<>667766676776777676766",
"68666676867676676666<+&326666266444446622,@666666666666776777674",
"666626666666666666<,,X=<62266,2<22422<<22,@q6466662622622646664,",
"262626222626262662622%+,2266,>,<2222,<<,<>@4644462626222<>,,<>>>",
"22222622622662626262<++*>22<>>,<<<,,,,,,<*+204442222<<<<<<,,@>,<",
",,,>,2<<<<<2<<22<222,o$:**><,<,,,,,,,,,,,*+244446<<<,<<<,,<>><<<",
",,,>,<,,,,<,,,<<,,,,>X$,<,><,,,,,,,,,,,,,*O,2422<<<,<,,,,,<>,,,,",
",,,>><,,,,,,,,,,,,,,,X%:>,,,,,,,,,,<,<,,<*O>,<,<,,,,,,,,,,,>,<,,",
">*>>*><<<,,<,,<,,,,,>X$->>><,,,,,<<,<<,,<*X-<<,<,,,,,,<<,,>--,,,",
"*%*>=&*******-**---**X.$**&>*--**********% $****>**>-&%%&&=-&&*>",
"ooXXooXXXooX.XoooooooXXo...oXoXXoXXoXXXXXXXOXXXXXo..X.  oXOXooXX",
"9966853-341$.=551546499:355333<>o+11:=-<155511,<,,<<13&+4333331*",
"uwqqqqqqwq6,+uu87777q7q7ue787862=1w676155888767700686w,;u6666663",
"68768866264<+4667666777<88768662%=44222,4422262244<626>=44424444",
"87776qq<466<+3667777767676666664=&446242>6446226462246>%44624444",
"66666642864<+<642626262266666422%&444626<>442262442626>%44264242",
"26666626<66,o<646262622626266662%%4444446<,22<<<222222*@444422,,",
"26222622<44>o<4426262222<2222222%$24444622<,2<<,,,,<,<*+44222,,,",
"<<2,,,,<<4<,.,442<,<<<<<<<<222<<%$,2464<<<<,>>,,,,,,,<*+22222,,,",
",,,,,,>>,,,> %,<<,,<<<<,,,<<2<<<@+1,<<<<,,,<<,>,,,<,,<*+1,,,,,,,",
",,,,,,*>,,,>X:<<,,,,,,<>,,<,,<,<@@,,,<,,,,,,,,,,,,*,,<*o,,,,,,,,",
",,,,,>,,,,,> -,,,,,,,,,>,,,,,,,,@o>,,,,,,,,,,,,,,,>X><&X>,,,,,,,",
"%**&*%&**&*% o=&*%***%**%***&&&&o.@&&&*%*&&**%*&&&*+.%o.%**&&**&",
"o+o+oooooooo X+oooooooooooXXoo+o..oo++ooooooooooo+o+..X.Xooooooo"
};
