/* XPM */
static char *wall2[] = {
/* columns rows colors chars-per-pixel */
"64 64 67 1 ",
"  c #1F2526",
". c #252C2D",
"X c #272F32",
"o c #282F31",
"O c #2B3335",
"+ c #2E3936",
"@ c #2F3739",
"# c #2F3839",
"$ c #303837",
"% c #303739",
"& c #333B3C",
"* c #383F3E",
"= c #36403E",
"- c #39423F",
"; c #363F41",
": c #383F41",
"> c #374041",
", c #3B4444",
"< c #3E4846",
"1 c #3E4748",
"2 c #3F4949",
"3 c #404947",
"4 c #434C4C",
"5 c #46504E",
"6 c #49524F",
"7 c #464F50",
"8 c #475150",
"9 c #4A5553",
"0 c #4D5956",
"q c #4F5A58",
"w c #505A56",
"e c #525D5B",
"r c #55615E",
"t c #58645E",
"y c #576460",
"u c #5A6562",
"i c #576862",
"p c #5C6A65",
"a c #5F6D69",
"s c #5F706A",
"d c #606B67",
"f c #616E6A",
"g c #64726D",
"h c #69756F",
"j c #667671",
"k c #697672",
"l c #667872",
"z c #6B7A75",
"x c #6E7E78",
"c c #707D77",
"v c #707E79",
"b c #6E817B",
"n c #72837D",
"m c #78867F",
"M c #76887F",
"N c #758680",
"B c #788781",
"V c #768A83",
"C c #7A8B85",
"Z c #7B8F88",
"A c #7C9087",
"S c #7C9189",
"D c #818E87",
"F c #83928B",
"G c #879791",
"H c #889790",
"J c #8A9A92",
/* pixels */
"34$,8eupduuyq1;o;:%:::::::;OX;.:7147rfuudfyq7;o%7fzduuuruuyrq7;%",
"hxzzvBnvvcvvvke,:4379qeq997:::XuBBnBnvcvvvccvDdBFBvDBBnBDDDvcCky",
"afhkkxzkkkzxcvn4qgfudddueyeeq::zkfgkkgfkggkkhBvczjffffdffkkgffBk",
"kzzxxxvvzzxkkkk9gkkkfffduuyqq9:zkfgkkkfdffgkfkgfkfdfudddfggkdfBk",
"kxxxxxvnzxzzkkd7kjzxxkzkgfuq7e:fvfgkzkgfdfkgfkkfgfdffddgggfkdfnz",
"jkzxzxxvxxzzkkp4vkzcxxxkkdyy7q::kkgkkggffjkfhkfydgjjgfdkgffkadnv",
"hjxxxzxzxzxzzge:gvkxxxchfuuyqq1;epgffpuupdfffzjpgkkkkggfpdmkddzc",
"jjzgagjkkkkhggro:dncxkhpuuyq9::;4kvfpppfddhfkvkkdupjkguqeuyfggmn",
"0466466999qe00>.O&ergguurye3:OXO;9kkdyuupye9q27jkdhkde99q91o;rq:",
"e44++XO&,9q2&%&-34,O&ehpppfpaa977:::,%%&1:,:;@;2fkgegzcnvBc,9d97",
"kkf++4rfhjgahnFMkzv%4nkjkjjpuafguufu*&ujkvmBzzzzcvvfCBxvcngqGCCB",
"yeu4cngsaagsfghtyrk&ykfkkkxkjjjjgddk69Zjkkkkzzzjhggkncxzcxdpxkkk",
"pyf5bipgsjghllgpfik9qkgkjjkzzzzjkgaj4ejakkkklkjjhgkgvvxjkjkkzkkk",
"agq&lplllgjgsspsgazfqkjkzzzkkjjjgkfj79zkkkkzzkkkhkkexckjfjkkzkjj",
"jae9gslljghgppsgaukffkgkzxzzzjjgkkfz8qkkjkkkzkjkkkkfkpzjfjjkkfaf",
"jgj9sljjjgggutpppykyanajkkkjkjjjkgak1ujjkkkzjjkkkkkhfuxkgjjjjffa",
"ljz,uzgaspupppfafamr*furtuffgjjzzfyz:7fkjcffkkggkkhh9ynzgfgfgkkd",
"s0q+4q990000eeeq978:.o,&##<9ee82::::::49q94:77;47777;1zgdurpuuru",
"##2raggpt9,9,7quyyuffhnznmpO@44,41:77731:14771O4ufczzadvkzr974ee",
"jbnkjjjzbbnJpzVzzCCbbbzhzzyO197111147777444777dBvvzcnBNnBBzkrvnc",
"lsirypapaaaNerzglllbzbbblzqO48441177q077474447vkkkzkvvgkkxzg0zfk",
"siyypsggggpz52nzbbbbnnbbxgq08yq979qrree947777rkkzzzvnkkzznxgejpf",
"spiasssasspb0#xzbbnNNMblxpfkrpr0qreqqyu449770qvxkzkzkkzzzvxaqsia",
"pppaaaaagsabe#bbbNNVVblblkgjpaueerueep74ee9qq9jvkzzkzzzkkzxp8ayp",
"ipsaasagggsb9<nnbNVNnzjNbblsyhuueue99e7quyeeyekvzzzzzzzzkxjq4sru",
"piiiippggpsn08xkllllkabSCbbp0zgfperyydkqisiei0nNzzzjzzhljgpy4kpj",
"gtrrrupfgftp0re888qe99asrra2,truuq94119720097;pZayr96550e87,X-<,",
"40pstt00rtkZFNjjgabVxnxzt+,0mmkbNxkkccvxj5X+:9qe4495200&X%,qpr50",
"gklzzbhwnFGVxxxxjsbljzbjArhMguiyppfafggkbM-=MnbbnbxzbbMt3bbbbbhl",
"ssypsgcnHnzgggzzjasslssgMztpuutteyyuuppaflt6nlgsssaittz6rbsblbhb",
"pptipszmMkjgfgaaaasglspgvvdkspripyyiyyppgb55xggsppapppb-tzlbbbbn",
"pyippslmnhggjgpriaaslsgjkndvauippuiiuipgsb5<zsllgspusgl-hblbbnbn",
"pryapdkDjjjjlgapipsljglzhmdvfppfappipppsfk8%xgsjjsspfakazkzxnNbl",
"rpyppfcvjkzzksgfsjlsjgjzgmekffpdaapppiipfje&zpsjsljspuzizvzxbNNb",
"9uppffvDNNxxxxxkljljjjzzkmukjaddhhlljggsfka hjjptxzbjjNfydkznbbN",
"prggzkfkfgfapyffpjsspppiey9O@,1:,,590tppdu7;5t9pzprpgkk94Cvxblxx",
"069397349eryjr9qrr9-qe09ew69ddggd9O4phptafjjaaqedur7&%OOO281277,",
"%O-rfkvvNBBCBBvxkMb3Bfgfdzkzzgfzvj,zVxxkzxxxbNVbcnzp8&;1,;;;;,,&",
"4OtFkfpfppdfaapuppxpdeeyyugdfuuufd4jxkhgjzzzxxNxxzxxq;,,:::::2,;",
"1%eMueeq9qeeyqer9wgreyppuurtuuuurk8gbkzkNzzzxzlbbnbn9&:;2172777:",
"<<fvue980qeqq9qq99duprpyyyeeuuuueh0fzzzNNbbNNblbvNBv7:::77777887",
"44fvperteeeq99q9e0pudrdyeyyyyuuytge9xunBNNNbbNNbxnvk7:4777777787",
"07dvpyyyeq99eeyurehdfypyytyeyueergp4uuCCNNNNNbNNvbvh446qeyreqqe0",
"q9evpyeee9q0upfapkBrzcffgfpjkfeeufd3qgnNVbVVNNbNNNDf1469e0qeuuyq",
"t5<Dzapauyfjfjzkfuf3dhdq8eeq4ujfdu9:7gBzllzxzzzzxnxq:w9eeuuudduy",
"4+ouapueqyeye447<7533%&:,<8r4@:1731;;33:179771::44:7::79eere779e",
"509rapueq*OoO&9knCVZZBBBZVCCn;,ckzBcgfuujkzxxxf;;:rye77eeqee71nn",
"khkkjhgzmBk4kCFFZMnMCZZDVBBxCyrFzkzxvnvNbxxzjzGe9cu99799997779ng",
"gpgpsssgbbBfBFCNbxlbbnbNNNNNBzyCbbNbbbbbbNNNbznper9epreeere878Na",
"sssgsjlbbbnhzDCnbllxxbbbbbbbNveNbbbNNNNNbbNbzjcpqeeyurreeyre77Na",
"gasaslhzxnnzlCbbxxzzbbNNbNbbNBeNlbbbbNNbbNNNzzxpeuyuuureerep20Nf",
"ggsppgzzxbccibNNbxxxbNNNNnbbnCenbbNNNbbxbbbNNbnryreuuurrappe8qBg",
"gssplzzcxxvMeNVVCNMMNBNnNbNbNx4xVxNVbbxbbbbNCnbeqyuuuuttyyeq7qVj",
"zgghzzbnnnxeOaaakhzxNNNnnVBCC8OrkxbNNNbNbbbbnnba:469wer0eeep9qFl",
"gfd6=-45<3-<8,><634ee49ereq97&;;qeqypalbMVCbxku9&&&.*%$$&%%<,%ef",
"bbnM.0ftfkccxvnncnhcb.3epipagzbxzxfq,#&><58,#&>4e9;&%<90%O:&9qeq",
"ggfN3vnbczkkjgkkgglhbenZSSSSSVZVVNVSx#8ge,&*4ggzzjjghnnVg4nznnnn",
"pppnwfkkzzzxxzzkjjzjzgNNVVSVSSVVVBVVViZxhhhhhhspsahjgkhknpkurrtp",
"ypyntfnzzzzcxzxkjjzzhrMNVSZSZZVZVVZZVnkuttufaaaagsgpughlv*dftrrr",
"riukgdxkkzzzxxxzjgzjztVVVVVVZVZZZVVZBvkypuuyypsgassppslln*ejitrt",
"riijhuvkzjzjkxxxlgljxrNVSVVSVSZZZVVBMmvppuyttppppsapspgslutgusrr",
"iyyjvfckjzjjjkkjjsjgxrsZVVVZSSZZSVVBzkMgpppuyppppppipuiusktgppur",
"psgzVgxzzjjgpdppsglsx9rVVSVVNNNNVVNx09dffdpfaspppupgdfgggzrbgggs",
"55r95&902,,&=<%:2829a22riisiyy0qeye<-$6482,<&*>-,&=,35504<&,<r05"
};
