/* XPM */
static char *wall1[] = {
/* columns rows colors chars-per-pixel */
"64 64 37 1 ",
"  c #121619",
". c #161A1C",
"X c #181D1F",
"o c #1A1E21",
"O c #1D2225",
"+ c #1F2528",
"@ c #1F282B",
"# c #202527",
"$ c #212629",
"% c #242A2D",
"& c #262D31",
"* c #282F32",
"= c #273133",
"- c #2B3235",
"; c #2E3539",
": c #2F383B",
"> c #30373B",
", c #323A3D",
"< c #353D41",
"1 c #383F44",
"2 c #374144",
"3 c #394346",
"4 c #3C4649",
"5 c #3C494B",
"6 c #40474D",
"7 c #414A4E",
"8 c #444D52",
"9 c #465155",
"0 c #495257",
"q c #4C555A",
"w c #4F595D",
"e c #505A5F",
"r c #525C61",
"t c #566066",
"y c #5A6469",
"u c #5E686E",
"i c #606B71",
/* pixels */
"<<<336,333,,1,,1<><<<>11#**-==::========-*>,6<113344435;53343322",
"<<1147331361,611<<>>><1-#*--=:=========--*%;81111133445,43334321",
"<<1>;74336111111<<<<>>1>$---========*=****#*0<<<<<23434>31333211",
",<3>=73333111,,6<<11>>1-O-**========******%*q<>><<<2111*<111321<",
"111>%34416111111<1<*<11=$1$&&&==&=&=&&=**-%&52:::<<<<<<*,1<11111",
"111>#643661,11,><-&><11-O1+%%@@@@@&&&&&=*;*#33::::>><>1$*,,,,3,1",
"1176#673,1,>;**$&--<<<9<o6>%&%%@%@%%%%&;;;*O:;=-;:>:><4#%1,,,,11",
">;;1#>%##OOXXoo#@ooo%*-<o*%$+oOO+@&$$@@$%+oo+oO++%&%#$$o$*%%%#&*",
"<:,:>;%**;,,,>>.=<-<<-=;;;;;;**<:=o&===%$%*%====%$$$%+OOoOooo>>1",
"9099wwwq0000ete>0y59555554888000wrO2ueq99qqeeeeerrw85,:=**-;1r08",
"3533333,>>>>>qe6q5<21444444444447q$<q5555552222:<1<22,:=%%*>66<3",
"3555532,,,,,,,8655<244544558558880=,825555552222<<<<2222;*%*;334",
"3555411,,,>,116624<2<3445565458888*38455525522222<<<<2232,>*&,34",
"5552,1,,,,,<,,71<<<22<4445554808,-%334545225522222<<2222323;%>34",
"25521,,,,,,,1,7><<=<44146546580=%2=;3,552255222222<22222332-%,33",
"522:,,,>,,,<,1,*=<=-;<<14545504@,4=*6635522252523<222222222;$,23",
"222,,,,2;***<<%+<1<<;<<<244550&;16-%6855443344433114222<233,$441",
"@=:,225:%$$+$O$o<1<*$%Oo@@@=<<+<11o%-%;-;,;>2,:;-;;;<<<<;&$+O=*$",
"%&==#o..ooO$OO$$;**%Oo%%===;=-<<;&$*-*%%@.O+OooXo++oOO+.O%$@%%%%",
"59qete9q0<8rq8168866<<req9q5595wrwrrrrr0r>=72333<31+:<:.<i036777",
">,,15777q6qw1<-1<111<>q022:<<<<1<;>1111192*2;**=&-%=3<2=7w3322,>",
",,,,,,,>1<<-**1<1111>*862222<<2<-;::>:<<4,;;%&%&=&;2<=:=7044341,",
">>,,,6,,1<+181<<1111>*662:<<<<<&-;;;;,,<4,>;&&&*-%1<:=::584434,,",
">>,,,,,,1*<r01<11111**61<<:;====--;;;>,1,>-;&&&-=%<;=::=,34346,>",
">><<<<>11%>06<<1414<*%1<<<-=---&;;;;;<:<,>*-&&%-@-::;;>*>24441,>",
">>>,,<<>1%*61<<1141<*%<<*=<===&<;::-;:<<>%%-&%*%=2--;>*%%,233,,>",
",>,,,<,,6$$6<>11415<*$-<<%%=*=;;;;:<<<<<>$$-&&*%::-->;$#$<311,<,",
",<,,,,118%#86116595&*$<1=<=<;;<11134544<-%$,-*%*:-;,3%##%44<,>>>",
"**%%***%>%O6<$$$&=&+=@<*%=*%%*=&&&&&&*-<%O Ooo.O$$@-$XO.X#X###O$",
">>>%XX%**%*>**%%%&&==**%+ooo&$@&---;-;--,,>,2,,*+#%%*;;;;;>#O%**",
"600w>%8>>>1<111644411114<@ryreeewwqq00qwwrrrewqr78r00080qqq1%167",
">,>86>6%***>*>>*--<-**%-<&r55411<<11111<,,,,,,20:8w2,,,,,111;>>,",
"2>>222:=:=::::----:-%%%%%;q3331,<<1<1<:<<<,,<<28-88>11,,,,111,>,",
",2>2,2:-=:=:=-----%%&%%%$=5,<,11<<;-:<;<<<,,,,,5-88,,,>,,1><<<,,",
",,,,:::-::--======%=%%%%%O*;>>>,<<;<<;:<::::,::5-14>,,,1<<,,<,1,",
"1,,2-*:------===%=&&%&%%$#;%%%$&<:::;;<<:::::::,*-2,>,,,<>,,>,1,",
"111,:#:-:===-==%==%%%&%%$O47366%*,,,;<::::::>;-;#*,,,,,,>1<><<<1",
"1111:#=-:::=====%%@=%%%%*o<46668>*,,:;;;;;::;-;;##>>>>,1<>>><<<1",
"3437:X@=-::=---*=%%%%%%%=X;1,3337-%,,,>>,;;;-;;,##>,,,,,<<,11111",
"*->,=X%==@@@#O#%$#%%$$%*%.#***;;--o%-=*&&%$$+$+=*#--*********>>*",
"%%############o..O$$**&#oo$$%*%%%%%$#X. XooOOO+@###o%%=%##%%*%**",
"0qwerttttrtrwq9.8uteee07867686100qeer3#2,----::255##yew900qq0q00",
"133375775755559%9y32113666808-707744ew;32=--=%=%%3%-e22211111611",
"111122332225559298-231366588;1e347348w;<,*--===%#*=:q:5516666611",
"222221222225558,07:>23168683-w807755292::--=====###:5,2222353322",
"22222,2,<223357,84-:,2236681-e85775255::-=-===%%%##*2:,255223232",
"332222,1<<22357;74-;,,,21664*q85455222=-======%%###*,:--55222222",
"3323,-3,<<22336*33>:,,,21454&154552222+%=%%%$%@@%##%::&%-5553322",
"3222,33,1,13323*<<<-;<<<<111%<14452<::+&=&%%&%$$%#%#;-=&#%%23322",
"222,2222333131-#-61<<<<<111<*<41<<<><<O<;&&@@%%%@%%O-:===%#%2322",
":::::,,,,2,13*##&6<*%*-****-*<;*%&&&=<o21&&&&@$###%O%===%%%#=2::",
"########O.O##OX.++XXoooOooooooOoOOOoOOoOoooooO#X.OX.Oo#####%#%%@",
"3,235qq3.59712-%&&<<<<6111186%1ewr095252<445643X8097577777777755",
"232559ur-ty773741<<<1886806qr<6y983355555555777-r9,5555553,,::,2",
"22235299,w933111<<<<<1<<1<<<q*6w;<232555555422,-w,:,352333,,::,2",
"22235399-w92512><<<<<<<<1<<<0<8e>1222525555543,#9,,,2222222,,::2",
",2215377-q8532:,>><<-;<<<<1<8<6w;<<13454554422>%4,,::,,12,,1,,:,",
",,>23573*7722:,,<11-*;-<<<111-11;<<1444444432,*%<::;:>>>,,1,,>,<",
"1,>23531#5522:,,<>%>;;<;<<116><<*<<<24444461,,-#=-:;-:;>,:,::>,<",
"1,233573#77,::2,$$*-;;;<<<414<<<-<<1244231,,<,-o*===---;;;::>>,,",
",1136346X37-::2#%-***<<<<11<<<@<<<<<24441<<<<<*#*1;;;-;-;>>,,>;>",
"###X#XX#X*%##%#X$$%%%%$+oooooo ooo+@%@%%**%%##o.o%%+OOO%%$%&%$$#",
",11#.11111132222111<<<<;$<*-***%**--=&&-*-$O,11111<4611#%1311,,>",
"1171,y867753333566666666;1;;-<-<*<-=<--<>,><r8777888889%qe777763"
};
